G04*
G04 #@! TF.GenerationSoftware,Altium Limited,Altium Designer,21.3.2 (30)*
G04*
G04 Layer_Color=8388736*
%FSLAX24Y24*%
%MOIN*%
G70*
G04*
G04 #@! TF.SameCoordinates,BD5A3C24-ECAA-4070-AF75-8328BFFE722F*
G04*
G04*
G04 #@! TF.FilePolarity,Negative*
G04*
G01*
G75*
%ADD23R,0.0472X0.0551*%
%ADD24R,0.0700X0.0100*%
%ADD25R,0.0551X0.0472*%
%ADD26O,0.0709X0.0236*%
%ADD27R,0.0500X0.0550*%
%ADD28R,0.0748X0.0748*%
G04:AMPARAMS|DCode=29|XSize=216.5mil|YSize=59.1mil|CornerRadius=7.4mil|HoleSize=0mil|Usage=FLASHONLY|Rotation=0.000|XOffset=0mil|YOffset=0mil|HoleType=Round|Shape=RoundedRectangle|*
%AMROUNDEDRECTD29*
21,1,0.2165,0.0443,0,0,0.0*
21,1,0.2018,0.0591,0,0,0.0*
1,1,0.0148,0.1009,-0.0221*
1,1,0.0148,-0.1009,-0.0221*
1,1,0.0148,-0.1009,0.0221*
1,1,0.0148,0.1009,0.0221*
%
%ADD29ROUNDEDRECTD29*%
%ADD30R,0.0945X0.1299*%
%ADD31R,0.0945X0.0394*%
%ADD34R,0.0551X0.0394*%
%ADD35R,0.0550X0.0500*%
%ADD36R,0.0640X0.0900*%
%ADD37R,0.0591X0.0591*%
%ADD38R,0.0984X0.0669*%
%ADD39R,0.0787X0.1575*%
%ADD40R,0.0315X0.0472*%
%ADD41R,0.0310X0.1044*%
%ADD42O,0.0310X0.1044*%
%ADD43C,0.0489*%
%ADD44R,0.0489X0.0489*%
%ADD45R,0.0630X0.0630*%
%ADD46C,0.0630*%
%ADD47R,0.0598X0.0598*%
%ADD48C,0.0598*%
%ADD49R,0.0630X0.0630*%
%ADD50R,0.1000X0.1600*%
%ADD51R,0.1600X0.1000*%
%ADD52C,0.1260*%
D23*
X53642Y58130D02*
D03*
X54390D02*
D03*
X59234Y49454D02*
D03*
X59982D02*
D03*
X67900Y50327D02*
D03*
X67152D02*
D03*
X69008Y50330D02*
D03*
X69756D02*
D03*
X66042Y50333D02*
D03*
X65294D02*
D03*
X61792Y48084D02*
D03*
X61044D02*
D03*
X61802Y51363D02*
D03*
X61054D02*
D03*
X61802Y55734D02*
D03*
X61054D02*
D03*
X61802Y50270D02*
D03*
X61054D02*
D03*
X61802Y53548D02*
D03*
X61054D02*
D03*
D24*
X53238Y53755D02*
D03*
Y54011D02*
D03*
Y53255D02*
D03*
Y53499D02*
D03*
Y54267D02*
D03*
D25*
X54924Y49836D02*
D03*
Y49088D02*
D03*
X54954Y51616D02*
D03*
Y50868D02*
D03*
X53621Y46909D02*
D03*
Y47657D02*
D03*
X54656Y46909D02*
D03*
Y47657D02*
D03*
X55691Y46909D02*
D03*
Y47657D02*
D03*
X73841Y47567D02*
D03*
Y48315D02*
D03*
X74194Y50158D02*
D03*
Y50906D02*
D03*
X51596Y47672D02*
D03*
Y46924D02*
D03*
X72612Y47564D02*
D03*
Y48312D02*
D03*
X71389Y47564D02*
D03*
Y48312D02*
D03*
X75061Y48316D02*
D03*
Y47568D02*
D03*
X59489Y55104D02*
D03*
Y55852D02*
D03*
X60591Y47186D02*
D03*
Y46438D02*
D03*
D26*
X55988Y50640D02*
D03*
Y50140D02*
D03*
Y49640D02*
D03*
Y49140D02*
D03*
X58212Y50640D02*
D03*
Y50140D02*
D03*
Y49640D02*
D03*
Y49140D02*
D03*
D27*
X60072Y50350D02*
D03*
X59172D02*
D03*
X61892Y52432D02*
D03*
X60992D02*
D03*
Y49153D02*
D03*
X61892D02*
D03*
X60992Y54618D02*
D03*
X61892D02*
D03*
D28*
X52070Y52200D02*
D03*
Y55310D02*
D03*
D29*
X65797Y48610D02*
D03*
X69143D02*
D03*
D30*
X51700Y45020D02*
D03*
X59512Y46830D02*
D03*
D31*
X53983Y45926D02*
D03*
Y45020D02*
D03*
Y44114D02*
D03*
X57228Y47736D02*
D03*
Y46830D02*
D03*
Y45924D02*
D03*
D34*
X52356Y49326D02*
D03*
Y50074D02*
D03*
X51490Y49700D02*
D03*
D35*
X52566Y47742D02*
D03*
Y46842D02*
D03*
D36*
X51520Y51040D02*
D03*
X53060D02*
D03*
D37*
X75050Y51160D02*
D03*
Y49900D02*
D03*
D38*
X59667Y40130D02*
D03*
X58093D02*
D03*
D39*
X57800Y41958D02*
D03*
Y44242D02*
D03*
X60510Y41958D02*
D03*
Y44242D02*
D03*
D40*
X52070Y56232D02*
D03*
Y58988D02*
D03*
D41*
X58500Y54080D02*
D03*
X58000D02*
D03*
X57500D02*
D03*
X57000D02*
D03*
X56500D02*
D03*
X56000D02*
D03*
X55500D02*
D03*
X55000D02*
D03*
X55000Y56640D02*
D03*
X55500D02*
D03*
X56000D02*
D03*
X56500D02*
D03*
X57000D02*
D03*
X57500D02*
D03*
X58000D02*
D03*
D42*
X58500D02*
D03*
D43*
X75800Y43550D02*
D03*
X74800D02*
D03*
X73800D02*
D03*
X72800D02*
D03*
X71800D02*
D03*
X70800D02*
D03*
X69800D02*
D03*
X68800D02*
D03*
X67800D02*
D03*
X66800D02*
D03*
X65800D02*
D03*
X64800D02*
D03*
X63800D02*
D03*
X62800D02*
D03*
Y46650D02*
D03*
X63800D02*
D03*
X64800D02*
D03*
X65800D02*
D03*
X66800D02*
D03*
X67800D02*
D03*
X68800D02*
D03*
X69800D02*
D03*
X70800D02*
D03*
X71800D02*
D03*
X72800D02*
D03*
X73800D02*
D03*
X74800D02*
D03*
D44*
X75800D02*
D03*
D45*
X57620Y52600D02*
D03*
D46*
X56620D02*
D03*
X55620D02*
D03*
X54620D02*
D03*
X77100Y50600D02*
D03*
Y49600D02*
D03*
Y48600D02*
D03*
X76100Y49600D02*
D03*
Y48600D02*
D03*
D47*
X71050Y39600D02*
D03*
X62050D02*
D03*
X76050Y58600D02*
D03*
X67450D02*
D03*
D48*
X72050Y39600D02*
D03*
X73050D02*
D03*
X74050D02*
D03*
X75050D02*
D03*
X76050D02*
D03*
X69050D02*
D03*
X68050D02*
D03*
X67050D02*
D03*
X66050D02*
D03*
X65050D02*
D03*
X64050D02*
D03*
X63050D02*
D03*
X69050Y58600D02*
D03*
X70050D02*
D03*
X71050D02*
D03*
X72050D02*
D03*
X73050D02*
D03*
X74050D02*
D03*
X75050D02*
D03*
X65450D02*
D03*
X58450D02*
D03*
X59450D02*
D03*
X60450D02*
D03*
X61450D02*
D03*
X62450D02*
D03*
X63450D02*
D03*
X64450D02*
D03*
X66450D02*
D03*
D49*
X76100Y50600D02*
D03*
D50*
X55790Y41870D02*
D03*
X53290D02*
D03*
D51*
X54790Y39870D02*
D03*
D52*
X77050Y52600D02*
D03*
Y41600D02*
D03*
X56550Y39600D02*
D03*
X57050Y58600D02*
D03*
M02*
