G04*
G04 #@! TF.GenerationSoftware,Altium Limited,Altium Designer,21.3.2 (30)*
G04*
G04 Layer_Color=16711935*
%FSLAX24Y24*%
%MOIN*%
G70*
G04*
G04 #@! TF.SameCoordinates,BD5A3C24-ECAA-4070-AF75-8328BFFE722F*
G04*
G04*
G04 #@! TF.FilePolarity,Positive*
G04*
G01*
G75*
%ADD10C,0.0079*%
%ADD16C,0.0050*%
%ADD21C,0.0060*%
%ADD61C,0.0039*%
%ADD62C,0.0020*%
%ADD63R,0.0244X0.1150*%
G36*
X51438Y49815D02*
X51618D01*
Y49585D01*
X51438D01*
Y49815D01*
D02*
G37*
G36*
X52228Y49445D02*
X52408D01*
Y49215D01*
X52228D01*
Y49445D01*
D02*
G37*
G36*
Y50185D02*
X52409D01*
Y49955D01*
X52228D01*
Y50185D01*
D02*
G37*
D10*
X76032Y47265D02*
G03*
X76032Y47265I-39J0D01*
G01*
D16*
X62423Y46525D02*
X76077D01*
X62473Y43675D02*
Y46525D01*
Y43675D02*
X76127D01*
Y46525D01*
X51982Y50271D02*
X52179D01*
Y49798D02*
Y50271D01*
Y49129D02*
Y49602D01*
X51982Y49129D02*
X52179D01*
X51667Y49405D02*
Y49995D01*
X74755Y49900D02*
X75345D01*
Y51160D01*
X74755D02*
X75345D01*
X74755Y49900D02*
Y51160D01*
D21*
X51740Y50590D02*
Y51490D01*
X51340D02*
X51740D01*
X51340Y50590D02*
X51740D01*
X52840D02*
Y51490D01*
Y50590D02*
X53240D01*
X52840Y51490D02*
X53240D01*
X51740Y50590D02*
X52840D01*
X53240D02*
Y51490D01*
X51740D02*
X52840D01*
X51340Y50590D02*
Y51490D01*
D61*
X56864Y50540D02*
G03*
X56864Y50540I-197J0D01*
G01*
X56313Y48886D02*
Y50894D01*
X57887Y48886D02*
Y50894D01*
X56313D02*
X57887D01*
X56313Y48886D02*
X57887D01*
X52113Y46339D02*
X53570D01*
X52113Y43701D02*
X53570D01*
X52113D02*
Y46339D01*
X53570Y43701D02*
Y46339D01*
X57974Y39555D02*
X59786D01*
X57974Y40705D02*
X59786D01*
Y39555D02*
Y40705D01*
X57974Y39555D02*
Y40705D01*
X57642Y45511D02*
Y48149D01*
X59098Y45511D02*
Y48149D01*
X57642D02*
X59098D01*
X57642Y45511D02*
X59098D01*
D62*
X66210Y49161D02*
G03*
X66210Y48059I0J-551D01*
G01*
Y49358D02*
G03*
X66210Y47862I0J-748D01*
G01*
X68730Y48059D02*
G03*
X68730Y49161I0J551D01*
G01*
Y47862D02*
G03*
X68730Y49358I0J748D01*
G01*
Y47685D02*
G03*
X68730Y49535I0J925D01*
G01*
X66210D02*
G03*
X66210Y47685I0J-925D01*
G01*
X69655Y47659D02*
G03*
X69753Y47758I0J98D01*
G01*
X65187D02*
G03*
X65285Y47659I98J0D01*
G01*
Y49561D02*
G03*
X65187Y49462I0J-98D01*
G01*
X69753D02*
G03*
X69655Y49561I-98J0D01*
G01*
X66210Y49358D02*
X68730D01*
X66210Y49161D02*
X68730D01*
X66210Y48059D02*
X68730D01*
X66210Y47862D02*
X68730D01*
X66210Y49535D02*
X68730D01*
X66210Y47685D02*
X68730D01*
X65285Y47659D02*
X69655D01*
X65187Y47758D02*
Y49462D01*
X65285Y49561D02*
X69655D01*
X69753Y47758D02*
Y49462D01*
X69990Y48433D02*
Y48787D01*
X69753Y48433D02*
X69990D01*
X69753Y48787D02*
X69990D01*
X64950Y48433D02*
Y48787D01*
X65187D01*
X64950Y48433D02*
X65187D01*
D63*
X59664Y40130D02*
D03*
M02*
