G04*
G04 #@! TF.GenerationSoftware,Altium Limited,Altium Designer,21.3.2 (30)*
G04*
G04 Layer_Color=32896*
%FSLAX24Y24*%
%MOIN*%
G70*
G04*
G04 #@! TF.SameCoordinates,59271FD7-B20C-4586-966E-2D71E4A343A8*
G04*
G04*
G04 #@! TF.FilePolarity,Positive*
G04*
G01*
G75*
G36*
X66383Y53250D02*
X66442Y53241D01*
X66496Y53226D01*
X66522Y53219D01*
X66544Y53211D01*
X66566Y53204D01*
X66585Y53197D01*
X66601Y53189D01*
X66616Y53182D01*
X66627Y53176D01*
X66635Y53173D01*
X66640Y53171D01*
X66642Y53169D01*
X66696Y53134D01*
X66744Y53095D01*
X66784Y53056D01*
X66820Y53017D01*
X66834Y53000D01*
X66846Y52984D01*
X66857Y52969D01*
X66866Y52956D01*
X66873Y52945D01*
X66879Y52938D01*
X66881Y52932D01*
X66883Y52930D01*
X66897Y52901D01*
X66912Y52873D01*
X66934Y52815D01*
X66949Y52760D01*
X66960Y52710D01*
X66964Y52688D01*
X66966Y52669D01*
X66970Y52651D01*
Y52636D01*
X66971Y52623D01*
Y52614D01*
Y52608D01*
Y52606D01*
X66970Y52577D01*
X66968Y52547D01*
X66958Y52490D01*
X66946Y52438D01*
X66938Y52414D01*
X66931Y52392D01*
X66923Y52371D01*
X66918Y52353D01*
X66910Y52338D01*
X66905Y52325D01*
X66899Y52314D01*
X66896Y52306D01*
X66892Y52301D01*
Y52299D01*
X66859Y52249D01*
X66821Y52205D01*
X66783Y52166D01*
X66746Y52134D01*
X66714Y52110D01*
X66699Y52101D01*
X66686Y52093D01*
X66677Y52086D01*
X66668Y52082D01*
X66664Y52081D01*
X66662Y52079D01*
X66605Y52053D01*
X66548Y52034D01*
X66490Y52021D01*
X66436Y52012D01*
X66414Y52008D01*
X66392Y52007D01*
X66372Y52005D01*
X66355D01*
X66342Y52003D01*
X66324D01*
X66270Y52005D01*
X66222Y52010D01*
X66179Y52018D01*
X66142Y52027D01*
X66126Y52031D01*
X66111Y52034D01*
X66100Y52038D01*
X66089Y52042D01*
X66081Y52045D01*
X66076Y52047D01*
X66072Y52049D01*
X66070D01*
X66029Y52069D01*
X65990Y52093D01*
X65955Y52119D01*
X65924Y52143D01*
X65896Y52168D01*
X65876Y52186D01*
X65868Y52193D01*
X65863Y52199D01*
X65861Y52201D01*
X65859Y52203D01*
Y52305D01*
X65898Y52262D01*
X65935Y52227D01*
X65968Y52197D01*
X65998Y52175D01*
X66024Y52156D01*
X66042Y52143D01*
X66050Y52140D01*
X66055Y52136D01*
X66057Y52134D01*
X66059D01*
X66094Y52118D01*
X66129Y52106D01*
X66164Y52097D01*
X66196Y52092D01*
X66224Y52088D01*
X66235D01*
X66246Y52086D01*
X66264D01*
X66312Y52090D01*
X66357Y52097D01*
X66396Y52106D01*
X66427Y52119D01*
X66453Y52132D01*
X66472Y52142D01*
X66479Y52147D01*
X66485Y52149D01*
X66486Y52153D01*
X66488D01*
X66518Y52180D01*
X66544Y52214D01*
X66566Y52245D01*
X66583Y52279D01*
X66598Y52308D01*
X66601Y52319D01*
X66607Y52330D01*
X66610Y52340D01*
X66612Y52347D01*
X66614Y52351D01*
Y52353D01*
X66627Y52403D01*
X66636Y52454D01*
X66644Y52503D01*
X66648Y52549D01*
X66649Y52569D01*
X66651Y52588D01*
Y52604D01*
X66653Y52617D01*
Y52630D01*
Y52638D01*
Y52643D01*
Y52645D01*
X66651Y52704D01*
X66644Y52760D01*
X66636Y52810D01*
X66631Y52834D01*
X66625Y52854D01*
X66622Y52873D01*
X66616Y52891D01*
X66612Y52906D01*
X66607Y52917D01*
X66605Y52928D01*
X66601Y52936D01*
X66599Y52939D01*
Y52941D01*
X66581Y52978D01*
X66559Y53012D01*
X66536Y53041D01*
X66514Y53065D01*
X66494Y53086D01*
X66477Y53100D01*
X66466Y53108D01*
X66464Y53112D01*
X66462D01*
X66427Y53134D01*
X66392Y53149D01*
X66357Y53160D01*
X66325Y53169D01*
X66298Y53173D01*
X66287Y53174D01*
X66275D01*
X66268Y53176D01*
X66233D01*
X66209Y53173D01*
X66163Y53163D01*
X66124Y53149D01*
X66087Y53134D01*
X66059Y53117D01*
X66046Y53110D01*
X66037Y53102D01*
X66029Y53097D01*
X66024Y53093D01*
X66020Y53091D01*
X66018Y53089D01*
X65981Y53054D01*
X65952Y53013D01*
X65926Y52973D01*
X65907Y52932D01*
X65892Y52895D01*
X65887Y52880D01*
X65881Y52867D01*
X65877Y52854D01*
X65876Y52847D01*
X65874Y52841D01*
Y52839D01*
X65839D01*
Y53254D01*
X65874D01*
X65877Y53237D01*
X65881Y53224D01*
X65885Y53213D01*
X65890Y53204D01*
X65894Y53197D01*
X65898Y53191D01*
X65900Y53189D01*
X65902Y53187D01*
X65909Y53180D01*
X65918Y53176D01*
X65933Y53169D01*
X65944Y53167D01*
X65950D01*
X65961Y53169D01*
X65976Y53173D01*
X65992Y53176D01*
X66009Y53184D01*
X66026Y53189D01*
X66040Y53193D01*
X66050Y53197D01*
X66051Y53199D01*
X66053D01*
X66105Y53217D01*
X66155Y53230D01*
X66200Y53241D01*
X66238Y53247D01*
X66257Y53250D01*
X66272D01*
X66287Y53252D01*
X66298Y53254D01*
X66351Y53254D01*
X66383Y53250D01*
D02*
G37*
G36*
X71871Y53252D02*
X71890Y53249D01*
X71906Y53241D01*
X71921Y53234D01*
X71932Y53226D01*
X71940Y53219D01*
X71945Y53215D01*
X71947Y53213D01*
X71960Y53197D01*
X71969Y53182D01*
X71977Y53165D01*
X71980Y53150D01*
X71984Y53137D01*
X71986Y53126D01*
Y53119D01*
Y53117D01*
X71984Y53097D01*
X71980Y53078D01*
X71973Y53062D01*
X71965Y53047D01*
X71960Y53036D01*
X71952Y53028D01*
X71949Y53023D01*
X71947Y53021D01*
X71932Y53008D01*
X71915Y52999D01*
X71899Y52991D01*
X71884Y52988D01*
X71871Y52984D01*
X71860Y52982D01*
X71851D01*
X71830Y52984D01*
X71812Y52988D01*
X71795Y52995D01*
X71782Y53002D01*
X71771Y53008D01*
X71762Y53015D01*
X71756Y53019D01*
X71754Y53021D01*
X71741Y53036D01*
X71730Y53052D01*
X71723Y53069D01*
X71719Y53084D01*
X71716Y53097D01*
X71714Y53108D01*
Y53115D01*
Y53117D01*
X71716Y53137D01*
X71719Y53156D01*
X71727Y53173D01*
X71734Y53186D01*
X71741Y53197D01*
X71749Y53206D01*
X71753Y53211D01*
X71754Y53213D01*
X71769Y53226D01*
X71786Y53237D01*
X71803Y53245D01*
X71817Y53249D01*
X71830Y53252D01*
X71841Y53254D01*
X71851D01*
X71871Y53252D01*
D02*
G37*
G36*
X72528Y52875D02*
X72567Y52865D01*
X72598Y52854D01*
X72624Y52839D01*
X72645Y52825D01*
X72660Y52814D01*
X72669Y52804D01*
X72673Y52801D01*
X72695Y52771D01*
X72710Y52741D01*
X72721Y52712D01*
X72730Y52686D01*
X72734Y52662D01*
X72735Y52645D01*
X72737Y52638D01*
Y52632D01*
Y52630D01*
Y52628D01*
X72735Y52597D01*
X72728Y52567D01*
X72719Y52540D01*
X72708Y52516D01*
X72698Y52497D01*
X72689Y52482D01*
X72682Y52473D01*
X72680Y52469D01*
X72671Y52460D01*
X72661Y52449D01*
X72637Y52427D01*
X72608Y52403D01*
X72580Y52380D01*
X72552Y52360D01*
X72530Y52342D01*
X72521Y52336D01*
X72513Y52330D01*
X72510Y52329D01*
X72508Y52327D01*
X72476Y52305D01*
X72450Y52286D01*
X72432Y52271D01*
X72415Y52258D01*
X72404Y52247D01*
X72397Y52240D01*
X72393Y52236D01*
X72391Y52234D01*
X72382Y52221D01*
X72374Y52210D01*
X72371Y52197D01*
X72367Y52186D01*
X72365Y52175D01*
X72363Y52168D01*
Y52162D01*
Y52160D01*
X72365Y52147D01*
X72367Y52136D01*
X72376Y52116D01*
X72382Y52108D01*
X72387Y52105D01*
X72389Y52101D01*
X72391Y52099D01*
X72402Y52090D01*
X72413Y52084D01*
X72436Y52077D01*
X72445Y52075D01*
X72452Y52073D01*
X72460D01*
X72482Y52075D01*
X72506Y52082D01*
X72528Y52092D01*
X72547Y52103D01*
X72565Y52112D01*
X72578Y52121D01*
X72586Y52129D01*
X72589Y52131D01*
X72613Y52155D01*
X72634Y52182D01*
X72652Y52210D01*
X72667Y52240D01*
X72678Y52264D01*
X72687Y52286D01*
X72691Y52293D01*
X72693Y52299D01*
X72695Y52303D01*
Y52305D01*
X72726D01*
X72711Y52008D01*
X72680D01*
X72673Y52023D01*
X72665Y52034D01*
X72658Y52042D01*
X72650Y52047D01*
X72643Y52051D01*
X72637Y52053D01*
X72634D01*
X72623Y52051D01*
X72611Y52047D01*
X72600Y52044D01*
X72598Y52042D01*
X72597D01*
X72561Y52031D01*
X72532Y52021D01*
X72506Y52016D01*
X72482Y52010D01*
X72465Y52008D01*
X72452Y52007D01*
X72441D01*
X72413Y52008D01*
X72389Y52012D01*
X72365Y52018D01*
X72345Y52023D01*
X72330Y52029D01*
X72317Y52034D01*
X72308Y52038D01*
X72306Y52040D01*
X72284Y52055D01*
X72263Y52071D01*
X72249Y52088D01*
X72234Y52105D01*
X72223Y52119D01*
X72215Y52131D01*
X72212Y52138D01*
X72210Y52142D01*
X72199Y52168D01*
X72189Y52192D01*
X72184Y52214D01*
X72178Y52234D01*
X72176Y52251D01*
X72175Y52266D01*
Y52273D01*
Y52277D01*
X72176Y52305D01*
X72180Y52330D01*
X72188Y52353D01*
X72195Y52373D01*
X72202Y52390D01*
X72210Y52403D01*
X72213Y52412D01*
X72215Y52414D01*
X72225Y52425D01*
X72234Y52438D01*
X72260Y52462D01*
X72287Y52488D01*
X72315Y52510D01*
X72343Y52530D01*
X72365Y52547D01*
X72373Y52553D01*
X72380Y52558D01*
X72384Y52560D01*
X72386Y52562D01*
X72408Y52578D01*
X72428Y52591D01*
X72447Y52606D01*
X72463Y52617D01*
X72478Y52628D01*
X72491Y52640D01*
X72511Y52656D01*
X72526Y52669D01*
X72536Y52678D01*
X72539Y52684D01*
X72541Y52686D01*
X72550Y52701D01*
X72556Y52715D01*
X72558Y52727D01*
Y52728D01*
Y52730D01*
X72556Y52741D01*
X72554Y52752D01*
X72545Y52769D01*
X72541Y52777D01*
X72537Y52782D01*
X72536Y52784D01*
X72534Y52786D01*
X72524Y52795D01*
X72513Y52801D01*
X72493Y52808D01*
X72486Y52810D01*
X72478Y52812D01*
X72473D01*
X72452Y52810D01*
X72432Y52804D01*
X72412Y52797D01*
X72395Y52789D01*
X72380Y52780D01*
X72369Y52773D01*
X72362Y52767D01*
X72360Y52765D01*
X72337Y52745D01*
X72319Y52719D01*
X72299Y52691D01*
X72282Y52664D01*
X72269Y52638D01*
X72258Y52615D01*
X72254Y52606D01*
X72250Y52601D01*
X72249Y52597D01*
Y52595D01*
X72217D01*
X72230Y52876D01*
X72262D01*
X72269Y52865D01*
X72276Y52858D01*
X72282Y52851D01*
X72286Y52845D01*
X72291Y52839D01*
X72293Y52838D01*
X72300Y52834D01*
X72310Y52832D01*
X72319D01*
X72330Y52834D01*
X72343Y52839D01*
X72352Y52843D01*
X72354Y52845D01*
X72356D01*
X72380Y52856D01*
X72402Y52864D01*
X72424Y52871D01*
X72445Y52875D01*
X72461Y52876D01*
X72474Y52878D01*
X72486D01*
X72528Y52875D01*
D02*
G37*
G36*
X67817Y52876D02*
X67838Y52871D01*
X67854Y52864D01*
X67869Y52856D01*
X67882Y52849D01*
X67891Y52841D01*
X67897Y52836D01*
X67899Y52834D01*
X67914Y52817D01*
X67923Y52801D01*
X67930Y52784D01*
X67936Y52767D01*
X67939Y52752D01*
X67941Y52741D01*
Y52734D01*
Y52732D01*
X67939Y52710D01*
X67934Y52690D01*
X67928Y52673D01*
X67919Y52658D01*
X67912Y52645D01*
X67906Y52636D01*
X67901Y52630D01*
X67899Y52628D01*
X67882Y52614D01*
X67865Y52604D01*
X67847Y52597D01*
X67830Y52591D01*
X67817Y52588D01*
X67804Y52586D01*
X67795D01*
X67773Y52588D01*
X67754Y52593D01*
X67738Y52599D01*
X67721Y52608D01*
X67710Y52615D01*
X67701Y52621D01*
X67695Y52627D01*
X67693Y52628D01*
X67678Y52645D01*
X67667Y52662D01*
X67660Y52680D01*
X67654Y52697D01*
X67651Y52710D01*
X67649Y52723D01*
Y52730D01*
Y52732D01*
X67651Y52754D01*
X67656Y52773D01*
X67664Y52789D01*
X67671Y52806D01*
X67678Y52817D01*
X67686Y52826D01*
X67691Y52832D01*
X67693Y52834D01*
X67710Y52849D01*
X67727Y52860D01*
X67743Y52867D01*
X67760Y52873D01*
X67775Y52876D01*
X67786Y52878D01*
X67795D01*
X67817Y52876D01*
D02*
G37*
G36*
X64014Y53195D02*
X63993Y53193D01*
X63976Y53191D01*
X63964Y53187D01*
X63951Y53186D01*
X63941Y53182D01*
X63936Y53178D01*
X63932Y53176D01*
X63930D01*
X63919Y53169D01*
X63906Y53160D01*
X63884Y53139D01*
X63875Y53130D01*
X63867Y53121D01*
X63864Y53115D01*
X63862Y53113D01*
X63836Y53082D01*
Y52238D01*
X63838Y52205D01*
X63841Y52177D01*
X63849Y52153D01*
X63854Y52134D01*
X63862Y52119D01*
X63869Y52108D01*
X63873Y52103D01*
X63875Y52101D01*
X63891Y52088D01*
X63912Y52079D01*
X63936Y52071D01*
X63958Y52068D01*
X63978Y52064D01*
X63995Y52062D01*
X64012D01*
Y52031D01*
X63588D01*
Y52062D01*
X63617D01*
X63640Y52064D01*
X63660Y52068D01*
X63678Y52073D01*
X63693Y52081D01*
X63706Y52086D01*
X63717Y52092D01*
X63723Y52095D01*
X63725Y52097D01*
X63740Y52114D01*
X63751Y52134D01*
X63760Y52158D01*
X63765Y52182D01*
X63769Y52203D01*
X63771Y52221D01*
Y52229D01*
Y52234D01*
Y52236D01*
Y52238D01*
Y52999D01*
X62968Y52003D01*
X62936D01*
Y52999D01*
Y53028D01*
X62934Y53052D01*
X62933Y53073D01*
X62929Y53089D01*
X62927Y53102D01*
X62925Y53112D01*
X62923Y53115D01*
Y53117D01*
X62918Y53130D01*
X62910Y53139D01*
X62897Y53156D01*
X62886Y53163D01*
X62884Y53167D01*
X62883D01*
X62871Y53173D01*
X62855Y53178D01*
X62821Y53187D01*
X62805Y53191D01*
X62792Y53193D01*
X62783Y53195D01*
X62779D01*
Y53226D01*
X63173D01*
Y53195D01*
X63138Y53193D01*
X63110Y53187D01*
X63086Y53178D01*
X63066Y53171D01*
X63051Y53162D01*
X63040Y53152D01*
X63034Y53147D01*
X63032Y53145D01*
X63021Y53128D01*
X63014Y53106D01*
X63008Y53082D01*
X63005Y53058D01*
X63003Y53034D01*
X63001Y53015D01*
Y53010D01*
Y53004D01*
Y53000D01*
Y52999D01*
Y52484D01*
X63590Y53226D01*
X64014D01*
Y53195D01*
D02*
G37*
G36*
X65707D02*
X65650D01*
X65635Y53191D01*
X65620Y53189D01*
X65609Y53186D01*
X65600Y53182D01*
X65594Y53180D01*
X65591Y53176D01*
X65589D01*
X65578Y53171D01*
X65568Y53163D01*
X65557Y53150D01*
X65550Y53139D01*
X65548Y53137D01*
Y53136D01*
X65544Y53124D01*
X65542Y53108D01*
X65541Y53089D01*
Y53071D01*
X65539Y53052D01*
Y53038D01*
Y53026D01*
Y53025D01*
Y53023D01*
Y52267D01*
Y52240D01*
Y52219D01*
Y52203D01*
Y52192D01*
X65541Y52182D01*
Y52179D01*
Y52175D01*
X65548Y52147D01*
X65554Y52136D01*
X65557Y52127D01*
X65563Y52119D01*
X65565Y52114D01*
X65568Y52112D01*
Y52110D01*
X65583Y52095D01*
X65600Y52084D01*
X65607Y52079D01*
X65615Y52075D01*
X65618Y52073D01*
X65620D01*
X65646Y52066D01*
X65670Y52062D01*
X65707D01*
Y52031D01*
X65298D01*
Y52062D01*
X65326Y52064D01*
X65352Y52066D01*
X65372Y52071D01*
X65389Y52077D01*
X65402Y52081D01*
X65411Y52086D01*
X65417Y52088D01*
X65418Y52090D01*
X65431Y52101D01*
X65441Y52112D01*
X65450Y52125D01*
X65455Y52136D01*
X65461Y52147D01*
X65465Y52155D01*
X65467Y52160D01*
Y52162D01*
X65468Y52173D01*
X65470Y52188D01*
Y52206D01*
X65472Y52225D01*
Y52242D01*
Y52256D01*
Y52267D01*
Y52269D01*
Y52271D01*
Y53112D01*
X65006Y52031D01*
X64985D01*
X64526Y53119D01*
Y52234D01*
Y52203D01*
X64528Y52179D01*
X64530Y52158D01*
X64532Y52143D01*
X64534Y52132D01*
X64536Y52127D01*
X64537Y52123D01*
Y52121D01*
X64548Y52103D01*
X64560Y52090D01*
X64569Y52082D01*
X64571Y52081D01*
X64573D01*
X64585Y52075D01*
X64598Y52069D01*
X64626Y52064D01*
X64639D01*
X64648Y52062D01*
X64695D01*
Y52031D01*
X64071D01*
Y52062D01*
X64128D01*
X64145Y52064D01*
X64158Y52068D01*
X64169Y52071D01*
X64178Y52073D01*
X64186Y52077D01*
X64189Y52079D01*
X64191D01*
X64200Y52086D01*
X64210Y52092D01*
X64221Y52105D01*
X64228Y52114D01*
X64230Y52116D01*
Y52118D01*
X64234Y52129D01*
X64236Y52145D01*
X64237Y52166D01*
Y52184D01*
X64239Y52205D01*
Y52219D01*
Y52230D01*
Y52232D01*
Y52234D01*
Y53023D01*
Y53052D01*
X64237Y53078D01*
X64236Y53097D01*
X64234Y53112D01*
Y53123D01*
X64232Y53128D01*
X64230Y53132D01*
Y53134D01*
X64219Y53152D01*
X64208Y53165D01*
X64199Y53173D01*
X64195Y53174D01*
X64182Y53182D01*
X64169Y53186D01*
X64141Y53193D01*
X64128D01*
X64119Y53195D01*
X64071D01*
Y53226D01*
X64558D01*
X64882Y52438D01*
X65219Y53226D01*
X65707D01*
Y53195D01*
D02*
G37*
G36*
X73196Y52876D02*
X73222Y52873D01*
X73248Y52867D01*
X73272Y52860D01*
X73317Y52839D01*
X73356Y52817D01*
X73372Y52806D01*
X73387Y52795D01*
X73400Y52784D01*
X73409Y52775D01*
X73418Y52767D01*
X73424Y52762D01*
X73428Y52758D01*
X73430Y52756D01*
X73450Y52732D01*
X73467Y52706D01*
X73481Y52680D01*
X73494Y52654D01*
X73504Y52627D01*
X73513Y52599D01*
X73526Y52547D01*
X73531Y52523D01*
X73535Y52501D01*
X73537Y52480D01*
X73539Y52462D01*
X73541Y52449D01*
Y52438D01*
Y52430D01*
Y52429D01*
X73537Y52367D01*
X73530Y52314D01*
X73517Y52266D01*
X73511Y52243D01*
X73504Y52225D01*
X73496Y52206D01*
X73491Y52192D01*
X73483Y52179D01*
X73478Y52168D01*
X73474Y52158D01*
X73470Y52153D01*
X73467Y52149D01*
Y52147D01*
X73448Y52123D01*
X73428Y52101D01*
X73405Y52082D01*
X73383Y52066D01*
X73361Y52053D01*
X73337Y52042D01*
X73315Y52032D01*
X73293Y52025D01*
X73272Y52018D01*
X73252Y52014D01*
X73233Y52010D01*
X73219Y52008D01*
X73206D01*
X73196Y52007D01*
X73189D01*
X73150Y52008D01*
X73115Y52016D01*
X73083Y52025D01*
X73056Y52034D01*
X73033Y52045D01*
X73017Y52053D01*
X73006Y52060D01*
X73002Y52062D01*
X72987Y52073D01*
X72972Y52086D01*
X72945Y52118D01*
X72919Y52149D01*
X72896Y52180D01*
X72878Y52210D01*
X72871Y52223D01*
X72863Y52234D01*
X72859Y52243D01*
X72856Y52251D01*
X72852Y52255D01*
Y52256D01*
X72884Y52275D01*
X72902Y52247D01*
X72919Y52225D01*
X72933Y52206D01*
X72948Y52192D01*
X72959Y52180D01*
X72969Y52173D01*
X72974Y52169D01*
X72976Y52168D01*
X72993Y52158D01*
X73009Y52151D01*
X73024Y52147D01*
X73039Y52143D01*
X73052Y52142D01*
X73061Y52140D01*
X73070D01*
X73102Y52143D01*
X73130Y52151D01*
X73156Y52162D01*
X73176Y52177D01*
X73193Y52190D01*
X73206Y52201D01*
X73215Y52208D01*
X73217Y52212D01*
X73243Y52251D01*
X73263Y52293D01*
X73280Y52336D01*
X73291Y52379D01*
X73296Y52416D01*
X73300Y52432D01*
X73302Y52445D01*
Y52456D01*
X73304Y52466D01*
Y52471D01*
Y52473D01*
X72852D01*
X72854Y52510D01*
X72858Y52543D01*
X72863Y52575D01*
X72871Y52604D01*
X72878Y52632D01*
X72887Y52656D01*
X72896Y52678D01*
X72904Y52699D01*
X72913Y52717D01*
X72922Y52732D01*
X72930Y52745D01*
X72937Y52756D01*
X72943Y52764D01*
X72948Y52769D01*
X72950Y52773D01*
X72952Y52775D01*
X72971Y52793D01*
X72987Y52810D01*
X73006Y52823D01*
X73024Y52834D01*
X73061Y52852D01*
X73095Y52865D01*
X73124Y52873D01*
X73137Y52875D01*
X73148Y52876D01*
X73156Y52878D01*
X73169D01*
X73196Y52876D01*
D02*
G37*
G36*
X69285Y52876D02*
X69311Y52873D01*
X69337Y52867D01*
X69361Y52860D01*
X69405Y52839D01*
X69444Y52817D01*
X69461Y52806D01*
X69476Y52795D01*
X69489Y52784D01*
X69498Y52775D01*
X69507Y52767D01*
X69513Y52762D01*
X69517Y52758D01*
X69518Y52756D01*
X69539Y52732D01*
X69555Y52706D01*
X69570Y52680D01*
X69583Y52654D01*
X69592Y52627D01*
X69602Y52599D01*
X69615Y52547D01*
X69620Y52523D01*
X69624Y52501D01*
X69626Y52480D01*
X69628Y52462D01*
X69629Y52449D01*
Y52438D01*
Y52430D01*
Y52429D01*
X69626Y52367D01*
X69618Y52314D01*
X69605Y52266D01*
X69600Y52243D01*
X69592Y52225D01*
X69585Y52206D01*
X69579Y52192D01*
X69572Y52179D01*
X69567Y52168D01*
X69563Y52158D01*
X69559Y52153D01*
X69555Y52149D01*
Y52147D01*
X69537Y52123D01*
X69517Y52101D01*
X69494Y52082D01*
X69472Y52066D01*
X69450Y52053D01*
X69426Y52042D01*
X69404Y52032D01*
X69381Y52025D01*
X69361Y52018D01*
X69341Y52014D01*
X69322Y52010D01*
X69307Y52008D01*
X69294D01*
X69285Y52007D01*
X69278D01*
X69239Y52008D01*
X69204Y52016D01*
X69172Y52025D01*
X69145Y52034D01*
X69122Y52045D01*
X69106Y52053D01*
X69095Y52060D01*
X69091Y52062D01*
X69076Y52073D01*
X69061Y52086D01*
X69033Y52118D01*
X69008Y52149D01*
X68985Y52180D01*
X68967Y52210D01*
X68959Y52223D01*
X68952Y52234D01*
X68948Y52243D01*
X68945Y52251D01*
X68941Y52255D01*
Y52256D01*
X68972Y52275D01*
X68991Y52247D01*
X69008Y52225D01*
X69022Y52206D01*
X69037Y52192D01*
X69048Y52180D01*
X69057Y52173D01*
X69063Y52169D01*
X69065Y52168D01*
X69082Y52158D01*
X69098Y52151D01*
X69113Y52147D01*
X69128Y52143D01*
X69141Y52142D01*
X69150Y52140D01*
X69159D01*
X69191Y52143D01*
X69219Y52151D01*
X69244Y52162D01*
X69265Y52177D01*
X69281Y52190D01*
X69294Y52201D01*
X69304Y52208D01*
X69306Y52212D01*
X69331Y52251D01*
X69352Y52293D01*
X69368Y52336D01*
X69380Y52379D01*
X69385Y52416D01*
X69389Y52432D01*
X69391Y52445D01*
Y52456D01*
X69393Y52466D01*
Y52471D01*
Y52473D01*
X68941D01*
X68943Y52510D01*
X68946Y52543D01*
X68952Y52575D01*
X68959Y52604D01*
X68967Y52632D01*
X68976Y52656D01*
X68985Y52678D01*
X68993Y52699D01*
X69002Y52717D01*
X69011Y52732D01*
X69019Y52745D01*
X69026Y52756D01*
X69032Y52764D01*
X69037Y52769D01*
X69039Y52773D01*
X69041Y52775D01*
X69059Y52793D01*
X69076Y52810D01*
X69095Y52823D01*
X69113Y52834D01*
X69150Y52852D01*
X69183Y52865D01*
X69213Y52873D01*
X69226Y52875D01*
X69237Y52876D01*
X69244Y52878D01*
X69257D01*
X69285Y52876D01*
D02*
G37*
G36*
X71216D02*
X71244Y52875D01*
X71292Y52865D01*
X71334Y52851D01*
X71371Y52834D01*
X71386Y52826D01*
X71401Y52817D01*
X71412Y52810D01*
X71421Y52804D01*
X71430Y52797D01*
X71436Y52793D01*
X71438Y52791D01*
X71440Y52789D01*
X71456Y52773D01*
X71471Y52754D01*
X71486Y52738D01*
X71497Y52719D01*
X71514Y52684D01*
X71525Y52653D01*
X71532Y52623D01*
X71534Y52612D01*
X71536Y52601D01*
X71538Y52591D01*
Y52586D01*
Y52582D01*
Y52580D01*
X71536Y52547D01*
X71530Y52516D01*
X71521Y52488D01*
X71512Y52464D01*
X71503Y52445D01*
X71493Y52430D01*
X71488Y52421D01*
X71486Y52417D01*
X71464Y52392D01*
X71436Y52369D01*
X71408Y52351D01*
X71381Y52334D01*
X71355Y52321D01*
X71332Y52310D01*
X71325Y52306D01*
X71319Y52305D01*
X71316Y52303D01*
X71314D01*
X71349Y52286D01*
X71381Y52269D01*
X71405Y52253D01*
X71427Y52236D01*
X71442Y52223D01*
X71453Y52212D01*
X71460Y52205D01*
X71462Y52203D01*
X71477Y52182D01*
X71488Y52162D01*
X71497Y52142D01*
X71503Y52123D01*
X71506Y52108D01*
X71508Y52097D01*
Y52090D01*
Y52086D01*
X71506Y52068D01*
X71503Y52051D01*
X71497Y52034D01*
X71490Y52019D01*
X71473Y51994D01*
X71451Y51971D01*
X71430Y51953D01*
X71412Y51942D01*
X71406Y51936D01*
X71401Y51932D01*
X71397Y51931D01*
X71395D01*
X71425Y51921D01*
X71447Y51912D01*
X71467Y51905D01*
X71482Y51895D01*
X71495Y51888D01*
X71503Y51882D01*
X71506Y51879D01*
X71508Y51877D01*
X71517Y51864D01*
X71525Y51851D01*
X71530Y51838D01*
X71534Y51827D01*
X71536Y51818D01*
X71538Y51810D01*
Y51805D01*
Y51803D01*
X71536Y51788D01*
X71532Y51773D01*
X71525Y51758D01*
X71517Y51747D01*
X71512Y51738D01*
X71505Y51731D01*
X71501Y51725D01*
X71499Y51723D01*
X71482Y51710D01*
X71462Y51697D01*
X71419Y51679D01*
X71399Y51671D01*
X71382Y51666D01*
X71371Y51664D01*
X71369Y51662D01*
X71368D01*
X71332Y51655D01*
X71297Y51649D01*
X71262Y51646D01*
X71231Y51644D01*
X71205Y51642D01*
X71182Y51640D01*
X71164D01*
X71110Y51642D01*
X71060Y51647D01*
X71016Y51655D01*
X70977Y51662D01*
X70960Y51666D01*
X70946Y51670D01*
X70934Y51673D01*
X70923Y51677D01*
X70914Y51681D01*
X70908Y51683D01*
X70905Y51684D01*
X70903D01*
X70875Y51697D01*
X70851Y51710D01*
X70831Y51727D01*
X70814Y51742D01*
X70799Y51755D01*
X70790Y51766D01*
X70783Y51773D01*
X70781Y51775D01*
X70766Y51799D01*
X70755Y51823D01*
X70746Y51845D01*
X70740Y51866D01*
X70736Y51884D01*
X70735Y51899D01*
Y51908D01*
Y51912D01*
X70736Y51932D01*
X70738Y51953D01*
X70749Y51988D01*
X70766Y52018D01*
X70784Y52042D01*
X70803Y52060D01*
X70820Y52073D01*
X70831Y52082D01*
X70833Y52084D01*
X70834D01*
X70849Y52092D01*
X70866Y52097D01*
X70905Y52108D01*
X70946Y52116D01*
X70988Y52119D01*
X71027Y52123D01*
X71045D01*
X71060Y52125D01*
X71090D01*
X71244Y52123D01*
X71262D01*
X71279Y52127D01*
X71292Y52129D01*
X71303Y52132D01*
X71310Y52136D01*
X71316Y52138D01*
X71319Y52142D01*
X71321D01*
X71329Y52149D01*
X71334Y52158D01*
X71342Y52175D01*
X71343Y52182D01*
X71345Y52188D01*
Y52192D01*
Y52193D01*
X71343Y52206D01*
X71342Y52219D01*
X71332Y52240D01*
X71327Y52247D01*
X71323Y52253D01*
X71321Y52255D01*
X71319Y52256D01*
X71308Y52266D01*
X71297Y52271D01*
X71275Y52279D01*
X71266Y52280D01*
X71258Y52282D01*
X71234D01*
X71219Y52280D01*
X71175D01*
X71162Y52279D01*
X71147D01*
X71121Y52280D01*
X71097Y52284D01*
X71071Y52290D01*
X71049Y52297D01*
X71029Y52303D01*
X71014Y52308D01*
X71003Y52312D01*
X70999Y52314D01*
X70970Y52329D01*
X70942Y52345D01*
X70920Y52362D01*
X70901Y52379D01*
X70886Y52393D01*
X70875Y52404D01*
X70868Y52412D01*
X70866Y52416D01*
X70849Y52441D01*
X70836Y52467D01*
X70829Y52491D01*
X70821Y52516D01*
X70818Y52536D01*
X70816Y52553D01*
Y52564D01*
Y52565D01*
Y52567D01*
Y52588D01*
X70820Y52606D01*
X70823Y52623D01*
X70827Y52638D01*
X70831Y52651D01*
X70834Y52660D01*
X70836Y52665D01*
X70838Y52667D01*
X70846Y52680D01*
X70855Y52695D01*
X70873Y52721D01*
X70883Y52730D01*
X70890Y52739D01*
X70896Y52745D01*
X70897Y52747D01*
X70740D01*
Y52843D01*
X71018D01*
X71049Y52854D01*
X71081Y52864D01*
X71110Y52869D01*
X71136Y52875D01*
X71157Y52876D01*
X71173Y52878D01*
X71188D01*
X71216Y52876D01*
D02*
G37*
G36*
X74890Y53195D02*
X74833D01*
X74818Y53191D01*
X74803Y53189D01*
X74792Y53186D01*
X74783Y53182D01*
X74777Y53180D01*
X74773Y53176D01*
X74772D01*
X74760Y53171D01*
X74753Y53163D01*
X74740Y53150D01*
X74735Y53139D01*
X74733Y53137D01*
Y53136D01*
X74729Y53124D01*
X74725Y53108D01*
X74723Y53089D01*
Y53071D01*
X74722Y53052D01*
Y53038D01*
Y53026D01*
Y53025D01*
Y53023D01*
Y52234D01*
Y52203D01*
X74723Y52177D01*
X74725Y52156D01*
Y52142D01*
X74727Y52132D01*
X74729Y52125D01*
X74731Y52123D01*
Y52121D01*
X74742Y52103D01*
X74757Y52088D01*
X74768Y52081D01*
X74770Y52077D01*
X74772D01*
X74783Y52071D01*
X74796Y52068D01*
X74822Y52064D01*
X74833Y52062D01*
X74890D01*
Y52031D01*
X74316D01*
X74281Y52032D01*
X74251Y52034D01*
X74227Y52036D01*
X74209D01*
X74196Y52038D01*
X74188Y52040D01*
X74187D01*
X74144Y52049D01*
X74103Y52060D01*
X74070Y52071D01*
X74040Y52081D01*
X74016Y52090D01*
X73998Y52097D01*
X73987Y52103D01*
X73983Y52105D01*
X73952Y52121D01*
X73924Y52140D01*
X73898Y52158D01*
X73876Y52177D01*
X73857Y52192D01*
X73844Y52205D01*
X73837Y52212D01*
X73833Y52216D01*
X73809Y52243D01*
X73789Y52273D01*
X73772Y52303D01*
X73755Y52330D01*
X73744Y52354D01*
X73735Y52375D01*
X73731Y52382D01*
X73729Y52388D01*
X73728Y52390D01*
Y52392D01*
X73715Y52432D01*
X73704Y52473D01*
X73696Y52512D01*
X73692Y52547D01*
X73689Y52578D01*
Y52591D01*
X73687Y52603D01*
Y52612D01*
Y52619D01*
Y52623D01*
Y52625D01*
Y52658D01*
X73691Y52691D01*
X73700Y52752D01*
X73713Y52808D01*
X73720Y52832D01*
X73728Y52856D01*
X73737Y52876D01*
X73744Y52895D01*
X73752Y52912D01*
X73757Y52925D01*
X73763Y52936D01*
X73766Y52943D01*
X73768Y52949D01*
X73770Y52951D01*
X73787Y52976D01*
X73803Y53000D01*
X73842Y53045D01*
X73883Y53082D01*
X73922Y53113D01*
X73957Y53137D01*
X73972Y53147D01*
X73987Y53154D01*
X73998Y53160D01*
X74005Y53163D01*
X74011Y53167D01*
X74013D01*
X74039Y53178D01*
X74064Y53187D01*
X74122Y53202D01*
X74179Y53211D01*
X74233Y53219D01*
X74259Y53221D01*
X74283Y53223D01*
X74303Y53224D01*
X74322Y53226D01*
X74890D01*
Y53195D01*
D02*
G37*
G36*
X72073Y52823D02*
X72052Y52821D01*
X72036Y52817D01*
X72023Y52812D01*
X72012Y52806D01*
X72004Y52802D01*
X71999Y52797D01*
X71997Y52795D01*
X71995Y52793D01*
X71988Y52782D01*
X71982Y52765D01*
X71978Y52747D01*
X71975Y52728D01*
Y52712D01*
X71973Y52697D01*
Y52686D01*
Y52684D01*
Y52682D01*
Y52201D01*
Y52171D01*
X71977Y52147D01*
X71978Y52129D01*
X71982Y52114D01*
X71986Y52105D01*
X71988Y52097D01*
X71991Y52095D01*
Y52093D01*
X72002Y52082D01*
X72015Y52075D01*
X72028Y52069D01*
X72043Y52066D01*
X72054Y52064D01*
X72064Y52062D01*
X72073D01*
Y52031D01*
X71627Y52031D01*
Y52062D01*
X71647Y52064D01*
X71666Y52068D01*
X71679Y52071D01*
X71690Y52075D01*
X71699Y52081D01*
X71704Y52084D01*
X71706Y52086D01*
X71708Y52088D01*
X71714Y52101D01*
X71719Y52116D01*
X71723Y52134D01*
X71725Y52155D01*
Y52171D01*
X71727Y52186D01*
Y52197D01*
Y52201D01*
Y52854D01*
X72073Y52854D01*
Y52823D01*
D02*
G37*
G36*
X70085Y52876D02*
X70109Y52873D01*
X70129Y52869D01*
X70148Y52864D01*
X70164Y52856D01*
X70175Y52852D01*
X70185Y52849D01*
X70187Y52847D01*
X70209Y52834D01*
X70229Y52817D01*
X70250Y52801D01*
X70268Y52786D01*
X70285Y52771D01*
X70296Y52758D01*
X70303Y52751D01*
X70307Y52747D01*
Y52854D01*
X70642D01*
Y52823D01*
X70623Y52819D01*
X70609Y52815D01*
X70596Y52810D01*
X70586Y52804D01*
X70579Y52799D01*
X70575Y52795D01*
X70572Y52793D01*
Y52791D01*
X70566Y52780D01*
X70561Y52764D01*
X70557Y52745D01*
X70555Y52725D01*
X70553Y52706D01*
Y52690D01*
Y52678D01*
Y52677D01*
Y52675D01*
Y52210D01*
Y52177D01*
X70555Y52151D01*
X70559Y52132D01*
X70561Y52118D01*
X70564Y52106D01*
X70568Y52099D01*
X70570Y52097D01*
Y52095D01*
X70579Y52086D01*
X70590Y52077D01*
X70601Y52071D01*
X70614Y52068D01*
X70625Y52066D01*
X70633Y52064D01*
X70640Y52062D01*
X70642D01*
Y52031D01*
X70225D01*
Y52062D01*
X70242Y52066D01*
X70255Y52069D01*
X70266Y52073D01*
X70275Y52079D01*
X70283Y52084D01*
X70287Y52088D01*
X70290Y52090D01*
Y52092D01*
X70296Y52105D01*
X70300Y52121D01*
X70303Y52140D01*
X70305Y52160D01*
Y52179D01*
X70307Y52195D01*
Y52206D01*
Y52208D01*
Y52210D01*
Y52651D01*
X70294Y52669D01*
X70283Y52688D01*
X70270Y52701D01*
X70257Y52714D01*
X70246Y52725D01*
X70235Y52734D01*
X70213Y52747D01*
X70194Y52754D01*
X70179Y52758D01*
X70170Y52760D01*
X70166D01*
X70150Y52758D01*
X70137Y52752D01*
X70129Y52747D01*
X70126Y52745D01*
X70113Y52732D01*
X70103Y52719D01*
X70100Y52708D01*
X70098Y52704D01*
Y52702D01*
X70094Y52690D01*
X70092Y52673D01*
X70090Y52651D01*
Y52630D01*
X70089Y52610D01*
Y52593D01*
Y52580D01*
Y52578D01*
Y52577D01*
Y52210D01*
Y52180D01*
X70090Y52155D01*
X70092Y52136D01*
X70096Y52121D01*
X70098Y52110D01*
X70101Y52105D01*
X70103Y52101D01*
Y52099D01*
X70113Y52088D01*
X70122Y52081D01*
X70133Y52073D01*
X70144Y52069D01*
X70153Y52066D01*
X70163Y52064D01*
X70168Y52062D01*
X70170D01*
Y52031D01*
X69753D01*
Y52062D01*
X69772Y52066D01*
X69789Y52069D01*
X69800Y52073D01*
X69811Y52079D01*
X69818Y52082D01*
X69822Y52086D01*
X69826Y52090D01*
X69831Y52103D01*
X69835Y52119D01*
X69839Y52138D01*
X69840Y52158D01*
Y52179D01*
X69842Y52195D01*
Y52206D01*
Y52208D01*
Y52210D01*
Y52530D01*
Y52556D01*
Y52580D01*
X69844Y52601D01*
Y52621D01*
X69846Y52638D01*
Y52654D01*
X69850Y52680D01*
X69852Y52699D01*
X69855Y52714D01*
X69857Y52721D01*
Y52723D01*
X69866Y52747D01*
X69876Y52767D01*
X69889Y52786D01*
X69900Y52802D01*
X69911Y52815D01*
X69920Y52825D01*
X69927Y52830D01*
X69929Y52832D01*
X69950Y52847D01*
X69972Y52858D01*
X69994Y52867D01*
X70014Y52873D01*
X70033Y52876D01*
X70048Y52878D01*
X70061D01*
X70085Y52876D01*
D02*
G37*
G36*
X68254D02*
X68275Y52871D01*
X68295Y52865D01*
X68313Y52858D01*
X68330Y52849D01*
X68341Y52843D01*
X68349Y52838D01*
X68352Y52836D01*
X68363Y52826D01*
X68376Y52817D01*
X68400Y52793D01*
X68424Y52765D01*
X68447Y52736D01*
X68465Y52710D01*
X68482Y52688D01*
X68487Y52680D01*
X68491Y52673D01*
X68493Y52669D01*
X68495Y52667D01*
Y52854D01*
X68834D01*
Y52823D01*
X68819Y52821D01*
X68806Y52817D01*
X68797Y52815D01*
X68787Y52812D01*
X68782Y52810D01*
X68778Y52808D01*
X68774Y52806D01*
X68763Y52795D01*
X68756Y52784D01*
X68750Y52773D01*
X68748Y52771D01*
Y52769D01*
X68747Y52760D01*
X68745Y52747D01*
X68743Y52732D01*
X68741Y52717D01*
Y52704D01*
Y52691D01*
Y52684D01*
Y52680D01*
Y52225D01*
Y52205D01*
Y52188D01*
X68745Y52158D01*
X68747Y52134D01*
X68750Y52116D01*
X68754Y52105D01*
X68758Y52095D01*
X68759Y52092D01*
X68761Y52090D01*
X68771Y52082D01*
X68780Y52075D01*
X68804Y52068D01*
X68815Y52064D01*
X68824D01*
X68832Y52062D01*
X68834D01*
Y52031D01*
X68387D01*
Y52062D01*
X68404Y52064D01*
X68419Y52066D01*
X68432Y52068D01*
X68441Y52069D01*
X68449Y52071D01*
X68454Y52073D01*
X68456Y52075D01*
X68458D01*
X68471Y52086D01*
X68482Y52097D01*
X68487Y52106D01*
X68489Y52108D01*
Y52110D01*
X68491Y52118D01*
X68493Y52125D01*
X68495Y52147D01*
Y52158D01*
Y52168D01*
Y52173D01*
Y52175D01*
Y52223D01*
Y52412D01*
X68493Y52449D01*
X68491Y52486D01*
X68486Y52517D01*
X68480Y52545D01*
X68476Y52569D01*
X68471Y52586D01*
X68469Y52597D01*
X68467Y52601D01*
X68460Y52621D01*
X68450Y52638D01*
X68441Y52653D01*
X68434Y52664D01*
X68426Y52673D01*
X68419Y52680D01*
X68415Y52684D01*
X68413Y52686D01*
X68404Y52693D01*
X68395Y52697D01*
X68380Y52704D01*
X68367Y52706D01*
X68356D01*
X68350Y52704D01*
X68347Y52702D01*
X68345Y52701D01*
X68341Y52699D01*
X68336Y52693D01*
X68321Y52682D01*
X68310Y52673D01*
X68306Y52669D01*
X68304Y52667D01*
X68291Y52658D01*
X68276Y52651D01*
X68263Y52645D01*
X68250Y52641D01*
X68239Y52640D01*
X68230Y52638D01*
X68223D01*
X68208Y52640D01*
X68195Y52643D01*
X68175Y52654D01*
X68165Y52660D01*
X68160Y52664D01*
X68156Y52667D01*
X68154Y52669D01*
X68145Y52682D01*
X68138Y52697D01*
X68132Y52714D01*
X68128Y52728D01*
X68126Y52741D01*
X68125Y52752D01*
Y52760D01*
Y52762D01*
X68126Y52782D01*
X68128Y52799D01*
X68134Y52814D01*
X68139Y52825D01*
X68145Y52834D01*
X68149Y52841D01*
X68152Y52845D01*
X68154Y52847D01*
X68165Y52858D01*
X68178Y52865D01*
X68191Y52871D01*
X68204Y52875D01*
X68215Y52876D01*
X68225Y52878D01*
X68232D01*
X68254Y52876D01*
D02*
G37*
G36*
X67819Y52299D02*
X67840Y52293D01*
X67856Y52286D01*
X67871Y52279D01*
X67884Y52271D01*
X67893Y52264D01*
X67899Y52258D01*
X67901Y52256D01*
X67915Y52240D01*
X67925Y52223D01*
X67932Y52205D01*
X67938Y52188D01*
X67941Y52175D01*
X67943Y52164D01*
Y52155D01*
Y52153D01*
X67941Y52131D01*
X67936Y52110D01*
X67930Y52093D01*
X67921Y52079D01*
X67914Y52066D01*
X67908Y52056D01*
X67902Y52051D01*
X67901Y52049D01*
X67884Y52034D01*
X67867Y52025D01*
X67849Y52018D01*
X67832Y52012D01*
X67819Y52008D01*
X67806Y52007D01*
X67797D01*
X67775Y52008D01*
X67754Y52014D01*
X67738Y52019D01*
X67723Y52029D01*
X67710Y52036D01*
X67701Y52042D01*
X67695Y52047D01*
X67693Y52049D01*
X67678Y52066D01*
X67667Y52082D01*
X67660Y52101D01*
X67654Y52118D01*
X67651Y52131D01*
X67649Y52143D01*
Y52151D01*
Y52153D01*
X67651Y52175D01*
X67656Y52195D01*
X67664Y52212D01*
X67671Y52227D01*
X67678Y52240D01*
X67686Y52249D01*
X67691Y52255D01*
X67693Y52256D01*
X67710Y52271D01*
X67727Y52282D01*
X67745Y52290D01*
X67762Y52295D01*
X67775Y52299D01*
X67786Y52301D01*
X67797D01*
X67819Y52299D01*
D02*
G37*
%LPC*%
G36*
X73189Y52821D02*
X73182D01*
X73161Y52819D01*
X73146Y52814D01*
X73137Y52806D01*
X73133Y52804D01*
X73122Y52793D01*
X73111Y52780D01*
X73096Y52752D01*
X73091Y52741D01*
X73087Y52732D01*
X73085Y52725D01*
Y52723D01*
X73082Y52712D01*
X73080Y52701D01*
X73076Y52671D01*
X73072Y52640D01*
X73070Y52608D01*
X73069Y52578D01*
Y52565D01*
Y52553D01*
Y52543D01*
Y52536D01*
Y52532D01*
Y52530D01*
X73307D01*
Y52560D01*
X73306Y52608D01*
X73300Y52651D01*
X73291Y52688D01*
X73281Y52719D01*
X73274Y52743D01*
X73265Y52760D01*
X73259Y52771D01*
X73257Y52775D01*
X73246Y52789D01*
X73233Y52801D01*
X73220Y52810D01*
X73207Y52815D01*
X73198Y52819D01*
X73189Y52821D01*
D02*
G37*
G36*
X69278Y52821D02*
X69270D01*
X69250Y52819D01*
X69235Y52814D01*
X69226Y52806D01*
X69222Y52804D01*
X69211Y52793D01*
X69200Y52780D01*
X69185Y52752D01*
X69180Y52741D01*
X69176Y52732D01*
X69174Y52725D01*
Y52723D01*
X69170Y52712D01*
X69169Y52701D01*
X69165Y52671D01*
X69161Y52640D01*
X69159Y52608D01*
X69157Y52578D01*
Y52565D01*
Y52553D01*
Y52543D01*
Y52536D01*
Y52532D01*
Y52530D01*
X69396D01*
Y52560D01*
X69394Y52608D01*
X69389Y52651D01*
X69380Y52688D01*
X69370Y52719D01*
X69363Y52743D01*
X69354Y52760D01*
X69348Y52771D01*
X69346Y52775D01*
X69335Y52789D01*
X69322Y52801D01*
X69309Y52810D01*
X69296Y52815D01*
X69287Y52819D01*
X69278Y52821D01*
D02*
G37*
G36*
X71179Y52823D02*
X71169D01*
X71151Y52821D01*
X71136Y52815D01*
X71123Y52810D01*
X71112Y52802D01*
X71103Y52793D01*
X71097Y52788D01*
X71094Y52782D01*
X71092Y52780D01*
X71084Y52769D01*
X71079Y52754D01*
X71068Y52723D01*
X71060Y52688D01*
X71057Y52651D01*
X71053Y52619D01*
Y52604D01*
X71051Y52591D01*
Y52580D01*
Y52573D01*
Y52567D01*
Y52565D01*
Y52541D01*
X71053Y52517D01*
X71055Y52497D01*
X71057Y52478D01*
X71058Y52460D01*
X71062Y52445D01*
X71068Y52419D01*
X71075Y52401D01*
X71081Y52388D01*
X71084Y52380D01*
X71086Y52379D01*
X71099Y52362D01*
X71114Y52351D01*
X71131Y52342D01*
X71144Y52336D01*
X71157Y52332D01*
X71166Y52330D01*
X71175D01*
X71192Y52332D01*
X71207Y52338D01*
X71221Y52345D01*
X71232Y52354D01*
X71244Y52364D01*
X71251Y52371D01*
X71255Y52377D01*
X71256Y52379D01*
X71262Y52388D01*
X71268Y52401D01*
X71275Y52427D01*
X71282Y52456D01*
X71286Y52486D01*
X71288Y52514D01*
X71290Y52538D01*
Y52545D01*
Y52553D01*
Y52556D01*
Y52558D01*
Y52588D01*
X71288Y52614D01*
X71286Y52638D01*
X71284Y52660D01*
X71282Y52678D01*
X71279Y52697D01*
X71277Y52712D01*
X71273Y52725D01*
X71269Y52736D01*
X71268Y52747D01*
X71262Y52760D01*
X71258Y52769D01*
X71256Y52771D01*
X71242Y52788D01*
X71229Y52801D01*
X71214Y52810D01*
X71199Y52817D01*
X71188Y52821D01*
X71179Y52823D01*
D02*
G37*
G36*
X71251Y51908D02*
X71120D01*
X71094Y51907D01*
X71070D01*
X71049Y51905D01*
X71016D01*
X71003Y51903D01*
X70992D01*
X70983Y51901D01*
X70977D01*
X70968Y51899D01*
X70966D01*
X70949Y51895D01*
X70934Y51890D01*
X70921Y51884D01*
X70912Y51879D01*
X70903Y51873D01*
X70897Y51868D01*
X70896Y51866D01*
X70894Y51864D01*
X70884Y51853D01*
X70881Y51840D01*
X70879Y51831D01*
Y51829D01*
Y51827D01*
X70883Y51807D01*
X70890Y51788D01*
X70901Y51771D01*
X70914Y51758D01*
X70927Y51747D01*
X70938Y51740D01*
X70946Y51736D01*
X70949Y51734D01*
X70977Y51723D01*
X71008Y51716D01*
X71042Y51708D01*
X71073Y51705D01*
X71101Y51703D01*
X71112D01*
X71123Y51701D01*
X71169D01*
X71194Y51703D01*
X71214Y51705D01*
X71234Y51707D01*
X71251Y51710D01*
X71268Y51712D01*
X71294Y51720D01*
X71314Y51727D01*
X71327Y51733D01*
X71336Y51736D01*
X71338Y51738D01*
X71355Y51753D01*
X71368Y51766D01*
X71377Y51781D01*
X71382Y51794D01*
X71386Y51803D01*
X71390Y51812D01*
Y51818D01*
Y51820D01*
X71388Y51836D01*
X71382Y51851D01*
X71373Y51864D01*
X71364Y51875D01*
X71356Y51882D01*
X71347Y51888D01*
X71342Y51892D01*
X71340Y51894D01*
X71327Y51899D01*
X71310Y51903D01*
X71290Y51905D01*
X71269Y51907D01*
X71251Y51908D01*
D02*
G37*
G36*
X74435Y53160D02*
X74409D01*
X74383Y53158D01*
X74361D01*
X74340Y53156D01*
X74303Y53150D01*
X74275Y53147D01*
X74253Y53141D01*
X74238Y53136D01*
X74229Y53134D01*
X74225Y53132D01*
X74192Y53115D01*
X74164Y53093D01*
X74138Y53069D01*
X74118Y53045D01*
X74100Y53021D01*
X74089Y53002D01*
X74083Y52997D01*
X74079Y52991D01*
X74077Y52988D01*
Y52986D01*
X74064Y52960D01*
X74053Y52930D01*
X74035Y52871D01*
X74022Y52810D01*
X74014Y52751D01*
X74011Y52725D01*
X74009Y52699D01*
X74007Y52677D01*
Y52658D01*
X74005Y52641D01*
Y52630D01*
Y52621D01*
Y52619D01*
X74007Y52567D01*
X74009Y52519D01*
X74014Y52473D01*
X74022Y52432D01*
X74029Y52393D01*
X74039Y52360D01*
X74050Y52329D01*
X74059Y52301D01*
X74068Y52277D01*
X74079Y52255D01*
X74089Y52238D01*
X74096Y52223D01*
X74103Y52212D01*
X74107Y52203D01*
X74111Y52199D01*
X74113Y52197D01*
X74127Y52180D01*
X74144Y52164D01*
X74161Y52151D01*
X74179Y52140D01*
X74216Y52121D01*
X74253Y52110D01*
X74285Y52103D01*
X74300Y52101D01*
X74312Y52099D01*
X74322Y52097D01*
X74351D01*
X74366Y52099D01*
X74377Y52101D01*
X74387Y52105D01*
X74396Y52106D01*
X74401Y52108D01*
X74403Y52110D01*
X74405D01*
X74416Y52118D01*
X74424Y52125D01*
X74427Y52132D01*
X74429Y52134D01*
X74431Y52143D01*
X74433Y52156D01*
Y52171D01*
X74435Y52188D01*
Y52203D01*
Y52216D01*
Y52223D01*
Y52227D01*
Y53160D01*
D02*
G37*
%LPD*%
M02*
