G04*
G04 #@! TF.GenerationSoftware,Altium Limited,Altium Designer,21.3.2 (30)*
G04*
G04 Layer_Color=16711935*
%FSLAX24Y24*%
%MOIN*%
G70*
G04*
G04 #@! TF.SameCoordinates,59271FD7-B20C-4586-966E-2D71E4A343A8*
G04*
G04*
G04 #@! TF.FilePolarity,Negative*
G04*
G01*
G75*
%ADD43C,0.0489*%
%ADD44R,0.0489X0.0489*%
%ADD45R,0.0630X0.0630*%
%ADD46C,0.0630*%
%ADD47R,0.0598X0.0598*%
%ADD48C,0.0598*%
%ADD49R,0.0630X0.0630*%
%ADD50R,0.1000X0.1600*%
%ADD51R,0.1600X0.1000*%
%ADD52C,0.1260*%
D43*
X75800Y43550D02*
D03*
X74800D02*
D03*
X73800D02*
D03*
X72800D02*
D03*
X71800D02*
D03*
X70800D02*
D03*
X69800D02*
D03*
X68800D02*
D03*
X67800D02*
D03*
X66800D02*
D03*
X65800D02*
D03*
X64800D02*
D03*
X63800D02*
D03*
X62800D02*
D03*
Y46650D02*
D03*
X63800D02*
D03*
X64800D02*
D03*
X65800D02*
D03*
X66800D02*
D03*
X67800D02*
D03*
X68800D02*
D03*
X69800D02*
D03*
X70800D02*
D03*
X71800D02*
D03*
X72800D02*
D03*
X73800D02*
D03*
X74800D02*
D03*
D44*
X75800D02*
D03*
D45*
X57620Y52600D02*
D03*
D46*
X56620D02*
D03*
X55620D02*
D03*
X54620D02*
D03*
X77100Y50600D02*
D03*
Y49600D02*
D03*
Y48600D02*
D03*
X76100Y49600D02*
D03*
Y48600D02*
D03*
D47*
X71050Y39600D02*
D03*
X62050D02*
D03*
X76050Y58600D02*
D03*
X67450D02*
D03*
D48*
X72050Y39600D02*
D03*
X73050D02*
D03*
X74050D02*
D03*
X75050D02*
D03*
X76050D02*
D03*
X69050D02*
D03*
X68050D02*
D03*
X67050D02*
D03*
X66050D02*
D03*
X65050D02*
D03*
X64050D02*
D03*
X63050D02*
D03*
X69050Y58600D02*
D03*
X70050D02*
D03*
X71050D02*
D03*
X72050D02*
D03*
X73050D02*
D03*
X74050D02*
D03*
X75050D02*
D03*
X65450D02*
D03*
X58450D02*
D03*
X59450D02*
D03*
X60450D02*
D03*
X61450D02*
D03*
X62450D02*
D03*
X63450D02*
D03*
X64450D02*
D03*
X66450D02*
D03*
D49*
X76100Y50600D02*
D03*
D50*
X55790Y41870D02*
D03*
X53290D02*
D03*
D51*
X54790Y39870D02*
D03*
D52*
X77050Y52600D02*
D03*
Y41600D02*
D03*
X56550Y39600D02*
D03*
X57050Y58600D02*
D03*
M02*
