G04*
G04 #@! TF.GenerationSoftware,Altium Limited,Altium Designer,21.3.2 (30)*
G04*
G04 Layer_Physical_Order=1*
G04 Layer_Color=255*
%FSLAX24Y24*%
%MOIN*%
G70*
G04*
G04 #@! TF.SameCoordinates,BD5A3C24-ECAA-4070-AF75-8328BFFE722F*
G04*
G04*
G04 #@! TF.FilePolarity,Positive*
G04*
G01*
G75*
%ADD13C,0.0150*%
%ADD14C,0.0200*%
%ADD23R,0.0472X0.0551*%
%ADD24R,0.0700X0.0100*%
%ADD25R,0.0551X0.0472*%
%ADD26O,0.0709X0.0236*%
%ADD27R,0.0500X0.0550*%
%ADD28R,0.0748X0.0748*%
G04:AMPARAMS|DCode=29|XSize=216.5mil|YSize=59.1mil|CornerRadius=7.4mil|HoleSize=0mil|Usage=FLASHONLY|Rotation=0.000|XOffset=0mil|YOffset=0mil|HoleType=Round|Shape=RoundedRectangle|*
%AMROUNDEDRECTD29*
21,1,0.2165,0.0443,0,0,0.0*
21,1,0.2018,0.0591,0,0,0.0*
1,1,0.0148,0.1009,-0.0221*
1,1,0.0148,-0.1009,-0.0221*
1,1,0.0148,-0.1009,0.0221*
1,1,0.0148,0.1009,0.0221*
%
%ADD29ROUNDEDRECTD29*%
%ADD30R,0.0945X0.1299*%
%ADD31R,0.0945X0.0394*%
%ADD32R,0.0250X0.0984*%
%ADD33O,0.0250X0.0984*%
%ADD34R,0.0551X0.0394*%
%ADD35R,0.0550X0.0500*%
%ADD36R,0.0640X0.0900*%
%ADD37R,0.0591X0.0591*%
%ADD38R,0.0984X0.0669*%
%ADD39R,0.0787X0.1575*%
%ADD40R,0.0315X0.0472*%
%ADD43C,0.0489*%
%ADD44R,0.0489X0.0489*%
%ADD45R,0.0630X0.0630*%
%ADD46C,0.0630*%
%ADD47R,0.0598X0.0598*%
%ADD48C,0.0598*%
%ADD49R,0.0630X0.0630*%
%ADD50R,0.1000X0.1600*%
%ADD51R,0.1600X0.1000*%
%ADD52C,0.1260*%
%ADD53C,0.0400*%
%ADD54C,0.0120*%
%ADD55C,0.0500*%
%ADD56C,0.0300*%
G36*
X52230Y59216D02*
X52242Y59210D01*
X52262Y59205D01*
X52290Y59201D01*
X52326Y59197D01*
X52482Y59189D01*
X52626Y59188D01*
Y58788D01*
X52550Y58788D01*
X52262Y58771D01*
X52242Y58766D01*
X52230Y58760D01*
X52226Y58753D01*
Y59223D01*
X52230Y59216D01*
D02*
G37*
G36*
X76624Y59378D02*
X76694Y59349D01*
X76753Y59303D01*
X76799Y59244D01*
X76828Y59174D01*
X76837Y59105D01*
X76836Y59100D01*
Y54500D01*
X76852Y54418D01*
X76899Y54349D01*
X77836Y53411D01*
Y52898D01*
X77786Y52888D01*
X77750Y52974D01*
X77664Y53104D01*
X77554Y53214D01*
X77424Y53300D01*
X77280Y53360D01*
X77128Y53390D01*
X76972D01*
X76820Y53360D01*
X76676Y53300D01*
X76546Y53214D01*
X76436Y53104D01*
X76350Y52974D01*
X76290Y52830D01*
X76260Y52678D01*
Y52522D01*
X76290Y52370D01*
X76350Y52226D01*
X76436Y52096D01*
X76453Y52079D01*
X76434Y52033D01*
X75560D01*
X75466Y52021D01*
X75379Y51985D01*
X75303Y51927D01*
X75303Y51927D01*
X74992Y51615D01*
X74595D01*
Y51428D01*
X74392D01*
X74298Y51415D01*
X74211Y51379D01*
X74135Y51321D01*
X74121Y51302D01*
X73758D01*
Y51269D01*
X71686D01*
X71592Y51256D01*
X71504Y51220D01*
X71429Y51162D01*
X71429Y51162D01*
X70421Y50155D01*
X70364Y50080D01*
X70327Y49992D01*
X70315Y49898D01*
Y49057D01*
X70271Y49033D01*
X70243Y49052D01*
X70152Y49070D01*
X69371D01*
Y49894D01*
X69404D01*
Y49911D01*
X69420Y49954D01*
X69454Y49954D01*
X69951D01*
X69685Y50220D01*
X69795Y50330D01*
X69685Y50440D01*
X69951Y50706D01*
X69454D01*
X69420Y50706D01*
X69404Y50749D01*
Y50766D01*
X68611D01*
Y50692D01*
X68296D01*
Y50763D01*
X66755D01*
Y50693D01*
X66438D01*
Y50768D01*
X65646D01*
Y50752D01*
X65630Y50708D01*
X65596Y50708D01*
X65099D01*
X65365Y50443D01*
X65255Y50333D01*
X65365Y50223D01*
X65099Y49957D01*
X65596D01*
X65630Y49957D01*
X65646Y49914D01*
Y49897D01*
X65679D01*
Y49070D01*
X64788D01*
X64697Y49052D01*
X64652Y49022D01*
X64602Y49049D01*
Y55212D01*
X64668Y55278D01*
X64722Y55372D01*
X64750Y55476D01*
Y55584D01*
X64722Y55688D01*
X64668Y55782D01*
X64612Y55838D01*
X64633Y55888D01*
X65022D01*
X65088Y55822D01*
X65182Y55768D01*
X65286Y55740D01*
X65394D01*
X65498Y55768D01*
X65592Y55822D01*
X65668Y55898D01*
X65722Y55992D01*
X65750Y56096D01*
Y56204D01*
X65722Y56308D01*
X65668Y56402D01*
X65592Y56478D01*
X65498Y56532D01*
X65394Y56560D01*
X65286D01*
X65182Y56532D01*
X65088Y56478D01*
X65022Y56412D01*
X64047D01*
X64047Y56412D01*
X63979Y56403D01*
X63916Y56377D01*
X63862Y56335D01*
X63862Y56335D01*
X63705Y56178D01*
X63663Y56124D01*
X63637Y56061D01*
X63628Y55993D01*
X63628Y55993D01*
Y48279D01*
X63125Y47775D01*
X63083Y47721D01*
X63057Y47658D01*
X63048Y47590D01*
X63048Y47590D01*
Y47024D01*
X63004Y46999D01*
X62956Y47027D01*
X62853Y47055D01*
X62747D01*
X62644Y47027D01*
X62552Y46974D01*
X62476Y46898D01*
X62423Y46806D01*
X62395Y46703D01*
Y46597D01*
X62423Y46494D01*
X62476Y46402D01*
X62552Y46326D01*
X62622Y46285D01*
X62635Y46227D01*
X62615Y46207D01*
X62582Y46164D01*
X62540Y46168D01*
X62528Y46173D01*
X62519Y46206D01*
X62465Y46299D01*
X62389Y46375D01*
X62296Y46429D01*
X62191Y46457D01*
X62124D01*
X62055Y46526D01*
Y47648D01*
X62189D01*
Y48520D01*
X61767D01*
X61743Y48544D01*
Y48640D01*
X61739Y48668D01*
X61781Y48718D01*
X62302D01*
Y49588D01*
X61853D01*
X61653Y49788D01*
X61672Y49834D01*
X62199D01*
Y49907D01*
X62706D01*
X62800Y49919D01*
X62887Y49956D01*
X62962Y50013D01*
X63197Y50248D01*
X63197Y50248D01*
X63254Y50323D01*
X63291Y50410D01*
X63303Y50504D01*
Y50664D01*
X63344Y50718D01*
X63381Y50806D01*
X63393Y50900D01*
Y52700D01*
X63381Y52794D01*
X63344Y52882D01*
X63287Y52957D01*
X63287Y52957D01*
X62514Y53729D01*
X62439Y53787D01*
X62365Y53818D01*
X62375Y53868D01*
X62622D01*
X62648Y53842D01*
X62742Y53788D01*
X62846Y53760D01*
X62954D01*
X63058Y53788D01*
X63152Y53842D01*
X63228Y53918D01*
X63282Y54012D01*
X63310Y54116D01*
Y54224D01*
X63282Y54328D01*
X63228Y54422D01*
X63152Y54498D01*
X63058Y54552D01*
X62954Y54580D01*
X62846D01*
X62742Y54552D01*
X62648Y54498D01*
X62572Y54422D01*
X62555Y54392D01*
X62302D01*
Y55053D01*
X62109D01*
Y55298D01*
X62199D01*
Y55968D01*
X62462D01*
X62528Y55902D01*
X62622Y55848D01*
X62726Y55820D01*
X62834D01*
X62938Y55848D01*
X63032Y55902D01*
X63108Y55978D01*
X63162Y56072D01*
X63190Y56176D01*
Y56284D01*
X63162Y56388D01*
X63108Y56482D01*
X63032Y56558D01*
X62938Y56612D01*
X62834Y56640D01*
X62726D01*
X62622Y56612D01*
X62528Y56558D01*
X62462Y56492D01*
X61512D01*
X61502Y56494D01*
X61464Y56537D01*
Y56608D01*
X61436Y56713D01*
X61398Y56780D01*
X61426Y56830D01*
X70249D01*
X71471Y55608D01*
X71452Y55562D01*
X66708D01*
X66642Y55628D01*
X66548Y55682D01*
X66444Y55710D01*
X66336D01*
X66232Y55682D01*
X66138Y55628D01*
X66062Y55552D01*
X66008Y55458D01*
X65980Y55354D01*
Y55246D01*
X66008Y55142D01*
X66062Y55048D01*
X66138Y54972D01*
X66232Y54918D01*
X66336Y54890D01*
X66444D01*
X66548Y54918D01*
X66642Y54972D01*
X66708Y55038D01*
X73671D01*
X73850Y54859D01*
Y54766D01*
X73878Y54662D01*
X73932Y54568D01*
X74008Y54492D01*
X74102Y54438D01*
X74206Y54410D01*
X74314D01*
X74418Y54438D01*
X74512Y54492D01*
X74588Y54568D01*
X74642Y54662D01*
X74670Y54766D01*
Y54874D01*
X74642Y54978D01*
X74588Y55072D01*
X74512Y55148D01*
X74418Y55202D01*
X74314Y55230D01*
X74221D01*
X73965Y55485D01*
X73911Y55527D01*
X73848Y55553D01*
X73780Y55562D01*
X73780Y55562D01*
X73668D01*
X73638Y55612D01*
X73660Y55696D01*
Y55804D01*
X73632Y55908D01*
X73578Y56002D01*
X73502Y56078D01*
X73408Y56132D01*
X73304Y56160D01*
X73196D01*
X73092Y56132D01*
X72998Y56078D01*
X72922Y56002D01*
X72902Y55968D01*
X72579D01*
X72558Y56018D01*
X72618Y56078D01*
X72672Y56172D01*
X72700Y56276D01*
Y56384D01*
X72672Y56488D01*
X72618Y56582D01*
X72542Y56658D01*
X72448Y56712D01*
X72344Y56740D01*
X72251D01*
X71399Y57592D01*
X71344Y57634D01*
X71281Y57660D01*
X71213Y57669D01*
X71213Y57669D01*
X60752D01*
X60311Y58110D01*
X60337Y58155D01*
X60390Y58141D01*
X60510D01*
X60627Y58172D01*
X60732Y58233D01*
X60817Y58318D01*
X60878Y58423D01*
X60909Y58540D01*
Y58660D01*
X60878Y58777D01*
X60817Y58882D01*
X60732Y58967D01*
X60627Y59028D01*
X60510Y59059D01*
X60390D01*
X60273Y59028D01*
X60168Y58967D01*
X60083Y58882D01*
X60022Y58777D01*
X59991Y58660D01*
Y58540D01*
X60005Y58487D01*
X59960Y58461D01*
X59903Y58518D01*
X59909Y58540D01*
Y58660D01*
X59878Y58777D01*
X59817Y58882D01*
X59732Y58967D01*
X59627Y59028D01*
X59510Y59059D01*
X59390D01*
X59273Y59028D01*
X59168Y58967D01*
X59083Y58882D01*
X59022Y58777D01*
X58991Y58660D01*
Y58540D01*
X59005Y58487D01*
X58960Y58461D01*
X58903Y58518D01*
X58909Y58540D01*
Y58660D01*
X58878Y58777D01*
X58817Y58882D01*
X58732Y58967D01*
X58627Y59028D01*
X58510Y59059D01*
X58390D01*
X58273Y59028D01*
X58168Y58967D01*
X58083Y58882D01*
X58022Y58777D01*
X57991Y58660D01*
Y58540D01*
X58022Y58423D01*
X58083Y58318D01*
X58168Y58233D01*
X58273Y58172D01*
X58390Y58141D01*
X58510D01*
X58532Y58147D01*
X59035Y57644D01*
X59015Y57594D01*
X57253D01*
X57083Y57764D01*
X57102Y57810D01*
X57128D01*
X57280Y57840D01*
X57424Y57900D01*
X57554Y57986D01*
X57664Y58096D01*
X57750Y58226D01*
X57810Y58370D01*
X57840Y58522D01*
Y58678D01*
X57810Y58830D01*
X57750Y58974D01*
X57664Y59104D01*
X57554Y59214D01*
X57424Y59300D01*
X57338Y59336D01*
X57348Y59386D01*
X76550D01*
X76555Y59387D01*
X76624Y59378D01*
D02*
G37*
G36*
X51550Y59386D02*
X51703D01*
X51753Y59384D01*
Y59162D01*
X51719Y59082D01*
X51707Y58988D01*
X51719Y58894D01*
X51753Y58814D01*
Y58592D01*
X52387D01*
Y58625D01*
X52941D01*
X52974Y58606D01*
X53078Y58578D01*
X53186D01*
X53290Y58606D01*
X53384Y58660D01*
X53460Y58736D01*
X53514Y58830D01*
X53542Y58934D01*
Y59042D01*
X53514Y59146D01*
X53460Y59240D01*
X53384Y59316D01*
X53349Y59336D01*
X53363Y59386D01*
X56752D01*
X56762Y59336D01*
X56676Y59300D01*
X56546Y59214D01*
X56436Y59104D01*
X56350Y58974D01*
X56290Y58830D01*
X56260Y58678D01*
Y58522D01*
X56290Y58370D01*
X56350Y58226D01*
X56390Y58166D01*
X56366Y58122D01*
X55818D01*
X55752Y58188D01*
X55658Y58242D01*
X55554Y58270D01*
X55446D01*
X55342Y58242D01*
X55248Y58188D01*
X55172Y58112D01*
X55118Y58018D01*
X55090Y57914D01*
Y57872D01*
X55040Y57851D01*
X54786Y58105D01*
Y58566D01*
X53994D01*
Y58549D01*
X53978Y58506D01*
X53944Y58506D01*
X53447D01*
X53713Y58240D01*
X53624Y58151D01*
X53877Y57856D01*
X53839Y57853D01*
X53798Y57844D01*
X53756Y57830D01*
X53712Y57810D01*
X53666Y57785D01*
X53619Y57754D01*
X53944D01*
X53978Y57754D01*
X53994Y57711D01*
Y57694D01*
X54455D01*
X54811Y57338D01*
X54792Y57292D01*
X54715D01*
Y55987D01*
X55786D01*
X55805Y55941D01*
X55101Y55237D01*
X54617D01*
X54525Y55219D01*
X54447Y55167D01*
X54447Y55167D01*
X53825Y54545D01*
X53776Y54554D01*
X53764Y54582D01*
X53707Y54657D01*
X53632Y54714D01*
X53544Y54751D01*
X53450Y54763D01*
X53238D01*
X53238Y54763D01*
X53144Y54751D01*
X53141Y54749D01*
X52789D01*
X52695Y54737D01*
X52608Y54700D01*
X52532Y54643D01*
X52323Y54434D01*
X52266Y54358D01*
X52229Y54271D01*
X52217Y54177D01*
Y52862D01*
X52229Y52768D01*
X52248Y52724D01*
X52224Y52688D01*
X52230Y52672D01*
X52252Y52636D01*
X52278Y52608D01*
X52308Y52588D01*
X52342Y52576D01*
X52380Y52572D01*
X51839Y52573D01*
X52141Y52271D01*
X52544Y51867D01*
Y52319D01*
X52590Y52339D01*
X52667Y52262D01*
Y51650D01*
X52580D01*
Y50434D01*
X52380D01*
X52356Y50437D01*
X52309Y50431D01*
X52000D01*
Y51650D01*
X51264D01*
Y59100D01*
X51263Y59105D01*
X51272Y59174D01*
X51301Y59244D01*
X51347Y59303D01*
X51406Y59349D01*
X51476Y59378D01*
X51545Y59387D01*
X51550Y59386D01*
D02*
G37*
G36*
X59751Y58566D02*
X59756Y58534D01*
X59765Y58502D01*
X59778Y58469D01*
X59794Y58436D01*
X59814Y58402D01*
X59838Y58367D01*
X59866Y58332D01*
X59897Y58296D01*
X59932Y58260D01*
X59790Y58118D01*
X59754Y58153D01*
X59683Y58212D01*
X59648Y58236D01*
X59614Y58256D01*
X59581Y58272D01*
X59548Y58285D01*
X59516Y58294D01*
X59484Y58299D01*
X59453Y58301D01*
X59749Y58597D01*
X59751Y58566D01*
D02*
G37*
G36*
X58751D02*
X58756Y58534D01*
X58765Y58502D01*
X58778Y58469D01*
X58794Y58436D01*
X58814Y58402D01*
X58838Y58367D01*
X58866Y58332D01*
X58897Y58296D01*
X58932Y58260D01*
X58790Y58118D01*
X58754Y58153D01*
X58683Y58212D01*
X58648Y58236D01*
X58614Y58256D01*
X58581Y58272D01*
X58548Y58285D01*
X58516Y58294D01*
X58484Y58299D01*
X58453Y58301D01*
X58749Y58597D01*
X58751Y58566D01*
D02*
G37*
G36*
X54615Y58160D02*
X54613Y58138D01*
X54618Y58112D01*
X54629Y58083D01*
X54647Y58049D01*
X54672Y58012D01*
X54703Y57971D01*
X54786Y57877D01*
X54837Y57824D01*
X54664Y57714D01*
X54622Y57756D01*
X54545Y57820D01*
X54512Y57844D01*
X54482Y57861D01*
X54456Y57872D01*
X54432Y57878D01*
X54412Y57877D01*
X54395Y57870D01*
X54382Y57857D01*
X54624Y58178D01*
X54615Y58160D01*
D02*
G37*
G36*
X55695Y58021D02*
X55714Y58008D01*
X55736Y57997D01*
X55762Y57987D01*
X55790Y57979D01*
X55822Y57972D01*
X55857Y57967D01*
X55935Y57961D01*
X55979Y57960D01*
Y57760D01*
X55935Y57759D01*
X55857Y57753D01*
X55822Y57748D01*
X55790Y57741D01*
X55762Y57733D01*
X55736Y57723D01*
X55714Y57712D01*
X55695Y57699D01*
X55679Y57685D01*
Y58035D01*
X55695Y58021D01*
D02*
G37*
G36*
X56920Y57229D02*
X56968Y57190D01*
X56991Y57174D01*
X57014Y57161D01*
X57037Y57150D01*
X57059Y57141D01*
X57081Y57135D01*
X57103Y57132D01*
X57124Y57130D01*
X56876Y56848D01*
X56887Y56864D01*
X56893Y56882D01*
X56893Y56903D01*
X56889Y56926D01*
X56879Y56951D01*
X56864Y56979D01*
X56844Y57008D01*
X56820Y57040D01*
X56790Y57074D01*
X56755Y57111D01*
X56896Y57252D01*
X56920Y57229D01*
D02*
G37*
G36*
X59390Y57019D02*
X59377Y56971D01*
X59354Y56965D01*
X59322Y56947D01*
X59559Y56709D01*
X59797Y56472D01*
X59815Y56504D01*
X59821Y56527D01*
X59869Y56540D01*
X60040Y56369D01*
X60040Y56369D01*
X60095Y56327D01*
X60158Y56301D01*
X60226Y56292D01*
X60226Y56292D01*
X60737D01*
X60792Y56237D01*
Y56170D01*
X60658D01*
Y55298D01*
X61585D01*
Y55053D01*
X61482D01*
Y54392D01*
X61342D01*
Y54851D01*
X61062Y54572D01*
X60921Y54713D01*
X61200Y54993D01*
X60785D01*
X60857Y54931D01*
X60890Y54909D01*
X60920Y54892D01*
X60947Y54880D01*
X60971Y54875D01*
X60992D01*
X61010Y54880D01*
X61026Y54892D01*
X60743Y54609D01*
X60754Y54624D01*
X60760Y54643D01*
Y54664D01*
X60754Y54688D01*
X60743Y54715D01*
X60726Y54744D01*
X60703Y54777D01*
X60675Y54812D01*
X60601Y54892D01*
X60703Y54993D01*
X60642D01*
Y54979D01*
X60592Y54958D01*
X60542Y55008D01*
X60448Y55062D01*
X60344Y55090D01*
X60236D01*
X60132Y55062D01*
X60084D01*
X59924Y55222D01*
Y55500D01*
X59908D01*
X59864Y55516D01*
X59864Y55550D01*
Y55616D01*
X59763Y55617D01*
X59762Y55916D01*
X59764Y55897D01*
X59768Y55880D01*
X59776Y55865D01*
X59787Y55852D01*
X59802Y55841D01*
X59819Y55832D01*
X59840Y55825D01*
X59863Y55820D01*
X59864Y55820D01*
Y56047D01*
X59599Y55782D01*
X59489Y55892D01*
X59379Y55782D01*
X59214Y55946D01*
Y55617D01*
X59212Y55631D01*
X59207Y55643D01*
X59198Y55654D01*
X59185Y55663D01*
X59169Y55671D01*
X59149Y55677D01*
X59126Y55682D01*
X59113Y55684D01*
Y55550D01*
X59113Y55516D01*
X59070Y55500D01*
X59053D01*
Y55355D01*
X59014Y55325D01*
X58422Y54733D01*
X55693D01*
X55674Y54779D01*
X56545Y55649D01*
X56597Y55727D01*
X56615Y55819D01*
X56615Y55819D01*
Y55987D01*
X57252D01*
Y55672D01*
X57201Y55620D01*
X57147Y55527D01*
X57119Y55423D01*
Y55315D01*
X57147Y55210D01*
X57201Y55117D01*
X57277Y55041D01*
X57371Y54987D01*
X57475Y54959D01*
X57583D01*
X57687Y54987D01*
X57781Y55041D01*
X57857Y55117D01*
X57875Y55147D01*
X57936Y55154D01*
X57988Y55102D01*
X58082Y55048D01*
X58186Y55020D01*
X58294D01*
X58398Y55048D01*
X58492Y55102D01*
X58568Y55178D01*
X58622Y55272D01*
X58650Y55376D01*
Y55484D01*
X58622Y55588D01*
X58568Y55682D01*
X58492Y55758D01*
X58398Y55812D01*
X58294Y55840D01*
X58262D01*
Y55987D01*
X58285D01*
Y56099D01*
X58335Y56114D01*
X58338Y56110D01*
X58412Y56060D01*
X58500Y56043D01*
X58570Y56057D01*
X58468Y56152D01*
X58470Y56161D01*
X58429Y56202D01*
X58493Y56265D01*
X58624Y56863D01*
X58619Y56815D01*
X58625Y56761D01*
X58641Y56703D01*
X58668Y56639D01*
X58705Y56571D01*
X58730Y56533D01*
Y57007D01*
X58725Y57031D01*
X58757Y57069D01*
X59340D01*
X59390Y57019D01*
D02*
G37*
G36*
X60876Y56379D02*
X60859Y56394D01*
X60840Y56406D01*
X60818Y56418D01*
X60792Y56427D01*
X60764Y56436D01*
X60732Y56442D01*
X60698Y56448D01*
X60619Y56454D01*
X60575Y56454D01*
Y56654D01*
X60619Y56655D01*
X60698Y56661D01*
X60732Y56666D01*
X60764Y56673D01*
X60792Y56681D01*
X60818Y56691D01*
X60840Y56702D01*
X60859Y56715D01*
X60876Y56729D01*
Y56379D01*
D02*
G37*
G36*
X72053Y56709D02*
X72113Y56658D01*
X72141Y56637D01*
X72169Y56619D01*
X72195Y56605D01*
X72219Y56594D01*
X72243Y56586D01*
X72266Y56581D01*
X72288Y56580D01*
X72040Y56333D01*
X72039Y56354D01*
X72034Y56377D01*
X72026Y56401D01*
X72015Y56425D01*
X72001Y56451D01*
X71983Y56479D01*
X71962Y56507D01*
X71911Y56567D01*
X71880Y56598D01*
X72022Y56740D01*
X72053Y56709D01*
D02*
G37*
G36*
X56624Y56149D02*
X56597Y56148D01*
X56547Y56144D01*
X56525Y56140D01*
X56504Y56135D01*
X56486Y56129D01*
X56469Y56122D01*
X56453Y56114D01*
X56440Y56105D01*
X56428Y56094D01*
X56322Y56200D01*
X56332Y56219D01*
X56342Y56255D01*
X56350Y56307D01*
X56357Y56375D01*
X56372Y56679D01*
X56376Y57130D01*
X56624Y56149D01*
D02*
G37*
G36*
X56125Y56964D02*
X56168Y56219D01*
X56178Y56200D01*
X56072Y56094D01*
X56060Y56105D01*
X56047Y56114D01*
X56032Y56122D01*
X56015Y56129D01*
X55996Y56135D01*
X55976Y56140D01*
X55953Y56144D01*
X55930Y56146D01*
X55876Y56149D01*
X56124Y57130D01*
X56125Y56964D01*
D02*
G37*
G36*
X62601Y56055D02*
X62585Y56069D01*
X62566Y56082D01*
X62544Y56093D01*
X62518Y56103D01*
X62490Y56111D01*
X62458Y56118D01*
X62423Y56123D01*
X62345Y56129D01*
X62301Y56130D01*
Y56330D01*
X62345Y56331D01*
X62423Y56337D01*
X62458Y56342D01*
X62490Y56349D01*
X62518Y56357D01*
X62544Y56367D01*
X62566Y56378D01*
X62585Y56391D01*
X62601Y56405D01*
Y56055D01*
D02*
G37*
G36*
X65161Y55975D02*
X65145Y55989D01*
X65126Y56002D01*
X65104Y56013D01*
X65078Y56023D01*
X65050Y56031D01*
X65018Y56038D01*
X64983Y56043D01*
X64905Y56049D01*
X64861Y56050D01*
Y56250D01*
X64905Y56251D01*
X64983Y56257D01*
X65018Y56262D01*
X65050Y56269D01*
X65078Y56277D01*
X65104Y56287D01*
X65126Y56298D01*
X65145Y56311D01*
X65161Y56325D01*
Y55975D01*
D02*
G37*
G36*
X71880Y56369D02*
Y56276D01*
X71908Y56172D01*
X71962Y56078D01*
X72022Y56018D01*
X72001Y55968D01*
X71853D01*
X70722Y57098D01*
X70742Y57145D01*
X71104D01*
X71880Y56369D01*
D02*
G37*
G36*
X58119Y56147D02*
X58115Y56141D01*
X58112Y56131D01*
X58109Y56117D01*
X58106Y56099D01*
X58102Y56051D01*
X58100Y55949D01*
X57900D01*
X57900Y55987D01*
X57892Y56117D01*
X57889Y56131D01*
X57885Y56141D01*
X57881Y56147D01*
X57876Y56149D01*
X58124D01*
X58119Y56147D01*
D02*
G37*
G36*
X57622D02*
X57621Y56141D01*
X57619Y56131D01*
X57618Y56117D01*
X57615Y56021D01*
X57615Y55949D01*
X57415D01*
X57414Y55987D01*
X57409Y56077D01*
X57405Y56099D01*
X57401Y56117D01*
X57396Y56131D01*
X57390Y56141D01*
X57384Y56147D01*
X57376Y56149D01*
X57624D01*
X57622Y56147D01*
D02*
G37*
G36*
X61215Y56359D02*
X61202Y56340D01*
X61191Y56318D01*
X61181Y56292D01*
X61173Y56264D01*
X61166Y56232D01*
X61161Y56198D01*
X61157Y56148D01*
X61158Y56136D01*
X61163Y56106D01*
X61170Y56080D01*
X61179Y56058D01*
X61183Y56052D01*
X61198Y56065D01*
X61234Y56095D01*
X61271Y56132D01*
X61413Y55990D01*
X61376Y55953D01*
X61320Y55885D01*
X61300Y55855D01*
X61285Y55827D01*
X61275Y55802D01*
X61271Y55779D01*
X61272Y55759D01*
X61278Y55741D01*
X61289Y55725D01*
X61006Y56008D01*
X60854D01*
X60873Y56010D01*
X60890Y56016D01*
X60905Y56026D01*
X60918Y56040D01*
X60929Y56058D01*
X60938Y56080D01*
X60945Y56106D01*
X60950Y56136D01*
X60951Y56148D01*
X60948Y56198D01*
X60942Y56232D01*
X60936Y56264D01*
X60927Y56292D01*
X60918Y56318D01*
X60906Y56340D01*
X60894Y56359D01*
X60879Y56376D01*
X61229D01*
X61215Y56359D01*
D02*
G37*
G36*
X73105Y55546D02*
X73087Y55557D01*
X73066Y55568D01*
X73042Y55577D01*
X73015Y55584D01*
X72986Y55591D01*
X72954Y55596D01*
X72880Y55603D01*
X72840Y55605D01*
X72796Y55606D01*
X72756Y55806D01*
X72800Y55807D01*
X72878Y55813D01*
X72912Y55819D01*
X72943Y55827D01*
X72970Y55836D01*
X72993Y55847D01*
X73013Y55860D01*
X73030Y55874D01*
X73043Y55891D01*
X73105Y55546D01*
D02*
G37*
G36*
X57615Y55810D02*
X57622Y55731D01*
X57627Y55697D01*
X57634Y55666D01*
X57643Y55638D01*
X57653Y55613D01*
X57665Y55591D01*
X57679Y55572D01*
X57694Y55557D01*
X57344Y55537D01*
X57358Y55554D01*
X57370Y55574D01*
X57380Y55597D01*
X57389Y55623D01*
X57397Y55652D01*
X57403Y55684D01*
X57408Y55718D01*
X57414Y55797D01*
X57415Y55841D01*
X57615Y55854D01*
X57615Y55810D01*
D02*
G37*
G36*
X58084Y55729D02*
X58097Y55718D01*
X58112Y55709D01*
X58127Y55701D01*
X58143Y55695D01*
X58160Y55689D01*
X58178Y55685D01*
X58197Y55682D01*
X58217Y55680D01*
X58238Y55680D01*
X57990Y55433D01*
X57990Y55453D01*
X57988Y55473D01*
X57985Y55492D01*
X57981Y55510D01*
X57975Y55527D01*
X57969Y55543D01*
X57961Y55558D01*
X57952Y55573D01*
X57941Y55586D01*
X57929Y55599D01*
X58071Y55741D01*
X58084Y55729D01*
D02*
G37*
G36*
X62037Y55460D02*
X62020Y55458D01*
X62005Y55452D01*
X61991Y55442D01*
X61979Y55428D01*
X61970Y55410D01*
X61961Y55388D01*
X61955Y55362D01*
X61951Y55332D01*
X61948Y55298D01*
X61947Y55260D01*
X61747D01*
X61746Y55298D01*
X61743Y55332D01*
X61738Y55362D01*
X61731Y55388D01*
X61722Y55410D01*
X61711Y55428D01*
X61698Y55442D01*
X61683Y55453D01*
X61666Y55459D01*
X61647Y55461D01*
X62037Y55460D01*
D02*
G37*
G36*
X66585Y55461D02*
X66604Y55448D01*
X66626Y55437D01*
X66652Y55427D01*
X66680Y55419D01*
X66712Y55412D01*
X66747Y55407D01*
X66825Y55401D01*
X66869Y55400D01*
Y55200D01*
X66825Y55199D01*
X66747Y55193D01*
X66712Y55188D01*
X66680Y55181D01*
X66652Y55173D01*
X66626Y55163D01*
X66604Y55152D01*
X66585Y55139D01*
X66569Y55125D01*
Y55475D01*
X66585Y55461D01*
D02*
G37*
G36*
X59766Y55301D02*
X59774Y55261D01*
X59789Y55218D01*
X59808Y55174D01*
X59834Y55128D01*
X59865Y55080D01*
X59902Y55030D01*
X59992Y54925D01*
X60046Y54869D01*
X59763Y54586D01*
X59707Y54640D01*
X59595Y54731D01*
X59539Y54767D01*
X59484Y54799D01*
X59430Y54824D01*
X59377Y54843D01*
X59370Y54839D01*
X59304Y54793D01*
X59233Y54736D01*
X59072Y54586D01*
X58790Y54870D01*
X59214Y55339D01*
X59453Y55074D01*
X59763Y55339D01*
X59766Y55301D01*
D02*
G37*
G36*
X64501Y55335D02*
X64488Y55316D01*
X64477Y55294D01*
X64467Y55268D01*
X64459Y55240D01*
X64452Y55208D01*
X64447Y55173D01*
X64441Y55095D01*
X64440Y55051D01*
X64240D01*
X64239Y55095D01*
X64233Y55173D01*
X64228Y55208D01*
X64221Y55240D01*
X64213Y55268D01*
X64203Y55294D01*
X64192Y55316D01*
X64179Y55335D01*
X64165Y55351D01*
X64515D01*
X64501Y55335D01*
D02*
G37*
G36*
X61948Y55054D02*
X61951Y55020D01*
X61956Y54990D01*
X61963Y54964D01*
X61972Y54942D01*
X61983Y54924D01*
X61996Y54910D01*
X62011Y54900D01*
X62028Y54894D01*
X62047Y54892D01*
X61647D01*
X61666Y54894D01*
X61683Y54900D01*
X61698Y54910D01*
X61711Y54924D01*
X61722Y54942D01*
X61731Y54964D01*
X61738Y54990D01*
X61743Y55020D01*
X61746Y55054D01*
X61747Y55092D01*
X61947D01*
X61948Y55054D01*
D02*
G37*
G36*
X74023Y55199D02*
X74083Y55148D01*
X74111Y55127D01*
X74139Y55109D01*
X74165Y55095D01*
X74189Y55084D01*
X74213Y55076D01*
X74236Y55071D01*
X74257Y55070D01*
X74010Y54823D01*
X74009Y54844D01*
X74004Y54867D01*
X73996Y54891D01*
X73985Y54915D01*
X73971Y54941D01*
X73953Y54969D01*
X73932Y54997D01*
X73881Y55057D01*
X73850Y55088D01*
X73992Y55230D01*
X74023Y55199D01*
D02*
G37*
G36*
X62752Y53969D02*
X62734Y53980D01*
X62713Y53991D01*
X62689Y54000D01*
X62662Y54008D01*
X62633Y54015D01*
X62601Y54020D01*
X62527Y54028D01*
X62487Y54029D01*
X62443Y54030D01*
X62407Y54230D01*
X62451Y54231D01*
X62529Y54238D01*
X62563Y54243D01*
X62594Y54251D01*
X62621Y54260D01*
X62645Y54271D01*
X62665Y54284D01*
X62682Y54298D01*
X62696Y54314D01*
X62752Y53969D01*
D02*
G37*
G36*
X59048Y54563D02*
X58954Y54466D01*
X58801Y54290D01*
X58741Y54211D01*
X58693Y54137D01*
X58656Y54069D01*
X58631Y54007D01*
X58617Y53951D01*
X58614Y53900D01*
X58623Y53856D01*
X58376Y54571D01*
X58401Y54574D01*
X58429Y54583D01*
X58460Y54597D01*
X58495Y54617D01*
X58533Y54642D01*
X58575Y54673D01*
X58668Y54752D01*
X58774Y54854D01*
X59048Y54563D01*
D02*
G37*
G36*
X59676Y54442D02*
X59679Y54440D01*
X59663Y54390D01*
X59612Y54383D01*
X59549Y54357D01*
X59495Y54315D01*
X59495Y54315D01*
X58831Y53652D01*
X58785Y53671D01*
Y53861D01*
X58815Y53899D01*
X58851Y53987D01*
X58863Y54080D01*
Y54147D01*
X59417Y54701D01*
X59676Y54442D01*
D02*
G37*
G36*
X56624Y53588D02*
X56624Y53583D01*
X56625Y53423D01*
X56425D01*
X56425Y53455D01*
X56421Y53508D01*
X56417Y53530D01*
X56413Y53548D01*
X56408Y53563D01*
X56401Y53575D01*
X56394Y53583D01*
X56386Y53588D01*
X56376Y53590D01*
X56624D01*
X56624Y53588D01*
D02*
G37*
G36*
X57118Y53588D02*
X57112Y53583D01*
X57107Y53574D01*
X57102Y53562D01*
X57098Y53546D01*
X57095Y53527D01*
X57093Y53505D01*
X57090Y53450D01*
X57090Y53417D01*
X56890D01*
X56890Y53450D01*
X56881Y53583D01*
X56879Y53588D01*
X56876Y53590D01*
X57124D01*
X57118Y53588D01*
D02*
G37*
G36*
X56119Y53588D02*
X56115Y53582D01*
X56112Y53572D01*
X56109Y53558D01*
X56106Y53540D01*
X56102Y53492D01*
X56100Y53390D01*
X55900D01*
X55900Y53428D01*
X55892Y53558D01*
X55889Y53572D01*
X55885Y53582D01*
X55881Y53588D01*
X55876Y53590D01*
X56124D01*
X56119Y53588D01*
D02*
G37*
G36*
X55619D02*
X55615Y53582D01*
X55612Y53572D01*
X55609Y53558D01*
X55606Y53540D01*
X55602Y53492D01*
X55600Y53390D01*
X55400D01*
X55400Y53428D01*
X55392Y53558D01*
X55389Y53572D01*
X55385Y53582D01*
X55381Y53588D01*
X55376Y53590D01*
X55624D01*
X55619Y53588D01*
D02*
G37*
G36*
X55119D02*
X55115Y53582D01*
X55112Y53572D01*
X55109Y53558D01*
X55106Y53540D01*
X55102Y53492D01*
X55100Y53390D01*
X54900D01*
X54900Y53428D01*
X54892Y53558D01*
X54889Y53572D01*
X54885Y53582D01*
X54881Y53588D01*
X54876Y53590D01*
X55124D01*
X55119Y53588D01*
D02*
G37*
G36*
X62039Y53794D02*
X62046Y53769D01*
X62057Y53746D01*
X62073Y53727D01*
X62092Y53710D01*
X62117Y53697D01*
X62145Y53686D01*
X62178Y53679D01*
X62216Y53674D01*
X62257Y53673D01*
Y53273D01*
X62037Y53274D01*
Y53823D01*
X62039Y53794D01*
D02*
G37*
G36*
X53497Y53207D02*
X53487Y53205D01*
X53478Y53202D01*
X53470Y53198D01*
X53463Y53193D01*
X53458Y53187D01*
X53454Y53179D01*
X53451Y53170D01*
X53449Y53160D01*
X53448Y53149D01*
X53328D01*
X53328Y53160D01*
X53326Y53170D01*
X53323Y53179D01*
X53319Y53187D01*
X53313Y53193D01*
X53307Y53198D01*
X53299Y53202D01*
X53290Y53205D01*
X53280Y53207D01*
X53268Y53208D01*
X53508D01*
X53497Y53207D01*
D02*
G37*
G36*
X61204Y53273D02*
X61187Y53267D01*
X61172Y53257D01*
X61159Y53243D01*
X61148Y53225D01*
X61139Y53203D01*
X61132Y53176D01*
X61127Y53146D01*
X61124Y53112D01*
X61123Y53074D01*
X60923D01*
X60922Y53112D01*
X60919Y53146D01*
X60914Y53176D01*
X60907Y53203D01*
X60898Y53225D01*
X60887Y53243D01*
X60874Y53257D01*
X60859Y53267D01*
X60842Y53273D01*
X60823Y53275D01*
X61223D01*
X61204Y53273D01*
D02*
G37*
G36*
X54715Y54338D02*
Y53428D01*
X54738D01*
Y53198D01*
X54615Y53075D01*
X54557D01*
X54437Y53043D01*
X54328Y52980D01*
X54240Y52892D01*
X54177Y52783D01*
X54145Y52663D01*
Y52537D01*
X54177Y52417D01*
X54240Y52308D01*
X54328Y52220D01*
X54437Y52157D01*
X54557Y52125D01*
X54683D01*
X54803Y52157D01*
X54912Y52220D01*
X55000Y52308D01*
X55063Y52417D01*
X55095Y52537D01*
Y52663D01*
X55063Y52782D01*
X55151Y52869D01*
X55209Y52857D01*
X55213Y52846D01*
X55177Y52783D01*
X55145Y52663D01*
Y52537D01*
X55177Y52417D01*
X55240Y52308D01*
X55328Y52220D01*
X55437Y52157D01*
X55557Y52125D01*
X55683D01*
X55803Y52157D01*
X55912Y52220D01*
X56000Y52308D01*
X56063Y52417D01*
X56095Y52537D01*
Y52644D01*
X56138Y52670D01*
X56143Y52670D01*
X56146Y52667D01*
X56145Y52663D01*
Y52537D01*
X56177Y52417D01*
X56240Y52308D01*
X56328Y52220D01*
X56437Y52157D01*
X56557Y52125D01*
X56683D01*
X56803Y52157D01*
X56912Y52220D01*
X57000Y52308D01*
X57063Y52417D01*
X57085Y52502D01*
X57137Y52516D01*
X57143Y52513D01*
X57145Y52506D01*
Y52125D01*
X58083D01*
X58092Y52092D01*
X58119Y52045D01*
X58082Y52009D01*
X58035Y52036D01*
X57946Y52060D01*
X57854D01*
X57765Y52036D01*
X57733Y52018D01*
X57971Y51781D01*
X57829Y51639D01*
X57592Y51877D01*
X57574Y51845D01*
X57562Y51802D01*
X57506Y51787D01*
X57421Y51872D01*
X57346Y51930D01*
X57258Y51966D01*
X57164Y51979D01*
X55390D01*
Y52012D01*
X54518D01*
Y51943D01*
X54370D01*
X54276Y51930D01*
X54188Y51894D01*
X54113Y51836D01*
X53664Y51388D01*
X53607Y51313D01*
X53590Y51272D01*
X53540Y51282D01*
Y51650D01*
X53393D01*
Y52412D01*
X53381Y52506D01*
X53344Y52594D01*
X53287Y52669D01*
X52943Y53013D01*
Y53105D01*
X53341D01*
X53362Y53055D01*
X53338Y53032D01*
X53300Y52940D01*
Y52840D01*
X53317Y52799D01*
X53479Y52961D01*
X53688Y53170D01*
Y53289D01*
X53748D01*
Y53522D01*
X53822Y53537D01*
X53900Y53589D01*
X54669Y54358D01*
X54715Y54338D01*
D02*
G37*
G36*
X55602Y53175D02*
X55606Y53126D01*
X55613Y53081D01*
X55622Y53040D01*
X55635Y53004D01*
X55650Y52973D01*
X55668Y52946D01*
X55689Y52923D01*
X55712Y52905D01*
X55738Y52892D01*
X55338Y52739D01*
X55349Y52767D01*
X55360Y52799D01*
X55369Y52835D01*
X55378Y52875D01*
X55390Y52968D01*
X55398Y53079D01*
X55400Y53206D01*
X55600Y53229D01*
X55602Y53175D01*
D02*
G37*
G36*
X61124Y52868D02*
X61127Y52833D01*
X61132Y52803D01*
X61139Y52777D01*
X61148Y52755D01*
X61159Y52737D01*
X61172Y52723D01*
X61187Y52713D01*
X61204Y52707D01*
X61223Y52705D01*
X60823D01*
X60842Y52707D01*
X60859Y52713D01*
X60874Y52723D01*
X60887Y52737D01*
X60898Y52755D01*
X60907Y52777D01*
X60914Y52803D01*
X60919Y52833D01*
X60922Y52868D01*
X60923Y52906D01*
X61123D01*
X61124Y52868D01*
D02*
G37*
G36*
X55071Y53019D02*
X55036Y52982D01*
X55005Y52946D01*
X54979Y52910D01*
X54958Y52875D01*
X54941Y52841D01*
X54929Y52807D01*
X54921Y52775D01*
X54918Y52743D01*
X54919Y52711D01*
X54925Y52680D01*
X54546Y52906D01*
X54580Y52916D01*
X54615Y52928D01*
X54650Y52944D01*
X54685Y52962D01*
X54720Y52983D01*
X54756Y53007D01*
X54828Y53064D01*
X54865Y53097D01*
X54901Y53132D01*
X55071Y53019D01*
D02*
G37*
G36*
X57306Y52914D02*
X57307Y52615D01*
X57306Y52634D01*
X57300Y52651D01*
X57292Y52666D01*
X57279Y52679D01*
X57264Y52690D01*
X57245Y52699D01*
X57222Y52706D01*
X57196Y52711D01*
X57166Y52714D01*
X57133Y52715D01*
Y52915D01*
X57306Y52914D01*
D02*
G37*
G36*
X56295Y53068D02*
X56370Y53007D01*
X56406Y52982D01*
X56442Y52962D01*
X56478Y52944D01*
X56514Y52931D01*
X56548Y52922D01*
X56583Y52917D01*
X56617Y52915D01*
X56305Y52603D01*
X56303Y52637D01*
X56298Y52672D01*
X56289Y52706D01*
X56276Y52742D01*
X56258Y52778D01*
X56238Y52814D01*
X56213Y52850D01*
X56184Y52888D01*
X56152Y52925D01*
X56115Y52963D01*
X56257Y53105D01*
X56295Y53068D01*
D02*
G37*
G36*
X62028Y52156D02*
X62011Y52150D01*
X61996Y52140D01*
X61983Y52126D01*
X61972Y52108D01*
X61963Y52086D01*
X61956Y52060D01*
X61951Y52030D01*
X61948Y51996D01*
X61947Y51958D01*
X61747D01*
X61746Y51996D01*
X61743Y52030D01*
X61738Y52060D01*
X61731Y52086D01*
X61722Y52108D01*
X61711Y52126D01*
X61698Y52140D01*
X61683Y52150D01*
X61666Y52156D01*
X61647Y52158D01*
X62047D01*
X62028Y52156D01*
D02*
G37*
G36*
X59257Y52454D02*
Y51269D01*
X59269Y51175D01*
X59306Y51088D01*
X59363Y51013D01*
X59662Y50714D01*
Y49915D01*
X59622Y49890D01*
X59165D01*
X59155Y49893D01*
X59088Y49902D01*
X59088Y49902D01*
X58671D01*
X58655Y49952D01*
X58691Y50000D01*
X58719Y50067D01*
X58729Y50140D01*
X58719Y50213D01*
X58691Y50280D01*
X58647Y50338D01*
X58621Y50358D01*
Y50422D01*
X58647Y50442D01*
X58691Y50500D01*
X58719Y50567D01*
X58729Y50640D01*
X58719Y50713D01*
X58693Y50776D01*
Y50959D01*
X58712Y50992D01*
X58740Y51096D01*
Y51204D01*
X58712Y51308D01*
X58658Y51402D01*
X58582Y51478D01*
X58488Y51532D01*
X58384Y51560D01*
X58276D01*
X58272Y51559D01*
X58233Y51600D01*
X58250Y51664D01*
Y51756D01*
X58226Y51845D01*
X58211Y51871D01*
X58248Y51907D01*
X58316Y51868D01*
X58420Y51840D01*
X58528D01*
X58633Y51868D01*
X58726Y51922D01*
X58802Y51998D01*
X58856Y52092D01*
X58866Y52128D01*
X59211Y52473D01*
X59257Y52454D01*
D02*
G37*
G36*
X60658Y53113D02*
X60761D01*
Y52867D01*
X60582D01*
Y51997D01*
X61402D01*
Y52867D01*
X61285D01*
Y53113D01*
X61815D01*
X61838Y53110D01*
X62107D01*
X62299Y52917D01*
X62279Y52867D01*
X61482D01*
Y51997D01*
X61585D01*
Y51798D01*
X60658D01*
Y51697D01*
X60612Y51676D01*
X60580Y51701D01*
Y51704D01*
X60552Y51808D01*
X60498Y51902D01*
X60422Y51978D01*
X60328Y52032D01*
X60224Y52060D01*
X60116D01*
X60033Y52038D01*
X59983Y52068D01*
Y53113D01*
X60139Y53268D01*
X60232Y53322D01*
X60308Y53398D01*
X60362Y53492D01*
X60390Y53596D01*
Y53704D01*
X60362Y53808D01*
X60353Y53824D01*
X60378Y53868D01*
X60658D01*
Y53113D01*
D02*
G37*
G36*
X61948Y51799D02*
X61951Y51765D01*
X61955Y51735D01*
X61961Y51709D01*
X61970Y51687D01*
X61979Y51669D01*
X61991Y51655D01*
X62005Y51645D01*
X62020Y51639D01*
X62037Y51637D01*
X61647D01*
X61666Y51639D01*
X61683Y51645D01*
X61698Y51655D01*
X61711Y51669D01*
X61722Y51687D01*
X61731Y51709D01*
X61738Y51735D01*
X61743Y51765D01*
X61746Y51799D01*
X61747Y51837D01*
X61947D01*
X61948Y51799D01*
D02*
G37*
G36*
X62419Y51613D02*
X62399Y51615D01*
X62376Y51613D01*
X62353Y51607D01*
X62328Y51598D01*
X62303Y51585D01*
X62276Y51569D01*
X62247Y51549D01*
X62218Y51526D01*
X62156Y51468D01*
X62084Y51569D01*
Y51438D01*
X62075Y51437D01*
X62067Y51434D01*
X62060Y51429D01*
X62054Y51422D01*
X62048Y51413D01*
X62044Y51402D01*
X62041Y51389D01*
X62038Y51374D01*
X62037Y51357D01*
X62036Y51338D01*
X62037Y51637D01*
X62042Y51637D01*
X62069Y51665D01*
X62143Y51752D01*
X62162Y51779D01*
X62178Y51804D01*
X62191Y51829D01*
X62201Y51852D01*
X62208Y51874D01*
X62213Y51896D01*
X62419Y51613D01*
D02*
G37*
G36*
X53231Y51813D02*
X53243Y51685D01*
X53254Y51633D01*
X53267Y51589D01*
X53284Y51553D01*
X53303Y51525D01*
X53325Y51505D01*
X53351Y51493D01*
X53379Y51489D01*
X52741D01*
X52758Y51493D01*
X52773Y51505D01*
X52786Y51525D01*
X52798Y51553D01*
X52808Y51589D01*
X52816Y51633D01*
X52822Y51685D01*
X52829Y51813D01*
X52830Y51889D01*
X53230D01*
X53231Y51813D01*
D02*
G37*
G36*
X75627Y51454D02*
X75548Y51372D01*
X75423Y51225D01*
X75378Y51160D01*
X75344Y51100D01*
X75321Y51047D01*
X75310Y50999D01*
Y50956D01*
X75321Y50919D01*
X75344Y50888D01*
X74778Y51454D01*
X74809Y51431D01*
X74846Y51420D01*
X74889D01*
X74937Y51431D01*
X74991Y51454D01*
X75050Y51488D01*
X75115Y51533D01*
X75186Y51590D01*
X75344Y51737D01*
X75627Y51454D01*
D02*
G37*
G36*
X55232Y51844D02*
X55244Y51838D01*
X55264Y51833D01*
X55292Y51828D01*
X55328Y51824D01*
X55484Y51817D01*
X55628Y51816D01*
Y51416D01*
X55552Y51415D01*
X55264Y51399D01*
X55244Y51393D01*
X55232Y51387D01*
X55228Y51381D01*
Y51851D01*
X55232Y51844D01*
D02*
G37*
G36*
X54680Y51381D02*
X54676Y51380D01*
X54652Y51380D01*
X54370Y51380D01*
Y51780D01*
X54428Y51780D01*
X54568Y51791D01*
X54602Y51797D01*
X54630Y51805D01*
X54652Y51814D01*
X54667Y51825D01*
X54676Y51837D01*
X54680Y51851D01*
Y51381D01*
D02*
G37*
G36*
X60420Y51685D02*
X60428Y51663D01*
X60440Y51640D01*
X60454Y51616D01*
X60470Y51591D01*
X60512Y51537D01*
X60537Y51508D01*
X60595Y51447D01*
X60468Y51292D01*
X60440Y51318D01*
X60388Y51361D01*
X60363Y51377D01*
X60339Y51391D01*
X60315Y51400D01*
X60293Y51407D01*
X60271Y51410D01*
X60250Y51410D01*
X60230Y51407D01*
X60414Y51705D01*
X60420Y51685D01*
D02*
G37*
G36*
X60820Y51163D02*
X60818Y51182D01*
X60812Y51199D01*
X60802Y51213D01*
X60788Y51227D01*
X60770Y51238D01*
X60748Y51247D01*
X60722Y51253D01*
X60692Y51259D01*
X60657Y51262D01*
X60619Y51262D01*
Y51462D01*
X60657Y51463D01*
X60692Y51466D01*
X60722Y51472D01*
X60748Y51479D01*
X60770Y51487D01*
X60788Y51498D01*
X60802Y51512D01*
X60812Y51526D01*
X60818Y51543D01*
X60820Y51562D01*
Y51163D01*
D02*
G37*
G36*
X77256Y51129D02*
X77271Y50893D01*
X77276Y50874D01*
X77281Y50861D01*
X77287Y50854D01*
X76850Y50792D01*
X76851Y50796D01*
X76852Y50807D01*
X76855Y50876D01*
X76856Y51114D01*
X77256Y51189D01*
X77256Y51129D01*
D02*
G37*
G36*
X57959Y51105D02*
X58117Y50967D01*
X58122Y51000D01*
X58128Y51071D01*
X58130Y51150D01*
X58530Y51125D01*
X58551Y50699D01*
X58320Y50717D01*
X57862Y50609D01*
X57859Y50618D01*
X57849Y50631D01*
X57835Y50650D01*
X57757Y50736D01*
X57575Y50922D01*
X57880Y51182D01*
X57959Y51105D01*
D02*
G37*
G36*
X74756Y51261D02*
X74868Y51265D01*
Y50865D01*
X74792Y50863D01*
X74724Y50857D01*
X74664Y50847D01*
X74612Y50834D01*
X74568Y50816D01*
X74532Y50795D01*
X74504Y50770D01*
X74484Y50741D01*
X74472Y50708D01*
X74468Y50671D01*
Y50865D01*
X74392Y50865D01*
Y51265D01*
X74461Y51267D01*
X74523Y51272D01*
X74578Y51282D01*
X74625Y51295D01*
X74665Y51312D01*
X74698Y51333D01*
X74723Y51357D01*
X74741Y51386D01*
X74752Y51418D01*
X74756Y51454D01*
Y51261D01*
D02*
G37*
G36*
X73920Y50671D02*
X73916Y50677D01*
X73904Y50683D01*
X73884Y50689D01*
X73856Y50693D01*
X73820Y50697D01*
X73664Y50704D01*
X73520Y50706D01*
Y51106D01*
X73596Y51106D01*
X73884Y51123D01*
X73904Y51128D01*
X73916Y51134D01*
X73920Y51141D01*
Y50671D01*
D02*
G37*
G36*
X68773Y50056D02*
X69243D01*
X69236Y50052D01*
X69230Y50040D01*
X69225Y50020D01*
X69220Y49992D01*
X69216Y49956D01*
X69209Y49800D01*
X69208Y49656D01*
X68808D01*
X68807Y49732D01*
X68791Y50020D01*
X68785Y50040D01*
X68779Y50052D01*
X68773Y50056D01*
X68769Y50069D01*
X68757Y50082D01*
X68737Y50093D01*
X68709Y50102D01*
X68673Y50110D01*
X68629Y50117D01*
X68517Y50126D01*
X68447Y50127D01*
X68279Y50117D01*
X68235Y50110D01*
X68199Y50101D01*
X68171Y50092D01*
X68151Y50080D01*
X68139Y50067D01*
X68135Y50053D01*
Y50602D01*
X68139Y50588D01*
X68151Y50575D01*
X68171Y50565D01*
X68199Y50555D01*
X68235Y50547D01*
X68279Y50540D01*
X68391Y50532D01*
X68461Y50530D01*
X68629Y50541D01*
X68673Y50548D01*
X68709Y50556D01*
X68737Y50566D01*
X68757Y50577D01*
X68769Y50590D01*
X68773Y50604D01*
Y50056D01*
D02*
G37*
G36*
X56263Y50751D02*
X56275Y50749D01*
X56289Y50747D01*
X56329Y50743D01*
X56448Y50740D01*
X56486Y50740D01*
Y50540D01*
X56448Y50540D01*
X56263Y50529D01*
X56255Y50526D01*
Y50754D01*
X56263Y50751D01*
D02*
G37*
G36*
X74472Y50379D02*
X74483Y50367D01*
X74501Y50356D01*
X74526Y50347D01*
X74558Y50339D01*
X74598Y50333D01*
X74645Y50328D01*
X74760Y50322D01*
X74829Y50321D01*
Y49921D01*
X74757Y49922D01*
X74757Y49721D01*
X74753Y49759D01*
X74741Y49794D01*
X74721Y49823D01*
X74693Y49850D01*
X74657Y49872D01*
X74612Y49889D01*
X74560Y49903D01*
X74500Y49914D01*
X74432Y49920D01*
X74356Y49921D01*
Y50321D01*
X74468Y50286D01*
Y50393D01*
X74472Y50379D01*
D02*
G37*
G36*
X77836Y52302D02*
Y41898D01*
X77786Y41888D01*
X77750Y41974D01*
X77664Y42104D01*
X77554Y42214D01*
X77424Y42300D01*
X77280Y42360D01*
X77128Y42390D01*
X76972D01*
X76820Y42360D01*
X76676Y42300D01*
X76546Y42214D01*
X76436Y42104D01*
X76350Y41974D01*
X76290Y41830D01*
X76260Y41678D01*
Y41522D01*
X76290Y41370D01*
X76350Y41226D01*
X76436Y41096D01*
X76546Y40986D01*
X76676Y40900D01*
X76820Y40840D01*
X76972Y40810D01*
X77128D01*
X77280Y40840D01*
X77424Y40900D01*
X77554Y40986D01*
X77664Y41096D01*
X77750Y41226D01*
X77786Y41312D01*
X77836Y41302D01*
Y40689D01*
X76899Y39751D01*
X76852Y39682D01*
X76836Y39600D01*
Y38980D01*
X76837Y38974D01*
X76825Y38916D01*
X76789Y38861D01*
X76734Y38825D01*
X76676Y38813D01*
X76670Y38814D01*
X56848D01*
X56838Y38864D01*
X56924Y38900D01*
X57054Y38986D01*
X57164Y39096D01*
X57250Y39226D01*
X57310Y39370D01*
X57340Y39522D01*
Y39678D01*
X57310Y39830D01*
X57250Y39974D01*
X57164Y40104D01*
X57054Y40214D01*
X56924Y40300D01*
X56780Y40360D01*
X56628Y40390D01*
X56472D01*
X56320Y40360D01*
X56176Y40300D01*
X56046Y40214D01*
X55936Y40104D01*
X55850Y39974D01*
X55790Y39830D01*
X55760Y39678D01*
Y39522D01*
X55790Y39370D01*
X55850Y39226D01*
X55936Y39096D01*
X56046Y38986D01*
X56176Y38900D01*
X56262Y38864D01*
X56252Y38814D01*
X51500D01*
X51491Y38812D01*
X51408Y38829D01*
X51331Y38881D01*
X51279Y38958D01*
X51262Y39041D01*
X51264Y39050D01*
Y44210D01*
X52332D01*
Y44657D01*
X55392D01*
X56063Y43985D01*
X56139Y43927D01*
X56226Y43891D01*
X56320Y43879D01*
X56320Y43879D01*
X57246D01*
Y43294D01*
X57970D01*
X57994Y43291D01*
X57994Y43291D01*
X58237D01*
X58635Y42893D01*
X58635Y42893D01*
X58710Y42836D01*
X58798Y42799D01*
X58892Y42787D01*
X58892Y42787D01*
X60016D01*
Y42208D01*
X60017Y42208D01*
X60054Y42230D01*
X60082Y42256D01*
X60101Y42286D01*
X60114Y42320D01*
X60118Y42358D01*
Y41558D01*
X60114Y41596D01*
X60101Y41630D01*
X60082Y41660D01*
X60054Y41686D01*
X60017Y41708D01*
X60016Y41709D01*
Y41212D01*
X60439Y41635D01*
X60510Y41565D01*
X60581Y41635D01*
X61004Y41212D01*
Y42507D01*
X61050Y42527D01*
X61210Y42366D01*
Y42356D01*
X61238Y42252D01*
X61292Y42158D01*
X61368Y42082D01*
X61462Y42028D01*
X61566Y42000D01*
X61674D01*
X61757Y42022D01*
X61807Y41992D01*
Y41150D01*
X61570Y40913D01*
X60890D01*
X60796Y40901D01*
X60708Y40864D01*
X60633Y40807D01*
X60633Y40807D01*
X60454Y40628D01*
X59802D01*
X59778Y40625D01*
X59015D01*
Y39635D01*
X60320D01*
Y39902D01*
X60605D01*
X60699Y39914D01*
X60786Y39950D01*
X60861Y40008D01*
X61040Y40187D01*
X61720D01*
X61814Y40199D01*
X61902Y40236D01*
X61977Y40293D01*
X62250Y40567D01*
X63438D01*
X63457Y40521D01*
X62996Y40059D01*
X62990D01*
X62873Y40028D01*
X62768Y39967D01*
X62683Y39882D01*
X62622Y39777D01*
X62591Y39660D01*
Y39540D01*
X62622Y39423D01*
X62683Y39318D01*
X62768Y39233D01*
X62873Y39172D01*
X62990Y39141D01*
X63110D01*
X63227Y39172D01*
X63332Y39233D01*
X63417Y39318D01*
X63478Y39423D01*
X63509Y39540D01*
Y39546D01*
X63545Y39581D01*
X63591Y39562D01*
Y39540D01*
X63622Y39423D01*
X63683Y39318D01*
X63768Y39233D01*
X63873Y39172D01*
X63990Y39141D01*
X64110D01*
X64227Y39172D01*
X64332Y39233D01*
X64417Y39318D01*
X64478Y39423D01*
X64509Y39540D01*
Y39660D01*
X64478Y39777D01*
X64417Y39882D01*
X64343Y39957D01*
X64357Y40007D01*
X64743D01*
X64757Y39957D01*
X64683Y39882D01*
X64622Y39777D01*
X64591Y39660D01*
Y39540D01*
X64622Y39423D01*
X64683Y39318D01*
X64768Y39233D01*
X64873Y39172D01*
X64990Y39141D01*
X65110D01*
X65227Y39172D01*
X65332Y39233D01*
X65417Y39318D01*
X65478Y39423D01*
X65509Y39540D01*
Y39562D01*
X65555Y39581D01*
X65591Y39546D01*
Y39540D01*
X65622Y39423D01*
X65683Y39318D01*
X65768Y39233D01*
X65873Y39172D01*
X65990Y39141D01*
X66110D01*
X66227Y39172D01*
X66332Y39233D01*
X66417Y39318D01*
X66478Y39423D01*
X66509Y39540D01*
Y39660D01*
X66478Y39777D01*
X66417Y39882D01*
X66332Y39967D01*
X66227Y40028D01*
X66110Y40059D01*
X66104D01*
X65643Y40521D01*
X65662Y40567D01*
X68665D01*
X68687Y40545D01*
Y39886D01*
X68683Y39882D01*
X68622Y39777D01*
X68591Y39660D01*
Y39540D01*
X68622Y39423D01*
X68683Y39318D01*
X68768Y39233D01*
X68873Y39172D01*
X68990Y39141D01*
X69110D01*
X69227Y39172D01*
X69332Y39233D01*
X69417Y39318D01*
X69478Y39423D01*
X69509Y39540D01*
Y39660D01*
X69478Y39777D01*
X69417Y39882D01*
X69413Y39886D01*
Y40696D01*
X69401Y40790D01*
X69364Y40877D01*
X69307Y40952D01*
X69307Y40952D01*
X69072Y41187D01*
X68997Y41244D01*
X68910Y41281D01*
X68816Y41293D01*
X65018D01*
X64988Y41343D01*
X65010Y41426D01*
Y41534D01*
X64982Y41638D01*
X64928Y41732D01*
X64852Y41808D01*
X64758Y41862D01*
X64722Y41872D01*
X64467Y42127D01*
X64480Y42175D01*
X64528Y42188D01*
X64561Y42207D01*
X75910D01*
X76004Y42219D01*
X76092Y42256D01*
X76167Y42313D01*
X76587Y42733D01*
X76644Y42808D01*
X76681Y42896D01*
X76693Y42990D01*
X76693Y42990D01*
Y43225D01*
X76695Y43230D01*
X76708Y43324D01*
X76708Y43324D01*
Y45587D01*
X76754Y45606D01*
X76768Y45592D01*
X76862Y45538D01*
X76966Y45510D01*
X77074D01*
X77178Y45538D01*
X77272Y45592D01*
X77348Y45668D01*
X77402Y45762D01*
X77430Y45866D01*
Y45974D01*
X77402Y46078D01*
X77348Y46172D01*
X77272Y46248D01*
X77178Y46302D01*
X77074Y46330D01*
X77057D01*
X76842Y46544D01*
Y47520D01*
X76833Y47588D01*
X76807Y47651D01*
X76804Y47655D01*
Y48245D01*
X76854Y48263D01*
X76940Y48213D01*
X77045Y48185D01*
X77155D01*
X77260Y48213D01*
X77314Y48244D01*
X77029Y48529D01*
X77100Y48600D01*
X77029Y48671D01*
X77314Y48956D01*
X77260Y48987D01*
X77155Y49015D01*
X77045D01*
X76940Y48987D01*
X76876Y48950D01*
X76823Y48973D01*
X76819Y49002D01*
X76962Y49145D01*
X77037Y49125D01*
X77163D01*
X77283Y49157D01*
X77392Y49220D01*
X77480Y49308D01*
X77543Y49417D01*
X77575Y49537D01*
Y49663D01*
X77543Y49783D01*
X77480Y49892D01*
X77392Y49980D01*
X77283Y50043D01*
X77163Y50075D01*
X77037D01*
X76917Y50043D01*
X76808Y49980D01*
X76720Y49892D01*
X76657Y49783D01*
X76625Y49663D01*
Y49537D01*
X76645Y49462D01*
X76592Y49410D01*
X76548Y49436D01*
X76575Y49537D01*
Y49663D01*
X76543Y49783D01*
X76480Y49892D01*
X76392Y49980D01*
X76283Y50043D01*
X76163Y50075D01*
X76037D01*
X75917Y50043D01*
X75808Y49980D01*
X75720Y49892D01*
X75657Y49783D01*
X75625Y49663D01*
Y49537D01*
X75657Y49417D01*
X75617Y49386D01*
X75508Y49495D01*
Y49805D01*
X75508Y49805D01*
X75505Y49828D01*
Y50355D01*
X75108D01*
X75085Y50378D01*
X75010Y50436D01*
X74923Y50472D01*
X74829Y50485D01*
X74630D01*
Y50702D01*
X74955D01*
X74978Y50705D01*
X75505D01*
Y51102D01*
X75711Y51307D01*
X76570D01*
X76693Y51184D01*
Y50845D01*
X76657Y50783D01*
X76625Y50663D01*
Y50537D01*
X76657Y50417D01*
X76720Y50308D01*
X76808Y50220D01*
X76917Y50157D01*
X77037Y50125D01*
X77163D01*
X77283Y50157D01*
X77392Y50220D01*
X77480Y50308D01*
X77543Y50417D01*
X77575Y50537D01*
Y50663D01*
X77543Y50783D01*
X77480Y50892D01*
X77419Y50953D01*
Y51334D01*
X77407Y51428D01*
X77370Y51516D01*
X77313Y51591D01*
X77142Y51762D01*
X77158Y51816D01*
X77280Y51840D01*
X77424Y51900D01*
X77554Y51986D01*
X77664Y52096D01*
X77750Y52226D01*
X77786Y52312D01*
X77836Y52302D01*
D02*
G37*
G36*
X55211Y50629D02*
X55196Y50617D01*
X55183Y50597D01*
X55171Y50569D01*
X55161Y50533D01*
X55153Y50489D01*
X55147Y50437D01*
X55142Y50352D01*
X55154Y50171D01*
X55160Y50135D01*
X55168Y50107D01*
X55177Y50087D01*
X55187Y50075D01*
X55198Y50071D01*
X54650D01*
X54667Y50075D01*
X54682Y50087D01*
X54695Y50107D01*
X54707Y50135D01*
X54717Y50171D01*
X54725Y50215D01*
X54731Y50267D01*
X54736Y50351D01*
X54724Y50533D01*
X54718Y50569D01*
X54710Y50597D01*
X54701Y50617D01*
X54691Y50629D01*
X54680Y50633D01*
X55228D01*
X55211Y50629D01*
D02*
G37*
G36*
X66281Y50592D02*
X66293Y50579D01*
X66313Y50568D01*
X66341Y50558D01*
X66377Y50549D01*
X66421Y50542D01*
X66473Y50537D01*
X66596Y50531D01*
X66817Y50548D01*
X66853Y50556D01*
X66881Y50565D01*
X66901Y50576D01*
X66913Y50588D01*
X66917Y50602D01*
Y50053D01*
X66913Y50068D01*
X66901Y50081D01*
X66881Y50092D01*
X66853Y50102D01*
X66817Y50111D01*
X66773Y50118D01*
X66721Y50123D01*
X66598Y50129D01*
X66377Y50112D01*
X66341Y50104D01*
X66313Y50095D01*
X66293Y50084D01*
X66281Y50072D01*
X66277Y50058D01*
X66271Y50054D01*
X66265Y50042D01*
X66259Y50022D01*
X66255Y49994D01*
X66251Y49958D01*
X66244Y49802D01*
X66242Y49658D01*
X65842D01*
X65842Y49734D01*
X65825Y50022D01*
X65820Y50042D01*
X65814Y50054D01*
X65807Y50058D01*
X66277D01*
Y50607D01*
X66281Y50592D01*
D02*
G37*
G36*
X62041Y50530D02*
X62053Y50517D01*
X62073Y50506D01*
X62101Y50497D01*
X62137Y50489D01*
X62181Y50482D01*
X62293Y50473D01*
X62437Y50470D01*
Y50070D01*
X62361Y50069D01*
X62181Y50058D01*
X62137Y50051D01*
X62101Y50043D01*
X62073Y50033D01*
X62053Y50022D01*
X62041Y50009D01*
X62037Y49995D01*
Y50544D01*
X62041Y50530D01*
D02*
G37*
G36*
X51816Y50587D02*
X51796Y50575D01*
X51778Y50555D01*
X51763Y50527D01*
X51750Y50491D01*
X51739Y50447D01*
X51731Y50395D01*
X51725Y50335D01*
X51721Y50214D01*
X51736Y49960D01*
X51742Y49932D01*
X51748Y49912D01*
X51756Y49900D01*
X51764Y49896D01*
X51216D01*
X51235Y49900D01*
X51253Y49912D01*
X51269Y49932D01*
X51282Y49960D01*
X51294Y49996D01*
X51303Y50040D01*
X51311Y50092D01*
X51316Y50152D01*
X51319Y50259D01*
X51319Y50267D01*
X51309Y50395D01*
X51301Y50447D01*
X51290Y50491D01*
X51277Y50527D01*
X51262Y50555D01*
X51244Y50575D01*
X51224Y50587D01*
X51201Y50591D01*
X51839D01*
X51816Y50587D01*
D02*
G37*
G36*
X61289Y49995D02*
X61290Y49994D01*
X61290Y49991D01*
X61290Y49880D01*
X61090D01*
X61089Y49902D01*
X61086Y49922D01*
X61081Y49939D01*
X61074Y49954D01*
X61065Y49967D01*
X61054Y49978D01*
X61041Y49986D01*
X61026Y49992D01*
X61009Y49995D01*
X60990Y49996D01*
X61289Y49995D01*
D02*
G37*
G36*
X58393Y50021D02*
X58376Y50015D01*
X58361Y50005D01*
X58348Y49991D01*
X58337Y49973D01*
X58328Y49951D01*
X58321Y49925D01*
X58316Y49895D01*
X58316Y49890D01*
X58316Y49885D01*
X58321Y49855D01*
X58328Y49829D01*
X58337Y49807D01*
X58348Y49789D01*
X58361Y49775D01*
X58376Y49765D01*
X58393Y49759D01*
X58412Y49757D01*
X58012D01*
X58031Y49759D01*
X58048Y49765D01*
X58063Y49775D01*
X58076Y49789D01*
X58087Y49807D01*
X58096Y49829D01*
X58103Y49855D01*
X58108Y49885D01*
X58109Y49890D01*
X58108Y49895D01*
X58103Y49925D01*
X58096Y49951D01*
X58087Y49973D01*
X58076Y49991D01*
X58063Y50005D01*
X58048Y50015D01*
X58031Y50021D01*
X58012Y50023D01*
X58412D01*
X58393Y50021D01*
D02*
G37*
G36*
X60208Y50075D02*
X60191Y50069D01*
X60176Y50059D01*
X60163Y50045D01*
X60152Y50027D01*
X60143Y50005D01*
X60136Y49979D01*
X60131Y49949D01*
X60128Y49914D01*
X60128Y49901D01*
X60128Y49890D01*
X60131Y49856D01*
X60135Y49826D01*
X60141Y49800D01*
X60150Y49778D01*
X60159Y49760D01*
X60171Y49746D01*
X60185Y49736D01*
X60200Y49730D01*
X60217Y49728D01*
X59827D01*
X59846Y49730D01*
X59863Y49736D01*
X59878Y49746D01*
X59891Y49760D01*
X59902Y49778D01*
X59911Y49800D01*
X59918Y49826D01*
X59923Y49856D01*
X59926Y49890D01*
X59926Y49902D01*
X59926Y49914D01*
X59923Y49949D01*
X59918Y49979D01*
X59911Y50005D01*
X59902Y50027D01*
X59891Y50045D01*
X59878Y50059D01*
X59863Y50069D01*
X59846Y50075D01*
X59827Y50077D01*
X60227D01*
X60208Y50075D01*
D02*
G37*
G36*
X54518Y51150D02*
Y50472D01*
X54576D01*
Y50232D01*
X54488D01*
Y49440D01*
X54505D01*
X54548Y49424D01*
Y49312D01*
X54646Y49318D01*
X54650Y49323D01*
Y48994D01*
X54814Y49158D01*
X54924Y49048D01*
X55034Y49158D01*
X55198Y48994D01*
Y49323D01*
X55202Y49321D01*
X55214Y49320D01*
X55234Y49318D01*
X55598Y49314D01*
Y49128D01*
X55681Y49211D01*
X55822Y49069D01*
X55684Y48931D01*
X55752Y48918D01*
X56224D01*
X56292Y48931D01*
X56153Y49069D01*
X56295Y49211D01*
X56433Y49072D01*
X56446Y49140D01*
X56429Y49225D01*
X56381Y49297D01*
X56333Y49330D01*
X56338Y49386D01*
X56364Y49397D01*
X56422Y49442D01*
X56442Y49468D01*
X56508Y49473D01*
X56510Y49470D01*
X56564Y49378D01*
X56640Y49301D01*
X56734Y49247D01*
X56838Y49219D01*
X56946D01*
X57050Y49247D01*
X57074Y49261D01*
X57118Y49236D01*
Y48889D01*
X56891Y48662D01*
X54019D01*
X53971Y48710D01*
X53992Y48760D01*
X54056D01*
X54145Y48784D01*
X54177Y48802D01*
X53939Y49039D01*
X53702Y49277D01*
X53684Y49245D01*
X53660Y49156D01*
Y49092D01*
X53610Y49071D01*
X53169Y49511D01*
X53115Y49553D01*
X53052Y49579D01*
X52984Y49588D01*
X52984Y49588D01*
X52792D01*
Y49683D01*
X52831Y49708D01*
X52969D01*
X53030Y49716D01*
X53033Y49712D01*
X53127Y49658D01*
X53231Y49630D01*
X53339D01*
X53443Y49658D01*
X53537Y49712D01*
X53613Y49788D01*
X53667Y49882D01*
X53688Y49961D01*
X54178Y50450D01*
X54236Y50525D01*
X54272Y50613D01*
X54284Y50707D01*
X54284Y50707D01*
Y50981D01*
X54472Y51169D01*
X54518Y51150D01*
D02*
G37*
G36*
X58487Y49751D02*
X58499Y49749D01*
X58514Y49747D01*
X58554Y49743D01*
X58672Y49740D01*
X58710Y49740D01*
Y49540D01*
X58672Y49540D01*
X58487Y49529D01*
X58479Y49526D01*
Y49754D01*
X58487Y49751D01*
D02*
G37*
G36*
X58999Y49728D02*
X59000Y49440D01*
X58998Y49459D01*
X58992Y49476D01*
X58982Y49491D01*
X58968Y49504D01*
X58950Y49515D01*
X58928Y49524D01*
X58902Y49531D01*
X58872Y49536D01*
X58837Y49539D01*
X58799Y49540D01*
Y49740D01*
X58999Y49728D01*
D02*
G37*
G36*
X55202Y50002D02*
X55214Y49968D01*
X55234Y49938D01*
X55262Y49912D01*
X55298Y49890D01*
X55342Y49872D01*
X55394Y49858D01*
X55454Y49848D01*
X55522Y49842D01*
X55598Y49840D01*
Y49440D01*
X55522Y49442D01*
X55394Y49454D01*
X55342Y49466D01*
X55298Y49480D01*
X55262Y49498D01*
X55234Y49519D01*
X55214Y49543D01*
X55202Y49570D01*
X55198Y49601D01*
Y50040D01*
X55202Y50002D01*
D02*
G37*
G36*
X75345Y49345D02*
X74945D01*
X74943Y49394D01*
X74938Y49439D01*
X74928Y49478D01*
X74915Y49512D01*
X74898Y49541D01*
X74877Y49564D01*
X74852Y49582D01*
X74824Y49596D01*
X74792Y49603D01*
X74756Y49606D01*
X75344D01*
X75345Y49345D01*
D02*
G37*
G36*
X61684Y49529D02*
X61757Y49467D01*
X61790Y49444D01*
X61820Y49427D01*
X61847Y49416D01*
X61871Y49410D01*
X61892D01*
X61910Y49416D01*
X61926Y49427D01*
X61643Y49144D01*
X61654Y49160D01*
X61660Y49178D01*
Y49200D01*
X61654Y49224D01*
X61643Y49250D01*
X61626Y49280D01*
X61603Y49313D01*
X61575Y49348D01*
X61501Y49427D01*
X61643Y49569D01*
X61684Y49529D01*
D02*
G37*
G36*
X52633Y49503D02*
X52639Y49487D01*
X52649Y49473D01*
X52663Y49460D01*
X52681Y49450D01*
X52703Y49441D01*
X52729Y49435D01*
X52759Y49430D01*
X52793Y49427D01*
X52831Y49426D01*
Y49226D01*
X52793Y49225D01*
X52759Y49222D01*
X52729Y49217D01*
X52703Y49211D01*
X52681Y49202D01*
X52663Y49192D01*
X52649Y49179D01*
X52639Y49165D01*
X52633Y49149D01*
X52631Y49130D01*
Y49522D01*
X52633Y49503D01*
D02*
G37*
G36*
X73758Y49762D02*
X74012D01*
X74026Y49711D01*
X74005Y49700D01*
X73929Y49623D01*
X73875Y49530D01*
X73847Y49425D01*
Y49318D01*
X73875Y49213D01*
X73929Y49120D01*
X74005Y49043D01*
X74053Y49016D01*
X74061Y48956D01*
X74087Y48893D01*
X74129Y48838D01*
X74210Y48757D01*
X74191Y48711D01*
X73405D01*
Y47919D01*
X73421D01*
X73465Y47903D01*
X73465Y47868D01*
Y47372D01*
X73509Y47416D01*
Y47803D01*
X73566Y47802D01*
Y47473D01*
X73731Y47637D01*
X73841Y47527D01*
X73951Y47637D01*
X74216Y47372D01*
Y47868D01*
X74216Y47903D01*
X74260Y47919D01*
X74276D01*
Y48053D01*
X74626D01*
Y47920D01*
Y47172D01*
X74983D01*
X75395Y46760D01*
Y46245D01*
X75691D01*
X75982Y45955D01*
Y43966D01*
X75932Y43934D01*
X75853Y43955D01*
X75836D01*
X74621Y45170D01*
X74642Y45220D01*
X74694D01*
X74798Y45248D01*
X74892Y45302D01*
X74968Y45378D01*
X75022Y45472D01*
X75050Y45576D01*
Y45684D01*
X75022Y45788D01*
X74968Y45882D01*
X74892Y45958D01*
X74798Y46012D01*
X74694Y46040D01*
X74601D01*
X74166Y46475D01*
X74177Y46494D01*
X74205Y46597D01*
Y46703D01*
X74177Y46806D01*
X74124Y46898D01*
X74048Y46974D01*
X73956Y47027D01*
X73853Y47055D01*
X73747D01*
X73644Y47027D01*
X73552Y46974D01*
X73476Y46898D01*
X73423Y46806D01*
X73395Y46703D01*
Y46597D01*
X73401Y46577D01*
X73365Y46542D01*
X73334Y46550D01*
X73244D01*
X73203Y46590D01*
X73205Y46597D01*
Y46703D01*
X73177Y46806D01*
X73124Y46898D01*
X73048Y46974D01*
X72956Y47027D01*
X72853Y47055D01*
X72747D01*
X72644Y47027D01*
X72552Y46974D01*
X72476Y46898D01*
X72423Y46806D01*
X72395Y46703D01*
Y46597D01*
X72407Y46551D01*
X72372Y46516D01*
X72339Y46525D01*
X72237D01*
X72213Y46542D01*
X72195Y46560D01*
X72205Y46597D01*
Y46703D01*
X72177Y46806D01*
X72165Y46828D01*
X72187Y46872D01*
X72204Y46875D01*
X72268Y46901D01*
X72322Y46943D01*
X72547Y47168D01*
X73048D01*
Y47960D01*
X73031D01*
X73012Y47967D01*
Y47900D01*
X72886Y48077D01*
X72885Y48405D01*
X72722Y48242D01*
X72612Y48352D01*
X72502Y48242D01*
X72338Y48406D01*
Y48077D01*
X72334Y48084D01*
X72322Y48090D01*
X72302Y48095D01*
X72274Y48100D01*
X72238Y48104D01*
X72236Y48104D01*
Y48010D01*
X72236Y47976D01*
X72193Y47960D01*
X72176D01*
Y47539D01*
X72028Y47390D01*
X71824D01*
Y47960D01*
X71808D01*
X71764Y47976D01*
Y48099D01*
X71699Y48095D01*
X71679Y48090D01*
X71667Y48084D01*
X71663Y48077D01*
Y48406D01*
X71499Y48242D01*
X71357Y48383D01*
X71522Y48547D01*
X71114D01*
X71128Y48551D01*
X71141Y48563D01*
X71152Y48583D01*
X71162Y48611D01*
X71170Y48647D01*
X71170Y48649D01*
X71041D01*
Y49130D01*
X71091Y49159D01*
X71160Y49130D01*
X71260D01*
X71301Y49147D01*
X71139Y49309D01*
X71210Y49380D01*
X71139Y49451D01*
X71301Y49613D01*
X71260Y49630D01*
X71160D01*
X71091Y49601D01*
X71041Y49630D01*
Y49748D01*
X71836Y50543D01*
X73758D01*
Y49762D01*
D02*
G37*
G36*
X77097Y49285D02*
X77052Y49284D01*
X77009Y49279D01*
X76967Y49271D01*
X76926Y49259D01*
X76886Y49244D01*
X76847Y49225D01*
X76809Y49203D01*
X76772Y49178D01*
X76736Y49149D01*
X76701Y49116D01*
X76616Y49201D01*
X76649Y49236D01*
X76678Y49272D01*
X76703Y49309D01*
X76725Y49347D01*
X76744Y49386D01*
X76759Y49426D01*
X76771Y49467D01*
X76779Y49509D01*
X76784Y49552D01*
X76785Y49597D01*
X77097Y49285D01*
D02*
G37*
G36*
X74458Y49220D02*
X74449Y49202D01*
X74440Y49183D01*
X74433Y49163D01*
X74428Y49142D01*
X74423Y49120D01*
X74419Y49097D01*
X74415Y49049D01*
X74414Y49024D01*
X74214D01*
X74213Y49040D01*
X74211Y49055D01*
X74206Y49070D01*
X74200Y49084D01*
X74192Y49098D01*
X74183Y49111D01*
X74172Y49123D01*
X74159Y49135D01*
X74144Y49147D01*
X74127Y49158D01*
X74468Y49238D01*
X74458Y49220D01*
D02*
G37*
G36*
X69210Y49229D02*
X69216Y49161D01*
X69226Y49101D01*
X69240Y49049D01*
X69258Y49005D01*
X69280Y48968D01*
X69306Y48940D01*
X69336Y48920D01*
X69370Y48908D01*
X69408Y48904D01*
X68608D01*
X68646Y48908D01*
X68680Y48920D01*
X68710Y48940D01*
X68736Y48968D01*
X68758Y49005D01*
X68776Y49049D01*
X68790Y49101D01*
X68800Y49161D01*
X68806Y49229D01*
X68808Y49306D01*
X69208D01*
X69210Y49229D01*
D02*
G37*
G36*
X66244D02*
X66250Y49161D01*
X66260Y49101D01*
X66274Y49049D01*
X66292Y49005D01*
X66314Y48968D01*
X66340Y48940D01*
X66370Y48920D01*
X66404Y48908D01*
X66442Y48904D01*
X65642D01*
X65680Y48908D01*
X65714Y48920D01*
X65744Y48940D01*
X65770Y48968D01*
X65792Y49005D01*
X65810Y49049D01*
X65824Y49101D01*
X65834Y49161D01*
X65840Y49229D01*
X65842Y49306D01*
X66242D01*
X66244Y49229D01*
D02*
G37*
G36*
X58301Y49074D02*
X58302Y49030D01*
X58302Y49023D01*
X58401D01*
X58382Y49021D01*
X58365Y49015D01*
X58350Y49005D01*
X58337Y48991D01*
X58326Y48973D01*
X58317Y48951D01*
X58311Y48928D01*
X58313Y48917D01*
X58319Y48885D01*
X58327Y48856D01*
X58336Y48830D01*
X58347Y48807D01*
X58359Y48787D01*
X58373Y48771D01*
X58023Y48786D01*
X58038Y48802D01*
X58051Y48820D01*
X58063Y48842D01*
X58073Y48867D01*
X58082Y48895D01*
X58089Y48927D01*
X58090Y48934D01*
X58085Y48951D01*
X58076Y48973D01*
X58065Y48991D01*
X58052Y49005D01*
X58037Y49015D01*
X58020Y49021D01*
X58001Y49023D01*
X58099D01*
X58101Y49084D01*
X58301Y49074D01*
D02*
G37*
G36*
X61228Y49147D02*
X61223Y49129D01*
X61223Y49108D01*
X61228Y49084D01*
X61240Y49057D01*
X61257Y49027D01*
X61280Y48994D01*
X61308Y48959D01*
X61382Y48880D01*
X61240Y48738D01*
X61199Y48778D01*
X61126Y48840D01*
X61093Y48863D01*
X61063Y48880D01*
X61037Y48892D01*
X61013Y48897D01*
X60991Y48898D01*
X60973Y48892D01*
X60958Y48881D01*
X61239Y49163D01*
X61228Y49147D01*
D02*
G37*
G36*
X75736Y49037D02*
X75892Y48900D01*
X75912Y48887D01*
X75928Y48878D01*
X75940Y48875D01*
X75949Y48876D01*
X75807Y48484D01*
X75434Y48773D01*
X75694Y49079D01*
X75736Y49037D01*
D02*
G37*
G36*
X74828Y48652D02*
X74902Y48590D01*
X74934Y48567D01*
X74964Y48550D01*
X74991Y48539D01*
X75015Y48533D01*
X75036Y48533D01*
X75054Y48538D01*
X75070Y48550D01*
X74788Y48268D01*
X74799Y48283D01*
X74805Y48302D01*
X74805Y48323D01*
X74799Y48347D01*
X74788Y48372D01*
Y48115D01*
X74786Y48134D01*
X74780Y48151D01*
X74770Y48166D01*
X74756Y48179D01*
X74738Y48190D01*
X74716Y48199D01*
X74690Y48206D01*
X74659Y48211D01*
X74625Y48214D01*
X74587Y48215D01*
Y48415D01*
X74625Y48416D01*
X74659Y48419D01*
X74690Y48424D01*
X74716Y48431D01*
X74738Y48440D01*
X74742Y48443D01*
X74719Y48471D01*
X74646Y48551D01*
X74787Y48692D01*
X74828Y48652D01*
D02*
G37*
G36*
X57709Y50557D02*
X57733Y50500D01*
X57778Y50442D01*
X57804Y50422D01*
Y50358D01*
X57778Y50338D01*
X57733Y50280D01*
X57705Y50213D01*
X57695Y50140D01*
X57705Y50067D01*
X57733Y50000D01*
X57778Y49942D01*
X57804Y49922D01*
Y49858D01*
X57778Y49838D01*
X57733Y49780D01*
X57705Y49713D01*
X57695Y49640D01*
X57705Y49567D01*
X57733Y49500D01*
X57778Y49442D01*
X57804Y49422D01*
Y49358D01*
X57778Y49338D01*
X57733Y49280D01*
X57705Y49213D01*
X57695Y49140D01*
X57705Y49067D01*
X57733Y49000D01*
X57778Y48942D01*
X57836Y48897D01*
X57842Y48895D01*
X57853Y48836D01*
X57808Y48758D01*
X57780Y48654D01*
Y48546D01*
X57808Y48442D01*
X57862Y48348D01*
X57938Y48272D01*
X58032Y48218D01*
X58136Y48190D01*
X58244D01*
X58348Y48218D01*
X58442Y48272D01*
X58518Y48348D01*
X58572Y48442D01*
X58600Y48546D01*
Y48654D01*
X58572Y48758D01*
X58535Y48823D01*
X58554Y48882D01*
X58555Y48883D01*
X58589Y48897D01*
X58647Y48942D01*
X58691Y49000D01*
X58719Y49067D01*
X58729Y49140D01*
X58719Y49213D01*
X58691Y49280D01*
X58655Y49328D01*
X58671Y49378D01*
X58838D01*
Y49018D01*
X60378D01*
Y49890D01*
X60418Y49915D01*
X60482D01*
Y50547D01*
X60658D01*
Y49834D01*
X60934D01*
X60937Y49812D01*
X60963Y49749D01*
X61005Y49694D01*
X61065Y49635D01*
X61045Y49588D01*
X60582D01*
Y48719D01*
X60546Y48684D01*
X60472Y48758D01*
X60378Y48812D01*
X60274Y48840D01*
X60166D01*
X60062Y48812D01*
X59968Y48758D01*
X59892Y48682D01*
X59838Y48588D01*
X59810Y48484D01*
Y48376D01*
X59838Y48272D01*
X59892Y48178D01*
X59968Y48102D01*
X60062Y48048D01*
X60166Y48020D01*
X60259D01*
X60381Y47899D01*
X60381Y47899D01*
X60435Y47857D01*
X60498Y47831D01*
X60566Y47822D01*
X60566Y47822D01*
X60648D01*
Y47648D01*
X61530D01*
Y46418D01*
X61530Y46418D01*
X61539Y46350D01*
X61565Y46287D01*
X61607Y46232D01*
X61730Y46110D01*
X61727Y46101D01*
Y45993D01*
X61755Y45889D01*
X61809Y45796D01*
X61886Y45719D01*
X61979Y45665D01*
X62083Y45637D01*
X62191D01*
X62296Y45665D01*
X62389Y45719D01*
X62465Y45796D01*
X62488Y45834D01*
X62538Y45821D01*
Y43860D01*
X62476Y43798D01*
X62436Y43728D01*
X62378Y43716D01*
X61653Y44440D01*
Y45778D01*
X61653Y45778D01*
X61641Y45872D01*
X61604Y45960D01*
X61547Y46035D01*
X61027Y46555D01*
Y46834D01*
X61010D01*
X60967Y46850D01*
X60967Y46884D01*
Y47381D01*
X60701Y47115D01*
X60591Y47225D01*
X60481Y47115D01*
X60216Y47381D01*
Y46895D01*
X60194Y46875D01*
X60166Y46863D01*
X60146Y46872D01*
X60144Y46879D01*
Y47640D01*
X58879D01*
Y47193D01*
X58481D01*
X58448Y47212D01*
X58344Y47240D01*
X58236D01*
X58132Y47212D01*
X58099Y47193D01*
X57228D01*
X57181Y47187D01*
X56596D01*
Y46866D01*
X56550Y46847D01*
X56268Y47129D01*
X56192Y47187D01*
X56127Y47214D01*
Y47305D01*
X56110D01*
X56067Y47321D01*
X56067Y47355D01*
Y47507D01*
X56066Y47507D01*
X56030Y47495D01*
X56002Y47480D01*
X55982Y47463D01*
X55970Y47443D01*
X55966Y47422D01*
Y47750D01*
X55801Y47586D01*
X55691Y47696D01*
X55581Y47586D01*
X55417Y47750D01*
Y47422D01*
X55413Y47428D01*
X55401Y47434D01*
X55381Y47440D01*
X55353Y47444D01*
X55317Y47448D01*
X55316Y47448D01*
Y47355D01*
X55316Y47321D01*
X55272Y47305D01*
X55256D01*
Y47272D01*
X55092D01*
Y47305D01*
X55075D01*
X55032Y47321D01*
X55032Y47355D01*
Y47443D01*
X54967Y47440D01*
X54947Y47434D01*
X54935Y47428D01*
X54931Y47422D01*
Y47750D01*
X54766Y47586D01*
X54656Y47696D01*
X54546Y47586D01*
X54382Y47750D01*
Y47422D01*
X54378Y47428D01*
X54366Y47434D01*
X54346Y47440D01*
X54318Y47444D01*
X54282Y47448D01*
X54281Y47448D01*
Y47355D01*
X54281Y47321D01*
X54237Y47305D01*
X54221D01*
Y47272D01*
X54057D01*
Y47305D01*
X54040D01*
X53997Y47321D01*
X53997Y47355D01*
Y47443D01*
X53932Y47440D01*
X53912Y47434D01*
X53900Y47428D01*
X53896Y47422D01*
Y47750D01*
X53731Y47586D01*
X53621Y47696D01*
X53511Y47586D01*
X53347Y47750D01*
Y47422D01*
X53343Y47428D01*
X53331Y47434D01*
X53311Y47440D01*
X53283Y47444D01*
X53247Y47448D01*
X53246Y47448D01*
Y47355D01*
X53246Y47321D01*
X53202Y47305D01*
X53186D01*
Y47026D01*
X53047Y46887D01*
X53001Y46906D01*
Y47252D01*
X52502D01*
X52408Y47345D01*
X52427Y47392D01*
X52799D01*
X52520Y47671D01*
X52591Y47742D01*
X52566Y47767D01*
X52470Y47671D01*
X52191Y47950D01*
Y47615D01*
X52141Y47593D01*
X52090Y47614D01*
X52061Y47618D01*
X52032Y47647D01*
Y48068D01*
X51264D01*
Y49343D01*
X51442D01*
X51490Y49337D01*
X51517D01*
X51564Y49343D01*
X51921D01*
Y48969D01*
X52792D01*
Y49064D01*
X52875D01*
X52999Y48940D01*
X52986Y48892D01*
X52965Y48886D01*
X52933Y48868D01*
X53171Y48631D01*
X53408Y48393D01*
X53426Y48425D01*
X53432Y48446D01*
X53480Y48459D01*
X53725Y48215D01*
X53725Y48215D01*
X53779Y48173D01*
X53842Y48147D01*
X53910Y48138D01*
X57000D01*
X57000Y48138D01*
X57068Y48147D01*
X57131Y48173D01*
X57185Y48215D01*
X57565Y48595D01*
X57565Y48595D01*
X57607Y48649D01*
X57633Y48712D01*
X57642Y48780D01*
X57642Y48780D01*
Y50090D01*
X57633Y50158D01*
X57607Y50221D01*
X57565Y50275D01*
X57565Y50275D01*
X57015Y50825D01*
X56961Y50867D01*
X56898Y50893D01*
X56830Y50902D01*
X56830Y50902D01*
X56318D01*
X56297Y50911D01*
X56224Y50921D01*
X55752D01*
X55679Y50911D01*
X55611Y50883D01*
X55553Y50838D01*
X55509Y50780D01*
X55481Y50713D01*
X55471Y50640D01*
X55481Y50567D01*
X55509Y50500D01*
X55553Y50442D01*
X55579Y50422D01*
Y50358D01*
X55553Y50338D01*
X55509Y50280D01*
X55481Y50213D01*
X55471Y50140D01*
X55481Y50067D01*
X55490Y50045D01*
X55462Y50003D01*
X55360D01*
Y50232D01*
X55302D01*
Y50472D01*
X55390D01*
Y51253D01*
X57014D01*
X57709Y50557D01*
D02*
G37*
G36*
X74117Y48496D02*
X74123Y48479D01*
X74133Y48464D01*
X74147Y48451D01*
X74165Y48440D01*
X74187Y48431D01*
X74213Y48424D01*
X74243Y48419D01*
X74277Y48416D01*
X74315Y48415D01*
Y48215D01*
X74277Y48214D01*
X74243Y48211D01*
X74213Y48206D01*
X74187Y48199D01*
X74165Y48190D01*
X74147Y48179D01*
X74133Y48166D01*
X74123Y48151D01*
X74117Y48134D01*
X74115Y48115D01*
Y48515D01*
X74117Y48496D01*
D02*
G37*
G36*
X61598Y48460D02*
X61672Y48398D01*
X61704Y48375D01*
X61734Y48358D01*
X61761Y48347D01*
X61785Y48341D01*
X61806D01*
X61825Y48347D01*
X61840Y48358D01*
X61557Y48075D01*
X61569Y48091D01*
X61574Y48109D01*
Y48131D01*
X61569Y48155D01*
X61557Y48182D01*
X61540Y48211D01*
X61518Y48244D01*
X61489Y48279D01*
X61416Y48358D01*
X61557Y48500D01*
X61598Y48460D01*
D02*
G37*
G36*
X76317Y48368D02*
X76313Y48355D01*
X76310Y48337D01*
X76307Y48312D01*
X76302Y48203D01*
X76300Y48042D01*
X75900D01*
X75900Y48101D01*
X75883Y48368D01*
X75880Y48375D01*
X76320D01*
X76317Y48368D01*
D02*
G37*
G36*
X69472Y48312D02*
X69438Y48301D01*
X69408Y48284D01*
X69382Y48259D01*
X69360Y48227D01*
X69342Y48188D01*
X69328Y48141D01*
X69318Y48088D01*
X69312Y48028D01*
X69310Y47960D01*
X68910D01*
X68908Y48028D01*
X68902Y48088D01*
X68892Y48141D01*
X68878Y48188D01*
X68860Y48227D01*
X68838Y48259D01*
X68812Y48284D01*
X68782Y48301D01*
X68748Y48312D01*
X68710Y48316D01*
X69510D01*
X69472Y48312D01*
D02*
G37*
G36*
X66162Y48312D02*
X66128Y48300D01*
X66098Y48280D01*
X66072Y48252D01*
X66050Y48215D01*
X66032Y48171D01*
X66018Y48119D01*
X66008Y48059D01*
X66002Y47991D01*
X66000Y47915D01*
X65600D01*
X65598Y47991D01*
X65592Y48059D01*
X65582Y48119D01*
X65568Y48171D01*
X65550Y48215D01*
X65528Y48252D01*
X65502Y48280D01*
X65472Y48300D01*
X65438Y48312D01*
X65400Y48316D01*
X66200D01*
X66162Y48312D01*
D02*
G37*
G36*
X60471Y48406D02*
X60476Y48383D01*
X60484Y48359D01*
X60495Y48335D01*
X60509Y48309D01*
X60527Y48281D01*
X60548Y48253D01*
X60599Y48193D01*
X60609Y48183D01*
Y48184D01*
X60647Y48185D01*
X60682Y48188D01*
X60712Y48193D01*
X60738Y48200D01*
X60760Y48209D01*
X60778Y48220D01*
X60792Y48233D01*
X60802Y48248D01*
X60808Y48265D01*
X60810Y48284D01*
Y47884D01*
X60808Y47903D01*
X60802Y47920D01*
X60792Y47935D01*
X60778Y47948D01*
X60760Y47959D01*
X60738Y47968D01*
X60712Y47975D01*
X60682Y47980D01*
X60647Y47983D01*
X60609Y47984D01*
Y48142D01*
X60488Y48020D01*
X60457Y48051D01*
X60397Y48102D01*
X60369Y48123D01*
X60341Y48141D01*
X60315Y48155D01*
X60291Y48166D01*
X60267Y48174D01*
X60244Y48179D01*
X60223Y48180D01*
X60470Y48428D01*
X60471Y48406D01*
D02*
G37*
G36*
X61973Y47809D02*
X61956Y47803D01*
X61941Y47793D01*
X61928Y47779D01*
X61917Y47760D01*
X61908Y47738D01*
X61901Y47712D01*
X61896Y47682D01*
X61893Y47648D01*
X61892Y47610D01*
X61692D01*
X61691Y47648D01*
X61688Y47682D01*
X61683Y47712D01*
X61676Y47738D01*
X61667Y47760D01*
X61656Y47779D01*
X61643Y47793D01*
X61628Y47803D01*
X61611Y47809D01*
X61592Y47811D01*
X61992D01*
X61973Y47809D01*
D02*
G37*
G36*
X72620Y47329D02*
X72605Y47341D01*
X72587Y47346D01*
X72565D01*
X72541Y47341D01*
X72514Y47329D01*
X72485Y47312D01*
X72452Y47290D01*
X72417Y47261D01*
X72338Y47188D01*
X72196Y47329D01*
X72236Y47370D01*
X72298Y47444D01*
X72321Y47476D01*
X72338Y47506D01*
X72349Y47533D01*
X72355Y47557D01*
Y47578D01*
X72349Y47597D01*
X72338Y47612D01*
X72620Y47329D01*
D02*
G37*
G36*
X51858Y47705D02*
X51853Y47686D01*
X51853Y47665D01*
X51858Y47641D01*
X51870Y47614D01*
X51887Y47585D01*
X51910Y47552D01*
X51938Y47517D01*
X52012Y47437D01*
X51870Y47296D01*
X51829Y47336D01*
X51756Y47398D01*
X51723Y47421D01*
X51693Y47438D01*
X51667Y47449D01*
X51643Y47455D01*
X51621Y47455D01*
X51603Y47450D01*
X51588Y47438D01*
X51869Y47720D01*
X51858Y47705D01*
D02*
G37*
G36*
X55417Y46674D02*
X55413Y46680D01*
X55401Y46686D01*
X55381Y46692D01*
X55353Y46696D01*
X55317Y46700D01*
X55203Y46705D01*
X54967Y46692D01*
X54947Y46686D01*
X54935Y46680D01*
X54931Y46674D01*
Y47144D01*
X54935Y47137D01*
X54947Y47131D01*
X54967Y47126D01*
X54995Y47121D01*
X55031Y47117D01*
X55145Y47112D01*
X55381Y47126D01*
X55401Y47131D01*
X55413Y47137D01*
X55417Y47144D01*
Y46674D01*
D02*
G37*
G36*
X54382D02*
X54378Y46680D01*
X54366Y46686D01*
X54346Y46692D01*
X54318Y46696D01*
X54282Y46700D01*
X54168Y46705D01*
X53932Y46692D01*
X53912Y46686D01*
X53900Y46680D01*
X53896Y46674D01*
Y47144D01*
X53900Y47137D01*
X53912Y47131D01*
X53932Y47126D01*
X53960Y47121D01*
X53996Y47117D01*
X54110Y47112D01*
X54346Y47126D01*
X54366Y47131D01*
X54378Y47137D01*
X54382Y47144D01*
Y46674D01*
D02*
G37*
G36*
X75339Y47764D02*
X75347Y47724D01*
X75361Y47682D01*
X75381Y47638D01*
X75406Y47592D01*
X75438Y47544D01*
X75474Y47494D01*
X75565Y47388D01*
X75619Y47333D01*
X75336Y47050D01*
X75279Y47104D01*
X75168Y47194D01*
X75112Y47231D01*
X75057Y47262D01*
X75002Y47287D01*
X74948Y47307D01*
X74894Y47321D01*
X74840Y47330D01*
X74787Y47333D01*
X75336Y47803D01*
X75339Y47764D01*
D02*
G37*
G36*
X64078Y47916D02*
Y47012D01*
X64028Y46986D01*
X63956Y47027D01*
X63853Y47055D01*
X63747D01*
X63644Y47027D01*
X63616Y47011D01*
X63572Y47036D01*
Y47481D01*
X64028Y47937D01*
X64078Y47916D01*
D02*
G37*
G36*
X70883Y48214D02*
X70897Y48112D01*
X70921Y48022D01*
X70954Y47944D01*
X70997Y47878D01*
X71049Y47824D01*
X71108Y47784D01*
X71110Y47786D01*
X71114Y47799D01*
Y47780D01*
X71182Y47752D01*
X71262Y47734D01*
X71352Y47728D01*
Y47328D01*
X71236Y47324D01*
X71123Y47311D01*
X71013Y47290D01*
X70906Y47260D01*
X70803Y47222D01*
X70703Y47175D01*
X70606Y47120D01*
X70513Y47057D01*
X70423Y46984D01*
X70337Y46904D01*
X70054Y47187D01*
X70134Y47273D01*
X70207Y47363D01*
X70270Y47457D01*
X70325Y47554D01*
X70372Y47655D01*
X70410Y47759D01*
X70440Y47867D01*
X70461Y47978D01*
X70474Y48093D01*
X70478Y48211D01*
X70878Y48328D01*
X70883Y48214D01*
D02*
G37*
G36*
X52333Y47192D02*
X52407Y47130D01*
X52439Y47107D01*
X52469Y47090D01*
X52496Y47078D01*
X52520Y47073D01*
X52541Y47073D01*
X52559Y47078D01*
X52575Y47089D01*
X52293Y46808D01*
X52304Y46823D01*
X52310Y46841D01*
X52310Y46863D01*
X52304Y46887D01*
X52292Y46913D01*
X52275Y46943D01*
X52253Y46976D01*
X52224Y47011D01*
X52150Y47090D01*
X52292Y47232D01*
X52333Y47192D01*
D02*
G37*
G36*
X55966Y47130D02*
X55968Y47118D01*
X55970Y47107D01*
X55973Y47098D01*
X55977Y47090D01*
X55982Y47084D01*
X55988Y47079D01*
X55995Y47075D01*
X56002Y47073D01*
X56011Y47073D01*
Y46673D01*
X55966Y46674D01*
Y47144D01*
X55966Y47130D01*
D02*
G37*
G36*
X55256Y46513D02*
X55704D01*
X55728Y46509D01*
X55861D01*
X56547Y45823D01*
X56526Y45773D01*
X56390D01*
X55981Y46182D01*
X55906Y46240D01*
X55818Y46276D01*
X55724Y46289D01*
X53983D01*
X53936Y46282D01*
X53534D01*
X53515Y46329D01*
X53699Y46513D01*
X54057D01*
Y46546D01*
X54221D01*
Y46513D01*
X55092D01*
Y46546D01*
X55256D01*
Y46513D01*
D02*
G37*
G36*
X59042Y46430D02*
X59038Y46468D01*
X59026Y46502D01*
X59006Y46532D01*
X58978Y46558D01*
X58941Y46580D01*
X58897Y46598D01*
X58845Y46612D01*
X58785Y46622D01*
X58717Y46628D01*
X58640Y46630D01*
Y47030D01*
X58717Y47032D01*
X58785Y47038D01*
X58845Y47048D01*
X58897Y47062D01*
X58941Y47080D01*
X58978Y47102D01*
X59006Y47128D01*
X59026Y47158D01*
X59038Y47192D01*
X59042Y47230D01*
Y46430D01*
D02*
G37*
G36*
X53896Y46674D02*
X53842Y46671D01*
X53789Y46662D01*
X53735Y46648D01*
X53680Y46628D01*
X53626Y46603D01*
X53571Y46572D01*
X53515Y46535D01*
X53459Y46493D01*
X53403Y46445D01*
X53347Y46391D01*
X53064Y46674D01*
X53118Y46729D01*
X53208Y46835D01*
X53245Y46885D01*
X53276Y46933D01*
X53302Y46979D01*
X53321Y47023D01*
X53336Y47065D01*
X53344Y47105D01*
X53347Y47144D01*
X53896Y46674D01*
D02*
G37*
G36*
X51866Y46685D02*
X51862Y46673D01*
X51859Y46653D01*
X51856Y46625D01*
X51850Y46493D01*
X51848Y46289D01*
X51448D01*
X51447Y46365D01*
X51437Y46493D01*
X51428Y46545D01*
X51416Y46589D01*
X51403Y46625D01*
X51386Y46653D01*
X51367Y46673D01*
X51346Y46685D01*
X51322Y46689D01*
X51870D01*
X51866Y46685D01*
D02*
G37*
G36*
X66755Y49892D02*
X68296D01*
Y49966D01*
X68611D01*
Y49894D01*
X68645D01*
Y49070D01*
X68134D01*
X68043Y49052D01*
X67966Y49000D01*
X67914Y48923D01*
X67896Y48831D01*
Y48389D01*
X67914Y48297D01*
X67966Y48220D01*
X68043Y48168D01*
X68134Y48150D01*
X68722D01*
X68737Y48100D01*
X67671Y47034D01*
X67644Y47027D01*
X67552Y46974D01*
X67476Y46898D01*
X67423Y46806D01*
X67395Y46703D01*
Y46597D01*
X67423Y46494D01*
X67476Y46402D01*
X67552Y46326D01*
X67644Y46273D01*
X67747Y46245D01*
X67853D01*
X67956Y46273D01*
X68048Y46326D01*
X68124Y46402D01*
X68177Y46494D01*
X68184Y46521D01*
X68420Y46756D01*
X68465Y46731D01*
X68455Y46695D01*
Y46605D01*
X68479Y46517D01*
X68496Y46487D01*
X68729Y46721D01*
X68963Y46954D01*
X68933Y46971D01*
X68845Y46995D01*
X68755D01*
X68719Y46985D01*
X68694Y47030D01*
X69367Y47703D01*
X69424Y47778D01*
X69461Y47866D01*
X69473Y47960D01*
X69473Y47960D01*
Y48150D01*
X70152D01*
X70243Y48168D01*
X70271Y48187D01*
X70315Y48163D01*
Y47797D01*
X70313Y47790D01*
X70278Y47694D01*
X70235Y47601D01*
X70231Y47594D01*
X69671Y47034D01*
X69644Y47027D01*
X69552Y46974D01*
X69476Y46898D01*
X69423Y46806D01*
X69416Y46779D01*
X69180Y46544D01*
X69135Y46569D01*
X69145Y46605D01*
Y46695D01*
X69121Y46783D01*
X69104Y46813D01*
X68871Y46579D01*
X68637Y46346D01*
X68667Y46329D01*
X68755Y46305D01*
X68845D01*
X68881Y46315D01*
X68906Y46270D01*
X67543Y44907D01*
X67486Y44832D01*
X67449Y44744D01*
X67437Y44650D01*
Y43730D01*
X67423Y43706D01*
X67395Y43603D01*
Y43497D01*
X67423Y43394D01*
X67476Y43302D01*
X67552Y43226D01*
X67644Y43173D01*
X67747Y43145D01*
X67853D01*
X67956Y43173D01*
X68048Y43226D01*
X68124Y43302D01*
X68177Y43394D01*
X68205Y43497D01*
Y43603D01*
X68177Y43706D01*
X68163Y43730D01*
Y44500D01*
X69929Y46266D01*
X69956Y46273D01*
X70048Y46326D01*
X70124Y46402D01*
X70177Y46494D01*
X70184Y46521D01*
X70345Y46682D01*
X70395Y46661D01*
Y46597D01*
X70423Y46494D01*
X70476Y46402D01*
X70552Y46326D01*
X70644Y46273D01*
X70747Y46245D01*
X70853D01*
X70956Y46273D01*
X70994Y46295D01*
X71038Y46270D01*
Y46159D01*
X68834Y43955D01*
X68747D01*
X68644Y43927D01*
X68552Y43874D01*
X68476Y43798D01*
X68423Y43706D01*
X68395Y43603D01*
Y43497D01*
X68423Y43394D01*
X68476Y43302D01*
X68552Y43226D01*
X68644Y43173D01*
X68747Y43145D01*
X68853D01*
X68956Y43173D01*
X69048Y43226D01*
X69124Y43302D01*
X69177Y43394D01*
X69205Y43497D01*
Y43584D01*
X71485Y45865D01*
X71485Y45865D01*
X71527Y45919D01*
X71553Y45982D01*
X71562Y46050D01*
X71562Y46050D01*
Y46270D01*
X71606Y46295D01*
X71644Y46273D01*
X71747Y46245D01*
X71844D01*
X71886Y46209D01*
X71875Y46169D01*
Y46061D01*
X71903Y45957D01*
X71957Y45863D01*
X72033Y45787D01*
X72127Y45733D01*
X72231Y45705D01*
X72294D01*
X74395Y43604D01*
X74395Y43603D01*
Y43497D01*
X74423Y43394D01*
X74476Y43302D01*
X74552Y43226D01*
X74644Y43173D01*
X74747Y43145D01*
X74853D01*
X74956Y43173D01*
X75048Y43226D01*
X75124Y43302D01*
X75177Y43394D01*
X75205Y43497D01*
Y43603D01*
X75177Y43706D01*
X75124Y43798D01*
X75048Y43874D01*
X74956Y43927D01*
X74853Y43955D01*
X74786D01*
X72692Y46049D01*
X72695Y46061D01*
Y46169D01*
X72682Y46218D01*
X72717Y46253D01*
X72747Y46245D01*
X72832D01*
X72872Y46203D01*
X72870Y46194D01*
Y46086D01*
X72898Y45982D01*
X72952Y45888D01*
X73028Y45812D01*
X73122Y45758D01*
X73226Y45730D01*
X73319D01*
X75406Y43643D01*
X75395Y43603D01*
Y43497D01*
X75423Y43394D01*
X75476Y43302D01*
X75552Y43226D01*
X75644Y43173D01*
X75747Y43145D01*
X75853D01*
X75917Y43162D01*
X75920Y43161D01*
X75944Y43118D01*
X75760Y42933D01*
X64561D01*
X64528Y42952D01*
X64424Y42980D01*
X64316D01*
X64212Y42952D01*
X64118Y42898D01*
X64042Y42822D01*
X63988Y42728D01*
X63975Y42680D01*
X63927Y42667D01*
X63405Y43189D01*
X63329Y43247D01*
X63242Y43283D01*
X63176Y43292D01*
X63149Y43341D01*
X63149Y43345D01*
X63177Y43394D01*
X63205Y43497D01*
Y43603D01*
X63177Y43706D01*
X63124Y43798D01*
X63062Y43860D01*
Y45912D01*
X63478Y46329D01*
X63541Y46336D01*
X63552Y46326D01*
X63622Y46285D01*
X63635Y46227D01*
X63615Y46207D01*
X63573Y46152D01*
X63547Y46089D01*
X63538Y46021D01*
X63538Y46021D01*
Y43860D01*
X63476Y43798D01*
X63423Y43706D01*
X63395Y43603D01*
Y43497D01*
X63423Y43394D01*
X63476Y43302D01*
X63552Y43226D01*
X63644Y43173D01*
X63747Y43145D01*
X63853D01*
X63956Y43173D01*
X64048Y43226D01*
X64124Y43302D01*
X64177Y43394D01*
X64205Y43497D01*
Y43603D01*
X64177Y43706D01*
X64124Y43798D01*
X64062Y43860D01*
Y44734D01*
X64112Y44747D01*
X64152Y44678D01*
X64228Y44602D01*
X64322Y44548D01*
X64426Y44520D01*
X64438D01*
X64538Y44420D01*
Y43860D01*
X64476Y43798D01*
X64423Y43706D01*
X64395Y43603D01*
Y43497D01*
X64423Y43394D01*
X64476Y43302D01*
X64552Y43226D01*
X64644Y43173D01*
X64747Y43145D01*
X64853D01*
X64956Y43173D01*
X65048Y43226D01*
X65124Y43302D01*
X65177Y43394D01*
X65205Y43497D01*
Y43603D01*
X65177Y43706D01*
X65124Y43798D01*
X65062Y43860D01*
Y44529D01*
X65053Y44597D01*
X65027Y44660D01*
X64985Y44714D01*
X64985Y44714D01*
X64876Y44824D01*
X64890Y44876D01*
Y44984D01*
X64862Y45088D01*
X64808Y45182D01*
X64732Y45258D01*
X64638Y45312D01*
X64534Y45340D01*
X64426D01*
X64322Y45312D01*
X64228Y45258D01*
X64152Y45182D01*
X64112Y45113D01*
X64062Y45126D01*
Y45912D01*
X64514Y46364D01*
X64552Y46326D01*
X64644Y46273D01*
X64747Y46245D01*
X64853D01*
X64956Y46273D01*
X65048Y46326D01*
X65124Y46402D01*
X65177Y46494D01*
X65205Y46597D01*
Y46703D01*
X65177Y46806D01*
X65124Y46898D01*
X65048Y46974D01*
X64956Y47027D01*
X64853Y47055D01*
X64747D01*
X64652Y47029D01*
X64602Y47053D01*
Y48171D01*
X64652Y48198D01*
X64697Y48168D01*
X64788Y48150D01*
X65437D01*
Y47650D01*
X65449Y47556D01*
X65486Y47468D01*
X65543Y47393D01*
X65832Y47105D01*
X65811Y47055D01*
X65747D01*
X65644Y47027D01*
X65552Y46974D01*
X65476Y46898D01*
X65423Y46806D01*
X65395Y46703D01*
Y46597D01*
X65423Y46494D01*
X65476Y46402D01*
X65552Y46326D01*
X65644Y46273D01*
X65747Y46245D01*
X65853D01*
X65956Y46273D01*
X66048Y46326D01*
X66124Y46402D01*
X66177Y46494D01*
X66205Y46597D01*
Y46661D01*
X66255Y46682D01*
X66416Y46521D01*
X66423Y46494D01*
X66476Y46402D01*
X66552Y46326D01*
X66644Y46273D01*
X66747Y46245D01*
X66853D01*
X66956Y46273D01*
X67048Y46326D01*
X67124Y46402D01*
X67177Y46494D01*
X67205Y46597D01*
Y46703D01*
X67177Y46806D01*
X67124Y46898D01*
X67048Y46974D01*
X66956Y47027D01*
X66929Y47034D01*
X66163Y47800D01*
Y48150D01*
X66806D01*
X66897Y48168D01*
X66974Y48220D01*
X67026Y48297D01*
X67044Y48389D01*
Y48831D01*
X67026Y48923D01*
X66974Y49000D01*
X66897Y49052D01*
X66806Y49070D01*
X66405D01*
Y49897D01*
X66438D01*
Y49967D01*
X66755D01*
Y49892D01*
D02*
G37*
G36*
X74001Y46505D02*
X73998Y46488D01*
X73999Y46469D01*
X74005Y46448D01*
X74015Y46426D01*
X74029Y46402D01*
X74047Y46375D01*
X74069Y46347D01*
X74095Y46317D01*
X74126Y46286D01*
X73960Y46168D01*
X73703Y46425D01*
X74008Y46521D01*
X74001Y46505D01*
D02*
G37*
G36*
X76241Y46809D02*
X76204Y46769D01*
X76170Y46729D01*
X76140Y46689D01*
X76121Y46659D01*
X76145Y46620D01*
X76182Y46569D01*
X76224Y46516D01*
X76326Y46407D01*
X76043Y46124D01*
X75988Y46177D01*
X75881Y46268D01*
X75830Y46305D01*
X75780Y46336D01*
X75732Y46361D01*
X75686Y46381D01*
X75641Y46395D01*
X75598Y46404D01*
X75557Y46407D01*
X75800Y46650D01*
X75557Y46893D01*
X75597Y46895D01*
X75638Y46901D01*
X75678Y46911D01*
X75719Y46925D01*
X75759Y46943D01*
X75799Y46965D01*
X75839Y46990D01*
X75879Y47020D01*
X75919Y47054D01*
X75959Y47091D01*
X76241Y46809D01*
D02*
G37*
G36*
X61919Y46433D02*
X61979Y46381D01*
X62007Y46360D01*
X62034Y46342D01*
X62060Y46327D01*
X62085Y46315D01*
X62109Y46306D01*
X62131Y46300D01*
X62153Y46297D01*
X61888Y46068D01*
X61888Y46089D01*
X61885Y46112D01*
X61878Y46135D01*
X61868Y46160D01*
X61854Y46186D01*
X61837Y46213D01*
X61817Y46241D01*
X61793Y46271D01*
X61736Y46333D01*
X61888Y46463D01*
X61919Y46433D01*
D02*
G37*
G36*
X76844Y46314D02*
X76930Y46240D01*
X76957Y46220D01*
X77006Y46190D01*
X77029Y46179D01*
X77051Y46170D01*
X77071Y46165D01*
X76776Y45976D01*
X76779Y45996D01*
X76778Y46018D01*
X76773Y46041D01*
X76765Y46065D01*
X76753Y46091D01*
X76737Y46118D01*
X76717Y46146D01*
X76694Y46175D01*
X76637Y46238D01*
X76812Y46345D01*
X76844Y46314D01*
D02*
G37*
G36*
X59987Y46800D02*
X59999Y46766D01*
X60019Y46736D01*
X60047Y46710D01*
X60083Y46688D01*
X60127Y46670D01*
X60179Y46656D01*
X60209Y46651D01*
X60281Y46655D01*
X60301Y46660D01*
X60313Y46666D01*
X60317Y46673D01*
Y46639D01*
X60383Y46638D01*
Y46259D01*
X60866Y46673D01*
X60869Y46634D01*
X60877Y46594D01*
X60891Y46552D01*
X60911Y46508D01*
X60936Y46462D01*
X60968Y46414D01*
X61004Y46364D01*
X61095Y46258D01*
X61149Y46203D01*
X60866Y45920D01*
X60809Y45974D01*
X60698Y46064D01*
X60642Y46101D01*
X60587Y46132D01*
X60532Y46157D01*
X60478Y46177D01*
X60424Y46191D01*
X60370Y46200D01*
X60317Y46203D01*
X60358Y46238D01*
X60317Y46237D01*
Y46203D01*
X60313Y46209D01*
X60301Y46215D01*
X60281Y46221D01*
X60253Y46225D01*
X60217Y46229D01*
X60191Y46230D01*
X60083Y46224D01*
X60047Y46218D01*
X60019Y46210D01*
X59999Y46202D01*
X59987Y46192D01*
X59983Y46182D01*
Y46237D01*
X59917Y46238D01*
Y46638D01*
X59983Y46638D01*
Y46838D01*
X59987Y46800D01*
D02*
G37*
G36*
X73531Y46116D02*
X73536Y46093D01*
X73544Y46069D01*
X73555Y46045D01*
X73569Y46019D01*
X73587Y45991D01*
X73608Y45963D01*
X73659Y45903D01*
X73690Y45872D01*
X73548Y45730D01*
X73517Y45761D01*
X73457Y45812D01*
X73429Y45833D01*
X73401Y45851D01*
X73375Y45865D01*
X73351Y45876D01*
X73327Y45884D01*
X73304Y45889D01*
X73282Y45890D01*
X73530Y46137D01*
X73531Y46116D01*
D02*
G37*
G36*
X56841Y46328D02*
X56981Y46210D01*
X57045Y46166D01*
X57104Y46133D01*
X57158Y46110D01*
X57208Y46097D01*
X57253Y46094D01*
X57293Y46101D01*
X57329Y46119D01*
X56757Y45729D01*
X56754Y45753D01*
X56746Y45781D01*
X56732Y45813D01*
X56712Y45848D01*
X56686Y45886D01*
X56655Y45927D01*
X56576Y46020D01*
X56474Y46126D01*
X56763Y46403D01*
X56841Y46328D01*
D02*
G37*
G36*
X72534Y46070D02*
X72537Y46047D01*
X72543Y46024D01*
X72553Y45999D01*
X72567Y45973D01*
X72584Y45946D01*
X72604Y45918D01*
X72628Y45888D01*
X72685Y45826D01*
X72531Y45698D01*
X72499Y45728D01*
X72440Y45780D01*
X72412Y45802D01*
X72385Y45820D01*
X72359Y45835D01*
X72334Y45847D01*
X72310Y45856D01*
X72288Y45863D01*
X72266Y45866D01*
X72534Y46091D01*
X72534Y46070D01*
D02*
G37*
G36*
X74403Y46009D02*
X74463Y45958D01*
X74491Y45937D01*
X74519Y45919D01*
X74545Y45905D01*
X74569Y45894D01*
X74593Y45886D01*
X74616Y45881D01*
X74637Y45880D01*
X74390Y45633D01*
X74389Y45654D01*
X74384Y45677D01*
X74376Y45701D01*
X74365Y45725D01*
X74351Y45751D01*
X74333Y45779D01*
X74312Y45807D01*
X74261Y45867D01*
X74230Y45898D01*
X74372Y46040D01*
X74403Y46009D01*
D02*
G37*
G36*
X53351Y46099D02*
Y45569D01*
X53936D01*
X53983Y45562D01*
X55574D01*
X55790Y45346D01*
X55757Y45309D01*
X55724Y45334D01*
X55636Y45371D01*
X55542Y45383D01*
X52635D01*
X52616Y45429D01*
X53305Y46118D01*
X53351Y46099D01*
D02*
G37*
G36*
X57228Y46467D02*
X58099D01*
X58132Y46448D01*
X58236Y46420D01*
X58344D01*
X58448Y46448D01*
X58481Y46467D01*
X58879D01*
Y46020D01*
X60144D01*
X60156Y46041D01*
X60513D01*
X60927Y45628D01*
Y45189D01*
X60340D01*
X60316Y45192D01*
X60073D01*
X59598Y45667D01*
X59523Y45724D01*
X59436Y45761D01*
X59342Y45773D01*
X57861D01*
Y46281D01*
X57276D01*
X57228Y46288D01*
X57109D01*
X56970Y46427D01*
X56989Y46473D01*
X57181D01*
X57228Y46467D01*
D02*
G37*
G36*
X51850Y45921D02*
X51856Y45867D01*
X51866Y45820D01*
X51880Y45780D01*
X51898Y45745D01*
X51920Y45717D01*
X51946Y45695D01*
X51976Y45680D01*
X52008Y45671D01*
X52027Y45681D01*
X52094Y45729D01*
X52169Y45790D01*
X52342Y45951D01*
X52596Y45639D01*
X52497Y45538D01*
X52276Y45275D01*
X52272Y45269D01*
X52314Y45252D01*
X52367Y45238D01*
X52427Y45228D01*
X52495Y45222D01*
X52571Y45220D01*
Y44820D01*
X52495Y44818D01*
X52427Y44812D01*
X52367Y44802D01*
X52314Y44788D01*
X52270Y44770D01*
X52234Y44748D01*
X52206Y44722D01*
X52186Y44692D01*
X52174Y44658D01*
X52170Y44620D01*
Y45081D01*
X52167Y45073D01*
X52156Y45019D01*
X52157Y44972D01*
X52170Y44932D01*
X51776Y45667D01*
X51248D01*
X51286Y45670D01*
X51320Y45680D01*
X51350Y45695D01*
X51376Y45717D01*
X51398Y45745D01*
X51416Y45780D01*
X51430Y45820D01*
X51440Y45867D01*
X51446Y45921D01*
X51448Y45980D01*
X51848D01*
X51850Y45921D01*
D02*
G37*
G36*
X56058Y45096D02*
X56146Y45059D01*
X56240Y45047D01*
X57246D01*
Y44605D01*
X56471D01*
X55992Y45084D01*
X56025Y45121D01*
X56058Y45096D01*
D02*
G37*
G36*
X64720Y44850D02*
X64721Y44828D01*
X64725Y44805D01*
X64733Y44781D01*
X64745Y44756D01*
X64761Y44729D01*
X64780Y44701D01*
X64804Y44672D01*
X64830Y44641D01*
X64861Y44609D01*
X64683Y44505D01*
X64652Y44535D01*
X64565Y44610D01*
X64539Y44630D01*
X64490Y44660D01*
X64467Y44672D01*
X64445Y44680D01*
X64425Y44686D01*
X64723Y44870D01*
X64720Y44850D01*
D02*
G37*
G36*
X60118Y45028D02*
Y44429D01*
X60116Y44467D01*
X60110Y44501D01*
X60100Y44531D01*
X60086Y44557D01*
X60069Y44579D01*
X60047Y44597D01*
X60022Y44611D01*
X59993Y44621D01*
X59960Y44627D01*
X59923Y44629D01*
Y45029D01*
X60118Y45028D01*
D02*
G37*
G36*
X57407Y43842D02*
X57403Y43880D01*
X57392Y43914D01*
X57372Y43944D01*
X57344Y43970D01*
X57308Y43992D01*
X57263Y44010D01*
X57211Y44024D01*
X57151Y44034D01*
X57084Y44040D01*
X57007Y44042D01*
Y44442D01*
X57084Y44444D01*
X57151Y44450D01*
X57211Y44460D01*
X57263Y44474D01*
X57308Y44492D01*
X57344Y44514D01*
X57372Y44540D01*
X57392Y44570D01*
X57403Y44604D01*
X57407Y44642D01*
Y43842D01*
D02*
G37*
G36*
X64901Y43975D02*
X64906Y43898D01*
X64911Y43864D01*
X64918Y43833D01*
X64926Y43805D01*
X64935Y43780D01*
X64946Y43759D01*
X64958Y43740D01*
X64971Y43725D01*
X64629D01*
X64642Y43740D01*
X64654Y43759D01*
X64665Y43780D01*
X64674Y43805D01*
X64682Y43833D01*
X64689Y43864D01*
X64694Y43898D01*
X64699Y43975D01*
X64700Y44018D01*
X64900D01*
X64901Y43975D01*
D02*
G37*
G36*
X63901D02*
X63906Y43898D01*
X63911Y43864D01*
X63918Y43833D01*
X63926Y43805D01*
X63935Y43780D01*
X63946Y43759D01*
X63958Y43740D01*
X63971Y43725D01*
X63629D01*
X63642Y43740D01*
X63654Y43759D01*
X63665Y43780D01*
X63674Y43805D01*
X63682Y43833D01*
X63689Y43864D01*
X63694Y43898D01*
X63699Y43975D01*
X63700Y44018D01*
X63900D01*
X63901Y43975D01*
D02*
G37*
G36*
X62901D02*
X62906Y43898D01*
X62911Y43864D01*
X62918Y43833D01*
X62926Y43805D01*
X62935Y43780D01*
X62946Y43759D01*
X62958Y43740D01*
X62971Y43725D01*
X62629D01*
X62642Y43740D01*
X62654Y43759D01*
X62665Y43780D01*
X62674Y43805D01*
X62682Y43833D01*
X62689Y43864D01*
X62694Y43898D01*
X62699Y43975D01*
X62700Y44018D01*
X62900D01*
X62901Y43975D01*
D02*
G37*
G36*
X75627Y43936D02*
X75711Y43862D01*
X75737Y43843D01*
X75785Y43814D01*
X75807Y43803D01*
X75828Y43795D01*
X75847Y43790D01*
X75561Y43602D01*
X75563Y43622D01*
X75562Y43643D01*
X75557Y43665D01*
X75549Y43688D01*
X75536Y43713D01*
X75521Y43739D01*
X75501Y43767D01*
X75479Y43795D01*
X75422Y43857D01*
X75596Y43966D01*
X75627Y43936D01*
D02*
G37*
G36*
X74586Y43927D02*
X74644Y43876D01*
X74671Y43855D01*
X74698Y43837D01*
X74723Y43823D01*
X74747Y43811D01*
X74770Y43802D01*
X74791Y43797D01*
X74812Y43794D01*
X74556Y43567D01*
X74556Y43587D01*
X74552Y43609D01*
X74545Y43632D01*
X74535Y43656D01*
X74521Y43681D01*
X74505Y43707D01*
X74484Y43735D01*
X74461Y43763D01*
X74404Y43824D01*
X74555Y43957D01*
X74586Y43927D01*
D02*
G37*
G36*
X69202Y43810D02*
X69172Y43779D01*
X69121Y43721D01*
X69101Y43693D01*
X69083Y43667D01*
X69069Y43642D01*
X69058Y43618D01*
X69051Y43595D01*
X69046Y43573D01*
X69045Y43552D01*
X68802Y43795D01*
X68823Y43796D01*
X68845Y43801D01*
X68868Y43808D01*
X68892Y43819D01*
X68917Y43833D01*
X68943Y43851D01*
X68971Y43871D01*
X69029Y43922D01*
X69060Y43952D01*
X69202Y43810D01*
D02*
G37*
G36*
X59666Y44572D02*
X59741Y44515D01*
X59829Y44478D01*
X59923Y44466D01*
X59956D01*
Y43513D01*
X59042D01*
X58644Y43911D01*
X58569Y43969D01*
X58481Y44005D01*
X58387Y44017D01*
X58354D01*
Y45047D01*
X59191D01*
X59666Y44572D01*
D02*
G37*
G36*
X60904Y44016D02*
X60912Y43982D01*
X60924Y43952D01*
X60942Y43926D01*
X60965Y43904D01*
X60992Y43886D01*
X61025Y43872D01*
X61063Y43862D01*
X61106Y43856D01*
X61153Y43854D01*
Y43454D01*
X60903Y43456D01*
X60901Y44054D01*
X60904Y44016D01*
D02*
G37*
G36*
X58193D02*
X58199Y43982D01*
X58209Y43952D01*
X58223Y43926D01*
X58241Y43904D01*
X58262Y43886D01*
X58288Y43872D01*
X58317Y43862D01*
X58350Y43856D01*
X58387Y43854D01*
Y43454D01*
X58193Y43456D01*
X58191Y44054D01*
X58193Y44016D01*
D02*
G37*
G36*
X62648Y42569D02*
X62648Y42569D01*
X62997D01*
X64208Y41358D01*
X64212Y41343D01*
X64182Y41293D01*
X62533D01*
Y42540D01*
X62583Y42578D01*
X62648Y42569D01*
D02*
G37*
G36*
X60558Y40065D02*
X60482Y40063D01*
X60414Y40057D01*
X60354Y40047D01*
X60302Y40033D01*
X60258Y40015D01*
X60222Y39993D01*
X60194Y39967D01*
X60174Y39937D01*
X60162Y39903D01*
X60158Y39865D01*
Y40463D01*
X60162Y40464D01*
X60354Y40465D01*
X60558Y40465D01*
Y40065D01*
D02*
G37*
G36*
X69259Y39814D02*
X68841D01*
X68842Y39818D01*
X68844Y39829D01*
X68845Y39845D01*
X68849Y39969D01*
X68850Y40122D01*
X69250D01*
X69259Y39814D01*
D02*
G37*
G36*
X66047Y39899D02*
X65751Y39603D01*
X65749Y39608D01*
X65742Y39616D01*
X65732Y39629D01*
X65647Y39719D01*
X65540Y39828D01*
X65822Y40110D01*
X66047Y39899D01*
D02*
G37*
G36*
X63560Y39828D02*
X63349Y39603D01*
X63053Y39899D01*
X63058Y39901D01*
X63066Y39908D01*
X63079Y39918D01*
X63169Y40003D01*
X63278Y40110D01*
X63560Y39828D01*
D02*
G37*
%LPC*%
G36*
X61503Y58999D02*
X61397D01*
X61296Y58972D01*
X61247Y58944D01*
X61450Y58741D01*
X61653Y58944D01*
X61604Y58972D01*
X61503Y58999D01*
D02*
G37*
G36*
X61106Y58803D02*
X61078Y58754D01*
X61051Y58653D01*
Y58547D01*
X61078Y58446D01*
X61106Y58397D01*
X61309Y58600D01*
X61106Y58803D01*
D02*
G37*
G36*
X61794Y58803D02*
X61591Y58600D01*
X61794Y58397D01*
X61822Y58446D01*
X61849Y58547D01*
Y58653D01*
X61822Y58754D01*
X61794Y58803D01*
D02*
G37*
G36*
X61450Y58459D02*
X61247Y58256D01*
X61296Y58228D01*
X61397Y58201D01*
X61503D01*
X61604Y58228D01*
X61653Y58256D01*
X61450Y58459D01*
D02*
G37*
G36*
X76509Y59059D02*
X75591D01*
Y58141D01*
X76509D01*
Y59059D01*
D02*
G37*
G36*
X75110D02*
X74990D01*
X74873Y59028D01*
X74768Y58967D01*
X74683Y58882D01*
X74622Y58777D01*
X74591Y58660D01*
Y58540D01*
X74622Y58423D01*
X74683Y58318D01*
X74768Y58233D01*
X74873Y58172D01*
X74990Y58141D01*
X75110D01*
X75227Y58172D01*
X75332Y58233D01*
X75417Y58318D01*
X75478Y58423D01*
X75509Y58540D01*
Y58660D01*
X75478Y58777D01*
X75417Y58882D01*
X75332Y58967D01*
X75227Y59028D01*
X75110Y59059D01*
D02*
G37*
G36*
X74110D02*
X73990D01*
X73873Y59028D01*
X73768Y58967D01*
X73683Y58882D01*
X73622Y58777D01*
X73591Y58660D01*
Y58540D01*
X73622Y58423D01*
X73683Y58318D01*
X73768Y58233D01*
X73873Y58172D01*
X73990Y58141D01*
X74110D01*
X74227Y58172D01*
X74332Y58233D01*
X74417Y58318D01*
X74478Y58423D01*
X74509Y58540D01*
Y58660D01*
X74478Y58777D01*
X74417Y58882D01*
X74332Y58967D01*
X74227Y59028D01*
X74110Y59059D01*
D02*
G37*
G36*
X73110D02*
X72990D01*
X72873Y59028D01*
X72768Y58967D01*
X72683Y58882D01*
X72622Y58777D01*
X72591Y58660D01*
Y58540D01*
X72622Y58423D01*
X72683Y58318D01*
X72768Y58233D01*
X72873Y58172D01*
X72990Y58141D01*
X73110D01*
X73227Y58172D01*
X73332Y58233D01*
X73417Y58318D01*
X73478Y58423D01*
X73509Y58540D01*
Y58660D01*
X73478Y58777D01*
X73417Y58882D01*
X73332Y58967D01*
X73227Y59028D01*
X73110Y59059D01*
D02*
G37*
G36*
X72110D02*
X71990D01*
X71873Y59028D01*
X71768Y58967D01*
X71683Y58882D01*
X71622Y58777D01*
X71591Y58660D01*
Y58540D01*
X71622Y58423D01*
X71683Y58318D01*
X71768Y58233D01*
X71873Y58172D01*
X71990Y58141D01*
X72110D01*
X72227Y58172D01*
X72332Y58233D01*
X72417Y58318D01*
X72478Y58423D01*
X72509Y58540D01*
Y58660D01*
X72478Y58777D01*
X72417Y58882D01*
X72332Y58967D01*
X72227Y59028D01*
X72110Y59059D01*
D02*
G37*
G36*
X71110D02*
X70990D01*
X70873Y59028D01*
X70768Y58967D01*
X70683Y58882D01*
X70622Y58777D01*
X70591Y58660D01*
Y58540D01*
X70622Y58423D01*
X70683Y58318D01*
X70768Y58233D01*
X70873Y58172D01*
X70990Y58141D01*
X71110D01*
X71227Y58172D01*
X71332Y58233D01*
X71417Y58318D01*
X71478Y58423D01*
X71509Y58540D01*
Y58660D01*
X71478Y58777D01*
X71417Y58882D01*
X71332Y58967D01*
X71227Y59028D01*
X71110Y59059D01*
D02*
G37*
G36*
X70110D02*
X69990D01*
X69873Y59028D01*
X69768Y58967D01*
X69683Y58882D01*
X69622Y58777D01*
X69591Y58660D01*
Y58540D01*
X69622Y58423D01*
X69683Y58318D01*
X69768Y58233D01*
X69873Y58172D01*
X69990Y58141D01*
X70110D01*
X70227Y58172D01*
X70332Y58233D01*
X70417Y58318D01*
X70478Y58423D01*
X70509Y58540D01*
Y58660D01*
X70478Y58777D01*
X70417Y58882D01*
X70332Y58967D01*
X70227Y59028D01*
X70110Y59059D01*
D02*
G37*
G36*
X69110D02*
X68990D01*
X68873Y59028D01*
X68768Y58967D01*
X68683Y58882D01*
X68622Y58777D01*
X68591Y58660D01*
Y58540D01*
X68622Y58423D01*
X68683Y58318D01*
X68768Y58233D01*
X68873Y58172D01*
X68990Y58141D01*
X69110D01*
X69227Y58172D01*
X69332Y58233D01*
X69417Y58318D01*
X69478Y58423D01*
X69509Y58540D01*
Y58660D01*
X69478Y58777D01*
X69417Y58882D01*
X69332Y58967D01*
X69227Y59028D01*
X69110Y59059D01*
D02*
G37*
G36*
X67909D02*
X66991D01*
Y58141D01*
X67909D01*
Y59059D01*
D02*
G37*
G36*
X66510D02*
X66390D01*
X66273Y59028D01*
X66168Y58967D01*
X66083Y58882D01*
X66022Y58777D01*
X65991Y58660D01*
Y58540D01*
X66022Y58423D01*
X66083Y58318D01*
X66168Y58233D01*
X66273Y58172D01*
X66390Y58141D01*
X66510D01*
X66627Y58172D01*
X66732Y58233D01*
X66817Y58318D01*
X66878Y58423D01*
X66909Y58540D01*
Y58660D01*
X66878Y58777D01*
X66817Y58882D01*
X66732Y58967D01*
X66627Y59028D01*
X66510Y59059D01*
D02*
G37*
G36*
X65510D02*
X65390D01*
X65273Y59028D01*
X65168Y58967D01*
X65083Y58882D01*
X65022Y58777D01*
X64991Y58660D01*
Y58540D01*
X65022Y58423D01*
X65083Y58318D01*
X65168Y58233D01*
X65273Y58172D01*
X65390Y58141D01*
X65510D01*
X65627Y58172D01*
X65732Y58233D01*
X65817Y58318D01*
X65878Y58423D01*
X65909Y58540D01*
Y58660D01*
X65878Y58777D01*
X65817Y58882D01*
X65732Y58967D01*
X65627Y59028D01*
X65510Y59059D01*
D02*
G37*
G36*
X64510D02*
X64390D01*
X64273Y59028D01*
X64168Y58967D01*
X64083Y58882D01*
X64022Y58777D01*
X63991Y58660D01*
Y58540D01*
X64022Y58423D01*
X64083Y58318D01*
X64168Y58233D01*
X64273Y58172D01*
X64390Y58141D01*
X64510D01*
X64627Y58172D01*
X64732Y58233D01*
X64817Y58318D01*
X64878Y58423D01*
X64909Y58540D01*
Y58660D01*
X64878Y58777D01*
X64817Y58882D01*
X64732Y58967D01*
X64627Y59028D01*
X64510Y59059D01*
D02*
G37*
G36*
X63510D02*
X63390D01*
X63273Y59028D01*
X63168Y58967D01*
X63083Y58882D01*
X63022Y58777D01*
X62991Y58660D01*
Y58540D01*
X63022Y58423D01*
X63083Y58318D01*
X63168Y58233D01*
X63273Y58172D01*
X63390Y58141D01*
X63510D01*
X63627Y58172D01*
X63732Y58233D01*
X63817Y58318D01*
X63878Y58423D01*
X63909Y58540D01*
Y58660D01*
X63878Y58777D01*
X63817Y58882D01*
X63732Y58967D01*
X63627Y59028D01*
X63510Y59059D01*
D02*
G37*
G36*
X62510D02*
X62390D01*
X62273Y59028D01*
X62168Y58967D01*
X62083Y58882D01*
X62022Y58777D01*
X61991Y58660D01*
Y58540D01*
X62022Y58423D01*
X62083Y58318D01*
X62168Y58233D01*
X62273Y58172D01*
X62390Y58141D01*
X62510D01*
X62627Y58172D01*
X62732Y58233D01*
X62817Y58318D01*
X62878Y58423D01*
X62909Y58540D01*
Y58660D01*
X62878Y58777D01*
X62817Y58882D01*
X62732Y58967D01*
X62627Y59028D01*
X62510Y59059D01*
D02*
G37*
G36*
X64958Y50567D02*
Y50099D01*
X65192Y50333D01*
X64958Y50567D01*
D02*
G37*
G36*
X70092Y50564D02*
X69858Y50330D01*
X70092Y50096D01*
Y50564D01*
D02*
G37*
G36*
X53306Y58364D02*
Y58080D01*
X53336Y58134D01*
X53362Y58189D01*
X53382Y58243D01*
X53391Y58279D01*
X53306Y58364D01*
D02*
G37*
G36*
X53243Y57703D02*
X53151D01*
X53062Y57679D01*
X53031Y57661D01*
X53197Y57494D01*
X53341Y57638D01*
X53289Y57691D01*
X53243Y57703D01*
D02*
G37*
G36*
X53505Y57519D02*
X53339Y57353D01*
X53505Y57186D01*
X53523Y57218D01*
X53547Y57307D01*
Y57399D01*
X53523Y57488D01*
X53505Y57519D01*
D02*
G37*
G36*
X52889D02*
X52871Y57488D01*
X52847Y57399D01*
Y57307D01*
X52871Y57218D01*
X52889Y57186D01*
X53056Y57353D01*
X52889Y57519D01*
D02*
G37*
G36*
X53197Y57211D02*
X53031Y57045D01*
X53062Y57027D01*
X53151Y57003D01*
X53243D01*
X53332Y57027D01*
X53364Y57045D01*
X53197Y57211D01*
D02*
G37*
G36*
X52111Y56568D02*
X51954D01*
X52018Y56504D01*
X52032Y56512D01*
X52070Y56538D01*
X52111Y56568D01*
D02*
G37*
G36*
X51813Y56427D02*
Y56037D01*
X51999Y56224D01*
X52070Y56153D01*
X52101Y56185D01*
X52039Y56279D01*
X51999Y56240D01*
X51813Y56427D01*
D02*
G37*
G36*
X52327Y56180D02*
X52297Y56144D01*
X52272Y56108D01*
X52266Y56099D01*
X52327Y56037D01*
Y56180D01*
D02*
G37*
G36*
X51827Y55784D02*
X51737D01*
X51793Y55729D01*
X51808Y55747D01*
X51827Y55783D01*
X51827Y55784D01*
D02*
G37*
G36*
X52403D02*
X52313D01*
X52313Y55783D01*
X52332Y55747D01*
X52347Y55729D01*
X52403Y55784D01*
D02*
G37*
G36*
X52301Y55683D02*
X51839D01*
X52070Y55452D01*
X52301Y55683D01*
D02*
G37*
G36*
X52544Y55643D02*
X52211Y55310D01*
X52544Y54978D01*
Y55643D01*
D02*
G37*
G36*
X51596Y55643D02*
Y54978D01*
X51929Y55310D01*
X51596Y55643D01*
D02*
G37*
G36*
X52070Y55169D02*
X51839Y54937D01*
X52301D01*
X52070Y55169D01*
D02*
G37*
G36*
X52347Y54892D02*
X52332Y54873D01*
X52313Y54837D01*
X52313Y54836D01*
X52403D01*
X52347Y54892D01*
D02*
G37*
G36*
X51793D02*
X51737Y54836D01*
X51827D01*
X51827Y54837D01*
X51808Y54873D01*
X51793Y54892D01*
D02*
G37*
G36*
X51760Y52674D02*
X51737D01*
X51755Y52656D01*
X51759Y52673D01*
X51760Y52674D01*
D02*
G37*
G36*
X51596Y52533D02*
Y51867D01*
X51929Y52200D01*
X51596Y52533D01*
D02*
G37*
G36*
X52070Y52059D02*
X51737Y51726D01*
X52403D01*
X52070Y52059D01*
D02*
G37*
G36*
X59489Y56497D02*
X59479Y56487D01*
X59499D01*
X59489Y56497D01*
D02*
G37*
G36*
X59181Y56805D02*
X59163Y56774D01*
X59139Y56685D01*
Y56593D01*
X59163Y56504D01*
X59181Y56472D01*
X59347Y56639D01*
X59181Y56805D01*
D02*
G37*
G36*
X59270Y56189D02*
X59254D01*
X59267Y56176D01*
X59270Y56187D01*
X59270Y56189D01*
D02*
G37*
G36*
X59723D02*
X59707D01*
X59707Y56187D01*
X59710Y56176D01*
X59723Y56189D01*
D02*
G37*
G36*
X59622Y56087D02*
X59356D01*
X59489Y55954D01*
X59622Y56087D01*
D02*
G37*
G36*
X61116Y56008D02*
X61006D01*
X61022Y55997D01*
X61040Y55991D01*
X61060Y55990D01*
X61083Y55994D01*
X61108Y56004D01*
X61116Y56008D01*
D02*
G37*
G36*
X53783Y52981D02*
X53691Y52890D01*
X53783Y52799D01*
X53800Y52840D01*
Y52940D01*
X53783Y52981D01*
D02*
G37*
G36*
X53550Y52749D02*
X53459Y52657D01*
X53500Y52640D01*
X53600D01*
X53641Y52657D01*
X53550Y52749D01*
D02*
G37*
G36*
X59380Y50725D02*
X59346D01*
X59346Y50724D01*
X59354Y50699D01*
X59380Y50725D01*
D02*
G37*
G36*
X59279Y50624D02*
X59064D01*
X59172Y50516D01*
X59279Y50624D01*
D02*
G37*
G36*
X59172Y50375D02*
X59147Y50350D01*
X59172Y50325D01*
X59197Y50350D01*
X59172Y50375D01*
D02*
G37*
G36*
X58822Y50584D02*
Y50116D01*
X59055Y50350D01*
X58822Y50584D01*
D02*
G37*
G36*
X59522Y50584D02*
X59288Y50350D01*
X59522Y50116D01*
Y50584D01*
D02*
G37*
G36*
X59172Y50184D02*
X58963Y49975D01*
X59380D01*
X59172Y50184D01*
D02*
G37*
G36*
X76575Y51075D02*
X75625D01*
Y50125D01*
X76575D01*
Y51075D01*
D02*
G37*
G36*
X77456Y48814D02*
X77241Y48600D01*
X77456Y48386D01*
X77487Y48440D01*
X77515Y48545D01*
Y48655D01*
X77487Y48760D01*
X77456Y48814D01*
D02*
G37*
G36*
X55276Y44320D02*
X55184D01*
X55095Y44296D01*
X55063Y44278D01*
X55230Y44111D01*
X55397Y44278D01*
X55365Y44296D01*
X55276Y44320D01*
D02*
G37*
G36*
X54556Y44270D02*
X54400Y44114D01*
X54556Y43959D01*
Y44270D01*
D02*
G37*
G36*
X53411Y44270D02*
Y43959D01*
X53566Y44114D01*
X53411Y44270D01*
D02*
G37*
G36*
X54414Y44411D02*
X53552D01*
X53779Y44185D01*
X53708Y44114D01*
X53779Y44044D01*
X53655Y43920D01*
X54312D01*
X54188Y44044D01*
X54259Y44114D01*
X54188Y44185D01*
X54414Y44411D01*
D02*
G37*
G36*
X54324Y43908D02*
X54311Y43904D01*
X54281Y43884D01*
X54255Y43856D01*
X54233Y43820D01*
X54233Y43818D01*
X54414D01*
X54324Y43908D01*
D02*
G37*
G36*
X53643Y43908D02*
X53552Y43818D01*
X53734D01*
X53733Y43820D01*
X53711Y43856D01*
X53685Y43884D01*
X53655Y43904D01*
X53643Y43908D01*
D02*
G37*
G36*
X55538Y44137D02*
X55371Y43970D01*
X55538Y43803D01*
X55556Y43835D01*
X55580Y43924D01*
Y44016D01*
X55556Y44105D01*
X55538Y44137D01*
D02*
G37*
G36*
X54922D02*
X54904Y44105D01*
X54880Y44016D01*
Y43924D01*
X54904Y43835D01*
X54922Y43803D01*
X55089Y43970D01*
X54922Y44137D01*
D02*
G37*
G36*
X55230Y43829D02*
X55063Y43662D01*
X55095Y43644D01*
X55184Y43620D01*
X55276D01*
X55365Y43644D01*
X55397Y43662D01*
X55230Y43829D01*
D02*
G37*
G36*
X53587Y42770D02*
X52831D01*
X53290Y42311D01*
X53435Y42456D01*
X53223Y42668D01*
X53254Y42645D01*
X53291Y42634D01*
X53333Y42634D01*
X53381Y42645D01*
X53435Y42668D01*
X53494Y42702D01*
X53559Y42748D01*
X53587Y42770D01*
D02*
G37*
G36*
X58152Y42846D02*
X57611D01*
X57637Y42824D01*
X57702Y42778D01*
X57761Y42744D01*
X57815Y42722D01*
X57863Y42711D01*
X57905D01*
X57942Y42722D01*
X57973Y42744D01*
X57761Y42532D01*
X57800Y42493D01*
X58152Y42846D01*
D02*
G37*
G36*
X56450Y42830D02*
X55130D01*
Y40910D01*
X56066D01*
X56090Y40907D01*
X56645D01*
X57440Y40111D01*
Y39635D01*
X58745D01*
Y40625D01*
X57954D01*
X57554Y41025D01*
X57573Y41071D01*
X58152D01*
X57729Y41494D01*
X57871Y41635D01*
X58294Y41212D01*
Y41709D01*
X58292Y41708D01*
X58255Y41686D01*
X58227Y41660D01*
X58207Y41630D01*
X58195Y41596D01*
X58191Y41558D01*
Y42358D01*
X58195Y42320D01*
X58207Y42286D01*
X58227Y42256D01*
X58255Y42230D01*
X58292Y42208D01*
X58294Y42207D01*
Y42704D01*
X57871Y42281D01*
X57800Y42352D01*
X57729Y42281D01*
X57620Y42391D01*
X57407Y42179D01*
X57430Y42210D01*
X57441Y42247D01*
Y42289D01*
X57430Y42337D01*
X57407Y42391D01*
X57374Y42450D01*
X57328Y42515D01*
X57306Y42543D01*
Y41338D01*
X57260Y41319D01*
X57052Y41527D01*
X56977Y41584D01*
X56889Y41621D01*
X56795Y41633D01*
X56450D01*
Y42830D01*
D02*
G37*
G36*
X52690Y42629D02*
Y41111D01*
X53219Y41641D01*
X53290Y41570D01*
X53361Y41641D01*
X53890Y41111D01*
Y42466D01*
X53868Y42439D01*
X53822Y42374D01*
X53788Y42315D01*
X53765Y42261D01*
X53754Y42213D01*
X53754Y42171D01*
X53765Y42134D01*
X53788Y42103D01*
X53576Y42315D01*
X53361Y42099D01*
X53290Y42170D01*
X53219Y42099D01*
X52690Y42629D01*
D02*
G37*
G36*
X60510Y41423D02*
X60158Y41071D01*
X60862D01*
X60510Y41423D01*
D02*
G37*
G36*
X53290Y41429D02*
X52831Y40970D01*
X53354D01*
X53340Y40996D01*
X53318Y41023D01*
X53292Y41044D01*
X53262Y41059D01*
X53228Y41068D01*
X53190Y41071D01*
X53647D01*
X53290Y41429D01*
D02*
G37*
G36*
X67394Y39803D02*
X67393Y39802D01*
X67395Y39802D01*
X67394Y39803D01*
D02*
G37*
G36*
X68103Y39999D02*
X67997D01*
X67896Y39972D01*
X67847Y39944D01*
X68050Y39741D01*
X68253Y39944D01*
X68204Y39972D01*
X68103Y39999D01*
D02*
G37*
G36*
X67103D02*
X66997D01*
X66896Y39972D01*
X66847Y39944D01*
X67050Y39741D01*
X67253Y39944D01*
X67204Y39972D01*
X67103Y39999D01*
D02*
G37*
G36*
X67264Y39672D02*
X67191Y39600D01*
X67264Y39528D01*
Y39672D01*
D02*
G37*
G36*
X67836D02*
Y39528D01*
X67909Y39600D01*
X67836Y39672D01*
D02*
G37*
G36*
X55690Y40329D02*
X55231Y39870D01*
X55690Y39411D01*
Y40329D01*
D02*
G37*
G36*
X53890Y40167D02*
Y39411D01*
X54349Y39870D01*
X54204Y40015D01*
X53992Y39803D01*
X54015Y39834D01*
X54026Y39871D01*
X54026Y39913D01*
X54015Y39961D01*
X53992Y40015D01*
X53958Y40074D01*
X53912Y40139D01*
X53890Y40167D01*
D02*
G37*
G36*
X68394Y39803D02*
X68191Y39600D01*
X68394Y39397D01*
X68422Y39446D01*
X68449Y39547D01*
Y39653D01*
X68422Y39754D01*
X68394Y39803D01*
D02*
G37*
G36*
X67705Y39398D02*
X67706Y39397D01*
X67707Y39398D01*
X67705Y39398D01*
D02*
G37*
G36*
X66706Y39803D02*
X66678Y39754D01*
X66651Y39653D01*
Y39547D01*
X66678Y39446D01*
X66706Y39397D01*
X66909Y39600D01*
X66706Y39803D01*
D02*
G37*
G36*
X55549Y40470D02*
X54194D01*
X54221Y40448D01*
X54286Y40402D01*
X54345Y40368D01*
X54399Y40345D01*
X54447Y40334D01*
X54489Y40334D01*
X54526Y40345D01*
X54557Y40368D01*
X54345Y40156D01*
X54561Y39941D01*
X54490Y39870D01*
X54561Y39799D01*
X54031Y39270D01*
X55549D01*
X55019Y39799D01*
X55090Y39870D01*
X55019Y39941D01*
X55549Y40470D01*
D02*
G37*
G36*
X68050Y39459D02*
X67847Y39256D01*
X67896Y39228D01*
X67997Y39201D01*
X68103D01*
X68204Y39228D01*
X68253Y39256D01*
X68050Y39459D01*
D02*
G37*
G36*
X67050D02*
X66847Y39256D01*
X66896Y39228D01*
X66997Y39201D01*
X67103D01*
X67204Y39228D01*
X67253Y39256D01*
X67050Y39459D01*
D02*
G37*
G36*
X76110Y40059D02*
X75990D01*
X75873Y40028D01*
X75768Y39967D01*
X75683Y39882D01*
X75622Y39777D01*
X75591Y39660D01*
Y39540D01*
X75622Y39423D01*
X75683Y39318D01*
X75768Y39233D01*
X75873Y39172D01*
X75990Y39141D01*
X76110D01*
X76227Y39172D01*
X76332Y39233D01*
X76417Y39318D01*
X76478Y39423D01*
X76509Y39540D01*
Y39660D01*
X76478Y39777D01*
X76417Y39882D01*
X76332Y39967D01*
X76227Y40028D01*
X76110Y40059D01*
D02*
G37*
G36*
X75110D02*
X74990D01*
X74873Y40028D01*
X74768Y39967D01*
X74683Y39882D01*
X74622Y39777D01*
X74591Y39660D01*
Y39540D01*
X74622Y39423D01*
X74683Y39318D01*
X74768Y39233D01*
X74873Y39172D01*
X74990Y39141D01*
X75110D01*
X75227Y39172D01*
X75332Y39233D01*
X75417Y39318D01*
X75478Y39423D01*
X75509Y39540D01*
Y39660D01*
X75478Y39777D01*
X75417Y39882D01*
X75332Y39967D01*
X75227Y40028D01*
X75110Y40059D01*
D02*
G37*
G36*
X74110D02*
X73990D01*
X73873Y40028D01*
X73768Y39967D01*
X73683Y39882D01*
X73622Y39777D01*
X73591Y39660D01*
Y39540D01*
X73622Y39423D01*
X73683Y39318D01*
X73768Y39233D01*
X73873Y39172D01*
X73990Y39141D01*
X74110D01*
X74227Y39172D01*
X74332Y39233D01*
X74417Y39318D01*
X74478Y39423D01*
X74509Y39540D01*
Y39660D01*
X74478Y39777D01*
X74417Y39882D01*
X74332Y39967D01*
X74227Y40028D01*
X74110Y40059D01*
D02*
G37*
G36*
X73110D02*
X72990D01*
X72873Y40028D01*
X72768Y39967D01*
X72683Y39882D01*
X72622Y39777D01*
X72591Y39660D01*
Y39540D01*
X72622Y39423D01*
X72683Y39318D01*
X72768Y39233D01*
X72873Y39172D01*
X72990Y39141D01*
X73110D01*
X73227Y39172D01*
X73332Y39233D01*
X73417Y39318D01*
X73478Y39423D01*
X73509Y39540D01*
Y39660D01*
X73478Y39777D01*
X73417Y39882D01*
X73332Y39967D01*
X73227Y40028D01*
X73110Y40059D01*
D02*
G37*
G36*
X72110D02*
X71990D01*
X71873Y40028D01*
X71768Y39967D01*
X71683Y39882D01*
X71622Y39777D01*
X71591Y39660D01*
Y39540D01*
X71622Y39423D01*
X71683Y39318D01*
X71768Y39233D01*
X71873Y39172D01*
X71990Y39141D01*
X72110D01*
X72227Y39172D01*
X72332Y39233D01*
X72417Y39318D01*
X72478Y39423D01*
X72509Y39540D01*
Y39660D01*
X72478Y39777D01*
X72417Y39882D01*
X72332Y39967D01*
X72227Y40028D01*
X72110Y40059D01*
D02*
G37*
G36*
X71509D02*
X70591D01*
Y39141D01*
X71509D01*
Y40059D01*
D02*
G37*
G36*
X62509D02*
X61591D01*
Y39141D01*
X62509D01*
Y40059D01*
D02*
G37*
%LPD*%
G36*
X56292Y41632D02*
X56304Y41598D01*
X56324Y41568D01*
X56352Y41542D01*
X56388Y41520D01*
X56432Y41502D01*
X56484Y41488D01*
X56544Y41478D01*
X56613Y41472D01*
X56689Y41470D01*
Y41070D01*
X56289Y41071D01*
X56288Y41670D01*
X56292Y41632D01*
D02*
G37*
G36*
X57684Y40667D02*
X57831Y40542D01*
X57896Y40497D01*
X57956Y40463D01*
X58009Y40440D01*
X58057Y40429D01*
X58100Y40429D01*
X58136Y40440D01*
X58167Y40462D01*
X57603Y39898D01*
X57625Y39929D01*
X57637Y39965D01*
X57636Y40008D01*
X57625Y40056D01*
X57602Y40110D01*
X57568Y40169D01*
X57523Y40234D01*
X57466Y40305D01*
X57319Y40463D01*
X57602Y40746D01*
X57684Y40667D01*
D02*
G37*
%LPC*%
G36*
X54056Y49460D02*
X53964D01*
X53875Y49436D01*
X53843Y49418D01*
X54010Y49251D01*
X54177Y49418D01*
X54145Y49436D01*
X54056Y49460D01*
D02*
G37*
G36*
X54250Y49208D02*
X54151Y49110D01*
X54250Y49012D01*
Y49208D01*
D02*
G37*
G36*
X55300Y48899D02*
X55298Y48899D01*
X55295Y48898D01*
X55300Y48893D01*
Y48899D01*
D02*
G37*
G36*
X54924Y48986D02*
X54690Y48752D01*
X55158D01*
X54924Y48986D01*
D02*
G37*
G36*
X71443Y49471D02*
X71351Y49380D01*
X71443Y49289D01*
X71460Y49330D01*
Y49430D01*
X71443Y49471D01*
D02*
G37*
G36*
X71623Y48649D02*
X71607D01*
X71607Y48647D01*
X71610Y48636D01*
X71623Y48649D01*
D02*
G37*
G36*
X72846D02*
X72378D01*
X72612Y48414D01*
X72846Y48649D01*
D02*
G37*
G36*
X72988Y48507D02*
X72894Y48413D01*
X72897Y48398D01*
X72906Y48372D01*
X72917Y48350D01*
X72931Y48332D01*
X72947Y48318D01*
X72966Y48308D01*
X72988Y48303D01*
Y48507D01*
D02*
G37*
G36*
X73841Y47465D02*
X73606Y47230D01*
X74075D01*
X73841Y47465D01*
D02*
G37*
G36*
X74853Y47055D02*
X74747D01*
X74644Y47027D01*
X74552Y46974D01*
X74476Y46898D01*
X74423Y46806D01*
X74395Y46703D01*
Y46597D01*
X74423Y46494D01*
X74476Y46402D01*
X74552Y46326D01*
X74644Y46273D01*
X74747Y46245D01*
X74853D01*
X74956Y46273D01*
X75048Y46326D01*
X75124Y46402D01*
X75177Y46494D01*
X75205Y46597D01*
Y46703D01*
X75177Y46806D01*
X75124Y46898D01*
X75048Y46974D01*
X74956Y47027D01*
X74853Y47055D01*
D02*
G37*
G36*
X52792Y48727D02*
X52774Y48695D01*
X52750Y48606D01*
Y48514D01*
X52774Y48425D01*
X52792Y48393D01*
X52959Y48560D01*
X52792Y48727D01*
D02*
G37*
G36*
X53100Y48419D02*
X52933Y48252D01*
X52965Y48234D01*
X53054Y48210D01*
X53146D01*
X53235Y48234D01*
X53267Y48252D01*
X53100Y48419D01*
D02*
G37*
G36*
X52440Y48092D02*
X52332D01*
X52405Y48019D01*
X52417Y48030D01*
X52427Y48044D01*
X52435Y48061D01*
X52439Y48080D01*
X52440Y48092D01*
D02*
G37*
G36*
X52941Y47950D02*
X52898Y47908D01*
X52903Y47905D01*
X52939Y47890D01*
X52941Y47890D01*
Y47950D01*
D02*
G37*
G36*
X52698Y47990D02*
X52433D01*
X52566Y47858D01*
X52698Y47990D01*
D02*
G37*
G36*
X55926Y47993D02*
X55457D01*
X55691Y47759D01*
X55926Y47993D01*
D02*
G37*
G36*
X54891D02*
X54422D01*
X54656Y47759D01*
X54891Y47993D01*
D02*
G37*
G36*
X53856D02*
X53387D01*
X53621Y47759D01*
X53856Y47993D01*
D02*
G37*
G36*
X52839Y47849D02*
X52732Y47742D01*
X52839Y47634D01*
Y47849D01*
D02*
G37*
G36*
X56656Y47891D02*
Y47580D01*
X56811Y47736D01*
X56656Y47891D01*
D02*
G37*
G36*
X57801Y47891D02*
X57645Y47736D01*
X57801Y47580D01*
Y47891D01*
D02*
G37*
G36*
X57659Y48032D02*
X56797D01*
X57023Y47806D01*
X56953Y47736D01*
X57023Y47665D01*
X56797Y47439D01*
X57659D01*
X57433Y47665D01*
X57504Y47736D01*
X57433Y47806D01*
X57659Y48032D01*
D02*
G37*
G36*
X60826Y47522D02*
X60574D01*
X60578Y47507D01*
X60588Y47486D01*
X60602Y47469D01*
X60620Y47454D01*
X60642Y47442D01*
X60668Y47432D01*
X60698Y47425D01*
X60725Y47422D01*
X60826Y47522D01*
D02*
G37*
G36*
X60459Y47420D02*
X60591Y47288D01*
X60723Y47420D01*
X60459Y47420D01*
D02*
G37*
G36*
X69845Y43895D02*
X69755D01*
X69667Y43871D01*
X69637Y43854D01*
X69800Y43691D01*
X69963Y43854D01*
X69933Y43871D01*
X69845Y43895D01*
D02*
G37*
G36*
X69496Y43713D02*
X69479Y43683D01*
X69455Y43595D01*
Y43505D01*
X69479Y43417D01*
X69496Y43387D01*
X69659Y43550D01*
X69496Y43713D01*
D02*
G37*
G36*
X70104D02*
X69941Y43550D01*
X70104Y43387D01*
X70121Y43417D01*
X70145Y43505D01*
Y43595D01*
X70121Y43683D01*
X70104Y43713D01*
D02*
G37*
G36*
X69800Y43409D02*
X69637Y43246D01*
X69667Y43229D01*
X69755Y43205D01*
X69845D01*
X69933Y43229D01*
X69963Y43246D01*
X69800Y43409D01*
D02*
G37*
G36*
X73853Y43955D02*
X73747D01*
X73644Y43927D01*
X73552Y43874D01*
X73476Y43798D01*
X73423Y43706D01*
X73395Y43603D01*
Y43497D01*
X73423Y43394D01*
X73476Y43302D01*
X73552Y43226D01*
X73644Y43173D01*
X73747Y43145D01*
X73853D01*
X73956Y43173D01*
X74048Y43226D01*
X74124Y43302D01*
X74177Y43394D01*
X74205Y43497D01*
Y43603D01*
X74177Y43706D01*
X74124Y43798D01*
X74048Y43874D01*
X73956Y43927D01*
X73853Y43955D01*
D02*
G37*
G36*
X72853D02*
X72747D01*
X72644Y43927D01*
X72552Y43874D01*
X72476Y43798D01*
X72423Y43706D01*
X72395Y43603D01*
Y43497D01*
X72423Y43394D01*
X72476Y43302D01*
X72552Y43226D01*
X72644Y43173D01*
X72747Y43145D01*
X72853D01*
X72956Y43173D01*
X73048Y43226D01*
X73124Y43302D01*
X73177Y43394D01*
X73205Y43497D01*
Y43603D01*
X73177Y43706D01*
X73124Y43798D01*
X73048Y43874D01*
X72956Y43927D01*
X72853Y43955D01*
D02*
G37*
G36*
X71853D02*
X71747D01*
X71644Y43927D01*
X71552Y43874D01*
X71476Y43798D01*
X71423Y43706D01*
X71395Y43603D01*
Y43497D01*
X71423Y43394D01*
X71476Y43302D01*
X71552Y43226D01*
X71644Y43173D01*
X71747Y43145D01*
X71853D01*
X71956Y43173D01*
X72048Y43226D01*
X72124Y43302D01*
X72177Y43394D01*
X72205Y43497D01*
Y43603D01*
X72177Y43706D01*
X72124Y43798D01*
X72048Y43874D01*
X71956Y43927D01*
X71853Y43955D01*
D02*
G37*
G36*
X70853D02*
X70747D01*
X70644Y43927D01*
X70552Y43874D01*
X70476Y43798D01*
X70423Y43706D01*
X70395Y43603D01*
Y43497D01*
X70423Y43394D01*
X70476Y43302D01*
X70552Y43226D01*
X70644Y43173D01*
X70747Y43145D01*
X70853D01*
X70956Y43173D01*
X71048Y43226D01*
X71124Y43302D01*
X71177Y43394D01*
X71205Y43497D01*
Y43603D01*
X71177Y43706D01*
X71124Y43798D01*
X71048Y43874D01*
X70956Y43927D01*
X70853Y43955D01*
D02*
G37*
G36*
X66384Y45790D02*
X66276D01*
X66172Y45762D01*
X66078Y45708D01*
X66002Y45632D01*
X65948Y45538D01*
X65920Y45434D01*
Y45326D01*
X65948Y45222D01*
X66002Y45128D01*
X66078Y45052D01*
X66172Y44998D01*
X66276Y44970D01*
X66384D01*
X66388Y44971D01*
X66538Y44821D01*
Y43860D01*
X66476Y43798D01*
X66423Y43706D01*
X66395Y43603D01*
Y43497D01*
X66423Y43394D01*
X66476Y43302D01*
X66552Y43226D01*
X66644Y43173D01*
X66747Y43145D01*
X66853D01*
X66956Y43173D01*
X67048Y43226D01*
X67124Y43302D01*
X67177Y43394D01*
X67205Y43497D01*
Y43603D01*
X67177Y43706D01*
X67124Y43798D01*
X67062Y43860D01*
Y44930D01*
X67062Y44930D01*
X67053Y44998D01*
X67027Y45061D01*
X66985Y45115D01*
X66985Y45115D01*
X66740Y45361D01*
Y45434D01*
X66712Y45538D01*
X66658Y45632D01*
X66582Y45708D01*
X66488Y45762D01*
X66384Y45790D01*
D02*
G37*
G36*
X65844Y44880D02*
X65736D01*
X65632Y44852D01*
X65538Y44798D01*
X65462Y44722D01*
X65408Y44628D01*
X65380Y44524D01*
Y44416D01*
X65408Y44312D01*
X65462Y44218D01*
X65533Y44147D01*
Y43855D01*
X65476Y43798D01*
X65423Y43706D01*
X65395Y43603D01*
Y43497D01*
X65423Y43394D01*
X65476Y43302D01*
X65552Y43226D01*
X65644Y43173D01*
X65747Y43145D01*
X65853D01*
X65956Y43173D01*
X66048Y43226D01*
X66124Y43302D01*
X66177Y43394D01*
X66205Y43497D01*
Y43603D01*
X66177Y43706D01*
X66124Y43798D01*
X66057Y43865D01*
Y44157D01*
X66118Y44218D01*
X66172Y44312D01*
X66200Y44416D01*
Y44524D01*
X66172Y44628D01*
X66118Y44722D01*
X66042Y44798D01*
X65948Y44852D01*
X65844Y44880D01*
D02*
G37*
%LPD*%
G36*
X66582Y45370D02*
X66588Y45347D01*
X66597Y45324D01*
X66608Y45299D01*
X66623Y45273D01*
X66641Y45246D01*
X66663Y45218D01*
X66714Y45158D01*
X66745Y45127D01*
X66612Y44976D01*
X66580Y45007D01*
X66521Y45058D01*
X66492Y45078D01*
X66465Y45096D01*
X66439Y45109D01*
X66414Y45120D01*
X66391Y45127D01*
X66368Y45130D01*
X66347Y45131D01*
X66580Y45392D01*
X66582Y45370D01*
D02*
G37*
G36*
X66901Y43975D02*
X66906Y43898D01*
X66911Y43864D01*
X66918Y43833D01*
X66926Y43805D01*
X66935Y43780D01*
X66946Y43759D01*
X66958Y43740D01*
X66971Y43725D01*
X66629D01*
X66642Y43740D01*
X66654Y43759D01*
X66665Y43780D01*
X66674Y43805D01*
X66682Y43833D01*
X66689Y43864D01*
X66694Y43898D01*
X66699Y43975D01*
X66700Y44018D01*
X66900D01*
X66901Y43975D01*
D02*
G37*
G36*
X65955Y44278D02*
X65942Y44259D01*
X65931Y44236D01*
X65921Y44211D01*
X65913Y44182D01*
X65907Y44150D01*
X65902Y44116D01*
X65896Y44037D01*
X65895Y44007D01*
X65896Y43977D01*
X65902Y43900D01*
X65907Y43866D01*
X65913Y43835D01*
X65921Y43808D01*
X65931Y43783D01*
X65942Y43762D01*
X65954Y43743D01*
X65968Y43728D01*
X65625Y43721D01*
X65638Y43737D01*
X65650Y43756D01*
X65661Y43778D01*
X65670Y43803D01*
X65678Y43830D01*
X65684Y43861D01*
X65689Y43895D01*
X65694Y43973D01*
X65695Y44002D01*
X65694Y44033D01*
X65688Y44111D01*
X65683Y44146D01*
X65676Y44177D01*
X65668Y44206D01*
X65658Y44231D01*
X65646Y44253D01*
X65633Y44272D01*
X65619Y44288D01*
X65969Y44295D01*
X65955Y44278D01*
D02*
G37*
%LPC*%
G36*
X52002Y45667D02*
X51776D01*
X51799Y45637D01*
X51830Y45620D01*
X51868Y45616D01*
X51914Y45625D01*
X51967Y45647D01*
X52002Y45667D01*
D02*
G37*
%LPD*%
D13*
X53241Y54008D02*
X53627D01*
X54617Y54998D01*
X55200D02*
X56125Y55922D01*
X53238Y53755D02*
X53241Y53758D01*
X54720Y54748D02*
X55304D01*
X53241Y53758D02*
X53731D01*
X56125Y55922D02*
Y56147D01*
X56375Y55819D02*
Y56147D01*
X56500Y56272D02*
Y56640D01*
X54617Y54998D02*
X55200D01*
X56375Y56147D02*
X56500Y56272D01*
X56000D02*
X56125Y56147D01*
X55304Y54748D02*
X56375Y55819D01*
X53238Y54011D02*
X53241Y54008D01*
X53731Y53758D02*
X54720Y54748D01*
X56000Y56272D02*
Y56640D01*
D14*
X60226Y56554D02*
X61054D01*
X59448Y57332D02*
X60226Y56554D01*
X58450Y58600D02*
X59242Y57808D01*
X56616Y57860D02*
X57145Y57332D01*
X55500Y57860D02*
X56616D01*
X57145Y57332D02*
X59448D01*
X59396Y57808D02*
X60112Y57092D01*
X70358D01*
X59242Y57808D02*
X59396D01*
X60643Y57407D02*
X71213D01*
X59450Y58600D02*
X60643Y57407D01*
X56825Y57182D02*
Y57214D01*
X56662Y57377D02*
X56825Y57214D01*
X55143Y57377D02*
X56662D01*
X56825Y57182D02*
X56975Y57032D01*
Y56665D02*
Y57032D01*
Y56665D02*
X57000Y56640D01*
X54526Y57954D02*
X54566D01*
X55143Y57377D01*
X54390Y58091D02*
X54526Y57954D01*
X54390Y58091D02*
Y58130D01*
X58190Y48600D02*
X58201Y48611D01*
X58190Y49123D02*
X58201D01*
Y48611D02*
Y49123D01*
X58207Y49140D02*
X58212D01*
X58190Y49123D02*
X58207Y49140D01*
X57380Y48780D02*
Y50090D01*
X56830Y50640D02*
X57380Y50090D01*
X57000Y48400D02*
X57380Y48780D01*
X68800Y43550D02*
X71300Y46050D01*
Y46779D01*
X62406Y51860D02*
X62460D01*
X62084Y51538D02*
X62406Y51860D01*
X61939Y51538D02*
X62084D01*
X62800Y46021D02*
X63310Y46531D01*
Y47590D02*
X63890Y48170D01*
X63310Y46531D02*
Y47590D01*
X63890Y48170D02*
Y55993D01*
X64047Y56150D01*
X65340D01*
X62783Y50810D02*
X62870Y50723D01*
X60445Y50810D02*
X62783D01*
X61847Y51447D02*
X61939Y51538D01*
X59680Y54130D02*
X62860D01*
X58850Y53300D02*
X59680Y54130D01*
X62860D02*
X62900Y54170D01*
X59088Y49640D02*
X59234Y49493D01*
Y49454D02*
Y49493D01*
X58212Y49640D02*
X59088D01*
X74314Y49024D02*
X75022Y48316D01*
X74314Y49024D02*
Y49314D01*
X74257Y49372D02*
X74314Y49314D01*
X60330Y50925D02*
X60445Y50810D01*
X60539Y51363D02*
X61054D01*
X60251Y51650D02*
X60539Y51363D01*
X60170Y51650D02*
X60251D01*
X57107Y53300D02*
X58850D01*
X59625Y55716D02*
X59920D01*
X60600Y55034D02*
Y55036D01*
Y55034D02*
X60992Y54643D01*
X59920Y55716D02*
X60600Y55036D01*
X56990Y54070D02*
X57000Y54080D01*
X56990Y53417D02*
X57107Y53300D01*
X56990Y53417D02*
Y54070D01*
X57405Y52815D02*
X57620Y52600D01*
X57133Y52815D02*
X57405D01*
X56525Y53423D02*
X57133Y52815D01*
X56525Y53423D02*
Y54055D01*
X56500Y54080D02*
X56525Y54055D01*
X73855Y46415D02*
Y46595D01*
X73800Y46650D02*
X73855Y46595D01*
Y46415D02*
X74640Y45630D01*
X73280Y46140D02*
X73280D01*
X75800Y43550D02*
Y43620D01*
X73280Y46140D02*
X75800Y43620D01*
X62800Y43550D02*
Y46021D01*
X63800D02*
X64340Y46561D01*
X63800Y43550D02*
Y46021D01*
X64340Y46561D02*
Y55530D01*
X62137Y46047D02*
X62150Y46035D01*
X62137Y46047D02*
Y46073D01*
X61792Y46418D02*
X62137Y46073D01*
X61792Y46418D02*
Y48084D01*
X66330Y45380D02*
X66350D01*
X66800Y44930D01*
X64800Y43550D02*
Y44529D01*
X64480Y44849D02*
X64800Y44529D01*
X64480Y44849D02*
Y44930D01*
X65790Y44470D02*
X65795Y44465D01*
Y43555D02*
X65800Y43550D01*
X65795Y43555D02*
Y44465D01*
X53531Y52909D02*
X53550Y52890D01*
X72285Y46085D02*
X74800Y43570D01*
X72285Y46085D02*
Y46115D01*
X74800Y43550D02*
Y43570D01*
X61847Y51447D02*
Y51521D01*
Y52387D01*
X66800Y43550D02*
Y44930D01*
X61802Y51402D02*
X61847Y51447D01*
X61802Y51363D02*
Y51402D01*
X73841Y48315D02*
X75021D01*
X75022Y48316D01*
X73841Y48315D02*
X73841Y48315D01*
X61054Y55773D02*
Y56554D01*
Y55773D02*
X61342Y56061D01*
Y56068D02*
X61504Y56230D01*
X62780D01*
X61054Y55734D02*
Y55773D01*
X61342Y56061D02*
Y56068D01*
X73206Y55706D02*
X73250Y55750D01*
X71744Y55706D02*
X73206D01*
X70358Y57092D02*
X71744Y55706D01*
X71213Y57407D02*
X72290Y56330D01*
X66374Y58524D02*
X66450Y58600D01*
X73780Y55300D02*
X74260Y54820D01*
X66390Y55300D02*
X73780D01*
X55000Y53089D02*
Y54080D01*
X54620Y52709D02*
X55000Y53089D01*
X54620Y52600D02*
Y52709D01*
X55500Y52836D02*
Y54080D01*
Y52836D02*
X55620Y52716D01*
Y52600D02*
Y52716D01*
X56000Y53220D02*
Y54080D01*
Y53220D02*
X56620Y52600D01*
X60992Y54618D02*
Y54643D01*
X59489Y55852D02*
X59625Y55716D01*
X61847Y54662D02*
X61892Y54618D01*
X61847Y54662D02*
Y55689D01*
X61802Y55734D02*
X61847Y55689D01*
X61023Y52463D02*
Y53517D01*
X61054Y53548D01*
X60992Y52432D02*
X61023Y52463D01*
X61847Y52387D02*
X61892Y52432D01*
X61190Y49880D02*
Y50133D01*
X61054Y50270D02*
X61190Y50133D01*
X61892Y49153D02*
Y49178D01*
X61190Y49880D02*
X61892Y49178D01*
X61480Y48435D02*
X61792Y48123D01*
X60992Y49128D02*
Y49153D01*
X61792Y48084D02*
Y48123D01*
X61480Y48435D02*
Y48640D01*
X60992Y49128D02*
X61480Y48640D01*
X60566Y48084D02*
X61044D01*
X60220Y48430D02*
X60566Y48084D01*
X57529Y55311D02*
Y55369D01*
X57515Y55383D02*
X57529Y55369D01*
X57515Y55383D02*
Y56625D01*
X57500Y56640D02*
X57515Y56625D01*
X58000Y55670D02*
X58240Y55430D01*
X58000Y55670D02*
Y56640D01*
X56000Y54080D02*
X56011Y54070D01*
X55988Y50640D02*
X56830D01*
X53910Y48400D02*
X57000D01*
X60027Y49499D02*
Y50305D01*
X59982Y49454D02*
X60027Y49499D01*
Y50305D02*
X60072Y50350D01*
X58212Y49640D02*
Y50140D01*
X52356Y49326D02*
X52984D01*
X53910Y48400D01*
X51596Y47672D02*
X51635D01*
X51947Y47360D01*
X52022D01*
X52541Y46842D01*
X52566D01*
X76580Y46436D02*
Y47520D01*
Y46436D02*
X77020Y45996D01*
Y45920D02*
Y45996D01*
X71300Y46779D02*
X71649Y47128D01*
X72573Y47564D02*
X72612D01*
X72136Y47128D02*
X72573Y47564D01*
X71649Y47128D02*
X72136D01*
D23*
X53642Y58130D02*
D03*
X54390D02*
D03*
X59234Y49454D02*
D03*
X59982D02*
D03*
X67900Y50327D02*
D03*
X67152D02*
D03*
X69008Y50330D02*
D03*
X69756D02*
D03*
X66042Y50333D02*
D03*
X65294D02*
D03*
X61792Y48084D02*
D03*
X61044D02*
D03*
X61802Y51363D02*
D03*
X61054D02*
D03*
X61802Y55734D02*
D03*
X61054D02*
D03*
X61802Y50270D02*
D03*
X61054D02*
D03*
X61802Y53548D02*
D03*
X61054D02*
D03*
D24*
X53238Y53755D02*
D03*
Y54011D02*
D03*
Y53255D02*
D03*
Y53499D02*
D03*
Y54267D02*
D03*
D25*
X54924Y49836D02*
D03*
Y49088D02*
D03*
X54954Y51616D02*
D03*
Y50868D02*
D03*
X53621Y46909D02*
D03*
Y47657D02*
D03*
X54656Y46909D02*
D03*
Y47657D02*
D03*
X55691Y46909D02*
D03*
Y47657D02*
D03*
X73841Y47567D02*
D03*
Y48315D02*
D03*
X74194Y50158D02*
D03*
Y50906D02*
D03*
X51596Y47672D02*
D03*
Y46924D02*
D03*
X72612Y47564D02*
D03*
Y48312D02*
D03*
X71389Y47564D02*
D03*
Y48312D02*
D03*
X75061Y48316D02*
D03*
Y47568D02*
D03*
X59489Y55104D02*
D03*
Y55852D02*
D03*
X60591Y47186D02*
D03*
Y46438D02*
D03*
D26*
X55988Y50640D02*
D03*
Y50140D02*
D03*
Y49640D02*
D03*
Y49140D02*
D03*
X58212Y50640D02*
D03*
Y50140D02*
D03*
Y49640D02*
D03*
Y49140D02*
D03*
D27*
X60072Y50350D02*
D03*
X59172D02*
D03*
X61892Y52432D02*
D03*
X60992D02*
D03*
Y49153D02*
D03*
X61892D02*
D03*
X60992Y54618D02*
D03*
X61892D02*
D03*
D28*
X52070Y52200D02*
D03*
Y55310D02*
D03*
D29*
X65797Y48610D02*
D03*
X69143D02*
D03*
D30*
X51700Y45020D02*
D03*
X59512Y46830D02*
D03*
D31*
X53983Y45926D02*
D03*
Y45020D02*
D03*
Y44114D02*
D03*
X57228Y47736D02*
D03*
Y46830D02*
D03*
Y45924D02*
D03*
D32*
X58500Y54080D02*
D03*
X58000D02*
D03*
X57500D02*
D03*
X57000D02*
D03*
X56500D02*
D03*
X56000D02*
D03*
X55500D02*
D03*
X55000D02*
D03*
X55000Y56640D02*
D03*
X55500D02*
D03*
X56000D02*
D03*
X56500D02*
D03*
X57000D02*
D03*
X57500D02*
D03*
X58000D02*
D03*
D33*
X58500D02*
D03*
D34*
X52356Y49326D02*
D03*
Y50074D02*
D03*
X51490Y49700D02*
D03*
D35*
X52566Y47742D02*
D03*
Y46842D02*
D03*
D36*
X51520Y51040D02*
D03*
X53060D02*
D03*
D37*
X75050Y51160D02*
D03*
Y49900D02*
D03*
D38*
X59667Y40130D02*
D03*
X58093D02*
D03*
D39*
X57800Y41958D02*
D03*
Y44242D02*
D03*
X60510Y41958D02*
D03*
Y44242D02*
D03*
D40*
X52070Y56232D02*
D03*
Y58988D02*
D03*
D43*
X75800Y43550D02*
D03*
X74800D02*
D03*
X73800D02*
D03*
X72800D02*
D03*
X71800D02*
D03*
X70800D02*
D03*
X69800D02*
D03*
X68800D02*
D03*
X67800D02*
D03*
X66800D02*
D03*
X65800D02*
D03*
X64800D02*
D03*
X63800D02*
D03*
X62800D02*
D03*
Y46650D02*
D03*
X63800D02*
D03*
X64800D02*
D03*
X65800D02*
D03*
X66800D02*
D03*
X67800D02*
D03*
X68800D02*
D03*
X69800D02*
D03*
X70800D02*
D03*
X71800D02*
D03*
X72800D02*
D03*
X73800D02*
D03*
X74800D02*
D03*
D44*
X75800D02*
D03*
D45*
X57620Y52600D02*
D03*
D46*
X56620D02*
D03*
X55620D02*
D03*
X54620D02*
D03*
X77100Y50600D02*
D03*
Y49600D02*
D03*
Y48600D02*
D03*
X76100Y49600D02*
D03*
Y48600D02*
D03*
D47*
X71050Y39600D02*
D03*
X62050D02*
D03*
X76050Y58600D02*
D03*
X67450D02*
D03*
D48*
X72050Y39600D02*
D03*
X73050D02*
D03*
X74050D02*
D03*
X75050D02*
D03*
X76050D02*
D03*
X69050D02*
D03*
X68050D02*
D03*
X67050D02*
D03*
X66050D02*
D03*
X65050D02*
D03*
X64050D02*
D03*
X63050D02*
D03*
X69050Y58600D02*
D03*
X70050D02*
D03*
X71050D02*
D03*
X72050D02*
D03*
X73050D02*
D03*
X74050D02*
D03*
X75050D02*
D03*
X65450D02*
D03*
X58450D02*
D03*
X59450D02*
D03*
X60450D02*
D03*
X61450D02*
D03*
X62450D02*
D03*
X63450D02*
D03*
X64450D02*
D03*
X66450D02*
D03*
D49*
X76100Y50600D02*
D03*
D50*
X55790Y41870D02*
D03*
X53290D02*
D03*
D51*
X54790Y39870D02*
D03*
D52*
X77050Y52600D02*
D03*
Y41600D02*
D03*
X56550Y39600D02*
D03*
X57050Y58600D02*
D03*
D53*
X53224Y54386D02*
X53238Y54400D01*
X52580Y52862D02*
X53030Y52412D01*
X52580Y54177D02*
X52789Y54386D01*
X53224D01*
X52580Y52862D02*
Y54177D01*
X51980Y54373D02*
X52070Y54463D01*
X51980Y52290D02*
Y54373D01*
X52070Y54463D02*
Y55310D01*
X53238Y54400D02*
X53450D01*
X76330Y42990D02*
Y43310D01*
X75910Y42570D02*
X76330Y42990D01*
Y43310D02*
X76345Y43324D01*
X75845Y46605D02*
X76345Y46105D01*
Y43324D02*
Y46105D01*
X53335Y50121D02*
X53921Y50707D01*
X53285Y50067D02*
X53335Y50117D01*
X53921Y50707D02*
Y51131D01*
X54370Y51580D02*
X54918D01*
X53335Y50117D02*
Y50121D01*
X53921Y51131D02*
X54370Y51580D01*
X53285Y50040D02*
Y50067D01*
X52070Y55310D02*
Y56232D01*
X51980Y52290D02*
X52070Y52200D01*
X53216Y57372D02*
Y57665D01*
X53642Y58091D02*
Y58130D01*
X53216Y57665D02*
X53642Y58091D01*
X53197Y57353D02*
X53216Y57372D01*
X67800Y44650D02*
X69800Y46650D01*
X67800Y43550D02*
Y44650D01*
X63030Y50900D02*
Y52700D01*
X62940Y50810D02*
X63030Y50900D01*
X62257Y53473D02*
X63030Y52700D01*
X62940Y50504D02*
Y50810D01*
X61802Y53509D02*
Y53548D01*
Y53509D02*
X61838Y53473D01*
X62257D01*
X62706Y50270D02*
X62940Y50504D01*
X61838Y50270D02*
X62706D01*
X58474Y52250D02*
X59554Y53329D01*
X59271Y55068D02*
X59564D01*
X59933Y54699D02*
X60271D01*
X60290Y54680D01*
X59564Y55068D02*
X59933Y54699D01*
X51700Y45020D02*
X55542D01*
X56320Y44242D02*
X57800D01*
X55542Y45020D02*
X56320Y44242D01*
X57900Y51710D02*
X57910Y51700D01*
X58640D02*
X59122Y51218D01*
X57910Y51700D02*
X58640D01*
X58330Y50722D02*
Y51150D01*
X58212Y50640D02*
X58248D01*
X58330Y50722D01*
X59122Y50400D02*
Y51218D01*
X59620Y51269D02*
X59964Y50925D01*
X59620Y51269D02*
Y53263D01*
X59980Y53623D02*
Y53650D01*
X59620Y53263D02*
X59980Y53623D01*
X59122Y50400D02*
X59172Y50350D01*
X59964Y50925D02*
X60330D01*
X57164Y51616D02*
X58140Y50640D01*
X54954Y51616D02*
X57164D01*
X76720Y51670D02*
X77056Y51334D01*
Y50644D02*
X77100Y50600D01*
X77056Y50644D02*
Y51334D01*
X75560Y51670D02*
X76720D01*
X75050Y51160D02*
X75560Y51670D01*
X74392Y51065D02*
X74955D01*
X75050Y51160D01*
X74829Y50121D02*
X75050Y49900D01*
X75145Y49345D02*
X75846Y48644D01*
X75050Y49900D02*
X75145Y49805D01*
X75846Y48644D02*
X76056D01*
X75145Y49345D02*
Y49805D01*
X74230Y50121D02*
X74829D01*
X74194Y50158D02*
X74230Y50121D01*
X76056Y48644D02*
X76100Y48600D01*
X71686Y50906D02*
X74194D01*
X65280Y40370D02*
X66050Y39600D01*
X63820Y40370D02*
X65280D01*
X63050Y39600D02*
X63820Y40370D01*
X68816Y40930D02*
X69050Y40696D01*
Y39600D02*
Y40696D01*
X62100Y40930D02*
X68816D01*
X61720Y40550D02*
X62170Y41000D01*
X53983Y44114D02*
X54840D01*
X54860D02*
X55147D01*
X71416Y48312D02*
X72612D01*
X71210Y49380D02*
X71389Y49201D01*
X70678Y47528D02*
Y49898D01*
X71686Y50906D01*
X71389Y48312D02*
Y49201D01*
X53030Y51070D02*
X53060Y51040D01*
X53030Y51070D02*
Y52412D01*
X53388Y53149D02*
X53491D01*
X61838Y50270D02*
X61838Y50270D01*
X61802Y50270D02*
X61838D01*
X52076Y56232D02*
X53197Y57353D01*
X59489Y55852D02*
Y56639D01*
X52070Y58988D02*
X53132D01*
X58500Y56422D02*
X59034Y55889D01*
X59452D01*
X59489Y55852D01*
X58500Y56422D02*
Y56640D01*
Y54298D02*
X59271Y55068D01*
X58500Y54080D02*
Y54298D01*
X52070Y56232D02*
X52076D01*
X51648Y45980D02*
Y46888D01*
Y45072D02*
Y45980D01*
X51766Y46098D02*
X51994D01*
X51648Y45980D02*
X51766Y46098D01*
X51994D02*
X52013Y46117D01*
X52356Y50074D02*
X52359Y50071D01*
X52969D01*
X54913Y49099D02*
X54924Y49088D01*
X54010Y49110D02*
X54021Y49099D01*
X54913D01*
X52641Y48101D02*
X53100Y48560D01*
X52566Y47742D02*
X52591D01*
X52641Y47792D01*
Y48101D01*
X56354Y50140D02*
X56865Y49629D01*
X55988Y50140D02*
X56354D01*
X56865Y49629D02*
X56892D01*
X58290Y46830D02*
X59512D01*
X57228D02*
X58290D01*
X55147Y44114D02*
X55519Y43742D01*
X57800Y41958D02*
Y42352D01*
X56410Y43742D02*
X57800Y42352D01*
X55519Y43742D02*
X56410D01*
X61290Y44290D02*
Y45778D01*
X60591Y46438D02*
X60631D01*
X61290Y45778D01*
X63148Y42932D02*
X64600Y41480D01*
X62648Y42932D02*
X63148D01*
X61290Y44290D02*
X62648Y42932D01*
X62170Y41000D02*
Y42638D01*
X61153Y43654D02*
X62170Y42638D01*
X60704Y43654D02*
X61153D01*
X60510Y43848D02*
Y44635D01*
X60890Y40550D02*
X61720D01*
X60605Y40265D02*
X60890Y40550D01*
X51490Y49700D02*
X51517D01*
X51520Y49703D02*
Y51040D01*
X51517Y49700D02*
X51520Y49703D01*
X54918Y51580D02*
X54954Y51616D01*
X54939Y50853D02*
X54954Y50868D01*
X55159Y49640D02*
X55988D01*
X55962Y49114D02*
X55988Y49140D01*
X54950Y49114D02*
X55962D01*
X54939Y49851D02*
Y50853D01*
X54963Y49836D02*
X55159Y49640D01*
X54924Y49088D02*
X54950Y49114D01*
X54924Y49836D02*
X54939Y49851D01*
X54924Y49836D02*
X54963D01*
X52676Y47657D02*
X53621D01*
X52591Y47742D02*
X52676Y47657D01*
X53621D02*
X54656D01*
X55691D01*
X55731D01*
X55809Y47736D02*
X57228D01*
X55731Y47657D02*
X55809Y47736D01*
X58844Y47780D02*
X60146D01*
X60370Y47407D02*
Y47556D01*
X57228Y47736D02*
X58800D01*
X58844Y47780D01*
X60146D02*
X60370Y47556D01*
Y47407D02*
X60516Y47261D01*
Y47222D02*
X60552Y47186D01*
X60516Y47222D02*
Y47261D01*
X60552Y47186D02*
X60591D01*
X55728Y46873D02*
X56011D01*
X55691Y46909D02*
X55728Y46873D01*
X56959Y45924D02*
X57228D01*
X56011Y46873D02*
X56959Y45924D01*
X52143Y45470D02*
X53141Y46467D01*
X51700Y45197D02*
X51972Y45470D01*
X51700Y45020D02*
Y45197D01*
X53582Y46909D02*
X53621D01*
X53141Y46467D02*
X53582Y46909D01*
X53141Y46467D02*
Y46467D01*
X51972Y45470D02*
X52143D01*
X51612Y46924D02*
X51648Y46888D01*
Y45072D02*
X51700Y45020D01*
X51596Y46924D02*
X51612D01*
X53621Y46909D02*
X54656D01*
X55691D01*
X59923Y44829D02*
X60316D01*
X56240Y45410D02*
X59342D01*
X60316Y44829D02*
X60510Y44635D01*
X59342Y45410D02*
X59923Y44829D01*
X55724Y45926D02*
X56240Y45410D01*
X53983Y45926D02*
X55724D01*
X60510Y43848D02*
X60704Y43654D01*
X61570Y42487D02*
X61620Y42437D01*
X60940Y43150D02*
X61570Y42520D01*
Y42487D02*
Y42520D01*
X58892Y43150D02*
X60940D01*
X61620Y42410D02*
Y42437D01*
X58387Y43654D02*
X58892Y43150D01*
X55790Y41570D02*
X56090Y41270D01*
X57935Y40130D02*
X58093D01*
X55790Y41570D02*
Y41870D01*
X56090Y41270D02*
X56795D01*
X57935Y40130D01*
X57800Y41958D02*
X60510D01*
X53290Y41870D02*
Y42170D01*
X53983Y42863D02*
Y44114D01*
X53290Y42170D02*
X53983Y42863D01*
X53590Y40770D02*
Y41570D01*
X54490Y39870D02*
X54790D01*
X53590Y40770D02*
X54490Y39870D01*
X53290Y41870D02*
X53590Y41570D01*
X59512Y46710D02*
X59784Y46438D01*
X60591D01*
X59512Y46710D02*
Y46830D01*
X64370Y42570D02*
X75910D01*
X75800Y46650D02*
X75845Y46605D01*
Y46605D02*
Y46605D01*
X57994Y43654D02*
X58387D01*
X57800Y43848D02*
Y44242D01*
Y43848D02*
X57994Y43654D01*
X67050Y39600D02*
X68050D01*
X59667Y40130D02*
X59802Y40265D01*
X60605D01*
X65800Y47650D02*
Y48607D01*
X65797Y48610D02*
X65800Y48607D01*
Y47650D02*
X66800Y46650D01*
X65797Y48610D02*
X65947D01*
X66042Y48705D02*
Y50333D01*
X65947Y48610D02*
X66042Y48705D01*
Y50333D02*
X66045Y50330D01*
X67149D01*
X69110Y47960D02*
Y48577D01*
X69143Y48610D01*
X67800Y46650D02*
X69110Y47960D01*
X69008Y48705D02*
Y50330D01*
Y48705D02*
X69103Y48610D01*
X69143D01*
X67149Y50330D02*
X67152Y50327D01*
X69756Y50291D02*
Y50330D01*
X67900Y50327D02*
X67901Y50329D01*
X69006D02*
X69008Y50330D01*
X67901Y50329D02*
X69006D01*
X68540Y48515D02*
X68695D01*
X71389Y48312D02*
X71416D01*
X71452Y48348D01*
X72612Y48312D02*
X72651D01*
X73012Y48100D02*
X73509Y47603D01*
X73804D01*
X72651Y48312D02*
X72863Y48100D01*
X73012D01*
X76100Y46950D02*
Y48600D01*
X75800Y46650D02*
X76100Y46950D01*
X69800Y46650D02*
X70678Y47528D01*
X71352D01*
X71389Y47564D01*
X73804Y47603D02*
X73841Y47567D01*
X75061Y47568D02*
X75101D01*
X75755Y46913D01*
D54*
X76580Y47520D02*
Y49080D01*
X77100Y49600D01*
X53388Y53245D02*
X53400D01*
X53238Y53255D02*
X53390D01*
X53388Y53149D02*
Y53245D01*
X53390Y53255D02*
X53400Y53245D01*
X53550Y52890D02*
Y52906D01*
D55*
X55500Y57860D02*
D03*
X58190Y48600D02*
D03*
X62460Y51860D02*
D03*
X60290Y54680D02*
D03*
X55230Y43970D02*
D03*
X57900Y51710D02*
D03*
X58474Y52250D02*
D03*
X58330Y51150D02*
D03*
X60170Y51650D02*
D03*
X59980Y53650D02*
D03*
X74640Y45630D02*
D03*
X62137Y46047D02*
D03*
X66330Y45380D02*
D03*
X64480Y44930D02*
D03*
X65790Y44470D02*
D03*
X72285Y46115D02*
D03*
X73280Y46140D02*
D03*
X62780Y56230D02*
D03*
X62900Y54170D02*
D03*
X53197Y57353D02*
D03*
X73250Y55750D02*
D03*
X72290Y56330D02*
D03*
X61054Y56554D02*
D03*
X65340Y56150D02*
D03*
X59489Y56639D02*
D03*
X74257Y49372D02*
D03*
X74260Y54820D02*
D03*
X66390Y55300D02*
D03*
X60220Y48430D02*
D03*
X57529Y55369D02*
D03*
X58240Y55430D02*
D03*
X53132Y58988D02*
D03*
X52013Y46117D02*
D03*
X53285Y50040D02*
D03*
X54010Y49110D02*
D03*
X53100Y48560D02*
D03*
X56892Y49629D02*
D03*
X58290Y46830D02*
D03*
X64600Y41480D02*
D03*
X61620Y42410D02*
D03*
X64370Y42570D02*
D03*
X77020Y45920D02*
D03*
X64340Y55530D02*
D03*
D56*
X71210Y49380D02*
D03*
X53550Y52890D02*
D03*
M02*
