M48
;Layer_Color=9474304
;FILE_FORMAT=2:4
INCH,LZ
;TYPE=PLATED
T1F00S00C0.0150
T2F00S00C0.0280
T3F00S00C0.0327
T4F00S00C0.0402
T5F00S00C0.0433
T7F00S00C0.1260
%
T01
X07121Y04938
X05355Y05289
T02
X052013Y046117
X05523Y04397
X05829Y04683
X062137Y046047
X06162Y04241
X06437Y04257
X0646Y04148
X06448Y04493
X06579Y04447
X06633Y04538
X072285Y046115
X07328Y04614
X07464Y04563
X07702Y04592
X074257Y049372
X07426Y05482
X07325Y05575
X07229Y05633
X06639Y0553
X06534Y05615
X06434Y05553
X06278Y05623
X0629Y05417
X06246Y05186
X06017Y05165
X05998Y05365
X06029Y05468
X061054Y056554
X059489Y056639
X05824Y05543
X057529Y055369
X0579Y05171
X05833Y05115
X058474Y05225
X05819Y0486
X06022Y04843
X056892Y049629
X05401Y04911
X0531Y04856
X053285Y05004
X053197Y057353
X053132Y058988
X0555Y05786
T03
X0628Y04355
X0638
X0648
X0658
X0668
X0678
X0688
X0698
X0708
X0718
X0728
X0738
X0748
X0758
Y04665
X0748
X0738
X0728
X0718
X0708
X0698
X0688
X0678
X0668
X0658
X0648
X0638
X0628
T04
X06205Y0396
X06305
X06405
X06505
X06605
X06705
X06805
X06905
X07105
X07205
X07305
X07405
X07505
X07605
Y0586
X07505
X07405
X07305
X07205
X07105
X07005
X06905
X06745
X06645
X06545
X06445
X06345
X06245
X06145
X06045
X05945
X05845
T05
X0761Y0486
X0771
Y0496
Y0506
X0761
Y0496
X05762Y0526
X05662
X05562
X05462
T07
X05655Y0396
X07705Y0416
Y0526
X05705Y0586
M30
