G04*
G04 #@! TF.GenerationSoftware,Altium Limited,Altium Designer,21.3.2 (30)*
G04*
G04 Layer_Color=65535*
%FSLAX24Y24*%
%MOIN*%
G70*
G04*
G04 #@! TF.SameCoordinates,59271FD7-B20C-4586-966E-2D71E4A343A8*
G04*
G04*
G04 #@! TF.FilePolarity,Positive*
G04*
G01*
G75*
%ADD10C,0.0079*%
%ADD11C,0.0098*%
%ADD12C,0.0236*%
%ADD13C,0.0150*%
%ADD14C,0.0200*%
%ADD15C,0.0350*%
%ADD16C,0.0050*%
%ADD17C,0.0000*%
%ADD18C,0.0100*%
%ADD19C,0.0070*%
%ADD20C,0.0040*%
%ADD21C,0.0060*%
%ADD22R,0.0500X0.1000*%
G36*
X52610Y54325D02*
Y54030D01*
X52314Y54030D01*
Y54325D01*
X52610D01*
D02*
G37*
G36*
X52068Y54857D02*
X52265Y54581D01*
X51872D01*
X52068Y54857D01*
D02*
G37*
G36*
X70615Y55049D02*
X70713D01*
Y55039D01*
X70800D01*
Y55028D01*
X70854D01*
Y55017D01*
X70909D01*
Y55006D01*
X70952D01*
Y54995D01*
X70996D01*
Y54984D01*
X71028D01*
Y54973D01*
X71061D01*
Y54962D01*
X71094D01*
Y54952D01*
X71115D01*
Y54941D01*
X71148D01*
Y54930D01*
X71170D01*
Y54919D01*
X71202D01*
Y54908D01*
X71224D01*
Y54897D01*
X71246D01*
Y54886D01*
X71268D01*
Y54875D01*
X71289D01*
Y54864D01*
X71311D01*
Y54854D01*
X71333D01*
Y54843D01*
X71344D01*
Y54832D01*
X71366D01*
Y54821D01*
X71387D01*
Y54810D01*
X71398D01*
Y54799D01*
X71420D01*
Y54788D01*
X71431D01*
Y54777D01*
X71453D01*
Y54767D01*
X71464D01*
Y54756D01*
X71485D01*
Y54745D01*
X71496D01*
Y54734D01*
X71507D01*
Y54723D01*
X71529D01*
Y54712D01*
X71540D01*
Y54701D01*
X71551D01*
Y54690D01*
X71561D01*
Y54680D01*
X71572D01*
Y54669D01*
X71594D01*
Y54658D01*
X71605D01*
Y54647D01*
X71616D01*
Y54636D01*
X71627D01*
Y54625D01*
X71638D01*
Y54614D01*
X71648D01*
Y54603D01*
X71659D01*
Y54593D01*
X71670D01*
Y54582D01*
X71681D01*
Y54571D01*
X71692D01*
Y54560D01*
X71703D01*
Y54549D01*
X71714D01*
Y54538D01*
X71725D01*
Y54527D01*
X71735D01*
Y54516D01*
X71746D01*
Y54495D01*
X71757D01*
Y54484D01*
X71768D01*
Y54473D01*
X71779D01*
Y54462D01*
X71790D01*
Y54451D01*
X71801D01*
Y54429D01*
X71812D01*
Y54418D01*
X71822D01*
Y54408D01*
X71833D01*
Y54386D01*
X71844D01*
Y54375D01*
X71855D01*
Y54353D01*
X71866D01*
Y54342D01*
X71877D01*
Y54321D01*
X71888D01*
Y54310D01*
X71899D01*
Y54288D01*
X71910D01*
Y54266D01*
X71920D01*
Y54255D01*
X71931D01*
Y54234D01*
X71942D01*
Y54212D01*
X71953D01*
Y54190D01*
X71964D01*
Y54168D01*
X71975D01*
Y54147D01*
X71986D01*
Y54114D01*
X71997D01*
Y54092D01*
X72007D01*
Y54060D01*
X72018D01*
Y54038D01*
X72029D01*
Y54005D01*
X72040D01*
Y53972D01*
X72051D01*
Y53940D01*
X72062D01*
Y53896D01*
X72073D01*
Y53853D01*
X72084D01*
Y53798D01*
X72094D01*
Y53733D01*
X72105D01*
Y53614D01*
X72116D01*
Y53439D01*
X72105D01*
Y53331D01*
X72094D01*
Y53255D01*
X72084D01*
Y53200D01*
X72073D01*
Y53157D01*
X72062D01*
Y53113D01*
X72051D01*
Y53080D01*
X72040D01*
Y53048D01*
X72029D01*
Y53015D01*
X72018D01*
Y52993D01*
X72007D01*
Y52961D01*
X71997D01*
Y52939D01*
X71986D01*
Y52906D01*
X71975D01*
Y52885D01*
X71964D01*
Y52863D01*
X71953D01*
Y52841D01*
X71942D01*
Y52819D01*
X71931D01*
Y52809D01*
X71920D01*
Y52787D01*
X71910D01*
Y52765D01*
X71899D01*
Y52743D01*
X71888D01*
Y52732D01*
X71877D01*
Y52711D01*
X71866D01*
Y52700D01*
X71855D01*
Y52678D01*
X71844D01*
Y52667D01*
X71833D01*
Y52645D01*
X71822D01*
Y52634D01*
X71812D01*
Y52624D01*
X71801D01*
Y52613D01*
X71790D01*
Y52591D01*
X71779D01*
Y52580D01*
X71768D01*
Y52569D01*
X71757D01*
Y52558D01*
X71746D01*
Y52537D01*
X71735D01*
Y52526D01*
X71725D01*
Y52515D01*
X71714D01*
Y52504D01*
X71703D01*
Y52493D01*
X71692D01*
Y52482D01*
X71681D01*
Y52471D01*
X71670D01*
Y52460D01*
X71659D01*
Y52450D01*
X71648D01*
Y52439D01*
X71638D01*
Y52428D01*
X71627D01*
Y52417D01*
X71616D01*
Y52406D01*
X71605D01*
Y52395D01*
X71594D01*
Y52384D01*
X71572D01*
Y52373D01*
X71561D01*
Y52363D01*
X71551D01*
Y52352D01*
X71540D01*
Y52341D01*
X71518D01*
Y52330D01*
X71507D01*
Y52319D01*
X71496D01*
Y52308D01*
X71474D01*
Y52297D01*
X71464D01*
Y52286D01*
X71453D01*
Y52276D01*
X71431D01*
Y52265D01*
X71420D01*
Y52254D01*
X71398D01*
Y52243D01*
X71387D01*
Y52232D01*
X71366D01*
Y52221D01*
X71344D01*
Y52210D01*
X71322D01*
Y52199D01*
X71311D01*
Y52188D01*
X71289D01*
Y52178D01*
X71268D01*
Y52167D01*
X71246D01*
Y52156D01*
X71224D01*
Y52145D01*
X71202D01*
Y52134D01*
X71170D01*
Y52123D01*
X71148D01*
Y52112D01*
X71115D01*
Y52101D01*
X71094D01*
Y52091D01*
X71061D01*
Y52080D01*
X71028D01*
Y52069D01*
X70996D01*
Y52058D01*
X70952D01*
Y52047D01*
X70909D01*
Y52036D01*
X70854D01*
Y52025D01*
X70800D01*
Y52014D01*
X70724D01*
Y52004D01*
X70528D01*
Y51993D01*
X70376D01*
Y52004D01*
X70245D01*
Y52014D01*
X70169D01*
Y52025D01*
X70115D01*
Y52036D01*
X70060D01*
Y52047D01*
X70017D01*
Y52058D01*
X69984D01*
Y52069D01*
X69951D01*
Y52080D01*
X69919D01*
Y52091D01*
X69886D01*
Y52101D01*
X69864D01*
Y52112D01*
X69832D01*
Y52123D01*
X69810D01*
Y52134D01*
X69788D01*
Y52145D01*
X69767D01*
Y52156D01*
X69745D01*
Y52167D01*
X69723D01*
Y52178D01*
X69701D01*
Y52188D01*
X69680D01*
Y52199D01*
X69658D01*
Y52210D01*
X69647D01*
Y52221D01*
X69625D01*
Y52232D01*
X69614D01*
Y52243D01*
X69592D01*
Y52254D01*
X69582D01*
Y52265D01*
X69560D01*
Y52276D01*
X69549D01*
Y52286D01*
X69527D01*
Y52297D01*
X69516D01*
Y52308D01*
X69505D01*
Y52319D01*
X69484D01*
Y52330D01*
X69473D01*
Y52341D01*
X69462D01*
Y52352D01*
X69451D01*
Y52363D01*
X69429D01*
Y52373D01*
X69418D01*
Y52384D01*
X69408D01*
Y52395D01*
X69397D01*
Y52406D01*
X69386D01*
Y52417D01*
X69375D01*
Y52428D01*
X69364D01*
Y52439D01*
X69353D01*
Y52450D01*
X69342D01*
Y52460D01*
X69321D01*
Y52471D01*
X69310D01*
Y52482D01*
X69299D01*
Y52493D01*
X69288D01*
Y52515D01*
X69277D01*
Y52526D01*
X69266D01*
Y52537D01*
X69255D01*
Y52547D01*
X69244D01*
Y52558D01*
X69234D01*
Y52569D01*
X69223D01*
Y52580D01*
X69212D01*
Y52591D01*
X69201D01*
Y52602D01*
X69190D01*
Y52613D01*
X69179D01*
Y52634D01*
X69168D01*
Y52645D01*
X69157D01*
Y52656D01*
X69146D01*
Y52667D01*
X69136D01*
Y52678D01*
X69125D01*
Y52700D01*
X69114D01*
Y52711D01*
X69103D01*
Y52722D01*
X69092D01*
Y52732D01*
X69081D01*
Y52754D01*
X69070D01*
Y52765D01*
X69059D01*
Y52776D01*
X69049D01*
Y52798D01*
X69038D01*
Y52809D01*
X69027D01*
Y52830D01*
X69016D01*
Y52841D01*
X69005D01*
Y52852D01*
X68994D01*
Y52874D01*
X68983D01*
Y52885D01*
X68972D01*
Y52906D01*
X68962D01*
Y52917D01*
X68951D01*
Y52928D01*
X68940D01*
Y52950D01*
X68929D01*
Y52961D01*
X68918D01*
Y52983D01*
X68907D01*
Y52993D01*
X68896D01*
Y53015D01*
X68885D01*
Y53037D01*
X68864D01*
Y53026D01*
X68853D01*
Y53015D01*
X68842D01*
Y52993D01*
X68831D01*
Y52983D01*
X68820D01*
Y52961D01*
X68809D01*
Y52950D01*
X68798D01*
Y52928D01*
X68788D01*
Y52917D01*
X68777D01*
Y52896D01*
X68766D01*
Y52885D01*
X68755D01*
Y52874D01*
X68744D01*
Y52852D01*
X68733D01*
Y52841D01*
X68722D01*
Y52819D01*
X68711D01*
Y52809D01*
X68700D01*
Y52798D01*
X68690D01*
Y52776D01*
X68679D01*
Y52765D01*
X68668D01*
Y52754D01*
X68657D01*
Y52732D01*
X68646D01*
Y52722D01*
X68635D01*
Y52711D01*
X68624D01*
Y52700D01*
X68613D01*
Y52678D01*
X68603D01*
Y52667D01*
X68592D01*
Y52656D01*
X68581D01*
Y52645D01*
X68570D01*
Y52624D01*
X68559D01*
Y52613D01*
X68548D01*
Y52602D01*
X68537D01*
Y52591D01*
X68526D01*
Y52580D01*
X68516D01*
Y52569D01*
X68505D01*
Y52558D01*
X68494D01*
Y52547D01*
X68483D01*
Y52537D01*
X68472D01*
Y52515D01*
X68461D01*
Y52504D01*
X68450D01*
Y52493D01*
X68439D01*
Y52482D01*
X68429D01*
Y52471D01*
X68418D01*
Y52460D01*
X68407D01*
Y52450D01*
X68385D01*
Y52439D01*
X68374D01*
Y52428D01*
X68363D01*
Y52417D01*
X68352D01*
Y52406D01*
X68342D01*
Y52395D01*
X68331D01*
Y52384D01*
X68320D01*
Y52373D01*
X68309D01*
Y52363D01*
X68298D01*
Y52352D01*
X68276D01*
Y52341D01*
X68265D01*
Y52330D01*
X68254D01*
Y52319D01*
X68233D01*
Y52308D01*
X68222D01*
Y52297D01*
X68211D01*
Y52286D01*
X68189D01*
Y52276D01*
X68178D01*
Y52265D01*
X68167D01*
Y52254D01*
X68146D01*
Y52243D01*
X68124D01*
Y52232D01*
X68113D01*
Y52221D01*
X68091D01*
Y52210D01*
X68080D01*
Y52199D01*
X68059D01*
Y52188D01*
X68037D01*
Y52178D01*
X68015D01*
Y52167D01*
X67993D01*
Y52156D01*
X67972D01*
Y52145D01*
X67950D01*
Y52134D01*
X67928D01*
Y52123D01*
X67906D01*
Y52112D01*
X67874D01*
Y52101D01*
X67852D01*
Y52091D01*
X67819D01*
Y52080D01*
X67787D01*
Y52069D01*
X67754D01*
Y52058D01*
X67721D01*
Y52047D01*
X67678D01*
Y52036D01*
X67624D01*
Y52025D01*
X67569D01*
Y52014D01*
X67493D01*
Y52004D01*
X67362D01*
Y51993D01*
X67210D01*
Y52004D01*
X67025D01*
Y52014D01*
X66938D01*
Y52025D01*
X66884D01*
Y52036D01*
X66829D01*
Y52047D01*
X66786D01*
Y52058D01*
X66753D01*
Y52069D01*
X66710D01*
Y52080D01*
X66677D01*
Y52091D01*
X66645D01*
Y52101D01*
X66623D01*
Y52112D01*
X66590D01*
Y52123D01*
X66568D01*
Y52134D01*
X66547D01*
Y52145D01*
X66514D01*
Y52156D01*
X66492D01*
Y52167D01*
X66470D01*
Y52178D01*
X66449D01*
Y52188D01*
X66427D01*
Y52199D01*
X66416D01*
Y52210D01*
X66394D01*
Y52221D01*
X66373D01*
Y52232D01*
X66362D01*
Y52243D01*
X66340D01*
Y52254D01*
X66318D01*
Y52265D01*
X66307D01*
Y52276D01*
X66286D01*
Y52286D01*
X66275D01*
Y52297D01*
X66264D01*
Y52308D01*
X66242D01*
Y52319D01*
X66231D01*
Y52330D01*
X66220D01*
Y52341D01*
X66199D01*
Y52352D01*
X66188D01*
Y52363D01*
X66177D01*
Y52373D01*
X66166D01*
Y52384D01*
X66155D01*
Y52395D01*
X66133D01*
Y52406D01*
X66122D01*
Y52417D01*
X66112D01*
Y52428D01*
X66101D01*
Y52439D01*
X66090D01*
Y52450D01*
X66079D01*
Y52460D01*
X66068D01*
Y52471D01*
X66057D01*
Y52482D01*
X66046D01*
Y52493D01*
X66035D01*
Y52504D01*
X66024D01*
Y52515D01*
X66014D01*
Y52526D01*
X66003D01*
Y52547D01*
X65992D01*
Y52558D01*
X65981D01*
Y52569D01*
X65970D01*
Y52580D01*
X65959D01*
Y52591D01*
X65948D01*
Y52613D01*
X65937D01*
Y52624D01*
X65927D01*
Y52634D01*
X65916D01*
Y52656D01*
X65905D01*
Y52667D01*
X65894D01*
Y52678D01*
X65883D01*
Y52700D01*
X65872D01*
Y52711D01*
X65861D01*
Y52732D01*
X65850D01*
Y52754D01*
X65840D01*
Y52765D01*
X65829D01*
Y52787D01*
X65818D01*
Y52809D01*
X65807D01*
Y52830D01*
X65796D01*
Y52841D01*
X65785D01*
Y52863D01*
X65774D01*
Y52896D01*
X65763D01*
Y52917D01*
X65753D01*
Y52939D01*
X65742D01*
Y52961D01*
X65731D01*
Y52993D01*
X65720D01*
Y53015D01*
X65709D01*
Y53048D01*
X65698D01*
Y53080D01*
X65687D01*
Y53124D01*
X65676D01*
Y53157D01*
X65666D01*
Y53211D01*
X65655D01*
Y53265D01*
X65644D01*
Y53331D01*
X65633D01*
Y53450D01*
X65622D01*
Y53603D01*
X65633D01*
Y53722D01*
X65644D01*
Y53788D01*
X65655D01*
Y53842D01*
X65666D01*
Y53896D01*
X65676D01*
Y53929D01*
X65687D01*
Y53972D01*
X65698D01*
Y54005D01*
X65709D01*
Y54038D01*
X65720D01*
Y54060D01*
X65731D01*
Y54092D01*
X65742D01*
Y54114D01*
X65753D01*
Y54136D01*
X65763D01*
Y54168D01*
X65774D01*
Y54190D01*
X65785D01*
Y54212D01*
X65796D01*
Y54234D01*
X65807D01*
Y54244D01*
X65818D01*
Y54266D01*
X65829D01*
Y54288D01*
X65840D01*
Y54310D01*
X65850D01*
Y54321D01*
X65861D01*
Y54342D01*
X65872D01*
Y54353D01*
X65883D01*
Y54375D01*
X65894D01*
Y54386D01*
X65905D01*
Y54408D01*
X65916D01*
Y54418D01*
X65927D01*
Y54429D01*
X65937D01*
Y54451D01*
X65948D01*
Y54462D01*
X65959D01*
Y54473D01*
X65970D01*
Y54484D01*
X65981D01*
Y54495D01*
X65992D01*
Y54516D01*
X66003D01*
Y54527D01*
X66014D01*
Y54538D01*
X66024D01*
Y54549D01*
X66035D01*
Y54560D01*
X66046D01*
Y54571D01*
X66057D01*
Y54582D01*
X66068D01*
Y54593D01*
X66079D01*
Y54603D01*
X66090D01*
Y54614D01*
X66101D01*
Y54625D01*
X66112D01*
Y54636D01*
X66122D01*
Y54647D01*
X66133D01*
Y54658D01*
X66144D01*
Y54669D01*
X66166D01*
Y54680D01*
X66177D01*
Y54690D01*
X66188D01*
Y54701D01*
X66199D01*
Y54712D01*
X66220D01*
Y54723D01*
X66231D01*
Y54734D01*
X66242D01*
Y54745D01*
X66264D01*
Y54756D01*
X66275D01*
Y54767D01*
X66286D01*
Y54777D01*
X66307D01*
Y54788D01*
X66318D01*
Y54799D01*
X66340D01*
Y54810D01*
X66351D01*
Y54821D01*
X66373D01*
Y54832D01*
X66394D01*
Y54843D01*
X66416D01*
Y54854D01*
X66427D01*
Y54864D01*
X66449D01*
Y54875D01*
X66470D01*
Y54886D01*
X66492D01*
Y54897D01*
X66514D01*
Y54908D01*
X66536D01*
Y54919D01*
X66568D01*
Y54930D01*
X66590D01*
Y54941D01*
X66623D01*
Y54952D01*
X66645D01*
Y54962D01*
X66677D01*
Y54973D01*
X66710D01*
Y54984D01*
X66742D01*
Y54995D01*
X66786D01*
Y55006D01*
X66829D01*
Y55017D01*
X66884D01*
Y55028D01*
X66938D01*
Y55039D01*
X67025D01*
Y55049D01*
X67123D01*
Y55060D01*
X67286D01*
Y55049D01*
X67406D01*
Y55039D01*
X67493D01*
Y55028D01*
X67558D01*
Y55017D01*
X67613D01*
Y55006D01*
X67656D01*
Y54995D01*
X67700D01*
Y54984D01*
X67732D01*
Y54973D01*
X67776D01*
Y54962D01*
X67798D01*
Y54952D01*
X67830D01*
Y54941D01*
X67863D01*
Y54930D01*
X67885D01*
Y54919D01*
X67917D01*
Y54908D01*
X67939D01*
Y54897D01*
X67961D01*
Y54886D01*
X67983D01*
Y54875D01*
X68004D01*
Y54864D01*
X68026D01*
Y54854D01*
X68048D01*
Y54843D01*
X68070D01*
Y54832D01*
X68091D01*
Y54821D01*
X68102D01*
Y54810D01*
X68124D01*
Y54799D01*
X68146D01*
Y54788D01*
X68157D01*
Y54777D01*
X68178D01*
Y54767D01*
X68189D01*
Y54756D01*
X68211D01*
Y54745D01*
X68222D01*
Y54734D01*
X68233D01*
Y54723D01*
X68254D01*
Y54712D01*
X68265D01*
Y54701D01*
X68276D01*
Y54690D01*
X68298D01*
Y54680D01*
X68309D01*
Y54669D01*
X68320D01*
Y54658D01*
X68331D01*
Y54647D01*
X68352D01*
Y54636D01*
X68363D01*
Y54625D01*
X68374D01*
Y54614D01*
X68385D01*
Y54603D01*
X68396D01*
Y54593D01*
X68407D01*
Y54582D01*
X68418D01*
Y54571D01*
X68439D01*
Y54560D01*
X68450D01*
Y54549D01*
X68461D01*
Y54538D01*
X68472D01*
Y54527D01*
X68483D01*
Y54516D01*
X68494D01*
Y54506D01*
X68505D01*
Y54495D01*
X68516D01*
Y54484D01*
X68526D01*
Y54473D01*
X68537D01*
Y54462D01*
X68548D01*
Y54440D01*
X68559D01*
Y54429D01*
X68570D01*
Y54418D01*
X68581D01*
Y54408D01*
X68592D01*
Y54397D01*
X68603D01*
Y54386D01*
X68613D01*
Y54375D01*
X68624D01*
Y54364D01*
X68635D01*
Y54342D01*
X68646D01*
Y54331D01*
X68657D01*
Y54321D01*
X68668D01*
Y54310D01*
X68679D01*
Y54288D01*
X68690D01*
Y54277D01*
X68700D01*
Y54266D01*
X68711D01*
Y54255D01*
X68722D01*
Y54234D01*
X68733D01*
Y54223D01*
X68744D01*
Y54212D01*
X68755D01*
Y54190D01*
X68766D01*
Y54179D01*
X68777D01*
Y54168D01*
X68788D01*
Y54147D01*
X68798D01*
Y54136D01*
X68809D01*
Y54114D01*
X68820D01*
Y54103D01*
X68831D01*
Y54092D01*
X68842D01*
Y54070D01*
X68853D01*
Y54060D01*
X68864D01*
Y54049D01*
X68885D01*
Y54070D01*
X68896D01*
Y54081D01*
X68907D01*
Y54103D01*
X68918D01*
Y54114D01*
X68929D01*
Y54136D01*
X68940D01*
Y54147D01*
X68951D01*
Y54157D01*
X68962D01*
Y54179D01*
X68972D01*
Y54190D01*
X68983D01*
Y54212D01*
X68994D01*
Y54223D01*
X69005D01*
Y54234D01*
X69016D01*
Y54255D01*
X69027D01*
Y54266D01*
X69038D01*
Y54277D01*
X69049D01*
Y54288D01*
X69059D01*
Y54310D01*
X69070D01*
Y54321D01*
X69081D01*
Y54331D01*
X69092D01*
Y54342D01*
X69103D01*
Y54353D01*
X69114D01*
Y54375D01*
X69125D01*
Y54386D01*
X69136D01*
Y54397D01*
X69146D01*
Y54408D01*
X69157D01*
Y54418D01*
X69168D01*
Y54429D01*
X69179D01*
Y54440D01*
X69190D01*
Y54451D01*
X69201D01*
Y54473D01*
X69212D01*
Y54484D01*
X69223D01*
Y54495D01*
X69234D01*
Y54506D01*
X69244D01*
Y54516D01*
X69255D01*
Y54527D01*
X69266D01*
Y54538D01*
X69277D01*
Y54549D01*
X69288D01*
Y54560D01*
X69310D01*
Y54571D01*
X69321D01*
Y54582D01*
X69331D01*
Y54593D01*
X69342D01*
Y54603D01*
X69353D01*
Y54614D01*
X69364D01*
Y54625D01*
X69375D01*
Y54636D01*
X69386D01*
Y54647D01*
X69408D01*
Y54658D01*
X69418D01*
Y54669D01*
X69429D01*
Y54680D01*
X69440D01*
Y54690D01*
X69462D01*
Y54701D01*
X69473D01*
Y54712D01*
X69484D01*
Y54723D01*
X69505D01*
Y54734D01*
X69516D01*
Y54745D01*
X69527D01*
Y54756D01*
X69549D01*
Y54767D01*
X69560D01*
Y54777D01*
X69582D01*
Y54788D01*
X69603D01*
Y54799D01*
X69614D01*
Y54810D01*
X69636D01*
Y54821D01*
X69647D01*
Y54832D01*
X69669D01*
Y54843D01*
X69690D01*
Y54854D01*
X69712D01*
Y54864D01*
X69734D01*
Y54875D01*
X69756D01*
Y54886D01*
X69777D01*
Y54897D01*
X69799D01*
Y54908D01*
X69821D01*
Y54919D01*
X69854D01*
Y54930D01*
X69875D01*
Y54941D01*
X69908D01*
Y54952D01*
X69941D01*
Y54962D01*
X69973D01*
Y54973D01*
X70006D01*
Y54984D01*
X70038D01*
Y54995D01*
X70082D01*
Y55006D01*
X70126D01*
Y55017D01*
X70180D01*
Y55028D01*
X70245D01*
Y55039D01*
X70343D01*
Y55049D01*
X70452D01*
Y55060D01*
X70615D01*
Y55049D01*
D02*
G37*
%LPC*%
G36*
X70626Y54527D02*
X70430D01*
Y54516D01*
X70332D01*
Y54506D01*
X70267D01*
Y54495D01*
X70223D01*
Y54484D01*
X70180D01*
Y54473D01*
X70136D01*
Y54462D01*
X70104D01*
Y54451D01*
X70082D01*
Y54440D01*
X70049D01*
Y54429D01*
X70028D01*
Y54418D01*
X70006D01*
Y54408D01*
X69984D01*
Y54397D01*
X69962D01*
Y54386D01*
X69941D01*
Y54375D01*
X69919D01*
Y54364D01*
X69897D01*
Y54353D01*
X69886D01*
Y54342D01*
X69864D01*
Y54331D01*
X69854D01*
Y54321D01*
X69832D01*
Y54310D01*
X69821D01*
Y54299D01*
X69799D01*
Y54288D01*
X69788D01*
Y54277D01*
X69777D01*
Y54266D01*
X69756D01*
Y54255D01*
X69745D01*
Y54244D01*
X69734D01*
Y54234D01*
X69723D01*
Y54223D01*
X69712D01*
Y54212D01*
X69690D01*
Y54201D01*
X69680D01*
Y54190D01*
X69669D01*
Y54179D01*
X69658D01*
Y54168D01*
X69647D01*
Y54157D01*
X69636D01*
Y54147D01*
X69625D01*
Y54136D01*
X69614D01*
Y54125D01*
X69603D01*
Y54114D01*
X69592D01*
Y54103D01*
X69582D01*
Y54092D01*
X69571D01*
Y54081D01*
X69560D01*
Y54060D01*
X69549D01*
Y54049D01*
X69538D01*
Y54038D01*
X69527D01*
Y54027D01*
X69516D01*
Y54016D01*
X69505D01*
Y54005D01*
X69495D01*
Y53983D01*
X69484D01*
Y53972D01*
X69473D01*
Y53962D01*
X69462D01*
Y53951D01*
X69451D01*
Y53929D01*
X69440D01*
Y53918D01*
X69429D01*
Y53907D01*
X69418D01*
Y53885D01*
X69408D01*
Y53875D01*
X69397D01*
Y53864D01*
X69386D01*
Y53842D01*
X69375D01*
Y53831D01*
X69364D01*
Y53820D01*
X69353D01*
Y53798D01*
X69342D01*
Y53788D01*
X69331D01*
Y53766D01*
X69321D01*
Y53755D01*
X69310D01*
Y53733D01*
X69299D01*
Y53722D01*
X69288D01*
Y53701D01*
X69277D01*
Y53690D01*
X69266D01*
Y53668D01*
X69255D01*
Y53657D01*
X69244D01*
Y53635D01*
X69234D01*
Y53624D01*
X69223D01*
Y53603D01*
X69212D01*
Y53592D01*
X69201D01*
Y53570D01*
X69190D01*
Y53548D01*
X69179D01*
Y53537D01*
X69190D01*
Y53526D01*
X69201D01*
Y53505D01*
X69212D01*
Y53483D01*
X69223D01*
Y53472D01*
X69234D01*
Y53450D01*
X69244D01*
Y53439D01*
X69255D01*
Y53418D01*
X69266D01*
Y53407D01*
X69277D01*
Y53385D01*
X69288D01*
Y53363D01*
X69299D01*
Y53352D01*
X69310D01*
Y53331D01*
X69321D01*
Y53320D01*
X69331D01*
Y53298D01*
X69342D01*
Y53287D01*
X69353D01*
Y53265D01*
X69364D01*
Y53255D01*
X69375D01*
Y53233D01*
X69386D01*
Y53222D01*
X69397D01*
Y53200D01*
X69408D01*
Y53189D01*
X69418D01*
Y53168D01*
X69429D01*
Y53157D01*
X69440D01*
Y53146D01*
X69451D01*
Y53124D01*
X69462D01*
Y53113D01*
X69473D01*
Y53091D01*
X69484D01*
Y53080D01*
X69495D01*
Y53070D01*
X69505D01*
Y53059D01*
X69516D01*
Y53037D01*
X69527D01*
Y53026D01*
X69538D01*
Y53015D01*
X69549D01*
Y53004D01*
X69560D01*
Y52983D01*
X69571D01*
Y52972D01*
X69582D01*
Y52961D01*
X69592D01*
Y52950D01*
X69603D01*
Y52939D01*
X69614D01*
Y52928D01*
X69625D01*
Y52906D01*
X69636D01*
Y52896D01*
X69647D01*
Y52885D01*
X69658D01*
Y52874D01*
X69669D01*
Y52863D01*
X69680D01*
Y52852D01*
X69690D01*
Y52841D01*
X69701D01*
Y52830D01*
X69712D01*
Y52819D01*
X69723D01*
Y52809D01*
X69745D01*
Y52798D01*
X69756D01*
Y52787D01*
X69767D01*
Y52776D01*
X69777D01*
Y52765D01*
X69788D01*
Y52754D01*
X69799D01*
Y52743D01*
X69821D01*
Y52732D01*
X69832D01*
Y52722D01*
X69843D01*
Y52711D01*
X69864D01*
Y52700D01*
X69875D01*
Y52689D01*
X69897D01*
Y52678D01*
X69908D01*
Y52667D01*
X69930D01*
Y52656D01*
X69951D01*
Y52645D01*
X69973D01*
Y52634D01*
X69995D01*
Y52624D01*
X70017D01*
Y52613D01*
X70038D01*
Y52602D01*
X70060D01*
Y52591D01*
X70093D01*
Y52580D01*
X70126D01*
Y52569D01*
X70158D01*
Y52558D01*
X70202D01*
Y52547D01*
X70256D01*
Y52537D01*
X70343D01*
Y52526D01*
X70604D01*
Y52537D01*
X70702D01*
Y52547D01*
X70767D01*
Y52558D01*
X70811D01*
Y52569D01*
X70854D01*
Y52580D01*
X70887D01*
Y52591D01*
X70920D01*
Y52602D01*
X70941D01*
Y52613D01*
X70974D01*
Y52624D01*
X70996D01*
Y52634D01*
X71018D01*
Y52645D01*
X71039D01*
Y52656D01*
X71061D01*
Y52667D01*
X71083D01*
Y52678D01*
X71094D01*
Y52689D01*
X71115D01*
Y52700D01*
X71126D01*
Y52711D01*
X71148D01*
Y52722D01*
X71159D01*
Y52732D01*
X71181D01*
Y52743D01*
X71192D01*
Y52754D01*
X71202D01*
Y52765D01*
X71224D01*
Y52776D01*
X71235D01*
Y52787D01*
X71246D01*
Y52798D01*
X71257D01*
Y52809D01*
X71268D01*
Y52819D01*
X71279D01*
Y52830D01*
X71289D01*
Y52841D01*
X71300D01*
Y52852D01*
X71311D01*
Y52863D01*
X71322D01*
Y52874D01*
X71333D01*
Y52885D01*
X71344D01*
Y52896D01*
X71355D01*
Y52906D01*
X71366D01*
Y52928D01*
X71376D01*
Y52939D01*
X71387D01*
Y52950D01*
X71398D01*
Y52972D01*
X71409D01*
Y52983D01*
X71420D01*
Y52993D01*
X71431D01*
Y53015D01*
X71442D01*
Y53037D01*
X71453D01*
Y53048D01*
X71464D01*
Y53070D01*
X71474D01*
Y53091D01*
X71485D01*
Y53113D01*
X71496D01*
Y53135D01*
X71507D01*
Y53157D01*
X71518D01*
Y53189D01*
X71529D01*
Y53222D01*
X71540D01*
Y53255D01*
X71551D01*
Y53298D01*
X71561D01*
Y53342D01*
X71572D01*
Y53407D01*
X71583D01*
Y53646D01*
X71572D01*
Y53711D01*
X71561D01*
Y53766D01*
X71551D01*
Y53798D01*
X71540D01*
Y53831D01*
X71529D01*
Y53864D01*
X71518D01*
Y53896D01*
X71507D01*
Y53918D01*
X71496D01*
Y53940D01*
X71485D01*
Y53962D01*
X71474D01*
Y53983D01*
X71464D01*
Y54005D01*
X71453D01*
Y54016D01*
X71442D01*
Y54038D01*
X71431D01*
Y54060D01*
X71420D01*
Y54070D01*
X71409D01*
Y54092D01*
X71398D01*
Y54103D01*
X71387D01*
Y54114D01*
X71376D01*
Y54125D01*
X71366D01*
Y54147D01*
X71355D01*
Y54157D01*
X71344D01*
Y54168D01*
X71333D01*
Y54179D01*
X71322D01*
Y54190D01*
X71311D01*
Y54201D01*
X71300D01*
Y54212D01*
X71289D01*
Y54223D01*
X71279D01*
Y54234D01*
X71268D01*
Y54244D01*
X71257D01*
Y54255D01*
X71246D01*
Y54266D01*
X71235D01*
Y54277D01*
X71224D01*
Y54288D01*
X71202D01*
Y54299D01*
X71192D01*
Y54310D01*
X71181D01*
Y54321D01*
X71159D01*
Y54331D01*
X71148D01*
Y54342D01*
X71137D01*
Y54353D01*
X71115D01*
Y54364D01*
X71094D01*
Y54375D01*
X71083D01*
Y54386D01*
X71061D01*
Y54397D01*
X71039D01*
Y54408D01*
X71018D01*
Y54418D01*
X70996D01*
Y54429D01*
X70974D01*
Y54440D01*
X70952D01*
Y54451D01*
X70920D01*
Y54462D01*
X70887D01*
Y54473D01*
X70854D01*
Y54484D01*
X70822D01*
Y54495D01*
X70778D01*
Y54506D01*
X70713D01*
Y54516D01*
X70626D01*
Y54527D01*
D02*
G37*
G36*
X67308D02*
X67112D01*
Y54516D01*
X67025D01*
Y54506D01*
X66971D01*
Y54495D01*
X66916D01*
Y54484D01*
X66884D01*
Y54473D01*
X66851D01*
Y54462D01*
X66819D01*
Y54451D01*
X66797D01*
Y54440D01*
X66764D01*
Y54429D01*
X66742D01*
Y54418D01*
X66721D01*
Y54408D01*
X66699D01*
Y54397D01*
X66677D01*
Y54386D01*
X66655D01*
Y54375D01*
X66645D01*
Y54364D01*
X66623D01*
Y54353D01*
X66601D01*
Y54342D01*
X66590D01*
Y54331D01*
X66579D01*
Y54321D01*
X66558D01*
Y54310D01*
X66547D01*
Y54299D01*
X66536D01*
Y54288D01*
X66514D01*
Y54277D01*
X66503D01*
Y54266D01*
X66492D01*
Y54255D01*
X66481D01*
Y54244D01*
X66470D01*
Y54234D01*
X66460D01*
Y54223D01*
X66449D01*
Y54212D01*
X66438D01*
Y54201D01*
X66427D01*
Y54190D01*
X66416D01*
Y54179D01*
X66405D01*
Y54168D01*
X66394D01*
Y54157D01*
X66383D01*
Y54147D01*
X66373D01*
Y54125D01*
X66362D01*
Y54114D01*
X66351D01*
Y54103D01*
X66340D01*
Y54081D01*
X66329D01*
Y54070D01*
X66318D01*
Y54060D01*
X66307D01*
Y54038D01*
X66296D01*
Y54016D01*
X66286D01*
Y54005D01*
X66275D01*
Y53983D01*
X66264D01*
Y53962D01*
X66253D01*
Y53940D01*
X66242D01*
Y53918D01*
X66231D01*
Y53885D01*
X66220D01*
Y53864D01*
X66209D01*
Y53831D01*
X66199D01*
Y53798D01*
X66188D01*
Y53755D01*
X66177D01*
Y53711D01*
X66166D01*
Y53635D01*
X66155D01*
Y53418D01*
X66166D01*
Y53342D01*
X66177D01*
Y53298D01*
X66188D01*
Y53255D01*
X66199D01*
Y53222D01*
X66209D01*
Y53189D01*
X66220D01*
Y53168D01*
X66231D01*
Y53135D01*
X66242D01*
Y53113D01*
X66253D01*
Y53091D01*
X66264D01*
Y53070D01*
X66275D01*
Y53048D01*
X66286D01*
Y53037D01*
X66296D01*
Y53015D01*
X66307D01*
Y53004D01*
X66318D01*
Y52983D01*
X66329D01*
Y52972D01*
X66340D01*
Y52950D01*
X66351D01*
Y52939D01*
X66362D01*
Y52928D01*
X66373D01*
Y52906D01*
X66383D01*
Y52896D01*
X66394D01*
Y52885D01*
X66405D01*
Y52874D01*
X66416D01*
Y52863D01*
X66427D01*
Y52852D01*
X66438D01*
Y52841D01*
X66449D01*
Y52830D01*
X66460D01*
Y52819D01*
X66470D01*
Y52809D01*
X66481D01*
Y52798D01*
X66492D01*
Y52787D01*
X66503D01*
Y52776D01*
X66514D01*
Y52765D01*
X66536D01*
Y52754D01*
X66547D01*
Y52743D01*
X66558D01*
Y52732D01*
X66579D01*
Y52722D01*
X66590D01*
Y52711D01*
X66612D01*
Y52700D01*
X66623D01*
Y52689D01*
X66645D01*
Y52678D01*
X66655D01*
Y52667D01*
X66677D01*
Y52656D01*
X66699D01*
Y52645D01*
X66721D01*
Y52634D01*
X66742D01*
Y52624D01*
X66764D01*
Y52613D01*
X66797D01*
Y52602D01*
X66819D01*
Y52591D01*
X66851D01*
Y52580D01*
X66884D01*
Y52569D01*
X66927D01*
Y52558D01*
X66971D01*
Y52547D01*
X67036D01*
Y52537D01*
X67134D01*
Y52526D01*
X67395D01*
Y52537D01*
X67482D01*
Y52547D01*
X67537D01*
Y52558D01*
X67580D01*
Y52569D01*
X67613D01*
Y52580D01*
X67645D01*
Y52591D01*
X67678D01*
Y52602D01*
X67700D01*
Y52613D01*
X67721D01*
Y52624D01*
X67743D01*
Y52634D01*
X67765D01*
Y52645D01*
X67787D01*
Y52656D01*
X67808D01*
Y52667D01*
X67830D01*
Y52678D01*
X67841D01*
Y52689D01*
X67863D01*
Y52700D01*
X67874D01*
Y52711D01*
X67896D01*
Y52722D01*
X67906D01*
Y52732D01*
X67917D01*
Y52743D01*
X67939D01*
Y52754D01*
X67950D01*
Y52765D01*
X67961D01*
Y52776D01*
X67972D01*
Y52787D01*
X67983D01*
Y52798D01*
X68004D01*
Y52809D01*
X68015D01*
Y52819D01*
X68026D01*
Y52830D01*
X68037D01*
Y52841D01*
X68048D01*
Y52852D01*
X68059D01*
Y52863D01*
X68070D01*
Y52874D01*
X68080D01*
Y52885D01*
X68091D01*
Y52896D01*
X68102D01*
Y52906D01*
X68113D01*
Y52917D01*
X68124D01*
Y52939D01*
X68135D01*
Y52950D01*
X68146D01*
Y52961D01*
X68157D01*
Y52972D01*
X68167D01*
Y52983D01*
X68178D01*
Y52993D01*
X68189D01*
Y53015D01*
X68200D01*
Y53026D01*
X68211D01*
Y53037D01*
X68222D01*
Y53048D01*
X68233D01*
Y53070D01*
X68244D01*
Y53080D01*
X68254D01*
Y53091D01*
X68265D01*
Y53113D01*
X68276D01*
Y53124D01*
X68287D01*
Y53135D01*
X68298D01*
Y53157D01*
X68309D01*
Y53168D01*
X68320D01*
Y53189D01*
X68331D01*
Y53200D01*
X68342D01*
Y53222D01*
X68352D01*
Y53233D01*
X68363D01*
Y53255D01*
X68374D01*
Y53265D01*
X68385D01*
Y53287D01*
X68396D01*
Y53298D01*
X68407D01*
Y53320D01*
X68418D01*
Y53331D01*
X68429D01*
Y53352D01*
X68439D01*
Y53363D01*
X68450D01*
Y53385D01*
X68461D01*
Y53396D01*
X68472D01*
Y53418D01*
X68483D01*
Y53439D01*
X68494D01*
Y53450D01*
X68505D01*
Y53472D01*
X68516D01*
Y53483D01*
X68526D01*
Y53505D01*
X68537D01*
Y53526D01*
X68548D01*
Y53537D01*
X68559D01*
Y53559D01*
X68548D01*
Y53570D01*
X68537D01*
Y53592D01*
X68526D01*
Y53603D01*
X68516D01*
Y53624D01*
X68505D01*
Y53635D01*
X68494D01*
Y53657D01*
X68483D01*
Y53679D01*
X68472D01*
Y53690D01*
X68461D01*
Y53711D01*
X68450D01*
Y53722D01*
X68439D01*
Y53744D01*
X68429D01*
Y53755D01*
X68418D01*
Y53766D01*
X68407D01*
Y53788D01*
X68396D01*
Y53798D01*
X68385D01*
Y53820D01*
X68374D01*
Y53831D01*
X68363D01*
Y53853D01*
X68352D01*
Y53864D01*
X68342D01*
Y53875D01*
X68331D01*
Y53896D01*
X68320D01*
Y53907D01*
X68309D01*
Y53918D01*
X68298D01*
Y53929D01*
X68287D01*
Y53951D01*
X68276D01*
Y53962D01*
X68265D01*
Y53972D01*
X68254D01*
Y53983D01*
X68244D01*
Y54005D01*
X68233D01*
Y54016D01*
X68222D01*
Y54027D01*
X68211D01*
Y54038D01*
X68200D01*
Y54049D01*
X68189D01*
Y54060D01*
X68178D01*
Y54081D01*
X68167D01*
Y54092D01*
X68157D01*
Y54103D01*
X68146D01*
Y54114D01*
X68135D01*
Y54125D01*
X68124D01*
Y54136D01*
X68113D01*
Y54147D01*
X68102D01*
Y54157D01*
X68091D01*
Y54168D01*
X68080D01*
Y54179D01*
X68070D01*
Y54190D01*
X68059D01*
Y54201D01*
X68048D01*
Y54212D01*
X68026D01*
Y54223D01*
X68015D01*
Y54234D01*
X68004D01*
Y54244D01*
X67993D01*
Y54255D01*
X67983D01*
Y54266D01*
X67961D01*
Y54277D01*
X67950D01*
Y54288D01*
X67939D01*
Y54299D01*
X67917D01*
Y54310D01*
X67906D01*
Y54321D01*
X67885D01*
Y54331D01*
X67874D01*
Y54342D01*
X67852D01*
Y54353D01*
X67841D01*
Y54364D01*
X67819D01*
Y54375D01*
X67798D01*
Y54386D01*
X67776D01*
Y54397D01*
X67754D01*
Y54408D01*
X67732D01*
Y54418D01*
X67711D01*
Y54429D01*
X67689D01*
Y54440D01*
X67656D01*
Y54451D01*
X67634D01*
Y54462D01*
X67602D01*
Y54473D01*
X67558D01*
Y54484D01*
X67526D01*
Y54495D01*
X67471D01*
Y54506D01*
X67406D01*
Y54516D01*
X67308D01*
Y54527D01*
D02*
G37*
%LPD*%
G36*
X70604Y53962D02*
Y53951D01*
Y53722D01*
X70898D01*
Y53429D01*
X70604D01*
Y53135D01*
X70310D01*
Y53418D01*
X70300D01*
Y53429D01*
X70017D01*
Y53722D01*
X70310D01*
Y54016D01*
X70604D01*
Y53962D01*
D02*
G37*
G36*
X67721Y53418D02*
X66764D01*
Y53722D01*
X67721D01*
Y53418D01*
D02*
G37*
D10*
X76032Y47265D02*
G03*
X76032Y47265I-39J0D01*
G01*
X54704Y57781D02*
Y58481D01*
X53324Y57781D02*
Y58481D01*
X54175Y57781D02*
X54704D01*
X53324D02*
X53870D01*
X53324Y58481D02*
X53870D01*
X54175D02*
X54704D01*
X55280Y49621D02*
Y50149D01*
X54570D02*
X55280D01*
X54570Y49621D02*
Y50149D01*
Y48771D02*
Y49316D01*
X55280Y48771D02*
Y49316D01*
X54570Y48771D02*
X55280D01*
X56441Y48886D02*
Y50894D01*
X57759Y48886D02*
Y50894D01*
X56441D02*
X57759D01*
X56441Y48886D02*
X57759D01*
X58921Y49810D02*
X59449D01*
X58921Y49100D02*
Y49810D01*
Y49100D02*
X59449D01*
X59754D02*
X60299D01*
X59754Y49810D02*
X60299D01*
Y49100D02*
Y49810D01*
X55310Y51401D02*
Y51929D01*
X54600D02*
X55310D01*
X54600Y51401D02*
Y51929D01*
Y50551D02*
Y51096D01*
X55310Y50551D02*
Y51096D01*
X54600Y50551D02*
X55310D01*
X53270Y47971D02*
X53970D01*
X53270Y46591D02*
X53970D01*
Y47442D02*
Y47971D01*
Y46591D02*
Y47137D01*
X53270Y46591D02*
Y47137D01*
Y47442D02*
Y47971D01*
X54305D02*
X55005D01*
X54305Y46591D02*
X55005D01*
Y47442D02*
Y47971D01*
Y46591D02*
Y47137D01*
X54305Y46591D02*
Y47137D01*
Y47442D02*
Y47971D01*
X55340D02*
X56040D01*
X55340Y46591D02*
X56040D01*
Y47442D02*
Y47971D01*
Y46591D02*
Y47137D01*
X55340Y46591D02*
Y47137D01*
Y47442D02*
Y47971D01*
X67685Y49971D02*
X68213D01*
Y50681D01*
X67685D02*
X68213D01*
X66835D02*
X67380D01*
X66835Y49971D02*
X67380D01*
X66835D02*
Y50681D01*
X70070Y49981D02*
Y50681D01*
X68690Y49981D02*
Y50681D01*
X69541Y49981D02*
X70070D01*
X68690D02*
X69236D01*
X68690Y50681D02*
X69236D01*
X69541D02*
X70070D01*
X64980Y49981D02*
Y50681D01*
X66360Y49981D02*
Y50681D01*
X64980D02*
X65509D01*
X65814D02*
X66360D01*
X65814Y49981D02*
X66360D01*
X64980D02*
X65509D01*
X52291Y46339D02*
X53393D01*
X52291Y43701D02*
X53393D01*
X52291D02*
Y46339D01*
X53393Y43701D02*
Y46339D01*
X73487Y47250D02*
X74197D01*
Y47795D01*
X73487Y47250D02*
Y47795D01*
Y48100D02*
Y48628D01*
X74197D01*
Y48100D02*
Y48628D01*
X73840Y49841D02*
X74550D01*
Y50386D01*
X73840Y49841D02*
Y50386D01*
Y50691D02*
Y51219D01*
X74550D01*
Y50691D02*
Y51219D01*
X62109Y47730D02*
Y48440D01*
X61564D02*
X62109D01*
X61564Y47730D02*
X62109D01*
X60731D02*
X61259D01*
X60731D02*
Y48440D01*
X61259D01*
X62119Y51009D02*
Y51719D01*
X61574D02*
X62119D01*
X61574Y51009D02*
X62119D01*
X60741D02*
X61269D01*
X60741D02*
Y51719D01*
X61269D01*
X62119Y55380D02*
Y56090D01*
X61574D02*
X62119D01*
X61574Y55380D02*
X62119D01*
X60741D02*
X61269D01*
X60741D02*
Y56090D01*
X61269D01*
X62119Y49916D02*
Y50626D01*
X61574D02*
X62119D01*
X61574Y49916D02*
X62119D01*
X60741D02*
X61269D01*
X60741D02*
Y50626D01*
X61269D01*
X62119Y53194D02*
Y53904D01*
X61574D02*
X62119D01*
X61574Y53194D02*
X62119D01*
X60741D02*
X61269D01*
X60741D02*
Y53904D01*
X61269D01*
X51240Y47989D02*
X51950D01*
X51240Y47444D02*
Y47989D01*
X51950Y47444D02*
Y47989D01*
Y46611D02*
Y47139D01*
X51240Y46611D02*
X51950D01*
X51240D02*
Y47139D01*
X54120Y52100D02*
Y53100D01*
X58120D01*
X54120Y52100D02*
X58120D01*
Y53100D01*
X57120Y52100D02*
Y53100D01*
X76649Y39100D02*
Y40100D01*
X70452Y39100D02*
Y40100D01*
X76649D01*
X70452Y39100D02*
X76649D01*
X71550D02*
Y40100D01*
X61452D02*
X69648D01*
X61452Y39100D02*
Y40100D01*
Y39100D02*
X69648D01*
Y40100D01*
X62550Y39100D02*
Y40100D01*
X68451Y58100D02*
X76648D01*
Y59100D01*
X68451D02*
X76648D01*
X68451Y58100D02*
Y59100D01*
X75550Y58100D02*
Y59100D01*
X57852Y58100D02*
X67200D01*
X68048D01*
Y59100D01*
X57852D02*
X68048D01*
X57852Y58100D02*
Y59100D01*
X66950Y58100D02*
Y59100D01*
X75600Y50100D02*
X76600D01*
Y51100D01*
X75600D02*
X77600D01*
Y48100D02*
Y51100D01*
X75600Y48100D02*
X77600D01*
X75600D02*
Y51100D01*
X58683Y40130D02*
X58762D01*
X59037D02*
X59077D01*
X58762Y39933D02*
Y40287D01*
Y39933D02*
X59037Y40130D01*
X58762Y40287D02*
X59037Y40130D01*
Y39933D02*
Y40327D01*
X60356Y39480D02*
Y40030D01*
X57430Y39480D02*
X60356D01*
X60280Y40030D02*
X60356D01*
X60280Y39480D02*
Y40030D01*
Y40230D02*
Y40780D01*
Y40230D02*
X60356D01*
X57430Y39480D02*
Y39667D01*
X60356Y40230D02*
Y40780D01*
X57430Y40593D02*
Y40780D01*
X60356D01*
X72963Y47250D02*
Y47779D01*
Y48084D02*
Y48630D01*
X72263Y48084D02*
Y48630D01*
Y47250D02*
Y47779D01*
Y48630D02*
X72963D01*
X72263Y47250D02*
X72963D01*
X71740D02*
Y47779D01*
Y48084D02*
Y48630D01*
X71040Y48084D02*
Y48630D01*
Y47250D02*
Y47779D01*
Y48630D02*
X71740D01*
X71040Y47250D02*
X71740D01*
X74710Y48101D02*
Y48630D01*
Y47250D02*
Y47796D01*
X75410Y47250D02*
Y47796D01*
Y48101D02*
Y48630D01*
X74710Y47250D02*
X75410D01*
X74710Y48630D02*
X75410D01*
X59840Y54790D02*
Y55319D01*
Y55624D02*
Y56170D01*
X59140Y55624D02*
Y56170D01*
Y54790D02*
Y55319D01*
Y56170D02*
X59840D01*
X59140Y54790D02*
X59840D01*
X60240Y46971D02*
Y47500D01*
Y46120D02*
Y46666D01*
X60940Y46120D02*
Y46666D01*
Y46971D02*
Y47500D01*
X60240Y46120D02*
X60940D01*
X60240Y47500D02*
X60940D01*
X57819Y45511D02*
Y48149D01*
X58921Y45511D02*
Y48149D01*
X57819D02*
X58921D01*
X57819Y45511D02*
X58921D01*
D11*
X56037Y51014D02*
G03*
X56037Y51014I-49J0D01*
G01*
X54033Y43701D02*
G03*
X54033Y43701I-49J0D01*
G01*
X57277Y48149D02*
G03*
X57277Y48149I-49J0D01*
G01*
X66338Y56382D02*
Y55988D01*
X66535D01*
X66601Y56054D01*
Y56316D01*
X66535Y56382D01*
X66338D01*
X66732D02*
X66863D01*
X66798D01*
Y55988D01*
X66732D01*
X66863D01*
X67322Y56316D02*
X67257Y56382D01*
X67126D01*
X67060Y56316D01*
Y56054D01*
X67126Y55988D01*
X67257D01*
X67322Y56054D01*
Y56185D01*
X67191D01*
X67454Y56382D02*
X67585D01*
X67519D01*
Y55988D01*
X67454D01*
X67585D01*
X67782Y56382D02*
X68044D01*
X67913D01*
Y55988D01*
X68175D02*
Y56251D01*
X68306Y56382D01*
X68437Y56251D01*
Y55988D01*
Y56185D01*
X68175D01*
X68569Y56382D02*
Y55988D01*
X68831D01*
X69356D02*
Y56382D01*
X69553D01*
X69618Y56316D01*
Y56185D01*
X69553Y56120D01*
X69356D01*
X69749Y56382D02*
Y55988D01*
X69881Y56120D01*
X70012Y55988D01*
Y56382D01*
X70143Y55988D02*
Y56382D01*
X70274Y56251D01*
X70405Y56382D01*
Y55988D01*
X70668D02*
X70537Y56120D01*
Y56251D01*
X70668Y56382D01*
X70865Y56316D02*
X70930Y56382D01*
X71061D01*
X71127Y56448D01*
X71258Y55988D02*
X71389Y56120D01*
Y56251D01*
X71258Y56382D01*
D12*
X56952Y50500D02*
G03*
X56952Y50500I-118J0D01*
G01*
D13*
X52388Y53803D02*
G03*
X52462Y53982I-178J178D01*
G01*
X51676Y53749D02*
G03*
X51750Y53570I252J0D01*
G01*
X58900Y56520D02*
G03*
X58900Y56520I-50J0D01*
G01*
X52093Y53508D02*
X52388Y53803D01*
X51750Y53570D02*
X52094Y53227D01*
X52462Y53982D02*
Y54180D01*
X51676Y53749D02*
Y53980D01*
D14*
X51755Y53991D02*
G03*
X51755Y53991I-79J0D01*
G01*
X52068Y52930D02*
Y54680D01*
D15*
X52168Y52914D02*
G03*
X52168Y52914I-100J0D01*
G01*
D16*
X58825Y55640D02*
G03*
X58825Y55099I0J-270D01*
G01*
X62430Y43675D02*
Y46525D01*
X76170Y43675D02*
Y46525D01*
X52314Y54325D02*
X52610D01*
Y54030D02*
Y54325D01*
X52314Y54030D02*
X52610D01*
X52314D02*
Y54325D01*
X51872Y54581D02*
X52265D01*
X51872D02*
X52068Y54857D01*
X52265Y54581D01*
X69770Y49060D02*
Y49560D01*
X65170D02*
X69770D01*
X67720Y48610D02*
X67920D01*
X67720Y48310D02*
Y48910D01*
X67370Y49110D02*
X67570D01*
Y48110D02*
Y49110D01*
X67370Y48110D02*
X67570D01*
X67370D02*
Y49110D01*
X67220Y48310D02*
Y48910D01*
X67020Y48610D02*
X67220D01*
X69770Y47660D02*
Y48160D01*
X65170Y47660D02*
Y48160D01*
Y49060D02*
Y49560D01*
Y47660D02*
X69770D01*
X58825Y54470D02*
Y56270D01*
X54675Y54470D02*
Y56270D01*
X58710Y54470D02*
X58825D01*
X54675D02*
X54790Y54470D01*
X58710Y56270D02*
X58825D01*
X54675D02*
X54790D01*
X51667Y49129D02*
X51982D01*
X51667Y50271D02*
X51982D01*
X51667Y49995D02*
Y50271D01*
Y49129D02*
Y49405D01*
D17*
X52671Y48991D02*
G03*
X52671Y48991I-39J0D01*
G01*
D18*
X59098Y41800D02*
G03*
X59099Y41801I0J1D01*
G01*
X61808Y41800D02*
G03*
X61809Y41801I0J1D01*
G01*
X58666Y44399D02*
X59099Y43966D01*
X56501D02*
X56934Y44399D01*
X59099Y41801D02*
Y43966D01*
X56501Y41801D02*
Y43966D01*
X58350Y41800D02*
X59098D01*
X56501D02*
Y41801D01*
Y41800D02*
Y41801D01*
Y41800D02*
X57250D01*
X58666Y44399D02*
Y44400D01*
X58350D02*
X58666D01*
X56934Y44399D02*
Y44400D01*
X57250D01*
X61376Y44399D02*
X61809Y43966D01*
X59211D02*
X59644Y44399D01*
X61809Y41801D02*
Y43966D01*
X59211Y41801D02*
Y43966D01*
X61060Y41800D02*
X61808D01*
X59211D02*
Y41801D01*
Y41800D02*
Y41801D01*
Y41800D02*
X59960D01*
X61376Y44399D02*
Y44400D01*
X61060D02*
X61376D01*
X59644Y44399D02*
Y44400D01*
X59960D01*
X51340Y56500D02*
X51790D01*
X52350D02*
X52800D01*
Y58720D01*
X51340Y56500D02*
Y58720D01*
X51820Y57110D02*
Y58110D01*
X52320D01*
Y57110D02*
Y58110D01*
X51820Y57110D02*
X52320D01*
X51340Y58720D02*
X51790D01*
X52350D02*
X52800D01*
X61950Y41895D02*
X69655D01*
X70484D02*
X76350D01*
X62036Y56665D02*
X74606D01*
X75890Y51684D02*
X76021D01*
X75956D01*
Y51290D01*
X75890D01*
X76021D01*
X76480Y51618D02*
X76415Y51684D01*
X76284D01*
X76218Y51618D01*
Y51356D01*
X76284Y51290D01*
X76415D01*
X76480Y51356D01*
X76874Y51618D02*
X76808Y51684D01*
X76677D01*
X76612Y51618D01*
Y51552D01*
X76677Y51487D01*
X76808D01*
X76874Y51421D01*
Y51356D01*
X76808Y51290D01*
X76677D01*
X76612Y51356D01*
X77005Y51290D02*
Y51684D01*
X77202D01*
X77268Y51618D01*
Y51487D01*
X77202Y51421D01*
X77005D01*
X68891Y40305D02*
X69153D01*
X69285Y40437D01*
X69153Y40568D01*
X68891D01*
Y40699D02*
Y40830D01*
Y40765D01*
X69285D01*
Y40699D01*
Y40830D01*
Y41027D02*
X68891D01*
X69285Y41289D01*
X68891D01*
X71255Y40305D02*
X70992D01*
X70861Y40437D01*
X70992Y40568D01*
X71255D01*
X71058D01*
Y40305D01*
X70927Y40699D02*
X70861Y40765D01*
Y40896D01*
X70927Y40961D01*
X71189D01*
X71255Y40896D01*
Y40765D01*
X71189Y40699D01*
X70927D01*
X72235Y40335D02*
X71972D01*
X71841Y40467D01*
X71972Y40598D01*
X72235D01*
X72038D01*
Y40335D01*
X72235Y40729D02*
Y40860D01*
Y40795D01*
X71841D01*
X71907Y40729D01*
X73245Y40335D02*
X72982D01*
X72851Y40467D01*
X72982Y40598D01*
X73245D01*
X73048D01*
Y40335D01*
X73245Y40991D02*
Y40729D01*
X72982Y40991D01*
X72917D01*
X72851Y40926D01*
Y40795D01*
X72917Y40729D01*
X74255Y40335D02*
X73992D01*
X73861Y40467D01*
X73992Y40598D01*
X74255D01*
X74058D01*
Y40335D01*
X73927Y40729D02*
X73861Y40795D01*
Y40926D01*
X73927Y40991D01*
X73992D01*
X74058Y40926D01*
Y40860D01*
Y40926D01*
X74123Y40991D01*
X74189D01*
X74255Y40926D01*
Y40795D01*
X74189Y40729D01*
X75265Y40335D02*
X75002D01*
X74871Y40467D01*
X75002Y40598D01*
X75265D01*
X75068D01*
Y40335D01*
X75265Y40926D02*
X74871D01*
X75068Y40729D01*
Y40991D01*
X76275Y40335D02*
X76012D01*
X75881Y40467D01*
X76012Y40598D01*
X76275D01*
X76078D01*
Y40335D01*
X75881Y40991D02*
Y40729D01*
X76078D01*
X76012Y40860D01*
Y40926D01*
X76078Y40991D01*
X76209D01*
X76275Y40926D01*
Y40795D01*
X76209Y40729D01*
X64260Y40305D02*
X63866D01*
Y40502D01*
X63932Y40568D01*
X64063D01*
X64128Y40502D01*
Y40305D01*
Y40437D02*
X64260Y40568D01*
X63866Y40961D02*
Y40699D01*
X64260D01*
Y40961D01*
X64063Y40699D02*
Y40830D01*
X63932Y41355D02*
X63866Y41289D01*
Y41158D01*
X63932Y41093D01*
X63997D01*
X64063Y41158D01*
Y41289D01*
X64128Y41355D01*
X64194D01*
X64260Y41289D01*
Y41158D01*
X64194Y41093D01*
X64905Y42125D02*
Y42519D01*
X65102D01*
X65167Y42453D01*
Y42322D01*
X65102Y42257D01*
X64905D01*
X65495Y42519D02*
X65364D01*
X65298Y42453D01*
Y42191D01*
X65364Y42125D01*
X65495D01*
X65561Y42191D01*
Y42453D01*
X65495Y42519D01*
X65692D02*
Y42125D01*
X65823Y42257D01*
X65954Y42125D01*
Y42519D01*
X66348D02*
X66085D01*
Y42125D01*
X66348D01*
X66085Y42322D02*
X66217D01*
X66479Y42125D02*
Y42519D01*
X66676D01*
X66741Y42453D01*
Y42322D01*
X66676Y42257D01*
X66479D01*
X66610D02*
X66741Y42125D01*
X70580Y42120D02*
Y42382D01*
X70711Y42514D01*
X70842Y42382D01*
Y42120D01*
Y42317D01*
X70580D01*
X70974Y42120D02*
Y42514D01*
X71236Y42120D01*
Y42514D01*
X71367Y42120D02*
Y42382D01*
X71498Y42514D01*
X71630Y42382D01*
Y42120D01*
Y42317D01*
X71367D01*
X71761Y42514D02*
Y42120D01*
X72023D01*
X72351Y42514D02*
X72220D01*
X72154Y42448D01*
Y42186D01*
X72220Y42120D01*
X72351D01*
X72417Y42186D01*
Y42448D01*
X72351Y42514D01*
X72810Y42448D02*
X72745Y42514D01*
X72613D01*
X72548Y42448D01*
Y42186D01*
X72613Y42120D01*
X72745D01*
X72810Y42186D01*
Y42317D01*
X72679D01*
X73335Y42514D02*
X73466D01*
X73401D01*
Y42120D01*
X73335D01*
X73466D01*
X73663D02*
Y42514D01*
X73925Y42120D01*
Y42514D01*
X67301Y57269D02*
X67235Y57335D01*
Y57466D01*
X67301Y57531D01*
X67366D01*
X67432Y57466D01*
X67497Y57531D01*
X67563D01*
X67628Y57466D01*
Y57335D01*
X67563Y57269D01*
X67497D01*
X67432Y57335D01*
X67366Y57269D01*
X67301D01*
X67432Y57335D02*
Y57466D01*
X63613Y57269D02*
Y57400D01*
Y57335D01*
X63220D01*
X63285Y57269D01*
X63613Y57859D02*
Y57597D01*
X63351Y57859D01*
X63285D01*
X63220Y57794D01*
Y57663D01*
X63285Y57597D01*
X66346Y56875D02*
X66280Y56941D01*
Y57072D01*
X66215Y57138D01*
X66608Y57269D02*
X66674Y57335D01*
Y57466D01*
X66608Y57531D01*
X66346D01*
X66280Y57466D01*
Y57335D01*
X66346Y57269D01*
X66411D01*
X66477Y57335D01*
Y57531D01*
X62658Y57269D02*
Y57400D01*
Y57335D01*
X62265D01*
X62331Y57269D01*
Y57597D02*
X62265Y57663D01*
Y57794D01*
X62331Y57859D01*
X62396D01*
X62462Y57794D01*
Y57728D01*
Y57794D01*
X62527Y57859D01*
X62593D01*
X62658Y57794D01*
Y57663D01*
X62593Y57597D01*
X64305Y56875D02*
X64240Y56941D01*
Y57072D01*
X64174Y57138D01*
X64633Y57269D02*
Y57400D01*
Y57335D01*
X64240D01*
X64305Y57269D01*
X64633Y57597D02*
Y57728D01*
Y57663D01*
X64240D01*
X64305Y57597D01*
X65326Y56875D02*
X65260Y56941D01*
Y57072D01*
X65194Y57138D01*
X65654Y57269D02*
Y57400D01*
Y57335D01*
X65260D01*
X65326Y57269D01*
Y57597D02*
X65260Y57663D01*
Y57794D01*
X65326Y57859D01*
X65588D01*
X65654Y57794D01*
Y57663D01*
X65588Y57597D01*
X65326D01*
X61327Y57078D02*
X61261Y57012D01*
Y56881D01*
X61327Y56815D01*
X61589D01*
X61655Y56881D01*
Y57012D01*
X61589Y57078D01*
X61458D01*
Y56947D01*
X61655Y57209D02*
X61261D01*
X61655Y57471D01*
X61261D01*
Y57603D02*
X61655D01*
Y57799D01*
X61589Y57865D01*
X61327D01*
X61261Y57799D01*
Y57603D01*
X60715Y56425D02*
X60452D01*
X60321Y56557D01*
X60452Y56688D01*
X60715D01*
X60518D01*
Y56425D01*
X60715Y56819D02*
X60321D01*
Y57016D01*
X60387Y57081D01*
X60518D01*
X60583Y57016D01*
Y56819D01*
Y56950D02*
X60715Y57081D01*
X60321Y57475D02*
Y57213D01*
X60715D01*
Y57475D01*
X60518Y57213D02*
Y57344D01*
X60321Y57869D02*
Y57606D01*
X60518D01*
Y57737D01*
Y57606D01*
X60715D01*
X76285Y55771D02*
X75891D01*
Y55968D01*
X75957Y56034D01*
X76088D01*
X76153Y55968D01*
Y55771D01*
Y55902D02*
X76285Y56034D01*
X75891Y56165D02*
X76285Y56427D01*
X75891D02*
X76285Y56165D01*
Y56755D02*
X76088Y56558D01*
X75891Y56755D01*
X76088Y56952D02*
Y57214D01*
X75957Y57345D02*
X75891Y57411D01*
Y57542D01*
X75957Y57608D01*
X76219D01*
X76285Y57542D01*
Y57411D01*
X76219Y57345D01*
X75957D01*
X74915Y55968D02*
Y56230D01*
Y56099D01*
X75308D01*
X74915Y56361D02*
X75308Y56624D01*
X74915D02*
X75308Y56361D01*
X75112Y56755D02*
Y57017D01*
X75308Y57149D02*
X75112Y57345D01*
X74915Y57149D01*
X75308Y57477D02*
Y57608D01*
Y57542D01*
X74915D01*
X74980Y57477D01*
X74332Y57531D02*
Y57269D01*
X74070Y57531D01*
X74004D01*
X73939Y57466D01*
Y57335D01*
X74004Y57269D01*
X73028Y56875D02*
X72962Y56941D01*
Y57072D01*
X72897Y57138D01*
X73028Y57269D02*
X72962Y57335D01*
Y57466D01*
X73028Y57531D01*
X73094D01*
X73159Y57466D01*
Y57400D01*
Y57466D01*
X73225Y57531D01*
X73290D01*
X73356Y57466D01*
Y57335D01*
X73290Y57269D01*
X72314Y57466D02*
X71921D01*
X72117Y57269D01*
Y57531D01*
X71010Y56875D02*
X70945Y56941D01*
Y57072D01*
X70879Y57138D01*
X70945Y57531D02*
Y57269D01*
X71141D01*
X71076Y57400D01*
Y57466D01*
X71141Y57531D01*
X71273D01*
X71338Y57466D01*
Y57335D01*
X71273Y57269D01*
X69968Y56875D02*
X69903Y56941D01*
Y57072D01*
X69837Y57138D01*
X69903Y57531D02*
X69968Y57400D01*
X70100Y57269D01*
X70231D01*
X70296Y57335D01*
Y57466D01*
X70231Y57531D01*
X70165D01*
X70100Y57466D01*
Y57269D01*
X68861D02*
Y57531D01*
X68927D01*
X69189Y57269D01*
X69255D01*
X59247Y57793D02*
X59182Y57859D01*
X59050D01*
X58985Y57793D01*
Y57728D01*
X59050Y57662D01*
X59182D01*
X59247Y57597D01*
Y57531D01*
X59182Y57465D01*
X59050D01*
X58985Y57531D01*
X59378Y57859D02*
Y57465D01*
X59575D01*
X59641Y57531D01*
Y57793D01*
X59575Y57859D01*
X59378D01*
X59772Y57465D02*
Y57728D01*
X59903Y57859D01*
X60034Y57728D01*
Y57465D01*
Y57662D01*
X59772D01*
X57967Y57793D02*
X57902Y57859D01*
X57770D01*
X57705Y57793D01*
Y57728D01*
X57770Y57662D01*
X57902D01*
X57967Y57597D01*
Y57531D01*
X57902Y57465D01*
X57770D01*
X57705Y57531D01*
X58361Y57793D02*
X58295Y57859D01*
X58164D01*
X58098Y57793D01*
Y57531D01*
X58164Y57465D01*
X58295D01*
X58361Y57531D01*
X58492Y57859D02*
Y57465D01*
X58754D01*
X62861Y40568D02*
Y40305D01*
X63058D01*
X62992Y40437D01*
Y40502D01*
X63058Y40568D01*
X63189D01*
X63255Y40502D01*
Y40371D01*
X63189Y40305D01*
X62861Y40699D02*
X63123D01*
X63255Y40830D01*
X63123Y40961D01*
X62861D01*
X64937Y40305D02*
X64871Y40371D01*
Y40502D01*
X64937Y40568D01*
X65002D01*
X65068Y40502D01*
Y40437D01*
Y40502D01*
X65133Y40568D01*
X65199D01*
X65265Y40502D01*
Y40371D01*
X65199Y40305D01*
X65265Y40699D02*
X65199D01*
Y40765D01*
X65265D01*
Y40699D01*
X64937Y41027D02*
X64871Y41093D01*
Y41224D01*
X64937Y41289D01*
X65002D01*
X65068Y41224D01*
Y41158D01*
Y41224D01*
X65133Y41289D01*
X65199D01*
X65265Y41224D01*
Y41093D01*
X65199Y41027D01*
X64871Y41421D02*
X65133D01*
X65265Y41552D01*
X65133Y41683D01*
X64871D01*
X65876Y40568D02*
Y40305D01*
X66073D01*
X66007Y40437D01*
Y40502D01*
X66073Y40568D01*
X66204D01*
X66270Y40502D01*
Y40371D01*
X66204Y40305D01*
X65876Y40699D02*
X66138D01*
X66270Y40830D01*
X66138Y40961D01*
X65876D01*
X66947Y40568D02*
X66881Y40502D01*
Y40371D01*
X66947Y40305D01*
X67209D01*
X67275Y40371D01*
Y40502D01*
X67209Y40568D01*
X67078D01*
Y40437D01*
X67275Y40699D02*
X66881D01*
X67275Y40961D01*
X66881D01*
Y41093D02*
X67275D01*
Y41289D01*
X67209Y41355D01*
X66947D01*
X66881Y41289D01*
Y41093D01*
X67952Y40568D02*
X67886Y40502D01*
Y40371D01*
X67952Y40305D01*
X68214D01*
X68280Y40371D01*
Y40502D01*
X68214Y40568D01*
X68083D01*
Y40437D01*
X68280Y40699D02*
X67886D01*
X68280Y40961D01*
X67886D01*
Y41093D02*
X68280D01*
Y41289D01*
X68214Y41355D01*
X67952D01*
X67886Y41289D01*
Y41093D01*
X54033Y55212D02*
X54361D01*
X54427Y55278D01*
Y55409D01*
X54361Y55474D01*
X54033D01*
X54427Y55868D02*
Y55606D01*
X54164Y55868D01*
X54099D01*
X54033Y55802D01*
Y55671D01*
X54099Y55606D01*
X73508Y48843D02*
Y49237D01*
X73705D01*
X73770Y49171D01*
Y49040D01*
X73705Y48974D01*
X73508D01*
X73639D02*
X73770Y48843D01*
X73902D02*
X74033D01*
X73967D01*
Y49237D01*
X73902Y49171D01*
X74492Y48843D02*
X74230D01*
X74492Y49106D01*
Y49171D01*
X74426Y49237D01*
X74295D01*
X74230Y49171D01*
X66900Y51020D02*
Y51414D01*
X67097D01*
X67162Y51348D01*
Y51217D01*
X67097Y51151D01*
X66900D01*
X67031D02*
X67162Y51020D01*
X67294D02*
X67425D01*
X67359D01*
Y51414D01*
X67294Y51348D01*
X67622Y51020D02*
X67753D01*
X67687D01*
Y51414D01*
X67622Y51348D01*
X73627Y50058D02*
X73233D01*
Y50255D01*
X73299Y50320D01*
X73430D01*
X73496Y50255D01*
Y50058D01*
Y50189D02*
X73627Y50320D01*
Y50452D02*
Y50583D01*
Y50517D01*
X73233D01*
X73299Y50452D01*
Y50780D02*
X73233Y50845D01*
Y50976D01*
X73299Y51042D01*
X73561D01*
X73627Y50976D01*
Y50845D01*
X73561Y50780D01*
X73299D01*
X62462Y47843D02*
Y48237D01*
X62659D01*
X62724Y48171D01*
Y48040D01*
X62659Y47974D01*
X62462D01*
X62593D02*
X62724Y47843D01*
X62856Y47909D02*
X62921Y47843D01*
X63052D01*
X63118Y47909D01*
Y48171D01*
X63052Y48237D01*
X62921D01*
X62856Y48171D01*
Y48106D01*
X62921Y48040D01*
X63118D01*
X62462Y51142D02*
Y51535D01*
X62659D01*
X62724Y51470D01*
Y51339D01*
X62659Y51273D01*
X62462D01*
X62593D02*
X62724Y51142D01*
X62856Y51470D02*
X62921Y51535D01*
X63052D01*
X63118Y51470D01*
Y51404D01*
X63052Y51339D01*
X63118Y51273D01*
Y51207D01*
X63052Y51142D01*
X62921D01*
X62856Y51207D01*
Y51273D01*
X62921Y51339D01*
X62856Y51404D01*
Y51470D01*
X62921Y51339D02*
X63052D01*
X62462Y55553D02*
Y55947D01*
X62659D01*
X62724Y55881D01*
Y55750D01*
X62659Y55684D01*
X62462D01*
X62593D02*
X62724Y55553D01*
X62856Y55947D02*
X63118D01*
Y55881D01*
X62856Y55619D01*
Y55553D01*
X62462Y50119D02*
Y50512D01*
X62659D01*
X62724Y50447D01*
Y50316D01*
X62659Y50250D01*
X62462D01*
X62593D02*
X62724Y50119D01*
X63118Y50512D02*
X62987Y50447D01*
X62856Y50316D01*
Y50185D01*
X62921Y50119D01*
X63052D01*
X63118Y50185D01*
Y50250D01*
X63052Y50316D01*
X62856D01*
X62462Y53287D02*
Y53681D01*
X62659D01*
X62724Y53615D01*
Y53484D01*
X62659Y53419D01*
X62462D01*
X62593D02*
X62724Y53287D01*
X63118Y53681D02*
X62856D01*
Y53484D01*
X62987Y53550D01*
X63052D01*
X63118Y53484D01*
Y53353D01*
X63052Y53287D01*
X62921D01*
X62856Y53353D01*
X54337Y49612D02*
X53943D01*
Y49809D01*
X54009Y49874D01*
X54140D01*
X54206Y49809D01*
Y49612D01*
Y49743D02*
X54337Y49874D01*
Y50202D02*
X53943D01*
X54140Y50006D01*
Y50268D01*
X59412Y48513D02*
Y48907D01*
X59609D01*
X59674Y48841D01*
Y48710D01*
X59609Y48644D01*
X59412D01*
X59543D02*
X59674Y48513D01*
X59806Y48841D02*
X59871Y48907D01*
X60002D01*
X60068Y48841D01*
Y48776D01*
X60002Y48710D01*
X59937D01*
X60002D01*
X60068Y48644D01*
Y48579D01*
X60002Y48513D01*
X59871D01*
X59806Y48579D01*
X55602Y51423D02*
Y51817D01*
X55799D01*
X55864Y51751D01*
Y51620D01*
X55799Y51554D01*
X55602D01*
X55733D02*
X55864Y51423D01*
X56258D02*
X55996D01*
X56258Y51686D01*
Y51751D01*
X56192Y51817D01*
X56061D01*
X55996Y51751D01*
X51288Y48263D02*
Y48657D01*
X51484D01*
X51550Y48591D01*
Y48460D01*
X51484Y48394D01*
X51288D01*
X51419D02*
X51550Y48263D01*
X51681D02*
X51812D01*
X51747D01*
Y48657D01*
X51681Y48591D01*
X53241Y49130D02*
X52979D01*
X52913Y49064D01*
Y48933D01*
X52979Y48868D01*
X53241D01*
X53307Y48933D01*
Y49064D01*
X53176Y48999D02*
X53307Y49130D01*
Y49064D02*
X53241Y49130D01*
X53307Y49261D02*
Y49392D01*
Y49327D01*
X52913D01*
X52979Y49261D01*
X52429Y48667D02*
X52298D01*
X52232Y48601D01*
Y48339D01*
X52298Y48273D01*
X52429D01*
X52494Y48339D01*
Y48601D01*
X52429Y48667D01*
X52626Y48273D02*
Y48667D01*
X52888Y48273D01*
Y48667D01*
X62462Y54561D02*
X62593D01*
X62528D01*
Y54955D01*
X62462Y54889D01*
X62790D02*
X62856Y54955D01*
X62987D01*
X63052Y54889D01*
Y54823D01*
X62987Y54758D01*
X62921D01*
X62987D01*
X63052Y54692D01*
Y54627D01*
X62987Y54561D01*
X62856D01*
X62790Y54627D01*
X62462Y48897D02*
Y49290D01*
X62659D01*
X62724Y49225D01*
Y49093D01*
X62659Y49028D01*
X62462D01*
X62593D02*
X62724Y48897D01*
X62856Y49290D02*
X63118Y48897D01*
Y49290D02*
X62856Y48897D01*
X62462Y52629D02*
X62724D01*
X62593D01*
Y52235D01*
X62856Y52629D02*
X63118Y52235D01*
Y52629D02*
X62856Y52235D01*
X59388Y51407D02*
Y51013D01*
X59650D01*
X59781D02*
X59912D01*
X59847D01*
Y51407D01*
X59781Y51341D01*
X56964Y51577D02*
X57095D01*
X57029D01*
Y51183D01*
X56964D01*
X57095D01*
X57554Y51511D02*
X57488Y51577D01*
X57357D01*
X57292Y51511D01*
Y51249D01*
X57357Y51183D01*
X57488D01*
X57554Y51249D01*
X57685Y51183D02*
X57816D01*
X57751D01*
Y51577D01*
X57685Y51511D01*
X52093Y51040D02*
Y50778D01*
X52290D01*
Y50909D01*
Y50778D01*
X52487D01*
Y51171D02*
Y51302D01*
Y51237D01*
X52093D01*
X52159Y51171D01*
X74742Y52107D02*
Y51713D01*
X74939D01*
X75004Y51779D01*
Y52041D01*
X74939Y52107D01*
X74742D01*
X75398Y51713D02*
X75136D01*
X75398Y51976D01*
Y52041D01*
X75332Y52107D01*
X75201D01*
X75136Y52041D01*
X56608Y41307D02*
Y40913D01*
X56804D01*
X56870Y40979D01*
Y41241D01*
X56804Y41307D01*
X56608D01*
X57001Y40913D02*
X57132D01*
X57067D01*
Y41307D01*
X57001Y41241D01*
X72435Y49171D02*
X72370Y49237D01*
X72239D01*
X72173Y49171D01*
Y48909D01*
X72239Y48843D01*
X72370D01*
X72435Y48909D01*
X72567Y48843D02*
X72698D01*
X72632D01*
Y49237D01*
X72567Y49171D01*
X72895D02*
X72960Y49237D01*
X73091D01*
X73157Y49171D01*
Y49106D01*
X73091Y49040D01*
X73026D01*
X73091D01*
X73157Y48974D01*
Y48909D01*
X73091Y48843D01*
X72960D01*
X72895Y48909D01*
X71100Y49171D02*
X71035Y49237D01*
X70904D01*
X70838Y49171D01*
Y48909D01*
X70904Y48843D01*
X71035D01*
X71100Y48909D01*
X71232Y48843D02*
X71363D01*
X71297D01*
Y49237D01*
X71232Y49171D01*
X71822Y48843D02*
X71560D01*
X71822Y49106D01*
Y49171D01*
X71756Y49237D01*
X71625D01*
X71560Y49171D01*
X65302Y51348D02*
X65237Y51414D01*
X65106D01*
X65040Y51348D01*
Y51086D01*
X65106Y51020D01*
X65237D01*
X65302Y51086D01*
X65434Y51020D02*
X65565D01*
X65499D01*
Y51414D01*
X65434Y51348D01*
X65762Y51020D02*
X65893D01*
X65827D01*
Y51414D01*
X65762Y51348D01*
X75900Y47841D02*
X75835Y47907D01*
X75704D01*
X75638Y47841D01*
Y47579D01*
X75704Y47513D01*
X75835D01*
X75900Y47579D01*
X76032Y47513D02*
X76163D01*
X76097D01*
Y47907D01*
X76032Y47841D01*
X76360D02*
X76425Y47907D01*
X76556D01*
X76622Y47841D01*
Y47579D01*
X76556Y47513D01*
X76425D01*
X76360Y47579D01*
Y47841D01*
X69012Y51348D02*
X68947Y51414D01*
X68816D01*
X68750Y51348D01*
Y51086D01*
X68816Y51020D01*
X68947D01*
X69012Y51086D01*
X69144D02*
X69209Y51020D01*
X69340D01*
X69406Y51086D01*
Y51348D01*
X69340Y51414D01*
X69209D01*
X69144Y51348D01*
Y51282D01*
X69209Y51217D01*
X69406D01*
X54324Y59011D02*
X54259Y59077D01*
X54128D01*
X54062Y59011D01*
Y58749D01*
X54128Y58683D01*
X54259D01*
X54324Y58749D01*
X54456Y59011D02*
X54521Y59077D01*
X54652D01*
X54718Y59011D01*
Y58946D01*
X54652Y58880D01*
X54718Y58814D01*
Y58749D01*
X54652Y58683D01*
X54521D01*
X54456Y58749D01*
Y58814D01*
X54521Y58880D01*
X54456Y58946D01*
Y59011D01*
X54521Y58880D02*
X54652D01*
X59354Y54291D02*
X59289Y54357D01*
X59158D01*
X59092Y54291D01*
Y54029D01*
X59158Y53963D01*
X59289D01*
X59354Y54029D01*
X59486Y54357D02*
X59748D01*
Y54291D01*
X59486Y54029D01*
Y53963D01*
X61561Y46856D02*
X61627Y46921D01*
Y47052D01*
X61561Y47118D01*
X61299D01*
X61233Y47052D01*
Y46921D01*
X61299Y46856D01*
X61627Y46462D02*
X61561Y46593D01*
X61430Y46724D01*
X61299D01*
X61233Y46659D01*
Y46528D01*
X61299Y46462D01*
X61364D01*
X61430Y46528D01*
Y46724D01*
X55694Y48501D02*
X55629Y48567D01*
X55498D01*
X55432Y48501D01*
Y48239D01*
X55498Y48173D01*
X55629D01*
X55694Y48239D01*
X56088Y48567D02*
X55826D01*
Y48370D01*
X55957Y48436D01*
X56022D01*
X56088Y48370D01*
Y48239D01*
X56022Y48173D01*
X55891D01*
X55826Y48239D01*
X54618Y48501D02*
X54552Y48567D01*
X54421D01*
X54356Y48501D01*
Y48239D01*
X54421Y48173D01*
X54552D01*
X54618Y48239D01*
X54946Y48173D02*
Y48567D01*
X54749Y48370D01*
X55012D01*
X53542Y48501D02*
X53476Y48567D01*
X53345D01*
X53279Y48501D01*
Y48239D01*
X53345Y48173D01*
X53476D01*
X53542Y48239D01*
X53673Y48501D02*
X53738Y48567D01*
X53870D01*
X53935Y48501D01*
Y48436D01*
X53870Y48370D01*
X53804D01*
X53870D01*
X53935Y48304D01*
Y48239D01*
X53870Y48173D01*
X53738D01*
X53673Y48239D01*
X56734Y45091D02*
X56669Y45157D01*
X56538D01*
X56472Y45091D01*
Y44829D01*
X56538Y44763D01*
X56669D01*
X56734Y44829D01*
X57128Y44763D02*
X56866D01*
X57128Y45026D01*
Y45091D01*
X57062Y45157D01*
X56931D01*
X56866Y45091D01*
X59560Y45131D02*
X59494Y45197D01*
X59363D01*
X59298Y45131D01*
Y44869D01*
X59363Y44803D01*
X59494D01*
X59560Y44869D01*
X59691Y44803D02*
X59822D01*
X59757D01*
Y45197D01*
X59691Y45131D01*
X58163Y47512D02*
X58426D01*
X58557Y47380D01*
X58426Y47249D01*
X58163D01*
X58360D01*
Y47512D01*
X58163Y47118D02*
X58557D01*
X58426Y46987D01*
X58557Y46856D01*
X58163D01*
X58491Y46462D02*
X58557Y46528D01*
Y46659D01*
X58491Y46724D01*
X58426D01*
X58360Y46659D01*
Y46528D01*
X58294Y46462D01*
X58229D01*
X58163Y46528D01*
Y46659D01*
X58229Y46724D01*
X58163Y46068D02*
Y46331D01*
X58426Y46068D01*
X58491D01*
X58557Y46134D01*
Y46265D01*
X58491Y46331D01*
X53007Y44454D02*
X52744D01*
X52613Y44585D01*
X52744Y44716D01*
X53007D01*
X52810D01*
Y44454D01*
X53007Y44848D02*
X52613D01*
X52744Y44979D01*
X52613Y45110D01*
X53007D01*
X52679Y45504D02*
X52613Y45438D01*
Y45307D01*
X52679Y45241D01*
X52744D01*
X52810Y45307D01*
Y45438D01*
X52876Y45504D01*
X52941D01*
X53007Y45438D01*
Y45307D01*
X52941Y45241D01*
X53007Y45635D02*
Y45766D01*
Y45700D01*
X52613D01*
X52679Y45635D01*
D19*
X53926Y57860D02*
X54106D01*
X53926Y58400D02*
X54106D01*
X55194Y49372D02*
Y49552D01*
X54654Y49372D02*
Y49552D01*
X59518Y49724D02*
X59698D01*
X59518Y49184D02*
X59698D01*
X55224Y51152D02*
Y51332D01*
X54684Y51152D02*
Y51332D01*
X53891Y47193D02*
Y47373D01*
X53351Y47193D02*
Y47373D01*
X54926Y47193D02*
Y47373D01*
X54386Y47193D02*
Y47373D01*
X55961Y47193D02*
Y47373D01*
X55421Y47193D02*
Y47373D01*
X67436Y50057D02*
X67616D01*
X67436Y50597D02*
X67616D01*
X69292Y50060D02*
X69472D01*
X69292Y50600D02*
X69472D01*
X65578Y50603D02*
X65758D01*
X65578Y50063D02*
X65758D01*
X73571Y47851D02*
Y48031D01*
X74111Y47851D02*
Y48031D01*
X73924Y50442D02*
Y50622D01*
X74464Y50442D02*
Y50622D01*
X61328Y47814D02*
X61508D01*
X61328Y48354D02*
X61508D01*
X61338Y51093D02*
X61518D01*
X61338Y51632D02*
X61518D01*
X61338Y55464D02*
X61518D01*
X61338Y56004D02*
X61518D01*
X61338Y50000D02*
X61518D01*
X61338Y50540D02*
X61518D01*
X61338Y53278D02*
X61518D01*
X61338Y53818D02*
X61518D01*
X51866Y47208D02*
Y47388D01*
X51326Y47208D02*
Y47388D01*
X50290Y40070D02*
Y43370D01*
X55740Y40070D02*
Y43370D01*
X50290D02*
X55740D01*
X50290Y40070D02*
X55740D01*
X50990D02*
Y43370D01*
X72882Y47848D02*
Y48028D01*
X72342Y47848D02*
Y48028D01*
X71659Y47848D02*
Y48028D01*
X71119Y47848D02*
Y48028D01*
X74791Y47852D02*
Y48032D01*
X75331Y47852D02*
Y48032D01*
X59759Y55388D02*
Y55568D01*
X59219Y55388D02*
Y55568D01*
X60321Y46722D02*
Y46902D01*
X60861Y46722D02*
Y46902D01*
D20*
X59172Y50000D02*
Y50050D01*
Y50000D02*
X60072D01*
Y50050D01*
X59172Y50650D02*
Y50700D01*
X60072D01*
Y50650D02*
Y50700D01*
X60992Y52082D02*
Y52132D01*
Y52082D02*
X61892D01*
Y52132D01*
X60992Y52732D02*
Y52782D01*
X61892D01*
Y52732D02*
Y52782D01*
Y49453D02*
Y49503D01*
X60992D02*
X61892D01*
X60992Y49453D02*
Y49503D01*
X61892Y48803D02*
Y48853D01*
X60992Y48803D02*
X61892D01*
X60992D02*
Y48853D01*
X52866Y46842D02*
X52916D01*
Y47742D01*
X52866D02*
X52916D01*
X52216Y46842D02*
X52266D01*
X52216D02*
Y47742D01*
X52266D01*
X61892Y54918D02*
Y54968D01*
X60992D02*
X61892D01*
X60992Y54918D02*
Y54968D01*
X61892Y54268D02*
Y54318D01*
X60992Y54268D02*
X61892D01*
X60992D02*
Y54318D01*
D21*
X51088Y55305D02*
X51590D01*
X51088Y52205D02*
Y55305D01*
Y52205D02*
X51590D01*
X53238D02*
Y53005D01*
X52540Y52205D02*
X53238D01*
X53248Y54505D02*
Y55305D01*
X52540D02*
X53248D01*
D22*
X52070Y57609D02*
D03*
M02*
