G04*
G04 #@! TF.GenerationSoftware,Altium Limited,Altium Designer,21.3.2 (30)*
G04*
G04 Layer_Color=2752767*
%FSLAX24Y24*%
%MOIN*%
G70*
G04*
G04 #@! TF.SameCoordinates,59271FD7-B20C-4586-966E-2D71E4A343A8*
G04*
G04*
G04 #@! TF.FilePolarity,Positive*
G04*
G01*
G75*
%ADD61C,0.0020*%
%ADD62C,0.0027*%
D61*
X75720Y43470D02*
Y43630D01*
X75880D01*
Y43470D01*
X75720D01*
X74720D02*
Y43630D01*
X74880D01*
Y43470D01*
X74720D01*
X73720D02*
Y43630D01*
X73880D01*
Y43470D01*
X73720D01*
X72720D02*
Y43630D01*
X72880D01*
Y43470D01*
X72720D01*
X71720D02*
Y43630D01*
X71880D01*
Y43470D01*
X71720D01*
X70720D02*
Y43630D01*
X70880D01*
Y43470D01*
X70720D01*
X69720D02*
Y43630D01*
X69880D01*
Y43470D01*
X69720D01*
X68720D02*
Y43630D01*
X68880D01*
Y43470D01*
X68720D01*
X67720D02*
Y43630D01*
X67880D01*
Y43470D01*
X67720D01*
X66720D02*
Y43630D01*
X66880D01*
Y43470D01*
X66720D01*
X65720D02*
Y43630D01*
X65880D01*
Y43470D01*
X65720D01*
X64720D02*
Y43630D01*
X64880D01*
Y43470D01*
X64720D01*
X63720D02*
Y43630D01*
X63880D01*
Y43470D01*
X63720D01*
X62720D02*
Y43630D01*
X62880D01*
Y43470D01*
X62720D01*
Y46570D02*
Y46730D01*
X62880D01*
Y46570D01*
X62720D01*
X63720D02*
Y46730D01*
X63880D01*
Y46570D01*
X63720D01*
X64720D02*
Y46730D01*
X64880D01*
Y46570D01*
X64720D01*
X65720D02*
Y46730D01*
X65880D01*
Y46570D01*
X65720D01*
X66720D02*
Y46730D01*
X66880D01*
Y46570D01*
X66720D01*
X67720D02*
Y46730D01*
X67880D01*
Y46570D01*
X67720D01*
X68720D02*
Y46730D01*
X68880D01*
Y46570D01*
X68720D01*
X69720D02*
Y46730D01*
X69880D01*
Y46570D01*
X69720D01*
X70720D02*
Y46730D01*
X70880D01*
Y46570D01*
X70720D01*
X71720D02*
Y46730D01*
X71880D01*
Y46570D01*
X71720D01*
X72720D02*
Y46730D01*
X72880D01*
Y46570D01*
X72720D01*
X73720D02*
Y46730D01*
X73880D01*
Y46570D01*
X73720D01*
X74720D02*
Y46730D01*
X74880D01*
Y46570D01*
X74720D01*
X75720D02*
Y46730D01*
X75880D01*
Y46570D01*
X75720D01*
X71050Y39520D02*
X70970Y39680D01*
X71130D01*
X71050Y39520D01*
X72050D02*
X71970Y39680D01*
X72130D01*
X72050Y39520D01*
X73050D02*
X72970Y39680D01*
X73130D01*
X73050Y39520D01*
X74050D02*
X73970Y39680D01*
X74130D01*
X74050Y39520D01*
X75050D02*
X74970Y39680D01*
X75130D01*
X75050Y39520D01*
X76050D02*
X75970Y39680D01*
X76130D01*
X76050Y39520D01*
X69050D02*
X68970Y39680D01*
X69130D01*
X69050Y39520D01*
X68050D02*
X67970Y39680D01*
X68130D01*
X68050Y39520D01*
X67050D02*
X66970Y39680D01*
X67130D01*
X67050Y39520D01*
X66050D02*
X65970Y39680D01*
X66130D01*
X66050Y39520D01*
X65050D02*
X64970Y39680D01*
X65130D01*
X65050Y39520D01*
X64050D02*
X63970Y39680D01*
X64130D01*
X64050Y39520D01*
X63050D02*
X62970Y39680D01*
X63130D01*
X63050Y39520D01*
X62050D02*
X61970Y39680D01*
X62130D01*
X62050Y39520D01*
X69050Y58520D02*
X68970Y58680D01*
X69130D01*
X69050Y58520D01*
X70050D02*
X69970Y58680D01*
X70130D01*
X70050Y58520D01*
X71050D02*
X70970Y58680D01*
X71130D01*
X71050Y58520D01*
X72050D02*
X71970Y58680D01*
X72130D01*
X72050Y58520D01*
X73050D02*
X72970Y58680D01*
X73130D01*
X73050Y58520D01*
X74050D02*
X73970Y58680D01*
X74130D01*
X74050Y58520D01*
X75050D02*
X74970Y58680D01*
X75130D01*
X75050Y58520D01*
X76050D02*
X75970Y58680D01*
X76130D01*
X76050Y58520D01*
X65450D02*
X65370Y58680D01*
X65530D01*
X65450Y58520D01*
X58450D02*
X58370Y58680D01*
X58530D01*
X58450Y58520D01*
X59450D02*
X59370Y58680D01*
X59530D01*
X59450Y58520D01*
X60450D02*
X60370Y58680D01*
X60530D01*
X60450Y58520D01*
X61450D02*
X61370Y58680D01*
X61530D01*
X61450Y58520D01*
X62450D02*
X62370Y58680D01*
X62530D01*
X62450Y58520D01*
X63450D02*
X63370Y58680D01*
X63530D01*
X63450Y58520D01*
X64450D02*
X64370Y58680D01*
X64530D01*
X64450Y58520D01*
X66450D02*
X66370Y58680D01*
X66530D01*
X66450Y58520D01*
X67450D02*
X67370Y58680D01*
X67530D01*
X67450Y58520D01*
X55790Y41790D02*
X55830Y41830D01*
X55870D01*
X55830Y41870D01*
X55870Y41910D01*
X55830D01*
X55790Y41950D01*
X55750Y41910D01*
X55710D01*
X55750Y41870D01*
X55710Y41830D01*
X55750D01*
X55790Y41790D01*
X53290D02*
X53330Y41830D01*
X53370D01*
X53330Y41870D01*
X53370Y41910D01*
X53330D01*
X53290Y41950D01*
X53250Y41910D01*
X53210D01*
X53250Y41870D01*
X53210Y41830D01*
X53250D01*
X53290Y41790D01*
X54790Y39790D02*
X54830Y39830D01*
X54870D01*
X54830Y39870D01*
X54870Y39910D01*
X54830D01*
X54790Y39950D01*
X54750Y39910D01*
X54710D01*
X54750Y39870D01*
X54710Y39830D01*
X54750D01*
X54790Y39790D01*
X76970Y52520D02*
X77010Y52600D01*
X76970Y52680D01*
X77050Y52640D01*
X77130Y52680D01*
X77090Y52600D01*
X77130Y52520D01*
X77050Y52560D01*
X76970Y52520D01*
Y41520D02*
X77010Y41600D01*
X76970Y41680D01*
X77050Y41640D01*
X77130Y41680D01*
X77090Y41600D01*
X77130Y41520D01*
X77050Y41560D01*
X76970Y41520D01*
X56470Y39520D02*
X56510Y39600D01*
X56470Y39680D01*
X56550Y39640D01*
X56630Y39680D01*
X56590Y39600D01*
X56630Y39520D01*
X56550Y39560D01*
X56470Y39520D01*
X56970Y58520D02*
X57010Y58600D01*
X56970Y58680D01*
X57050Y58640D01*
X57130Y58680D01*
X57090Y58600D01*
X57130Y58520D01*
X57050Y58560D01*
X56970Y58520D01*
X55460Y57820D02*
Y57780D01*
X55540D01*
Y57820D01*
X55580D01*
Y57900D01*
X55540D01*
Y57940D01*
X55460D01*
Y57900D01*
X55420D01*
Y57820D01*
X55460D01*
X58150Y48560D02*
Y48520D01*
X58230D01*
Y48560D01*
X58270D01*
Y48640D01*
X58230D01*
Y48680D01*
X58150D01*
Y48640D01*
X58110D01*
Y48560D01*
X58150D01*
X62420Y51820D02*
Y51780D01*
X62500D01*
Y51820D01*
X62540D01*
Y51900D01*
X62500D01*
Y51940D01*
X62420D01*
Y51900D01*
X62380D01*
Y51820D01*
X62420D01*
X60250Y54640D02*
Y54600D01*
X60330D01*
Y54640D01*
X60370D01*
Y54720D01*
X60330D01*
Y54760D01*
X60250D01*
Y54720D01*
X60210D01*
Y54640D01*
X60250D01*
X55190Y43930D02*
Y43890D01*
X55270D01*
Y43930D01*
X55310D01*
Y44010D01*
X55270D01*
Y44050D01*
X55190D01*
Y44010D01*
X55150D01*
Y43930D01*
X55190D01*
X57860Y51670D02*
Y51630D01*
X57940D01*
Y51670D01*
X57980D01*
Y51750D01*
X57940D01*
Y51790D01*
X57860D01*
Y51750D01*
X57820D01*
Y51670D01*
X57860D01*
X58434Y52210D02*
Y52170D01*
X58514D01*
Y52210D01*
X58554D01*
Y52290D01*
X58514D01*
Y52330D01*
X58434D01*
Y52290D01*
X58394D01*
Y52210D01*
X58434D01*
X58290Y51110D02*
Y51070D01*
X58370D01*
Y51110D01*
X58410D01*
Y51190D01*
X58370D01*
Y51230D01*
X58290D01*
Y51190D01*
X58250D01*
Y51110D01*
X58290D01*
X60130Y51610D02*
Y51570D01*
X60210D01*
Y51610D01*
X60250D01*
Y51690D01*
X60210D01*
Y51730D01*
X60130D01*
Y51690D01*
X60090D01*
Y51610D01*
X60130D01*
X59940Y53610D02*
Y53570D01*
X60020D01*
Y53610D01*
X60060D01*
Y53690D01*
X60020D01*
Y53730D01*
X59940D01*
Y53690D01*
X59900D01*
Y53610D01*
X59940D01*
X74600Y45590D02*
Y45550D01*
X74680D01*
Y45590D01*
X74720D01*
Y45670D01*
X74680D01*
Y45710D01*
X74600D01*
Y45670D01*
X74560D01*
Y45590D01*
X74600D01*
X62097Y46007D02*
Y45967D01*
X62177D01*
Y46007D01*
X62217D01*
Y46087D01*
X62177D01*
Y46127D01*
X62097D01*
Y46087D01*
X62057D01*
Y46007D01*
X62097D01*
X66290Y45340D02*
Y45300D01*
X66370D01*
Y45340D01*
X66410D01*
Y45420D01*
X66370D01*
Y45460D01*
X66290D01*
Y45420D01*
X66250D01*
Y45340D01*
X66290D01*
X64440Y44890D02*
Y44850D01*
X64520D01*
Y44890D01*
X64560D01*
Y44970D01*
X64520D01*
Y45010D01*
X64440D01*
Y44970D01*
X64400D01*
Y44890D01*
X64440D01*
X65750Y44430D02*
Y44390D01*
X65830D01*
Y44430D01*
X65870D01*
Y44510D01*
X65830D01*
Y44550D01*
X65750D01*
Y44510D01*
X65710D01*
Y44430D01*
X65750D01*
X71130Y49300D02*
X71170D01*
X71210Y49340D01*
X71250Y49300D01*
X71290D01*
Y49340D01*
X71250Y49380D01*
X71290Y49420D01*
Y49460D01*
X71250D01*
X71210Y49420D01*
X71170Y49460D01*
X71130D01*
Y49420D01*
X71170Y49380D01*
X71130Y49340D01*
Y49300D01*
X72245Y46075D02*
Y46035D01*
X72325D01*
Y46075D01*
X72365D01*
Y46155D01*
X72325D01*
Y46195D01*
X72245D01*
Y46155D01*
X72205D01*
Y46075D01*
X72245D01*
X73240Y46100D02*
Y46060D01*
X73320D01*
Y46100D01*
X73360D01*
Y46180D01*
X73320D01*
Y46220D01*
X73240D01*
Y46180D01*
X73200D01*
Y46100D01*
X73240D01*
X62740Y56190D02*
Y56150D01*
X62820D01*
Y56190D01*
X62860D01*
Y56270D01*
X62820D01*
Y56310D01*
X62740D01*
Y56270D01*
X62700D01*
Y56190D01*
X62740D01*
X62860Y54130D02*
Y54090D01*
X62940D01*
Y54130D01*
X62980D01*
Y54210D01*
X62940D01*
Y54250D01*
X62860D01*
Y54210D01*
X62820D01*
Y54130D01*
X62860D01*
X53470Y52810D02*
X53510D01*
X53550Y52850D01*
X53590Y52810D01*
X53630D01*
Y52850D01*
X53590Y52890D01*
X53630Y52930D01*
Y52970D01*
X53590D01*
X53550Y52930D01*
X53510Y52970D01*
X53470D01*
Y52930D01*
X53510Y52890D01*
X53470Y52850D01*
Y52810D01*
X53157Y57313D02*
Y57273D01*
X53237D01*
Y57313D01*
X53277D01*
Y57393D01*
X53237D01*
Y57433D01*
X53157D01*
Y57393D01*
X53117D01*
Y57313D01*
X53157D01*
X73210Y55710D02*
Y55670D01*
X73290D01*
Y55710D01*
X73330D01*
Y55790D01*
X73290D01*
Y55830D01*
X73210D01*
Y55790D01*
X73170D01*
Y55710D01*
X73210D01*
X72250Y56290D02*
Y56250D01*
X72330D01*
Y56290D01*
X72370D01*
Y56370D01*
X72330D01*
Y56410D01*
X72250D01*
Y56370D01*
X72210D01*
Y56290D01*
X72250D01*
X61014Y56514D02*
Y56474D01*
X61094D01*
Y56514D01*
X61134D01*
Y56594D01*
X61094D01*
Y56634D01*
X61014D01*
Y56594D01*
X60974D01*
Y56514D01*
X61014D01*
X65300Y56110D02*
Y56070D01*
X65380D01*
Y56110D01*
X65420D01*
Y56190D01*
X65380D01*
Y56230D01*
X65300D01*
Y56190D01*
X65260D01*
Y56110D01*
X65300D01*
X59449Y56599D02*
Y56559D01*
X59529D01*
Y56599D01*
X59569D01*
Y56679D01*
X59529D01*
Y56719D01*
X59449D01*
Y56679D01*
X59409D01*
Y56599D01*
X59449D01*
X74217Y49331D02*
Y49292D01*
X74297D01*
Y49331D01*
X74337D01*
Y49412D01*
X74297D01*
Y49451D01*
X74217D01*
Y49412D01*
X74177D01*
Y49331D01*
X74217D01*
X74220Y54780D02*
Y54740D01*
X74300D01*
Y54780D01*
X74340D01*
Y54860D01*
X74300D01*
Y54900D01*
X74220D01*
Y54860D01*
X74180D01*
Y54780D01*
X74220D01*
X66350Y55260D02*
Y55220D01*
X66430D01*
Y55260D01*
X66470D01*
Y55340D01*
X66430D01*
Y55380D01*
X66350D01*
Y55340D01*
X66310D01*
Y55260D01*
X66350D01*
X60180Y48390D02*
Y48350D01*
X60260D01*
Y48390D01*
X60300D01*
Y48470D01*
X60260D01*
Y48510D01*
X60180D01*
Y48470D01*
X60140D01*
Y48390D01*
X60180D01*
X57489Y55329D02*
Y55289D01*
X57569D01*
Y55329D01*
X57609D01*
Y55409D01*
X57569D01*
Y55449D01*
X57489D01*
Y55409D01*
X57449D01*
Y55329D01*
X57489D01*
X58200Y55390D02*
Y55350D01*
X58280D01*
Y55390D01*
X58320D01*
Y55470D01*
X58280D01*
Y55510D01*
X58200D01*
Y55470D01*
X58160D01*
Y55390D01*
X58200D01*
X53092Y58948D02*
Y58908D01*
X53172D01*
Y58948D01*
X53212D01*
Y59028D01*
X53172D01*
Y59068D01*
X53092D01*
Y59028D01*
X53052D01*
Y58948D01*
X53092D01*
X51973Y46077D02*
Y46037D01*
X52053D01*
Y46077D01*
X52093D01*
Y46157D01*
X52053D01*
Y46197D01*
X51973D01*
Y46157D01*
X51933D01*
Y46077D01*
X51973D01*
X53245Y50000D02*
Y49960D01*
X53325D01*
Y50000D01*
X53365D01*
Y50080D01*
X53325D01*
Y50120D01*
X53245D01*
Y50080D01*
X53205D01*
Y50000D01*
X53245D01*
X53970Y49070D02*
Y49030D01*
X54050D01*
Y49070D01*
X54090D01*
Y49150D01*
X54050D01*
Y49190D01*
X53970D01*
Y49150D01*
X53930D01*
Y49070D01*
X53970D01*
X53060Y48520D02*
Y48480D01*
X53140D01*
Y48520D01*
X53180D01*
Y48600D01*
X53140D01*
Y48640D01*
X53060D01*
Y48600D01*
X53020D01*
Y48520D01*
X53060D01*
X56852Y49589D02*
Y49549D01*
X56932D01*
Y49589D01*
X56972D01*
Y49669D01*
X56932D01*
Y49709D01*
X56852D01*
Y49669D01*
X56812D01*
Y49589D01*
X56852D01*
X58250Y46790D02*
Y46750D01*
X58330D01*
Y46790D01*
X58370D01*
Y46870D01*
X58330D01*
Y46910D01*
X58250D01*
Y46870D01*
X58210D01*
Y46790D01*
X58250D01*
X64560Y41440D02*
Y41400D01*
X64640D01*
Y41440D01*
X64680D01*
Y41520D01*
X64640D01*
Y41560D01*
X64560D01*
Y41520D01*
X64520D01*
Y41440D01*
X64560D01*
X61580Y42370D02*
Y42330D01*
X61660D01*
Y42370D01*
X61700D01*
Y42450D01*
X61660D01*
Y42490D01*
X61580D01*
Y42450D01*
X61540D01*
Y42370D01*
X61580D01*
X64330Y42530D02*
Y42490D01*
X64410D01*
Y42530D01*
X64450D01*
Y42610D01*
X64410D01*
Y42650D01*
X64330D01*
Y42610D01*
X64290D01*
Y42530D01*
X64330D01*
X76980Y45880D02*
Y45840D01*
X77060D01*
Y45880D01*
X77100D01*
Y45960D01*
X77060D01*
Y46000D01*
X76980D01*
Y45960D01*
X76940D01*
Y45880D01*
X76980D01*
X64300Y55490D02*
Y55450D01*
X64380D01*
Y55490D01*
X64420D01*
Y55570D01*
X64380D01*
Y55610D01*
X64300D01*
Y55570D01*
X64260D01*
Y55490D01*
X64300D01*
D62*
X57700Y52600D02*
G03*
X57700Y52600I-80J0D01*
G01*
X56700D02*
G03*
X56700Y52600I-80J0D01*
G01*
X55700D02*
G03*
X55700Y52600I-80J0D01*
G01*
X54700D02*
G03*
X54700Y52600I-80J0D01*
G01*
X77180Y50600D02*
G03*
X77180Y50600I-80J0D01*
G01*
Y49600D02*
G03*
X77180Y49600I-80J0D01*
G01*
Y48600D02*
G03*
X77180Y48600I-80J0D01*
G01*
X76180Y50600D02*
G03*
X76180Y50600I-80J0D01*
G01*
Y49600D02*
G03*
X76180Y49600I-80J0D01*
G01*
Y48600D02*
G03*
X76180Y48600I-80J0D01*
G01*
M02*
