G04*
G04 #@! TF.GenerationSoftware,Altium Limited,Altium Designer,21.3.2 (30)*
G04*
G04 Layer_Color=32768*
%FSLAX24Y24*%
%MOIN*%
G70*
G04*
G04 #@! TF.SameCoordinates,59271FD7-B20C-4586-966E-2D71E4A343A8*
G04*
G04*
G04 #@! TF.FilePolarity,Positive*
G04*
G01*
G75*
%ADD16C,0.0050*%
%ADD57C,0.0039*%
%ADD58C,0.0020*%
%ADD60C,0.0200*%
%ADD61C,0.0020*%
D16*
X64620Y49610D02*
X70320D01*
Y47610D02*
Y49610D01*
X64620Y47610D02*
X70320D01*
X64620D02*
Y49610D01*
D57*
X56903Y49890D02*
X57297D01*
X57100Y49693D02*
Y50087D01*
X52842Y44823D02*
Y45217D01*
X52645Y45020D02*
X53039D01*
X51129Y46437D02*
X54554D01*
X51129Y43603D02*
X54554D01*
X51129D02*
Y46437D01*
X54554Y43603D02*
Y46437D01*
X58880Y39933D02*
Y40327D01*
X58683Y40130D02*
X59077D01*
X56657Y45413D02*
Y48247D01*
X60083Y45413D02*
Y48247D01*
X56657D02*
X60083D01*
X56657Y45413D02*
X60083D01*
X58173Y46830D02*
X58567D01*
X58370Y46633D02*
Y47027D01*
D58*
X76225Y43206D02*
Y46994D01*
X62375Y43206D02*
X76225D01*
X62375D02*
Y46994D01*
X76225D01*
X55550Y48768D02*
Y51012D01*
X58650Y48768D02*
Y51012D01*
X55550D02*
X58650D01*
X55550Y48768D02*
X58650D01*
X57480Y39441D02*
X60280D01*
X57480Y40819D02*
X60280D01*
Y39441D02*
Y40819D01*
X57480Y39441D02*
Y40819D01*
D60*
X67470Y48610D02*
D03*
D61*
X51064Y50496D02*
X52783D01*
X51064Y48904D02*
X52783D01*
Y50496D01*
X51064Y48904D02*
Y50496D01*
M02*
