G04*
G04 #@! TF.GenerationSoftware,Altium Limited,Altium Designer,21.3.2 (30)*
G04*
G04 Layer_Physical_Order=2*
G04 Layer_Color=16711680*
%FSLAX24Y24*%
%MOIN*%
G70*
G04*
G04 #@! TF.SameCoordinates,59271FD7-B20C-4586-966E-2D71E4A343A8*
G04*
G04*
G04 #@! TF.FilePolarity,Positive*
G04*
G01*
G75*
%ADD14C,0.0200*%
%ADD43C,0.0489*%
%ADD44R,0.0489X0.0489*%
%ADD45R,0.0630X0.0630*%
%ADD46C,0.0630*%
%ADD47R,0.0598X0.0598*%
%ADD48C,0.0598*%
%ADD49R,0.0630X0.0630*%
%ADD50R,0.1000X0.1600*%
%ADD51R,0.1600X0.1000*%
%ADD52C,0.1260*%
%ADD53C,0.0400*%
%ADD54C,0.0120*%
%ADD55C,0.0500*%
%ADD56C,0.0300*%
G36*
X56762Y59336D02*
X56676Y59300D01*
X56546Y59214D01*
X56436Y59104D01*
X56350Y58974D01*
X56290Y58830D01*
X56260Y58678D01*
Y58619D01*
X56214Y58600D01*
X55569Y59245D01*
X55494Y59302D01*
X55406Y59339D01*
X55417Y59386D01*
X56752D01*
X56762Y59336D01*
D02*
G37*
G36*
X76035Y58302D02*
X76019Y58313D01*
X76001Y58319D01*
X75980D01*
X75956Y58313D01*
X75929Y58302D01*
X75899Y58285D01*
X75867Y58262D01*
X75831Y58234D01*
X75752Y58161D01*
X75611Y58302D01*
X75650Y58343D01*
X75712Y58417D01*
X75735Y58449D01*
X75752Y58479D01*
X75763Y58506D01*
X75769Y58530D01*
Y58551D01*
X75763Y58569D01*
X75752Y58585D01*
X76035Y58302D01*
D02*
G37*
G36*
X75189Y58110D02*
X74615Y57535D01*
X74573Y57481D01*
X74547Y57418D01*
X74538Y57350D01*
X74538Y57350D01*
Y55190D01*
X74488Y55162D01*
X74418Y55202D01*
X74314Y55230D01*
X74206D01*
X74112Y55205D01*
X74062Y55230D01*
Y57241D01*
X74968Y58147D01*
X74990Y58141D01*
X75110D01*
X75163Y58155D01*
X75189Y58110D01*
D02*
G37*
G36*
X74189D02*
X73615Y57535D01*
X73573Y57481D01*
X73547Y57418D01*
X73538Y57350D01*
X73538Y57350D01*
Y56107D01*
X73488Y56086D01*
X73408Y56132D01*
X73304Y56160D01*
X73196D01*
X73112Y56138D01*
X73062Y56168D01*
Y57241D01*
X73968Y58147D01*
X73990Y58141D01*
X74110D01*
X74163Y58155D01*
X74189Y58110D01*
D02*
G37*
G36*
X73189D02*
X72615Y57535D01*
X72573Y57481D01*
X72547Y57418D01*
X72538Y57350D01*
X72538Y57350D01*
Y56710D01*
X72494Y56685D01*
X72448Y56712D01*
X72344Y56740D01*
X72236D01*
X72132Y56712D01*
X72106Y56697D01*
X72062Y56722D01*
Y57241D01*
X72968Y58147D01*
X72990Y58141D01*
X73110D01*
X73163Y58155D01*
X73189Y58110D01*
D02*
G37*
G36*
X72189D02*
X71615Y57535D01*
X71573Y57481D01*
X71547Y57418D01*
X71538Y57350D01*
X71538Y57350D01*
Y46960D01*
X71476Y46898D01*
X71423Y46806D01*
X71395Y46703D01*
Y46597D01*
X71423Y46494D01*
X71476Y46402D01*
X71552Y46326D01*
X71644Y46273D01*
X71747Y46245D01*
X71844D01*
X71886Y46209D01*
X71875Y46169D01*
Y46061D01*
X71897Y45977D01*
X71867Y45927D01*
X70896D01*
X70658Y46165D01*
X70603Y46207D01*
X70540Y46233D01*
X70472Y46242D01*
X70472Y46242D01*
X70003D01*
X69990Y46292D01*
X70048Y46326D01*
X70124Y46402D01*
X70177Y46494D01*
X70205Y46597D01*
Y46703D01*
X70177Y46806D01*
X70124Y46898D01*
X70048Y46974D01*
X69956Y47027D01*
X69853Y47055D01*
X69747D01*
X69644Y47027D01*
X69552Y46974D01*
X69476Y46898D01*
X69423Y46806D01*
X69395Y46703D01*
Y46597D01*
X69423Y46494D01*
X69476Y46402D01*
X69552Y46326D01*
X69610Y46292D01*
X69597Y46242D01*
X68003D01*
X67990Y46292D01*
X68048Y46326D01*
X68124Y46402D01*
X68177Y46494D01*
X68205Y46597D01*
Y46703D01*
X68177Y46806D01*
X68124Y46898D01*
X68048Y46974D01*
X67956Y47027D01*
X67853Y47055D01*
X67747D01*
X67644Y47027D01*
X67552Y46974D01*
X67476Y46898D01*
X67423Y46806D01*
X67395Y46703D01*
Y46597D01*
X67418Y46512D01*
X67389Y46462D01*
X67211D01*
X67182Y46512D01*
X67205Y46597D01*
Y46703D01*
X67177Y46806D01*
X67124Y46898D01*
X67048Y46974D01*
X66956Y47027D01*
X66853Y47055D01*
X66747D01*
X66644Y47027D01*
X66584Y46993D01*
X66554Y47033D01*
X69842Y50321D01*
X69842Y50321D01*
X69884Y50376D01*
X69910Y50439D01*
X69919Y50507D01*
X69919Y50507D01*
Y57098D01*
X70968Y58147D01*
X70990Y58141D01*
X71110D01*
X71163Y58155D01*
X71189Y58110D01*
X70615Y57535D01*
X70573Y57481D01*
X70547Y57418D01*
X70538Y57350D01*
X70538Y57350D01*
Y46960D01*
X70476Y46898D01*
X70423Y46806D01*
X70395Y46703D01*
Y46597D01*
X70423Y46494D01*
X70476Y46402D01*
X70552Y46326D01*
X70644Y46273D01*
X70747Y46245D01*
X70853D01*
X70956Y46273D01*
X71048Y46326D01*
X71124Y46402D01*
X71177Y46494D01*
X71205Y46597D01*
Y46703D01*
X71177Y46806D01*
X71124Y46898D01*
X71062Y46960D01*
Y49116D01*
X71112Y49150D01*
X71160Y49130D01*
X71260D01*
X71301Y49147D01*
X71139Y49309D01*
X71210Y49380D01*
X71139Y49451D01*
X71301Y49613D01*
X71260Y49630D01*
X71160D01*
X71112Y49610D01*
X71062Y49644D01*
Y57241D01*
X71968Y58147D01*
X71990Y58141D01*
X72110D01*
X72163Y58155D01*
X72189Y58110D01*
D02*
G37*
G36*
X70189D02*
X69471Y57392D01*
X69430Y57338D01*
X69404Y57275D01*
X69395Y57207D01*
X69395Y57207D01*
Y50616D01*
X65834Y47055D01*
X65747D01*
X65644Y47027D01*
X65584Y46993D01*
X65554Y47033D01*
X68885Y50365D01*
X68885Y50365D01*
X68927Y50419D01*
X68953Y50482D01*
X68962Y50550D01*
X68962Y50550D01*
Y57141D01*
X69968Y58147D01*
X69990Y58141D01*
X70110D01*
X70163Y58155D01*
X70189Y58110D01*
D02*
G37*
G36*
X69189D02*
X68515Y57435D01*
X68473Y57381D01*
X68447Y57318D01*
X68438Y57250D01*
X68438Y57250D01*
Y50659D01*
X64834Y47055D01*
X64747D01*
X64644Y47027D01*
X64632Y47020D01*
X64601Y47060D01*
X68275Y50735D01*
X68275Y50735D01*
X68317Y50789D01*
X68343Y50852D01*
X68352Y50920D01*
X68352Y50920D01*
Y57531D01*
X68968Y58147D01*
X68990Y58141D01*
X69110D01*
X69163Y58155D01*
X69189Y58110D01*
D02*
G37*
G36*
X63589Y58110D02*
X61813Y56334D01*
X61767Y56353D01*
Y56546D01*
X63368Y58147D01*
X63390Y58141D01*
X63510D01*
X63563Y58155D01*
X63589Y58110D01*
D02*
G37*
G36*
X62589D02*
X61367Y56887D01*
X61316Y56908D01*
Y57096D01*
X62368Y58147D01*
X62390Y58141D01*
X62510D01*
X62563Y58155D01*
X62589Y58110D01*
D02*
G37*
G36*
X75047Y58301D02*
X75016Y58299D01*
X74984Y58294D01*
X74952Y58285D01*
X74919Y58272D01*
X74886Y58256D01*
X74852Y58236D01*
X74817Y58212D01*
X74782Y58184D01*
X74746Y58153D01*
X74710Y58118D01*
X74568Y58260D01*
X74603Y58296D01*
X74662Y58367D01*
X74686Y58402D01*
X74706Y58436D01*
X74722Y58469D01*
X74735Y58502D01*
X74744Y58534D01*
X74749Y58566D01*
X74751Y58597D01*
X75047Y58301D01*
D02*
G37*
G36*
X74047D02*
X74016Y58299D01*
X73984Y58294D01*
X73952Y58285D01*
X73919Y58272D01*
X73886Y58256D01*
X73852Y58236D01*
X73817Y58212D01*
X73782Y58184D01*
X73746Y58153D01*
X73710Y58118D01*
X73568Y58260D01*
X73603Y58296D01*
X73662Y58367D01*
X73686Y58402D01*
X73706Y58436D01*
X73722Y58469D01*
X73735Y58502D01*
X73744Y58534D01*
X73749Y58566D01*
X73751Y58597D01*
X74047Y58301D01*
D02*
G37*
G36*
X73047D02*
X73016Y58299D01*
X72984Y58294D01*
X72952Y58285D01*
X72919Y58272D01*
X72886Y58256D01*
X72852Y58236D01*
X72817Y58212D01*
X72782Y58184D01*
X72746Y58153D01*
X72710Y58118D01*
X72568Y58260D01*
X72603Y58296D01*
X72662Y58367D01*
X72686Y58402D01*
X72706Y58436D01*
X72722Y58469D01*
X72735Y58502D01*
X72744Y58534D01*
X72749Y58566D01*
X72751Y58597D01*
X73047Y58301D01*
D02*
G37*
G36*
X72047D02*
X72016Y58299D01*
X71984Y58294D01*
X71952Y58285D01*
X71919Y58272D01*
X71886Y58256D01*
X71852Y58236D01*
X71817Y58212D01*
X71782Y58184D01*
X71746Y58153D01*
X71710Y58118D01*
X71568Y58260D01*
X71603Y58296D01*
X71662Y58367D01*
X71686Y58402D01*
X71706Y58436D01*
X71722Y58469D01*
X71735Y58502D01*
X71744Y58534D01*
X71749Y58566D01*
X71751Y58597D01*
X72047Y58301D01*
D02*
G37*
G36*
X71047D02*
X71016Y58299D01*
X70984Y58294D01*
X70952Y58285D01*
X70919Y58272D01*
X70886Y58256D01*
X70852Y58236D01*
X70817Y58212D01*
X70782Y58184D01*
X70746Y58153D01*
X70710Y58118D01*
X70568Y58260D01*
X70603Y58296D01*
X70662Y58367D01*
X70686Y58402D01*
X70706Y58436D01*
X70722Y58469D01*
X70735Y58502D01*
X70744Y58534D01*
X70749Y58566D01*
X70751Y58597D01*
X71047Y58301D01*
D02*
G37*
G36*
X70047D02*
X70016Y58299D01*
X69984Y58294D01*
X69952Y58285D01*
X69919Y58272D01*
X69886Y58256D01*
X69852Y58236D01*
X69817Y58212D01*
X69782Y58184D01*
X69746Y58153D01*
X69710Y58118D01*
X69568Y58260D01*
X69603Y58296D01*
X69662Y58367D01*
X69686Y58402D01*
X69706Y58436D01*
X69722Y58469D01*
X69735Y58502D01*
X69744Y58534D01*
X69749Y58566D01*
X69751Y58597D01*
X70047Y58301D01*
D02*
G37*
G36*
X69047D02*
X69016Y58299D01*
X68984Y58294D01*
X68952Y58285D01*
X68919Y58272D01*
X68886Y58256D01*
X68852Y58236D01*
X68817Y58212D01*
X68782Y58184D01*
X68746Y58153D01*
X68710Y58118D01*
X68568Y58260D01*
X68603Y58296D01*
X68662Y58367D01*
X68686Y58402D01*
X68706Y58436D01*
X68722Y58469D01*
X68735Y58502D01*
X68744Y58534D01*
X68749Y58566D01*
X68751Y58597D01*
X69047Y58301D01*
D02*
G37*
G36*
X65447D02*
X65416Y58299D01*
X65384Y58294D01*
X65352Y58285D01*
X65319Y58272D01*
X65286Y58256D01*
X65252Y58236D01*
X65217Y58212D01*
X65182Y58184D01*
X65146Y58153D01*
X65110Y58118D01*
X64968Y58260D01*
X65003Y58296D01*
X65062Y58367D01*
X65086Y58402D01*
X65106Y58436D01*
X65122Y58469D01*
X65135Y58502D01*
X65144Y58534D01*
X65149Y58566D01*
X65151Y58597D01*
X65447Y58301D01*
D02*
G37*
G36*
X64447D02*
X64416Y58299D01*
X64384Y58294D01*
X64352Y58285D01*
X64319Y58272D01*
X64286Y58256D01*
X64252Y58236D01*
X64217Y58212D01*
X64182Y58184D01*
X64146Y58153D01*
X64110Y58118D01*
X63968Y58260D01*
X64003Y58296D01*
X64062Y58367D01*
X64086Y58402D01*
X64106Y58436D01*
X64122Y58469D01*
X64135Y58502D01*
X64144Y58534D01*
X64149Y58566D01*
X64151Y58597D01*
X64447Y58301D01*
D02*
G37*
G36*
X63447D02*
X63416Y58299D01*
X63384Y58294D01*
X63352Y58285D01*
X63319Y58272D01*
X63286Y58256D01*
X63252Y58236D01*
X63217Y58212D01*
X63182Y58184D01*
X63146Y58153D01*
X63110Y58118D01*
X62968Y58260D01*
X63003Y58296D01*
X63062Y58367D01*
X63086Y58402D01*
X63106Y58436D01*
X63122Y58469D01*
X63135Y58502D01*
X63144Y58534D01*
X63149Y58566D01*
X63151Y58597D01*
X63447Y58301D01*
D02*
G37*
G36*
X62447D02*
X62416Y58299D01*
X62384Y58294D01*
X62352Y58285D01*
X62319Y58272D01*
X62286Y58256D01*
X62252Y58236D01*
X62217Y58212D01*
X62182Y58184D01*
X62146Y58153D01*
X62110Y58118D01*
X61968Y58260D01*
X62003Y58296D01*
X62062Y58367D01*
X62086Y58402D01*
X62106Y58436D01*
X62122Y58469D01*
X62135Y58502D01*
X62144Y58534D01*
X62149Y58566D01*
X62151Y58597D01*
X62447Y58301D01*
D02*
G37*
G36*
X60447D02*
X60416Y58299D01*
X60384Y58294D01*
X60352Y58285D01*
X60319Y58272D01*
X60286Y58256D01*
X60252Y58236D01*
X60217Y58212D01*
X60182Y58184D01*
X60146Y58153D01*
X60110Y58118D01*
X59968Y58260D01*
X60003Y58296D01*
X60062Y58367D01*
X60086Y58402D01*
X60106Y58436D01*
X60122Y58469D01*
X60135Y58502D01*
X60144Y58534D01*
X60149Y58566D01*
X60151Y58597D01*
X60447Y58301D01*
D02*
G37*
G36*
X67631Y58300D02*
X67614Y58294D01*
X67599Y58284D01*
X67586Y58270D01*
X67575Y58252D01*
X67566Y58230D01*
X67559Y58204D01*
X67554Y58174D01*
X67551Y58140D01*
X67550Y58102D01*
X67350D01*
X67349Y58140D01*
X67346Y58174D01*
X67341Y58204D01*
X67334Y58230D01*
X67325Y58252D01*
X67314Y58270D01*
X67301Y58284D01*
X67286Y58294D01*
X67269Y58300D01*
X67250Y58302D01*
X67650D01*
X67631Y58300D01*
D02*
G37*
G36*
X55321Y57685D02*
X55307Y57699D01*
X55279Y57723D01*
X55265Y57733D01*
X55252Y57741D01*
X55239Y57748D01*
X55226Y57753D01*
X55214Y57757D01*
X55202Y57759D01*
X55190Y57760D01*
Y57960D01*
X55202Y57961D01*
X55214Y57963D01*
X55226Y57967D01*
X55239Y57972D01*
X55252Y57979D01*
X55265Y57987D01*
X55279Y57997D01*
X55293Y58008D01*
X55321Y58035D01*
Y57685D01*
D02*
G37*
G36*
X61155Y56990D02*
X61161Y56911D01*
X61166Y56876D01*
X61173Y56845D01*
X61181Y56816D01*
X61191Y56791D01*
X61202Y56768D01*
X61215Y56749D01*
X61229Y56733D01*
X60879D01*
X60894Y56749D01*
X60906Y56768D01*
X60918Y56791D01*
X60927Y56816D01*
X60936Y56845D01*
X60942Y56876D01*
X60948Y56911D01*
X60954Y56990D01*
X60954Y57033D01*
X61154D01*
X61155Y56990D01*
D02*
G37*
G36*
X72461Y56148D02*
X72447Y56132D01*
X72434Y56113D01*
X72422Y56091D01*
X72413Y56066D01*
X72404Y56037D01*
X72397Y56006D01*
X72392Y55971D01*
X72388Y55933D01*
X72385Y55849D01*
X72185Y55853D01*
X72184Y55897D01*
X72178Y55976D01*
X72173Y56010D01*
X72167Y56042D01*
X72159Y56071D01*
X72149Y56096D01*
X72138Y56119D01*
X72125Y56138D01*
X72111Y56155D01*
X72461Y56148D01*
D02*
G37*
G36*
X62778Y55980D02*
X62756Y55979D01*
X62733Y55974D01*
X62709Y55966D01*
X62685Y55955D01*
X62659Y55941D01*
X62631Y55923D01*
X62603Y55902D01*
X62543Y55851D01*
X62512Y55820D01*
X62370Y55962D01*
X62401Y55993D01*
X62452Y56053D01*
X62473Y56081D01*
X62491Y56109D01*
X62505Y56135D01*
X62516Y56159D01*
X62524Y56183D01*
X62529Y56206D01*
X62530Y56227D01*
X62778Y55980D01*
D02*
G37*
G36*
X64441Y55965D02*
X64447Y55887D01*
X64452Y55852D01*
X64459Y55820D01*
X64467Y55792D01*
X64477Y55766D01*
X64488Y55744D01*
X64501Y55725D01*
X64515Y55709D01*
X64165D01*
X64179Y55725D01*
X64192Y55744D01*
X64203Y55766D01*
X64213Y55792D01*
X64221Y55820D01*
X64228Y55852D01*
X64233Y55887D01*
X64239Y55965D01*
X64240Y56009D01*
X64440D01*
X64441Y55965D01*
D02*
G37*
G36*
X73422Y55565D02*
X73410Y55545D01*
X73399Y55522D01*
X73390Y55496D01*
X73383Y55467D01*
X73376Y55435D01*
X73371Y55401D01*
X73366Y55322D01*
X73365Y55278D01*
X73165Y55265D01*
X73164Y55309D01*
X73158Y55387D01*
X73152Y55422D01*
X73145Y55453D01*
X73137Y55481D01*
X73126Y55506D01*
X73114Y55527D01*
X73101Y55546D01*
X73086Y55561D01*
X73435Y55582D01*
X73422Y55565D01*
D02*
G37*
G36*
X58401Y55235D02*
X58388Y55216D01*
X58377Y55194D01*
X58367Y55168D01*
X58359Y55140D01*
X58352Y55108D01*
X58347Y55073D01*
X58341Y54995D01*
X58340Y54951D01*
X58140D01*
X58139Y54995D01*
X58133Y55073D01*
X58128Y55108D01*
X58121Y55140D01*
X58113Y55168D01*
X58103Y55194D01*
X58092Y55216D01*
X58079Y55235D01*
X58065Y55251D01*
X58415D01*
X58401Y55235D01*
D02*
G37*
G36*
X57690Y55174D02*
X57677Y55155D01*
X57666Y55132D01*
X57656Y55107D01*
X57648Y55078D01*
X57641Y55047D01*
X57636Y55012D01*
X57630Y54933D01*
X57629Y54890D01*
X57429D01*
X57428Y54933D01*
X57422Y55012D01*
X57417Y55047D01*
X57410Y55078D01*
X57402Y55107D01*
X57392Y55132D01*
X57381Y55155D01*
X57368Y55174D01*
X57354Y55190D01*
X57704D01*
X57690Y55174D01*
D02*
G37*
G36*
X74434Y54640D02*
X74419Y54624D01*
X74407Y54605D01*
X74395Y54583D01*
X74385Y54557D01*
X74377Y54529D01*
X74370Y54497D01*
X74365Y54463D01*
X74359Y54384D01*
X74358Y54340D01*
X74158Y54342D01*
X74158Y54385D01*
X74152Y54464D01*
X74146Y54499D01*
X74140Y54530D01*
X74131Y54559D01*
X74122Y54584D01*
X74111Y54607D01*
X74098Y54626D01*
X74084Y54643D01*
X74434Y54640D01*
D02*
G37*
G36*
X76624Y59378D02*
X76694Y59349D01*
X76753Y59303D01*
X76799Y59244D01*
X76828Y59174D01*
X76837Y59105D01*
X76836Y59100D01*
Y54500D01*
X76852Y54418D01*
X76899Y54349D01*
X77836Y53411D01*
Y52898D01*
X77786Y52888D01*
X77750Y52974D01*
X77664Y53104D01*
X77554Y53214D01*
X77424Y53300D01*
X77280Y53360D01*
X77128Y53390D01*
X76972D01*
X76820Y53360D01*
X76676Y53300D01*
X76546Y53214D01*
X76436Y53104D01*
X76350Y52974D01*
X76290Y52830D01*
X76260Y52678D01*
Y52522D01*
X76290Y52370D01*
X76350Y52226D01*
X76436Y52096D01*
X76546Y51986D01*
X76676Y51900D01*
X76820Y51840D01*
X76972Y51810D01*
X77128D01*
X77280Y51840D01*
X77424Y51900D01*
X77554Y51986D01*
X77664Y52096D01*
X77750Y52226D01*
X77786Y52312D01*
X77836Y52302D01*
Y49921D01*
X77786Y49903D01*
X77466Y50223D01*
X77466Y50294D01*
X77480Y50308D01*
X77543Y50417D01*
X77575Y50537D01*
Y50663D01*
X77543Y50783D01*
X77480Y50892D01*
X77392Y50980D01*
X77283Y51043D01*
X77163Y51075D01*
X77037D01*
X76917Y51043D01*
X76808Y50980D01*
X76720Y50892D01*
X76676Y50815D01*
X76641Y50807D01*
X76575Y50820D01*
Y51075D01*
X75625D01*
Y50125D01*
X76575D01*
X76575Y50125D01*
Y50125D01*
X76613Y50098D01*
X76770Y49941D01*
X76720Y49892D01*
X76657Y49783D01*
X76625Y49663D01*
Y49537D01*
X76657Y49417D01*
X76720Y49308D01*
X76808Y49220D01*
X76917Y49157D01*
X77037Y49125D01*
X77163D01*
X77283Y49157D01*
X77334Y49187D01*
X77378Y49162D01*
Y48977D01*
X77328Y48948D01*
X77260Y48987D01*
X77155Y49015D01*
X77045D01*
X76940Y48987D01*
X76886Y48956D01*
X77171Y48671D01*
X77100Y48600D01*
X77171Y48529D01*
X76886Y48244D01*
X76940Y48213D01*
X77045Y48185D01*
X77155D01*
X77260Y48213D01*
X77287Y48229D01*
X77343Y48203D01*
X77347Y48184D01*
X77333Y48166D01*
X77307Y48103D01*
X77298Y48035D01*
X77298Y48035D01*
Y46290D01*
X77248Y46262D01*
X77178Y46302D01*
X77074Y46330D01*
X76966D01*
X76862Y46302D01*
X76768Y46248D01*
X76692Y46172D01*
X76638Y46078D01*
X76610Y45974D01*
Y45881D01*
X75756Y45027D01*
X75110D01*
X75091Y45073D01*
X75445Y45428D01*
X75445Y45428D01*
X75487Y45482D01*
X75513Y45546D01*
X75522Y45614D01*
X75522Y45614D01*
Y46245D01*
X76205D01*
Y47055D01*
X75522D01*
Y48651D01*
X75588Y48717D01*
X75633Y48691D01*
X75625Y48663D01*
Y48537D01*
X75657Y48417D01*
X75720Y48308D01*
X75808Y48220D01*
X75917Y48157D01*
X76037Y48125D01*
X76163D01*
X76283Y48157D01*
X76392Y48220D01*
X76480Y48308D01*
X76543Y48417D01*
X76575Y48537D01*
Y48663D01*
X76543Y48783D01*
X76480Y48892D01*
X76392Y48980D01*
X76283Y49043D01*
X76163Y49075D01*
X76056D01*
X76030Y49118D01*
X76030Y49123D01*
X76033Y49126D01*
X76037Y49125D01*
X76163D01*
X76283Y49157D01*
X76392Y49220D01*
X76480Y49308D01*
X76543Y49417D01*
X76575Y49537D01*
Y49663D01*
X76543Y49783D01*
X76480Y49892D01*
X76392Y49980D01*
X76283Y50043D01*
X76163Y50075D01*
X76037D01*
X75917Y50043D01*
X75808Y49980D01*
X75720Y49892D01*
X75657Y49783D01*
X75625Y49663D01*
Y49537D01*
X75634Y49505D01*
X75112Y48983D01*
X75062Y49004D01*
Y57241D01*
X75962Y58141D01*
X76509D01*
Y59059D01*
X75591D01*
Y58512D01*
X75540Y58461D01*
X75495Y58487D01*
X75509Y58540D01*
Y58660D01*
X75478Y58777D01*
X75417Y58882D01*
X75332Y58967D01*
X75227Y59028D01*
X75110Y59059D01*
X74990D01*
X74873Y59028D01*
X74768Y58967D01*
X74683Y58882D01*
X74622Y58777D01*
X74591Y58660D01*
Y58540D01*
X74597Y58518D01*
X74540Y58461D01*
X74495Y58487D01*
X74509Y58540D01*
Y58660D01*
X74478Y58777D01*
X74417Y58882D01*
X74332Y58967D01*
X74227Y59028D01*
X74110Y59059D01*
X73990D01*
X73873Y59028D01*
X73768Y58967D01*
X73683Y58882D01*
X73622Y58777D01*
X73591Y58660D01*
Y58540D01*
X73597Y58518D01*
X73540Y58461D01*
X73495Y58487D01*
X73509Y58540D01*
Y58660D01*
X73478Y58777D01*
X73417Y58882D01*
X73332Y58967D01*
X73227Y59028D01*
X73110Y59059D01*
X72990D01*
X72873Y59028D01*
X72768Y58967D01*
X72683Y58882D01*
X72622Y58777D01*
X72591Y58660D01*
Y58540D01*
X72597Y58518D01*
X72540Y58461D01*
X72495Y58487D01*
X72509Y58540D01*
Y58660D01*
X72478Y58777D01*
X72417Y58882D01*
X72332Y58967D01*
X72227Y59028D01*
X72110Y59059D01*
X71990D01*
X71873Y59028D01*
X71768Y58967D01*
X71683Y58882D01*
X71622Y58777D01*
X71591Y58660D01*
Y58540D01*
X71597Y58518D01*
X71540Y58461D01*
X71495Y58487D01*
X71509Y58540D01*
Y58660D01*
X71478Y58777D01*
X71417Y58882D01*
X71332Y58967D01*
X71227Y59028D01*
X71110Y59059D01*
X70990D01*
X70873Y59028D01*
X70768Y58967D01*
X70683Y58882D01*
X70622Y58777D01*
X70591Y58660D01*
Y58540D01*
X70597Y58518D01*
X70540Y58461D01*
X70495Y58487D01*
X70509Y58540D01*
Y58660D01*
X70478Y58777D01*
X70417Y58882D01*
X70332Y58967D01*
X70227Y59028D01*
X70110Y59059D01*
X69990D01*
X69873Y59028D01*
X69768Y58967D01*
X69683Y58882D01*
X69622Y58777D01*
X69591Y58660D01*
Y58540D01*
X69597Y58518D01*
X69540Y58461D01*
X69495Y58487D01*
X69509Y58540D01*
Y58660D01*
X69478Y58777D01*
X69417Y58882D01*
X69332Y58967D01*
X69227Y59028D01*
X69110Y59059D01*
X68990D01*
X68873Y59028D01*
X68768Y58967D01*
X68683Y58882D01*
X68622Y58777D01*
X68591Y58660D01*
Y58540D01*
X68597Y58518D01*
X67905Y57825D01*
X67863Y57771D01*
X67837Y57708D01*
X67828Y57640D01*
X67828Y57640D01*
Y51029D01*
X63854Y47055D01*
X63853Y47055D01*
X63747D01*
X63644Y47027D01*
X63584Y46993D01*
X63554Y47033D01*
X67635Y51115D01*
X67635Y51115D01*
X67677Y51169D01*
X67703Y51232D01*
X67712Y51300D01*
X67712Y51300D01*
Y58141D01*
X67909D01*
Y59059D01*
X66991D01*
Y58141D01*
X67188D01*
Y51409D01*
X62834Y47055D01*
X62747D01*
X62644Y47027D01*
X62626Y47017D01*
X62582Y47042D01*
Y48966D01*
X62835Y49220D01*
X62835Y49220D01*
X62877Y49274D01*
X62903Y49337D01*
X62912Y49405D01*
Y50517D01*
X62912Y50517D01*
X62903Y50585D01*
X62877Y50648D01*
X62835Y50702D01*
X62835Y50702D01*
X62722Y50816D01*
Y51542D01*
X62788Y51608D01*
X62842Y51702D01*
X62870Y51806D01*
Y51914D01*
X62842Y52018D01*
X62788Y52112D01*
X62712Y52188D01*
X62618Y52242D01*
X62514Y52270D01*
X62406D01*
X62302Y52242D01*
X62208Y52188D01*
X62132Y52112D01*
X62078Y52018D01*
X62050Y51914D01*
Y51806D01*
X62078Y51702D01*
X62132Y51608D01*
X62198Y51542D01*
Y50707D01*
X62198Y50707D01*
X62207Y50639D01*
X62233Y50576D01*
X62275Y50521D01*
X62388Y50408D01*
Y49514D01*
X62135Y49260D01*
X62093Y49206D01*
X62067Y49143D01*
X62058Y49075D01*
X62058Y49075D01*
Y46501D01*
X62058Y46501D01*
X62064Y46452D01*
X62000Y46435D01*
X61950Y46465D01*
Y53174D01*
X62290Y53515D01*
X62290Y53515D01*
X62331Y53569D01*
X62358Y53632D01*
X62366Y53700D01*
X62366Y53700D01*
Y55446D01*
X62741Y55820D01*
X62834D01*
X62938Y55848D01*
X63032Y55902D01*
X63108Y55978D01*
X63162Y56072D01*
X63190Y56176D01*
Y56284D01*
X63162Y56388D01*
X63108Y56482D01*
X63032Y56558D01*
X62938Y56612D01*
X62903Y56621D01*
X62891Y56670D01*
X64368Y58147D01*
X64390Y58141D01*
X64510D01*
X64563Y58155D01*
X64589Y58110D01*
X64155Y57675D01*
X64113Y57621D01*
X64087Y57558D01*
X64078Y57490D01*
X64078Y57490D01*
Y55848D01*
X64012Y55782D01*
X63958Y55688D01*
X63930Y55584D01*
Y55476D01*
X63958Y55372D01*
X64012Y55278D01*
X64088Y55202D01*
X64182Y55148D01*
X64286Y55120D01*
X64394D01*
X64498Y55148D01*
X64592Y55202D01*
X64668Y55278D01*
X64722Y55372D01*
X64750Y55476D01*
Y55584D01*
X64722Y55688D01*
X64668Y55782D01*
X64602Y55848D01*
Y57381D01*
X65368Y58147D01*
X65390Y58141D01*
X65510D01*
X65627Y58172D01*
X65732Y58233D01*
X65817Y58318D01*
X65878Y58423D01*
X65909Y58540D01*
Y58660D01*
X65878Y58777D01*
X65817Y58882D01*
X65732Y58967D01*
X65627Y59028D01*
X65510Y59059D01*
X65390D01*
X65273Y59028D01*
X65168Y58967D01*
X65083Y58882D01*
X65022Y58777D01*
X64991Y58660D01*
Y58540D01*
X64997Y58518D01*
X64940Y58461D01*
X64895Y58487D01*
X64909Y58540D01*
Y58660D01*
X64878Y58777D01*
X64817Y58882D01*
X64732Y58967D01*
X64627Y59028D01*
X64510Y59059D01*
X64390D01*
X64273Y59028D01*
X64168Y58967D01*
X64083Y58882D01*
X64022Y58777D01*
X63991Y58660D01*
Y58540D01*
X63997Y58518D01*
X63940Y58461D01*
X63895Y58487D01*
X63909Y58540D01*
Y58660D01*
X63878Y58777D01*
X63817Y58882D01*
X63732Y58967D01*
X63627Y59028D01*
X63510Y59059D01*
X63390D01*
X63273Y59028D01*
X63168Y58967D01*
X63083Y58882D01*
X63022Y58777D01*
X62991Y58660D01*
Y58540D01*
X62997Y58518D01*
X62940Y58461D01*
X62895Y58487D01*
X62909Y58540D01*
Y58660D01*
X62878Y58777D01*
X62817Y58882D01*
X62732Y58967D01*
X62627Y59028D01*
X62510Y59059D01*
X62390D01*
X62273Y59028D01*
X62168Y58967D01*
X62083Y58882D01*
X62022Y58777D01*
X61991Y58660D01*
Y58540D01*
X61997Y58518D01*
X61818Y58339D01*
X61778Y58369D01*
X61822Y58446D01*
X61849Y58547D01*
Y58653D01*
X61822Y58754D01*
X61794Y58803D01*
X61521Y58529D01*
X61370Y58378D01*
X61447Y58301D01*
X61442Y58299D01*
X61434Y58292D01*
X61421Y58282D01*
X61349Y58214D01*
X61397Y58201D01*
X61503D01*
X61604Y58228D01*
X61681Y58272D01*
X61711Y58232D01*
X60869Y57390D01*
X60827Y57335D01*
X60801Y57272D01*
X60792Y57204D01*
X60792Y57204D01*
Y56872D01*
X60726Y56806D01*
X60672Y56713D01*
X60644Y56608D01*
Y56500D01*
X60672Y56396D01*
X60726Y56303D01*
X60803Y56226D01*
X60896Y56172D01*
X61000Y56144D01*
X61108D01*
X61192Y56167D01*
X61242Y56137D01*
Y54057D01*
X60902Y53717D01*
X60860Y53663D01*
X60834Y53599D01*
X60825Y53532D01*
X60825Y53532D01*
Y52527D01*
X60779Y52508D01*
X60080Y53207D01*
X60093Y53256D01*
X60138Y53268D01*
X60232Y53322D01*
X60308Y53398D01*
X60362Y53492D01*
X60390Y53596D01*
Y53704D01*
X60362Y53808D01*
Y54212D01*
X60449Y54298D01*
X60542Y54352D01*
X60618Y54428D01*
X60672Y54522D01*
X60700Y54626D01*
Y54734D01*
X60672Y54838D01*
X60618Y54932D01*
X60542Y55008D01*
X60448Y55062D01*
X60344Y55090D01*
X60236D01*
X60132Y55062D01*
X60038Y55008D01*
X59962Y54932D01*
X59908Y54838D01*
X59888Y54765D01*
X59742Y54619D01*
X59685Y54544D01*
X59648Y54456D01*
X59636Y54362D01*
Y53874D01*
X59598Y53808D01*
X59586Y53763D01*
X59537Y53750D01*
X59092Y54195D01*
Y56573D01*
X59142Y56579D01*
X59163Y56504D01*
X59181Y56472D01*
X59347Y56639D01*
X59181Y56805D01*
X59163Y56774D01*
X59142Y56698D01*
X59092Y56705D01*
Y56871D01*
X60368Y58147D01*
X60390Y58141D01*
X60510D01*
X60627Y58172D01*
X60732Y58233D01*
X60817Y58318D01*
X60878Y58423D01*
X60909Y58540D01*
Y58660D01*
X60878Y58777D01*
X60817Y58882D01*
X60732Y58967D01*
X60627Y59028D01*
X60510Y59059D01*
X60390D01*
X60273Y59028D01*
X60168Y58967D01*
X60083Y58882D01*
X60022Y58777D01*
X59991Y58660D01*
Y58540D01*
X59997Y58518D01*
X59940Y58461D01*
X59895Y58487D01*
X59909Y58540D01*
Y58660D01*
X59878Y58777D01*
X59817Y58882D01*
X59732Y58967D01*
X59627Y59028D01*
X59510Y59059D01*
X59390D01*
X59273Y59028D01*
X59168Y58967D01*
X59083Y58882D01*
X59022Y58777D01*
X58991Y58660D01*
Y58540D01*
X59022Y58423D01*
X59083Y58318D01*
X59168Y58233D01*
X59273Y58172D01*
X59390Y58141D01*
X59510D01*
X59563Y58155D01*
X59589Y58110D01*
X58645Y57165D01*
X58603Y57111D01*
X58577Y57048D01*
X58568Y56980D01*
X58568Y56980D01*
Y55747D01*
X58522Y55728D01*
X58492Y55758D01*
X58398Y55812D01*
X58294Y55840D01*
X58186D01*
X58082Y55812D01*
X57988Y55758D01*
X57912Y55682D01*
X57894Y55651D01*
X57833Y55645D01*
X57781Y55697D01*
X57687Y55751D01*
X57583Y55779D01*
X57475D01*
X57371Y55751D01*
X57277Y55697D01*
X57201Y55620D01*
X57147Y55527D01*
X57119Y55423D01*
Y55315D01*
X57147Y55210D01*
X57201Y55117D01*
X57267Y55051D01*
Y54814D01*
X57221Y54795D01*
X56703Y55313D01*
Y57844D01*
X56745Y57871D01*
X56820Y57840D01*
X56972Y57810D01*
X57128D01*
X57280Y57840D01*
X57424Y57900D01*
X57554Y57986D01*
X57664Y58096D01*
X57750Y58226D01*
X57810Y58370D01*
X57840Y58522D01*
Y58678D01*
X57810Y58830D01*
X57750Y58974D01*
X57664Y59104D01*
X57554Y59214D01*
X57424Y59300D01*
X57338Y59336D01*
X57348Y59386D01*
X76550D01*
X76555Y59387D01*
X76624Y59378D01*
D02*
G37*
G36*
X51550Y59386D02*
X52901D01*
X52915Y59336D01*
X52880Y59316D01*
X52804Y59240D01*
X52750Y59146D01*
X52722Y59042D01*
Y58934D01*
X52750Y58830D01*
X52804Y58736D01*
X52880Y58660D01*
X52974Y58606D01*
X53078Y58578D01*
X53186D01*
X53290Y58606D01*
X53323Y58625D01*
X55162D01*
X55470Y58316D01*
X55451Y58270D01*
X55446D01*
X55342Y58242D01*
X55248Y58188D01*
X55181Y58121D01*
X55122Y58113D01*
X55059Y58087D01*
X55005Y58045D01*
X55005Y58045D01*
X54225Y57265D01*
X54183Y57211D01*
X54157Y57148D01*
X54148Y57080D01*
X54148Y57080D01*
Y54974D01*
X53895Y54721D01*
X53853Y54666D01*
X53827Y54603D01*
X53818Y54535D01*
X53818Y54535D01*
Y53028D01*
X53768Y53018D01*
X53762Y53032D01*
X53692Y53102D01*
X53600Y53140D01*
X53500D01*
X53459Y53123D01*
X53621Y52961D01*
X53550Y52890D01*
X53621Y52819D01*
X53459Y52657D01*
X53500Y52640D01*
X53600D01*
X53692Y52678D01*
X53762Y52748D01*
X53768Y52762D01*
X53818Y52752D01*
Y52412D01*
X53818Y52412D01*
X53827Y52344D01*
X53853Y52281D01*
X53895Y52226D01*
X55337Y50784D01*
X55337Y50784D01*
X55391Y50742D01*
X55454Y50716D01*
X55522Y50707D01*
X56080D01*
X56729Y50057D01*
X56715Y50001D01*
X56640Y49957D01*
X56564Y49881D01*
X56510Y49788D01*
X56482Y49683D01*
Y49575D01*
X56510Y49472D01*
Y48880D01*
X56499Y48854D01*
X56487Y48760D01*
Y48270D01*
X56499Y48176D01*
X56536Y48088D01*
X56593Y48013D01*
X57898Y46708D01*
X57908Y46672D01*
X57962Y46578D01*
X58038Y46502D01*
X58132Y46448D01*
X58236Y46420D01*
X58344D01*
X58448Y46448D01*
X58542Y46502D01*
X58618Y46578D01*
X58672Y46672D01*
X58700Y46776D01*
Y46884D01*
X58672Y46988D01*
X58618Y47082D01*
X58542Y47158D01*
X58448Y47212D01*
X58412Y47222D01*
X57213Y48420D01*
Y48664D01*
X57224Y48689D01*
X57236Y48783D01*
Y49405D01*
X57258Y49444D01*
X57310Y49454D01*
X57343Y49426D01*
Y49184D01*
X57343Y49184D01*
X57352Y49117D01*
X57378Y49053D01*
X57420Y48999D01*
X57780Y48639D01*
Y48546D01*
X57808Y48442D01*
X57862Y48348D01*
X57938Y48272D01*
X58032Y48218D01*
X58136Y48190D01*
X58244D01*
X58348Y48218D01*
X58442Y48272D01*
X58518Y48348D01*
X58572Y48442D01*
X58600Y48546D01*
Y48654D01*
X58572Y48758D01*
X58518Y48852D01*
X58442Y48928D01*
X58348Y48982D01*
X58244Y49010D01*
X58151D01*
X57868Y49293D01*
Y49552D01*
X57859Y49620D01*
X57833Y49683D01*
X57791Y49738D01*
X57791Y49738D01*
X56374Y51155D01*
X56319Y51197D01*
X56256Y51223D01*
X56188Y51232D01*
X56188Y51232D01*
X55631D01*
X54761Y52101D01*
X54774Y52150D01*
X54803Y52157D01*
X54912Y52220D01*
X55000Y52308D01*
X55063Y52417D01*
X55095Y52537D01*
Y52663D01*
X55063Y52783D01*
X55000Y52892D01*
X54912Y52980D01*
X54803Y53043D01*
X54683Y53075D01*
X54557D01*
X54437Y53043D01*
X54386Y53013D01*
X54342Y53038D01*
Y54427D01*
X54595Y54680D01*
X54595Y54680D01*
X54637Y54734D01*
X54663Y54797D01*
X54672Y54865D01*
Y56971D01*
X55241Y57540D01*
X55248Y57532D01*
X55342Y57478D01*
X55446Y57450D01*
X55554D01*
X55658Y57478D01*
X55752Y57532D01*
X55828Y57608D01*
X55882Y57702D01*
X55903Y57779D01*
X55957Y57800D01*
X55958Y57800D01*
X55977Y57786D01*
Y55162D01*
X55989Y55068D01*
X56026Y54981D01*
X56083Y54905D01*
X57867Y53121D01*
X57848Y53075D01*
X57145D01*
Y52125D01*
X58083D01*
X58092Y52092D01*
X58119Y52045D01*
X58082Y52009D01*
X58035Y52036D01*
X57946Y52060D01*
X57854D01*
X57765Y52036D01*
X57733Y52018D01*
X57971Y51781D01*
X57900Y51710D01*
X57971Y51639D01*
X57733Y51402D01*
X57765Y51384D01*
X57854Y51360D01*
X57920D01*
X57950Y51312D01*
X57948Y51308D01*
X57920Y51204D01*
Y51096D01*
X57948Y50992D01*
X58002Y50898D01*
X58078Y50822D01*
X58172Y50768D01*
X58276Y50740D01*
X58384D01*
X58488Y50768D01*
X58582Y50822D01*
X58658Y50898D01*
X58712Y50992D01*
X58732Y51065D01*
X58757Y51090D01*
X58757Y51090D01*
X58814Y51166D01*
X58851Y51253D01*
X58863Y51347D01*
Y51999D01*
X58913Y52025D01*
X58917Y52023D01*
Y46200D01*
X58929Y46106D01*
X58966Y46018D01*
X59023Y45943D01*
X62149Y42817D01*
X62126Y42770D01*
X62100Y42773D01*
X61811D01*
X61778Y42792D01*
X61674Y42820D01*
X61566D01*
X61462Y42792D01*
X61368Y42738D01*
X61292Y42662D01*
X61238Y42568D01*
X61210Y42464D01*
Y42356D01*
X61238Y42252D01*
X61292Y42158D01*
X61368Y42082D01*
X61462Y42028D01*
X61566Y42000D01*
X61674D01*
X61778Y42028D01*
X61811Y42047D01*
X61950D01*
X62687Y41310D01*
Y39886D01*
X62683Y39882D01*
X62622Y39777D01*
X62591Y39660D01*
Y39540D01*
X62622Y39423D01*
X62683Y39318D01*
X62768Y39233D01*
X62873Y39172D01*
X62990Y39141D01*
X63110D01*
X63227Y39172D01*
X63332Y39233D01*
X63417Y39318D01*
X63478Y39423D01*
X63509Y39540D01*
Y39660D01*
X63478Y39777D01*
X63417Y39882D01*
X63413Y39886D01*
Y41460D01*
X63401Y41554D01*
X63364Y41642D01*
X63307Y41717D01*
X62861Y42163D01*
X62884Y42210D01*
X62910Y42207D01*
X63687D01*
Y39886D01*
X63683Y39882D01*
X63622Y39777D01*
X63591Y39660D01*
Y39540D01*
X63622Y39423D01*
X63683Y39318D01*
X63768Y39233D01*
X63873Y39172D01*
X63990Y39141D01*
X64110D01*
X64227Y39172D01*
X64332Y39233D01*
X64417Y39318D01*
X64478Y39423D01*
X64509Y39540D01*
Y39660D01*
X64478Y39777D01*
X64417Y39882D01*
X64413Y39886D01*
Y41056D01*
X64463Y41076D01*
X64687Y40853D01*
Y39886D01*
X64683Y39882D01*
X64622Y39777D01*
X64591Y39660D01*
Y39540D01*
X64622Y39423D01*
X64683Y39318D01*
X64768Y39233D01*
X64873Y39172D01*
X64990Y39141D01*
X65110D01*
X65227Y39172D01*
X65332Y39233D01*
X65417Y39318D01*
X65478Y39423D01*
X65509Y39540D01*
Y39660D01*
X65478Y39777D01*
X65417Y39882D01*
X65413Y39886D01*
Y41003D01*
X65401Y41097D01*
X65364Y41184D01*
X65307Y41260D01*
X65002Y41565D01*
X64982Y41638D01*
X64928Y41732D01*
X64852Y41808D01*
X64758Y41862D01*
X64654Y41890D01*
X64546D01*
X64463Y41868D01*
X64413Y41898D01*
Y42100D01*
X64492Y42178D01*
X64528Y42188D01*
X64622Y42242D01*
X64698Y42318D01*
X64752Y42412D01*
X64780Y42516D01*
Y42624D01*
X64752Y42728D01*
X64698Y42822D01*
X64622Y42898D01*
X64528Y42952D01*
X64424Y42980D01*
X64316D01*
X64212Y42952D01*
X64179Y42933D01*
X63060D01*
X62890Y43103D01*
X62905Y43159D01*
X62956Y43173D01*
X63048Y43226D01*
X63124Y43302D01*
X63177Y43394D01*
X63205Y43497D01*
Y43603D01*
X63183Y43682D01*
X63215Y43732D01*
X63385D01*
X63417Y43682D01*
X63395Y43603D01*
Y43497D01*
X63423Y43394D01*
X63476Y43302D01*
X63552Y43226D01*
X63644Y43173D01*
X63747Y43145D01*
X63853D01*
X63956Y43173D01*
X64048Y43226D01*
X64124Y43302D01*
X64177Y43394D01*
X64205Y43497D01*
Y43603D01*
X64183Y43682D01*
X64215Y43732D01*
X64385D01*
X64417Y43682D01*
X64395Y43603D01*
Y43497D01*
X64423Y43394D01*
X64476Y43302D01*
X64552Y43226D01*
X64644Y43173D01*
X64747Y43145D01*
X64853D01*
X64956Y43173D01*
X65048Y43226D01*
X65124Y43302D01*
X65177Y43394D01*
X65205Y43497D01*
Y43603D01*
X65183Y43682D01*
X65215Y43732D01*
X65385D01*
X65417Y43682D01*
X65395Y43603D01*
Y43497D01*
X65423Y43394D01*
X65476Y43302D01*
X65552Y43226D01*
X65644Y43173D01*
X65747Y43145D01*
X65853D01*
X65956Y43173D01*
X66048Y43226D01*
X66124Y43302D01*
X66177Y43394D01*
X66205Y43497D01*
Y43603D01*
X66185Y43678D01*
X66219Y43728D01*
X66381D01*
X66415Y43678D01*
X66395Y43603D01*
Y43497D01*
X66423Y43394D01*
X66476Y43302D01*
X66552Y43226D01*
X66644Y43173D01*
X66747Y43145D01*
X66811D01*
X66832Y43095D01*
X65793Y42057D01*
X65736Y41982D01*
X65699Y41894D01*
X65687Y41800D01*
Y39886D01*
X65683Y39882D01*
X65622Y39777D01*
X65591Y39660D01*
Y39540D01*
X65622Y39423D01*
X65683Y39318D01*
X65768Y39233D01*
X65873Y39172D01*
X65990Y39141D01*
X66110D01*
X66227Y39172D01*
X66332Y39233D01*
X66417Y39318D01*
X66478Y39423D01*
X66509Y39540D01*
Y39660D01*
X66478Y39777D01*
X66417Y39882D01*
X66413Y39886D01*
Y41650D01*
X67929Y43166D01*
X67956Y43173D01*
X68048Y43226D01*
X68124Y43302D01*
X68177Y43394D01*
X68205Y43497D01*
Y43603D01*
X68187Y43670D01*
X68216Y43712D01*
X68263Y43716D01*
X68395Y43584D01*
Y43497D01*
X68423Y43394D01*
X68476Y43302D01*
X68552Y43226D01*
X68644Y43173D01*
X68747Y43145D01*
X68853D01*
X68956Y43173D01*
X69048Y43226D01*
X69124Y43302D01*
X69177Y43394D01*
X69205Y43497D01*
Y43603D01*
X69177Y43706D01*
X69124Y43798D01*
X69048Y43874D01*
X68956Y43927D01*
X68853Y43955D01*
X68766D01*
X68568Y44153D01*
X68589Y44203D01*
X77438D01*
X77438Y44203D01*
X77506Y44212D01*
X77569Y44238D01*
X77623Y44280D01*
X77745Y44402D01*
X77745Y44402D01*
X77786Y44454D01*
X77791Y44455D01*
X77836Y44443D01*
Y41898D01*
X77786Y41888D01*
X77750Y41974D01*
X77664Y42104D01*
X77554Y42214D01*
X77424Y42300D01*
X77280Y42360D01*
X77128Y42390D01*
X76972D01*
X76820Y42360D01*
X76676Y42300D01*
X76546Y42214D01*
X76436Y42104D01*
X76350Y41974D01*
X76290Y41830D01*
X76260Y41678D01*
Y41522D01*
X76290Y41370D01*
X76350Y41226D01*
X76436Y41096D01*
X76546Y40986D01*
X76676Y40900D01*
X76820Y40840D01*
X76972Y40810D01*
X77128D01*
X77280Y40840D01*
X77424Y40900D01*
X77554Y40986D01*
X77664Y41096D01*
X77750Y41226D01*
X77786Y41312D01*
X77836Y41302D01*
Y40689D01*
X76899Y39751D01*
X76852Y39682D01*
X76836Y39600D01*
Y38980D01*
X76837Y38974D01*
X76825Y38916D01*
X76789Y38861D01*
X76734Y38825D01*
X76676Y38813D01*
X76670Y38814D01*
X56848D01*
X56838Y38864D01*
X56924Y38900D01*
X57054Y38986D01*
X57164Y39096D01*
X57250Y39226D01*
X57310Y39370D01*
X57340Y39522D01*
Y39678D01*
X57310Y39830D01*
X57250Y39974D01*
X57164Y40104D01*
X57054Y40214D01*
X56924Y40300D01*
X56780Y40360D01*
X56628Y40390D01*
X56472D01*
X56320Y40360D01*
X56176Y40300D01*
X56046Y40214D01*
X55936Y40104D01*
X55850Y39974D01*
X55790Y39830D01*
X55760Y39678D01*
Y39522D01*
X55790Y39370D01*
X55850Y39226D01*
X55936Y39096D01*
X56046Y38986D01*
X56176Y38900D01*
X56262Y38864D01*
X56252Y38814D01*
X51500D01*
X51491Y38812D01*
X51408Y38829D01*
X51331Y38881D01*
X51279Y38958D01*
X51262Y39041D01*
X51264Y39050D01*
Y59100D01*
X51263Y59105D01*
X51272Y59174D01*
X51301Y59244D01*
X51347Y59303D01*
X51406Y59349D01*
X51476Y59378D01*
X51545Y59387D01*
X51550Y59386D01*
D02*
G37*
G36*
X60271Y52085D02*
X60277Y52007D01*
X60282Y51972D01*
X60289Y51940D01*
X60297Y51912D01*
X60307Y51886D01*
X60318Y51864D01*
X60331Y51845D01*
X60345Y51829D01*
X59995D01*
X60009Y51845D01*
X60022Y51864D01*
X60033Y51886D01*
X60043Y51912D01*
X60051Y51940D01*
X60058Y51972D01*
X60063Y52007D01*
X60069Y52085D01*
X60070Y52129D01*
X60270D01*
X60271Y52085D01*
D02*
G37*
G36*
X62621Y51665D02*
X62608Y51646D01*
X62597Y51624D01*
X62587Y51598D01*
X62579Y51570D01*
X62572Y51538D01*
X62567Y51503D01*
X62561Y51425D01*
X62560Y51381D01*
X62360D01*
X62359Y51425D01*
X62353Y51503D01*
X62348Y51538D01*
X62341Y51570D01*
X62333Y51598D01*
X62323Y51624D01*
X62312Y51646D01*
X62299Y51665D01*
X62285Y51681D01*
X62635D01*
X62621Y51665D01*
D02*
G37*
G36*
X60518Y51347D02*
Y48777D01*
X60496Y48768D01*
X60468Y48760D01*
X60378Y48812D01*
X60274Y48840D01*
X60181D01*
X59962Y49059D01*
Y51247D01*
X60006Y51272D01*
X60012Y51268D01*
X60116Y51240D01*
X60224D01*
X60328Y51268D01*
X60422Y51322D01*
X60468Y51368D01*
X60518Y51347D01*
D02*
G37*
G36*
X76414Y50709D02*
X76417Y50698D01*
X76423Y50689D01*
X76432Y50682D01*
X76443Y50675D01*
X76456Y50670D01*
X76472Y50665D01*
X76490Y50662D01*
X76511Y50661D01*
X76534Y50660D01*
Y50540D01*
X76511Y50539D01*
X76490Y50538D01*
X76472Y50535D01*
X76456Y50530D01*
X76443Y50525D01*
X76432Y50518D01*
X76423Y50511D01*
X76417Y50502D01*
X76414Y50491D01*
X76413Y50480D01*
Y50720D01*
X76414Y50709D01*
D02*
G37*
G36*
X74358Y49850D02*
X74359Y49806D01*
X74365Y49727D01*
X74370Y49693D01*
X74377Y49661D01*
X74385Y49633D01*
X74395Y49607D01*
X74406Y49585D01*
X74419Y49565D01*
X74433Y49549D01*
X74083Y49551D01*
X74097Y49567D01*
X74110Y49587D01*
X74121Y49609D01*
X74131Y49634D01*
X74139Y49663D01*
X74146Y49694D01*
X74152Y49729D01*
X74158Y49807D01*
X74158Y49851D01*
X74358Y49850D01*
D02*
G37*
G36*
X76097Y49285D02*
X76063Y49283D01*
X76028Y49278D01*
X75994Y49269D01*
X75958Y49256D01*
X75922Y49238D01*
X75886Y49218D01*
X75850Y49193D01*
X75812Y49164D01*
X75775Y49132D01*
X75737Y49095D01*
X75595Y49237D01*
X75632Y49275D01*
X75693Y49350D01*
X75718Y49386D01*
X75738Y49422D01*
X75756Y49458D01*
X75769Y49494D01*
X75778Y49528D01*
X75783Y49563D01*
X75785Y49597D01*
X76097Y49285D01*
D02*
G37*
G36*
X74538Y49006D02*
Y46960D01*
X74476Y46898D01*
X74423Y46806D01*
X74395Y46703D01*
Y46616D01*
X74183Y46404D01*
X74143Y46434D01*
X74177Y46494D01*
X74205Y46597D01*
Y46703D01*
X74177Y46806D01*
X74124Y46898D01*
X74062Y46960D01*
Y48959D01*
X74112Y48986D01*
X74203Y48962D01*
X74311D01*
X74415Y48989D01*
X74488Y49032D01*
X74538Y49006D01*
D02*
G37*
G36*
X57953Y48979D02*
X58013Y48928D01*
X58041Y48907D01*
X58069Y48889D01*
X58095Y48875D01*
X58119Y48864D01*
X58143Y48856D01*
X58166Y48851D01*
X58187Y48850D01*
X57940Y48602D01*
X57939Y48624D01*
X57934Y48647D01*
X57926Y48671D01*
X57915Y48695D01*
X57901Y48721D01*
X57883Y48749D01*
X57862Y48777D01*
X57811Y48837D01*
X57780Y48868D01*
X57922Y49010D01*
X57953Y48979D01*
D02*
G37*
G36*
X59983Y48809D02*
X60043Y48758D01*
X60071Y48737D01*
X60099Y48719D01*
X60125Y48705D01*
X60149Y48694D01*
X60173Y48686D01*
X60196Y48681D01*
X60217Y48680D01*
X59970Y48432D01*
X59969Y48454D01*
X59964Y48477D01*
X59956Y48501D01*
X59945Y48525D01*
X59931Y48551D01*
X59913Y48579D01*
X59892Y48607D01*
X59841Y48667D01*
X59810Y48698D01*
X59952Y48840D01*
X59983Y48809D01*
D02*
G37*
G36*
X74901Y47075D02*
X74906Y46998D01*
X74911Y46964D01*
X74918Y46933D01*
X74926Y46905D01*
X74935Y46880D01*
X74946Y46859D01*
X74958Y46840D01*
X74971Y46825D01*
X74629D01*
X74642Y46840D01*
X74654Y46859D01*
X74665Y46880D01*
X74674Y46905D01*
X74682Y46933D01*
X74689Y46964D01*
X74694Y46998D01*
X74699Y47075D01*
X74700Y47118D01*
X74900D01*
X74901Y47075D01*
D02*
G37*
G36*
X73901D02*
X73906Y46998D01*
X73911Y46964D01*
X73918Y46933D01*
X73926Y46905D01*
X73935Y46880D01*
X73946Y46859D01*
X73958Y46840D01*
X73971Y46825D01*
X73629D01*
X73642Y46840D01*
X73654Y46859D01*
X73665Y46880D01*
X73674Y46905D01*
X73682Y46933D01*
X73689Y46964D01*
X73694Y46998D01*
X73699Y47075D01*
X73700Y47118D01*
X73900D01*
X73901Y47075D01*
D02*
G37*
G36*
X72901D02*
X72906Y46998D01*
X72911Y46964D01*
X72918Y46933D01*
X72926Y46905D01*
X72935Y46880D01*
X72946Y46859D01*
X72958Y46840D01*
X72971Y46825D01*
X72629D01*
X72642Y46840D01*
X72654Y46859D01*
X72665Y46880D01*
X72674Y46905D01*
X72682Y46933D01*
X72689Y46964D01*
X72694Y46998D01*
X72699Y47075D01*
X72700Y47118D01*
X72900D01*
X72901Y47075D01*
D02*
G37*
G36*
X71901D02*
X71906Y46998D01*
X71911Y46964D01*
X71918Y46933D01*
X71926Y46905D01*
X71935Y46880D01*
X71946Y46859D01*
X71958Y46840D01*
X71971Y46825D01*
X71629D01*
X71642Y46840D01*
X71654Y46859D01*
X71665Y46880D01*
X71674Y46905D01*
X71682Y46933D01*
X71689Y46964D01*
X71694Y46998D01*
X71699Y47075D01*
X71700Y47118D01*
X71900D01*
X71901Y47075D01*
D02*
G37*
G36*
X70901D02*
X70906Y46998D01*
X70911Y46964D01*
X70918Y46933D01*
X70926Y46905D01*
X70935Y46880D01*
X70946Y46859D01*
X70958Y46840D01*
X70971Y46825D01*
X70629D01*
X70642Y46840D01*
X70654Y46859D01*
X70665Y46880D01*
X70674Y46905D01*
X70682Y46933D01*
X70689Y46964D01*
X70694Y46998D01*
X70699Y47075D01*
X70700Y47118D01*
X70900D01*
X70901Y47075D01*
D02*
G37*
G36*
X66202Y46910D02*
X66172Y46879D01*
X66121Y46821D01*
X66101Y46793D01*
X66083Y46767D01*
X66069Y46742D01*
X66058Y46718D01*
X66051Y46695D01*
X66046Y46673D01*
X66045Y46652D01*
X65802Y46895D01*
X65823Y46896D01*
X65845Y46901D01*
X65868Y46908D01*
X65892Y46919D01*
X65917Y46933D01*
X65943Y46951D01*
X65971Y46971D01*
X66029Y47022D01*
X66060Y47052D01*
X66202Y46910D01*
D02*
G37*
G36*
X65202D02*
X65172Y46879D01*
X65121Y46821D01*
X65101Y46793D01*
X65083Y46767D01*
X65069Y46742D01*
X65058Y46718D01*
X65051Y46695D01*
X65046Y46673D01*
X65045Y46652D01*
X64802Y46895D01*
X64823Y46896D01*
X64845Y46901D01*
X64868Y46908D01*
X64892Y46919D01*
X64917Y46933D01*
X64943Y46951D01*
X64971Y46971D01*
X65029Y47022D01*
X65060Y47052D01*
X65202Y46910D01*
D02*
G37*
G36*
X63202D02*
X63172Y46879D01*
X63121Y46821D01*
X63101Y46793D01*
X63083Y46767D01*
X63069Y46742D01*
X63058Y46718D01*
X63051Y46695D01*
X63046Y46673D01*
X63045Y46652D01*
X62802Y46895D01*
X62823Y46896D01*
X62845Y46901D01*
X62868Y46908D01*
X62892Y46919D01*
X62917Y46933D01*
X62943Y46951D01*
X62971Y46971D01*
X63029Y47022D01*
X63060Y47052D01*
X63202Y46910D01*
D02*
G37*
G36*
X64207Y46895D02*
X64177Y46864D01*
X64126Y46806D01*
X64105Y46779D01*
X64087Y46752D01*
X64073Y46727D01*
X64061Y46703D01*
X64052Y46680D01*
X64047Y46659D01*
X64044Y46638D01*
X63817Y46894D01*
X63837Y46894D01*
X63859Y46898D01*
X63882Y46905D01*
X63906Y46915D01*
X63931Y46929D01*
X63957Y46945D01*
X63985Y46966D01*
X64013Y46989D01*
X64074Y47046D01*
X64207Y46895D01*
D02*
G37*
G36*
X73366Y46581D02*
X73372Y46503D01*
X73378Y46468D01*
X73385Y46437D01*
X73393Y46409D01*
X73404Y46384D01*
X73416Y46363D01*
X73429Y46344D01*
X73444Y46329D01*
X73095Y46308D01*
X73108Y46325D01*
X73120Y46345D01*
X73131Y46368D01*
X73140Y46394D01*
X73147Y46423D01*
X73154Y46455D01*
X73159Y46489D01*
X73164Y46568D01*
X73165Y46612D01*
X73365Y46625D01*
X73366Y46581D01*
D02*
G37*
G36*
X72386Y46550D02*
X72392Y46472D01*
X72397Y46437D01*
X72404Y46405D01*
X72412Y46377D01*
X72422Y46351D01*
X72433Y46329D01*
X72446Y46310D01*
X72460Y46294D01*
X72110D01*
X72124Y46310D01*
X72137Y46329D01*
X72148Y46351D01*
X72158Y46377D01*
X72166Y46405D01*
X72173Y46437D01*
X72178Y46472D01*
X72184Y46550D01*
X72185Y46594D01*
X72385D01*
X72386Y46550D01*
D02*
G37*
G36*
X74798Y46405D02*
X74777Y46404D01*
X74755Y46399D01*
X74732Y46392D01*
X74708Y46381D01*
X74683Y46367D01*
X74657Y46349D01*
X74629Y46329D01*
X74571Y46278D01*
X74540Y46248D01*
X74398Y46390D01*
X74428Y46421D01*
X74479Y46479D01*
X74499Y46507D01*
X74517Y46533D01*
X74531Y46558D01*
X74542Y46582D01*
X74549Y46605D01*
X74554Y46627D01*
X74555Y46648D01*
X74798Y46405D01*
D02*
G37*
G36*
X62386Y46083D02*
X62398Y46046D01*
X62406Y46029D01*
X62414Y46013D01*
X62423Y45997D01*
X62432Y45982D01*
X62443Y45967D01*
X62454Y45954D01*
X62467Y45941D01*
X62325Y45799D01*
X62319Y45805D01*
X62311Y45809D01*
X62301Y45812D01*
X62291Y45814D01*
X62278Y45815D01*
X62265Y45815D01*
X62250Y45814D01*
X62234Y45812D01*
X62197Y45805D01*
X62381Y46102D01*
X62386Y46083D01*
D02*
G37*
G36*
X59810Y48469D02*
Y48376D01*
X59838Y48272D01*
X59892Y48178D01*
X59968Y48102D01*
X60062Y48048D01*
X60166Y48020D01*
X60274D01*
X60378Y48048D01*
X60468Y48100D01*
X60496Y48092D01*
X60518Y48083D01*
Y45546D01*
X60468Y45526D01*
X59643Y46350D01*
Y48571D01*
X59689Y48590D01*
X59810Y48469D01*
D02*
G37*
G36*
X77017Y45670D02*
X76996Y45669D01*
X76973Y45664D01*
X76949Y45656D01*
X76925Y45645D01*
X76899Y45631D01*
X76871Y45613D01*
X76843Y45592D01*
X76783Y45541D01*
X76752Y45510D01*
X76610Y45652D01*
X76641Y45683D01*
X76692Y45743D01*
X76713Y45771D01*
X76731Y45799D01*
X76745Y45825D01*
X76756Y45849D01*
X76764Y45873D01*
X76769Y45896D01*
X76770Y45918D01*
X77017Y45670D01*
D02*
G37*
G36*
X74461Y45455D02*
X74445Y45469D01*
X74426Y45482D01*
X74404Y45493D01*
X74378Y45503D01*
X74350Y45511D01*
X74318Y45518D01*
X74283Y45523D01*
X74205Y45529D01*
X74161Y45530D01*
Y45730D01*
X74205Y45731D01*
X74283Y45737D01*
X74318Y45742D01*
X74350Y45749D01*
X74378Y45757D01*
X74404Y45767D01*
X74426Y45778D01*
X74445Y45791D01*
X74461Y45805D01*
Y45455D01*
D02*
G37*
G36*
X66525Y45541D02*
X66544Y45528D01*
X66566Y45517D01*
X66592Y45507D01*
X66620Y45499D01*
X66652Y45492D01*
X66687Y45487D01*
X66765Y45481D01*
X66809Y45480D01*
Y45280D01*
X66765Y45279D01*
X66687Y45273D01*
X66652Y45268D01*
X66620Y45261D01*
X66592Y45253D01*
X66566Y45243D01*
X66544Y45232D01*
X66525Y45219D01*
X66509Y45205D01*
Y45555D01*
X66525Y45541D01*
D02*
G37*
G36*
X66151Y45205D02*
X66135Y45219D01*
X66116Y45232D01*
X66094Y45243D01*
X66068Y45253D01*
X66040Y45261D01*
X66008Y45268D01*
X65973Y45273D01*
X65895Y45279D01*
X65851Y45280D01*
Y45480D01*
X65895Y45481D01*
X65973Y45487D01*
X66008Y45492D01*
X66040Y45499D01*
X66068Y45507D01*
X66094Y45517D01*
X66116Y45528D01*
X66135Y45541D01*
X66151Y45555D01*
Y45205D01*
D02*
G37*
G36*
X64675Y45091D02*
X64694Y45078D01*
X64716Y45067D01*
X64742Y45057D01*
X64770Y45049D01*
X64802Y45042D01*
X64837Y45037D01*
X64915Y45031D01*
X64959Y45030D01*
Y44830D01*
X64915Y44829D01*
X64837Y44823D01*
X64802Y44818D01*
X64770Y44811D01*
X64742Y44803D01*
X64716Y44793D01*
X64694Y44782D01*
X64675Y44769D01*
X64659Y44755D01*
X64480Y44930D01*
X64659Y45105D01*
X64675Y45091D01*
D02*
G37*
G36*
X64480Y44930D02*
X64301Y44755D01*
X64285Y44769D01*
X64266Y44782D01*
X64244Y44793D01*
X64218Y44803D01*
X64190Y44811D01*
X64158Y44818D01*
X64123Y44823D01*
X64045Y44829D01*
X64001Y44830D01*
Y45030D01*
X64045Y45031D01*
X64123Y45037D01*
X64158Y45042D01*
X64190Y45049D01*
X64218Y45057D01*
X64244Y45067D01*
X64266Y45078D01*
X64285Y45091D01*
X64301Y45105D01*
X64480Y44930D01*
D02*
G37*
G36*
X77298Y45550D02*
Y44727D01*
X76263D01*
X76244Y44773D01*
X76981Y45510D01*
X77074D01*
X77178Y45538D01*
X77248Y45578D01*
X77298Y45550D01*
D02*
G37*
G36*
X65611Y44295D02*
X65595Y44309D01*
X65576Y44322D01*
X65554Y44333D01*
X65528Y44343D01*
X65500Y44351D01*
X65468Y44358D01*
X65433Y44363D01*
X65355Y44369D01*
X65311Y44370D01*
Y44570D01*
X65355Y44571D01*
X65433Y44577D01*
X65468Y44582D01*
X65500Y44589D01*
X65528Y44597D01*
X65554Y44607D01*
X65576Y44618D01*
X65595Y44631D01*
X65611Y44645D01*
Y44295D01*
D02*
G37*
G36*
X65988Y44627D02*
X66007Y44614D01*
X66029Y44602D01*
X66054Y44592D01*
X66083Y44584D01*
X66114Y44577D01*
X66149Y44572D01*
X66187Y44568D01*
X66271Y44565D01*
X66267Y44365D01*
X66223Y44364D01*
X66144Y44358D01*
X66110Y44353D01*
X66078Y44347D01*
X66049Y44339D01*
X66024Y44329D01*
X66001Y44318D01*
X65982Y44305D01*
X65965Y44291D01*
X65972Y44641D01*
X65988Y44627D01*
D02*
G37*
G36*
X68571Y43922D02*
X68629Y43871D01*
X68657Y43851D01*
X68683Y43833D01*
X68708Y43819D01*
X68732Y43808D01*
X68755Y43801D01*
X68777Y43796D01*
X68798Y43795D01*
X68555Y43552D01*
X68554Y43573D01*
X68549Y43595D01*
X68542Y43618D01*
X68531Y43642D01*
X68517Y43667D01*
X68499Y43693D01*
X68479Y43721D01*
X68428Y43779D01*
X68398Y43810D01*
X68540Y43952D01*
X68571Y43922D01*
D02*
G37*
G36*
X66259Y39814D02*
X65841D01*
X65842Y39818D01*
X65844Y39829D01*
X65845Y39845D01*
X65849Y39969D01*
X65850Y40122D01*
X66250D01*
X66259Y39814D01*
D02*
G37*
G36*
X65259D02*
X64841D01*
X64842Y39818D01*
X64844Y39829D01*
X64845Y39845D01*
X64849Y39969D01*
X64850Y40122D01*
X65250D01*
X65259Y39814D01*
D02*
G37*
G36*
X64259D02*
X63841D01*
X63842Y39818D01*
X63844Y39829D01*
X63845Y39845D01*
X63849Y39969D01*
X63850Y40122D01*
X64250D01*
X64259Y39814D01*
D02*
G37*
G36*
X63259D02*
X62841D01*
X62842Y39818D01*
X62844Y39829D01*
X62845Y39845D01*
X62849Y39969D01*
X62850Y40122D01*
X63250D01*
X63259Y39814D01*
D02*
G37*
%LPC*%
G36*
X71443Y49471D02*
X71351Y49380D01*
X71443Y49289D01*
X71460Y49330D01*
Y49430D01*
X71443Y49471D01*
D02*
G37*
G36*
X68845Y46995D02*
X68755D01*
X68667Y46971D01*
X68637Y46954D01*
X68800Y46791D01*
X68963Y46954D01*
X68933Y46971D01*
X68845Y46995D01*
D02*
G37*
G36*
X69104Y46813D02*
X68941Y46650D01*
X69104Y46487D01*
X69121Y46517D01*
X69145Y46605D01*
Y46695D01*
X69121Y46783D01*
X69104Y46813D01*
D02*
G37*
G36*
X68496Y46813D02*
X68479Y46783D01*
X68455Y46695D01*
Y46605D01*
X68479Y46517D01*
X68496Y46487D01*
X68659Y46650D01*
X68496Y46813D01*
D02*
G37*
G36*
X68800Y46509D02*
X68637Y46346D01*
X68667Y46329D01*
X68755Y46305D01*
X68845D01*
X68933Y46329D01*
X68963Y46346D01*
X68800Y46509D01*
D02*
G37*
G36*
X61503Y58999D02*
X61397D01*
X61296Y58972D01*
X61247Y58944D01*
X61450Y58741D01*
X61653Y58944D01*
X61604Y58972D01*
X61503Y58999D01*
D02*
G37*
G36*
X61106Y58803D02*
X61078Y58754D01*
X61051Y58653D01*
Y58547D01*
X61063Y58503D01*
X61151Y58597D01*
X61228Y58520D01*
X61309Y58600D01*
X61106Y58803D01*
D02*
G37*
G36*
X58510Y59059D02*
X58390D01*
X58273Y59028D01*
X58168Y58967D01*
X58083Y58882D01*
X58022Y58777D01*
X57991Y58660D01*
Y58540D01*
X58022Y58423D01*
X58083Y58318D01*
X58168Y58233D01*
X58273Y58172D01*
X58390Y58141D01*
X58510D01*
X58627Y58172D01*
X58732Y58233D01*
X58817Y58318D01*
X58878Y58423D01*
X58909Y58540D01*
Y58660D01*
X58878Y58777D01*
X58817Y58882D01*
X58732Y58967D01*
X58627Y59028D01*
X58510Y59059D01*
D02*
G37*
G36*
X59535Y56989D02*
X59443D01*
X59354Y56965D01*
X59322Y56947D01*
X59489Y56780D01*
X59655Y56947D01*
X59624Y56965D01*
X59535Y56989D01*
D02*
G37*
G36*
X59797Y56805D02*
X59630Y56639D01*
X59797Y56472D01*
X59815Y56504D01*
X59839Y56593D01*
Y56685D01*
X59815Y56774D01*
X59797Y56805D01*
D02*
G37*
G36*
X59489Y56497D02*
X59322Y56331D01*
X59354Y56313D01*
X59443Y56289D01*
X59535D01*
X59624Y56313D01*
X59655Y56331D01*
X59489Y56497D01*
D02*
G37*
G36*
X66510Y59059D02*
X66390D01*
X66273Y59028D01*
X66168Y58967D01*
X66083Y58882D01*
X66022Y58777D01*
X65991Y58660D01*
Y58540D01*
X66022Y58423D01*
X66083Y58318D01*
X66168Y58233D01*
X66188Y58221D01*
Y57369D01*
X65379Y56560D01*
X65286D01*
X65182Y56532D01*
X65088Y56478D01*
X65012Y56402D01*
X64958Y56308D01*
X64930Y56204D01*
Y56096D01*
X64958Y55992D01*
X65012Y55898D01*
X65088Y55822D01*
X65182Y55768D01*
X65286Y55740D01*
X65394D01*
X65498Y55768D01*
X65592Y55822D01*
X65668Y55898D01*
X65722Y55992D01*
X65750Y56096D01*
Y56189D01*
X66635Y57075D01*
X66635Y57075D01*
X66677Y57129D01*
X66703Y57192D01*
X66712Y57260D01*
X66712Y57260D01*
Y58221D01*
X66732Y58233D01*
X66817Y58318D01*
X66878Y58423D01*
X66909Y58540D01*
Y58660D01*
X66878Y58777D01*
X66817Y58882D01*
X66732Y58967D01*
X66627Y59028D01*
X66510Y59059D01*
D02*
G37*
G36*
X66444Y55710D02*
X66336D01*
X66232Y55682D01*
X66138Y55628D01*
X66062Y55552D01*
X66008Y55458D01*
X65980Y55354D01*
Y55261D01*
X65151Y54432D01*
X63218D01*
X63152Y54498D01*
X63058Y54552D01*
X62954Y54580D01*
X62846D01*
X62742Y54552D01*
X62648Y54498D01*
X62572Y54422D01*
X62518Y54328D01*
X62490Y54224D01*
Y54116D01*
X62518Y54012D01*
X62572Y53918D01*
X62648Y53842D01*
X62742Y53788D01*
X62846Y53760D01*
X62954D01*
X63058Y53788D01*
X63152Y53842D01*
X63218Y53908D01*
X65260D01*
X65260Y53908D01*
X65328Y53917D01*
X65391Y53943D01*
X65445Y53985D01*
X66351Y54890D01*
X66444D01*
X66548Y54918D01*
X66642Y54972D01*
X66718Y55048D01*
X66772Y55142D01*
X66800Y55246D01*
Y55354D01*
X66772Y55458D01*
X66718Y55552D01*
X66642Y55628D01*
X66548Y55682D01*
X66444Y55710D01*
D02*
G37*
G36*
X76744Y48814D02*
X76713Y48760D01*
X76685Y48655D01*
Y48545D01*
X76713Y48440D01*
X76744Y48386D01*
X76959Y48600D01*
X76744Y48814D01*
D02*
G37*
%LPD*%
G36*
X66639Y58363D02*
X66620Y58337D01*
X66604Y58308D01*
X66589Y58276D01*
X66577Y58241D01*
X66568Y58203D01*
X66560Y58161D01*
X66554Y58117D01*
X66551Y58069D01*
X66550Y58019D01*
X66350D01*
X66349Y58069D01*
X66340Y58161D01*
X66332Y58203D01*
X66323Y58241D01*
X66311Y58276D01*
X66296Y58308D01*
X66280Y58337D01*
X66261Y58363D01*
X66241Y58386D01*
X66659D01*
X66639Y58363D01*
D02*
G37*
G36*
X65750Y56418D02*
X65719Y56387D01*
X65668Y56327D01*
X65647Y56299D01*
X65629Y56271D01*
X65615Y56245D01*
X65604Y56221D01*
X65596Y56197D01*
X65591Y56174D01*
X65590Y56153D01*
X65342Y56400D01*
X65364Y56401D01*
X65387Y56406D01*
X65411Y56414D01*
X65435Y56425D01*
X65461Y56439D01*
X65489Y56457D01*
X65517Y56478D01*
X65577Y56529D01*
X65608Y56560D01*
X65750Y56418D01*
D02*
G37*
G36*
X66388Y55050D02*
X66366Y55049D01*
X66343Y55044D01*
X66319Y55036D01*
X66295Y55025D01*
X66269Y55011D01*
X66241Y54993D01*
X66213Y54972D01*
X66153Y54921D01*
X66122Y54890D01*
X65980Y55032D01*
X66011Y55063D01*
X66062Y55123D01*
X66083Y55151D01*
X66101Y55179D01*
X66115Y55205D01*
X66126Y55229D01*
X66134Y55253D01*
X66139Y55276D01*
X66140Y55297D01*
X66388Y55050D01*
D02*
G37*
G36*
X63095Y54331D02*
X63114Y54318D01*
X63136Y54307D01*
X63162Y54297D01*
X63190Y54289D01*
X63222Y54282D01*
X63257Y54277D01*
X63335Y54271D01*
X63379Y54270D01*
Y54070D01*
X63335Y54069D01*
X63257Y54063D01*
X63222Y54058D01*
X63190Y54051D01*
X63162Y54043D01*
X63136Y54033D01*
X63114Y54022D01*
X63095Y54009D01*
X63079Y53995D01*
Y54345D01*
X63095Y54331D01*
D02*
G37*
%LPC*%
G36*
X53243Y57703D02*
X53151D01*
X53062Y57679D01*
X53031Y57661D01*
X53197Y57494D01*
X53364Y57661D01*
X53332Y57679D01*
X53243Y57703D01*
D02*
G37*
G36*
X53505Y57519D02*
X53339Y57353D01*
X53505Y57186D01*
X53523Y57218D01*
X53547Y57307D01*
Y57399D01*
X53523Y57488D01*
X53505Y57519D01*
D02*
G37*
G36*
X52889D02*
X52871Y57488D01*
X52847Y57399D01*
Y57307D01*
X52871Y57218D01*
X52889Y57186D01*
X53056Y57353D01*
X52889Y57519D01*
D02*
G37*
G36*
X53197Y57211D02*
X53031Y57045D01*
X53062Y57027D01*
X53151Y57003D01*
X53243D01*
X53332Y57027D01*
X53364Y57045D01*
X53197Y57211D01*
D02*
G37*
G36*
X53317Y52981D02*
X53300Y52940D01*
Y52840D01*
X53317Y52799D01*
X53409Y52890D01*
X53317Y52981D01*
D02*
G37*
G36*
X56683Y53075D02*
X56557D01*
X56437Y53043D01*
X56328Y52980D01*
X56240Y52892D01*
X56177Y52783D01*
X56145Y52663D01*
Y52537D01*
X56177Y52417D01*
X56240Y52308D01*
X56328Y52220D01*
X56437Y52157D01*
X56557Y52125D01*
X56683D01*
X56803Y52157D01*
X56912Y52220D01*
X57000Y52308D01*
X57063Y52417D01*
X57095Y52537D01*
Y52663D01*
X57063Y52783D01*
X57000Y52892D01*
X56912Y52980D01*
X56803Y53043D01*
X56683Y53075D01*
D02*
G37*
G36*
X55683D02*
X55557D01*
X55437Y53043D01*
X55328Y52980D01*
X55240Y52892D01*
X55177Y52783D01*
X55145Y52663D01*
Y52537D01*
X55177Y52417D01*
X55240Y52308D01*
X55328Y52220D01*
X55437Y52157D01*
X55557Y52125D01*
X55683D01*
X55803Y52157D01*
X55912Y52220D01*
X56000Y52308D01*
X56063Y52417D01*
X56095Y52537D01*
Y52663D01*
X56063Y52783D01*
X56000Y52892D01*
X55912Y52980D01*
X55803Y53043D01*
X55683Y53075D01*
D02*
G37*
G36*
X57592Y51877D02*
X57574Y51845D01*
X57550Y51756D01*
Y51664D01*
X57574Y51575D01*
X57592Y51543D01*
X57759Y51710D01*
X57592Y51877D01*
D02*
G37*
G36*
X54056Y49460D02*
X53964D01*
X53875Y49436D01*
X53843Y49418D01*
X54010Y49251D01*
X54177Y49418D01*
X54145Y49436D01*
X54056Y49460D01*
D02*
G37*
G36*
X54318Y49277D02*
X54151Y49110D01*
X54318Y48943D01*
X54336Y48975D01*
X54360Y49064D01*
Y49156D01*
X54336Y49245D01*
X54318Y49277D01*
D02*
G37*
G36*
X53702D02*
X53684Y49245D01*
X53660Y49156D01*
Y49064D01*
X53684Y48975D01*
X53702Y48943D01*
X53869Y49110D01*
X53702Y49277D01*
D02*
G37*
G36*
X54010Y48969D02*
X53843Y48802D01*
X53875Y48784D01*
X53964Y48760D01*
X54056D01*
X54145Y48784D01*
X54177Y48802D01*
X54010Y48969D01*
D02*
G37*
G36*
X53146Y48910D02*
X53054D01*
X52965Y48886D01*
X52933Y48868D01*
X53100Y48701D01*
X53267Y48868D01*
X53235Y48886D01*
X53146Y48910D01*
D02*
G37*
G36*
X53408Y48727D02*
X53241Y48560D01*
X53408Y48393D01*
X53426Y48425D01*
X53450Y48514D01*
Y48606D01*
X53426Y48695D01*
X53408Y48727D01*
D02*
G37*
G36*
X52792D02*
X52774Y48695D01*
X52750Y48606D01*
Y48514D01*
X52774Y48425D01*
X52792Y48393D01*
X52959Y48560D01*
X52792Y48727D01*
D02*
G37*
G36*
X53100Y48419D02*
X52933Y48252D01*
X52965Y48234D01*
X53054Y48210D01*
X53146D01*
X53235Y48234D01*
X53267Y48252D01*
X53100Y48419D01*
D02*
G37*
G36*
X53339Y50450D02*
X53231D01*
X53127Y50422D01*
X53033Y50368D01*
X52957Y50292D01*
X52903Y50198D01*
X52893Y50162D01*
X51756Y49025D01*
X51699Y48949D01*
X51662Y48862D01*
X51650Y48768D01*
Y46308D01*
X51631Y46275D01*
X51603Y46171D01*
Y46063D01*
X51631Y45959D01*
X51685Y45865D01*
X51761Y45789D01*
X51855Y45735D01*
X51959Y45707D01*
X52067D01*
X52171Y45735D01*
X52265Y45789D01*
X52341Y45865D01*
X52395Y45959D01*
X52423Y46063D01*
Y46171D01*
X52395Y46275D01*
X52376Y46308D01*
Y48618D01*
X53407Y49648D01*
X53443Y49658D01*
X53537Y49712D01*
X53613Y49788D01*
X53667Y49882D01*
X53695Y49986D01*
Y50094D01*
X53667Y50198D01*
X53613Y50292D01*
X53537Y50368D01*
X53443Y50422D01*
X53339Y50450D01*
D02*
G37*
G36*
X55276Y44320D02*
X55184D01*
X55095Y44296D01*
X55063Y44278D01*
X55230Y44111D01*
X55397Y44278D01*
X55365Y44296D01*
X55276Y44320D01*
D02*
G37*
G36*
X55538Y44137D02*
X55371Y43970D01*
X55538Y43803D01*
X55556Y43835D01*
X55580Y43924D01*
Y44016D01*
X55556Y44105D01*
X55538Y44137D01*
D02*
G37*
G36*
X54922D02*
X54904Y44105D01*
X54880Y44016D01*
Y43924D01*
X54904Y43835D01*
X54922Y43803D01*
X55089Y43970D01*
X54922Y44137D01*
D02*
G37*
G36*
X69845Y43895D02*
X69755D01*
X69667Y43871D01*
X69637Y43854D01*
X69800Y43691D01*
X69963Y43854D01*
X69933Y43871D01*
X69845Y43895D01*
D02*
G37*
G36*
X55230Y43829D02*
X55063Y43662D01*
X55095Y43644D01*
X55184Y43620D01*
X55276D01*
X55365Y43644D01*
X55397Y43662D01*
X55230Y43829D01*
D02*
G37*
G36*
X69496Y43713D02*
X69479Y43683D01*
X69455Y43595D01*
Y43505D01*
X69479Y43417D01*
X69496Y43387D01*
X69659Y43550D01*
X69496Y43713D01*
D02*
G37*
G36*
X70104D02*
X69941Y43550D01*
X70104Y43387D01*
X70121Y43417D01*
X70145Y43505D01*
Y43595D01*
X70121Y43683D01*
X70104Y43713D01*
D02*
G37*
G36*
X69800Y43409D02*
X69637Y43246D01*
X69667Y43229D01*
X69755Y43205D01*
X69845D01*
X69933Y43229D01*
X69963Y43246D01*
X69800Y43409D01*
D02*
G37*
G36*
X53749Y42770D02*
X52831D01*
X53290Y42311D01*
X53749Y42770D01*
D02*
G37*
G36*
X52690Y42629D02*
Y41111D01*
X53219Y41641D01*
X53290Y41570D01*
X53361Y41641D01*
X53890Y41111D01*
Y42629D01*
X53361Y42099D01*
X53290Y42170D01*
X53219Y42099D01*
X52690Y42629D01*
D02*
G37*
G36*
X53290Y41429D02*
X52831Y40970D01*
X53749D01*
X53290Y41429D01*
D02*
G37*
G36*
X56450Y42830D02*
X55130D01*
Y40910D01*
X56450D01*
Y42830D01*
D02*
G37*
G36*
X71853Y43955D02*
X71747D01*
X71644Y43927D01*
X71552Y43874D01*
X71476Y43798D01*
X71423Y43706D01*
X71395Y43603D01*
Y43497D01*
X71423Y43394D01*
X71476Y43302D01*
X71538Y43240D01*
Y40097D01*
X71509Y40059D01*
X71488Y40059D01*
X71062D01*
Y43240D01*
X71124Y43302D01*
X71177Y43394D01*
X71205Y43497D01*
Y43603D01*
X71177Y43706D01*
X71124Y43798D01*
X71048Y43874D01*
X70956Y43927D01*
X70853Y43955D01*
X70747D01*
X70644Y43927D01*
X70552Y43874D01*
X70476Y43798D01*
X70423Y43706D01*
X70395Y43603D01*
Y43497D01*
X70423Y43394D01*
X70476Y43302D01*
X70538Y43240D01*
Y39850D01*
X70538Y39850D01*
X70547Y39782D01*
X70573Y39719D01*
X70591Y39696D01*
Y39141D01*
X71509D01*
Y39850D01*
X71559Y39860D01*
X71573Y39827D01*
X71615Y39772D01*
X71619Y39767D01*
X71591Y39660D01*
Y39540D01*
X71622Y39423D01*
X71683Y39318D01*
X71768Y39233D01*
X71873Y39172D01*
X71990Y39141D01*
X72110D01*
X72227Y39172D01*
X72332Y39233D01*
X72417Y39318D01*
X72478Y39423D01*
X72509Y39540D01*
Y39660D01*
X72478Y39777D01*
X72417Y39882D01*
X72332Y39967D01*
X72227Y40028D01*
X72110Y40059D01*
X72069D01*
X72062Y40066D01*
Y43240D01*
X72124Y43302D01*
X72177Y43394D01*
X72205Y43497D01*
Y43603D01*
X72177Y43706D01*
X72124Y43798D01*
X72048Y43874D01*
X71956Y43927D01*
X71853Y43955D01*
D02*
G37*
G36*
X67848Y39945D02*
X67847Y39944D01*
X67848Y39943D01*
X67848Y39945D01*
D02*
G37*
G36*
X68122Y39814D02*
X67978D01*
X68050Y39741D01*
X68122Y39814D01*
D02*
G37*
G36*
X67103Y39999D02*
X66997D01*
X66896Y39972D01*
X66847Y39944D01*
X67050Y39741D01*
X67253Y39944D01*
X67204Y39972D01*
X67103Y39999D01*
D02*
G37*
G36*
X55690Y40329D02*
X55231Y39870D01*
X55690Y39411D01*
Y40329D01*
D02*
G37*
G36*
X53890Y40329D02*
Y39411D01*
X54349Y39870D01*
X53890Y40329D01*
D02*
G37*
G36*
X68394Y39803D02*
X68191Y39600D01*
X68394Y39397D01*
X68422Y39446D01*
X68449Y39547D01*
Y39653D01*
X68422Y39754D01*
X68394Y39803D01*
D02*
G37*
G36*
X67394D02*
X67191Y39600D01*
X67394Y39397D01*
X67422Y39446D01*
X67449Y39547D01*
Y39653D01*
X67422Y39754D01*
X67394Y39803D01*
D02*
G37*
G36*
X67706D02*
X67678Y39754D01*
X67651Y39653D01*
Y39547D01*
X67678Y39446D01*
X67706Y39397D01*
X67909Y39600D01*
X67706Y39803D01*
D02*
G37*
G36*
X66706D02*
X66678Y39754D01*
X66651Y39653D01*
Y39547D01*
X66678Y39446D01*
X66706Y39397D01*
X66909Y39600D01*
X66706Y39803D01*
D02*
G37*
G36*
X55549Y40470D02*
X54031D01*
X54561Y39941D01*
X54490Y39870D01*
X54561Y39799D01*
X54031Y39270D01*
X55549D01*
X55019Y39799D01*
X55090Y39870D01*
X55019Y39941D01*
X55549Y40470D01*
D02*
G37*
G36*
X68050Y39459D02*
X67847Y39256D01*
X67896Y39228D01*
X67997Y39201D01*
X68103D01*
X68204Y39228D01*
X68253Y39256D01*
X68050Y39459D01*
D02*
G37*
G36*
X67050D02*
X66847Y39256D01*
X66896Y39228D01*
X66997Y39201D01*
X67103D01*
X67204Y39228D01*
X67253Y39256D01*
X67050Y39459D01*
D02*
G37*
G36*
X75853Y43955D02*
X75747D01*
X75644Y43927D01*
X75552Y43874D01*
X75476Y43798D01*
X75423Y43706D01*
X75395Y43603D01*
Y43497D01*
X75423Y43394D01*
X75476Y43302D01*
X75538Y43240D01*
Y39958D01*
X75538Y39958D01*
X75547Y39890D01*
X75573Y39827D01*
X75615Y39772D01*
X75619Y39767D01*
X75591Y39660D01*
Y39540D01*
X75622Y39423D01*
X75683Y39318D01*
X75768Y39233D01*
X75873Y39172D01*
X75990Y39141D01*
X76110D01*
X76227Y39172D01*
X76332Y39233D01*
X76417Y39318D01*
X76478Y39423D01*
X76509Y39540D01*
Y39660D01*
X76478Y39777D01*
X76417Y39882D01*
X76332Y39967D01*
X76227Y40028D01*
X76110Y40059D01*
X76069D01*
X76062Y40066D01*
Y43240D01*
X76124Y43302D01*
X76177Y43394D01*
X76205Y43497D01*
Y43603D01*
X76177Y43706D01*
X76124Y43798D01*
X76048Y43874D01*
X75956Y43927D01*
X75853Y43955D01*
D02*
G37*
G36*
X74853D02*
X74747D01*
X74644Y43927D01*
X74552Y43874D01*
X74476Y43798D01*
X74423Y43706D01*
X74395Y43603D01*
Y43497D01*
X74423Y43394D01*
X74476Y43302D01*
X74538Y43240D01*
Y39958D01*
X74538Y39958D01*
X74547Y39890D01*
X74573Y39827D01*
X74615Y39772D01*
X74619Y39767D01*
X74591Y39660D01*
Y39540D01*
X74622Y39423D01*
X74683Y39318D01*
X74768Y39233D01*
X74873Y39172D01*
X74990Y39141D01*
X75110D01*
X75227Y39172D01*
X75332Y39233D01*
X75417Y39318D01*
X75478Y39423D01*
X75509Y39540D01*
Y39660D01*
X75478Y39777D01*
X75417Y39882D01*
X75332Y39967D01*
X75227Y40028D01*
X75110Y40059D01*
X75069D01*
X75062Y40066D01*
Y43240D01*
X75124Y43302D01*
X75177Y43394D01*
X75205Y43497D01*
Y43603D01*
X75177Y43706D01*
X75124Y43798D01*
X75048Y43874D01*
X74956Y43927D01*
X74853Y43955D01*
D02*
G37*
G36*
X73853D02*
X73747D01*
X73644Y43927D01*
X73552Y43874D01*
X73476Y43798D01*
X73423Y43706D01*
X73395Y43603D01*
Y43497D01*
X73423Y43394D01*
X73476Y43302D01*
X73538Y43240D01*
Y39958D01*
X73538Y39958D01*
X73547Y39890D01*
X73573Y39827D01*
X73615Y39772D01*
X73619Y39767D01*
X73591Y39660D01*
Y39540D01*
X73622Y39423D01*
X73683Y39318D01*
X73768Y39233D01*
X73873Y39172D01*
X73990Y39141D01*
X74110D01*
X74227Y39172D01*
X74332Y39233D01*
X74417Y39318D01*
X74478Y39423D01*
X74509Y39540D01*
Y39660D01*
X74478Y39777D01*
X74417Y39882D01*
X74332Y39967D01*
X74227Y40028D01*
X74110Y40059D01*
X74069D01*
X74062Y40066D01*
Y43240D01*
X74124Y43302D01*
X74177Y43394D01*
X74205Y43497D01*
Y43603D01*
X74177Y43706D01*
X74124Y43798D01*
X74048Y43874D01*
X73956Y43927D01*
X73853Y43955D01*
D02*
G37*
G36*
X72853D02*
X72747D01*
X72644Y43927D01*
X72552Y43874D01*
X72476Y43798D01*
X72423Y43706D01*
X72395Y43603D01*
Y43497D01*
X72423Y43394D01*
X72476Y43302D01*
X72538Y43240D01*
Y39958D01*
X72538Y39958D01*
X72547Y39890D01*
X72573Y39827D01*
X72615Y39772D01*
X72619Y39767D01*
X72591Y39660D01*
Y39540D01*
X72622Y39423D01*
X72683Y39318D01*
X72768Y39233D01*
X72873Y39172D01*
X72990Y39141D01*
X73110D01*
X73227Y39172D01*
X73332Y39233D01*
X73417Y39318D01*
X73478Y39423D01*
X73509Y39540D01*
Y39660D01*
X73478Y39777D01*
X73417Y39882D01*
X73332Y39967D01*
X73227Y40028D01*
X73110Y40059D01*
X73069D01*
X73062Y40066D01*
Y43240D01*
X73124Y43302D01*
X73177Y43394D01*
X73205Y43497D01*
Y43603D01*
X73177Y43706D01*
X73124Y43798D01*
X73048Y43874D01*
X72956Y43927D01*
X72853Y43955D01*
D02*
G37*
G36*
X69110Y40059D02*
X68990D01*
X68873Y40028D01*
X68768Y39967D01*
X68683Y39882D01*
X68622Y39777D01*
X68591Y39660D01*
Y39540D01*
X68622Y39423D01*
X68683Y39318D01*
X68768Y39233D01*
X68873Y39172D01*
X68990Y39141D01*
X69110D01*
X69227Y39172D01*
X69332Y39233D01*
X69417Y39318D01*
X69478Y39423D01*
X69509Y39540D01*
Y39660D01*
X69478Y39777D01*
X69417Y39882D01*
X69332Y39967D01*
X69227Y40028D01*
X69110Y40059D01*
D02*
G37*
G36*
X62509D02*
X61591D01*
Y39141D01*
X62509D01*
Y40059D01*
D02*
G37*
%LPD*%
G36*
X71958Y43360D02*
X71946Y43341D01*
X71935Y43320D01*
X71926Y43295D01*
X71918Y43267D01*
X71911Y43236D01*
X71906Y43202D01*
X71901Y43125D01*
X71900Y43082D01*
X71700D01*
X71699Y43125D01*
X71694Y43202D01*
X71689Y43236D01*
X71682Y43267D01*
X71674Y43295D01*
X71665Y43320D01*
X71654Y43341D01*
X71642Y43360D01*
X71629Y43375D01*
X71971D01*
X71958Y43360D01*
D02*
G37*
G36*
X70958D02*
X70946Y43341D01*
X70935Y43320D01*
X70926Y43295D01*
X70918Y43267D01*
X70911Y43236D01*
X70906Y43202D01*
X70901Y43125D01*
X70900Y43082D01*
X70700D01*
X70699Y43125D01*
X70694Y43202D01*
X70689Y43236D01*
X70682Y43267D01*
X70674Y43295D01*
X70665Y43320D01*
X70654Y43341D01*
X70642Y43360D01*
X70629Y43375D01*
X70971D01*
X70958Y43360D01*
D02*
G37*
G36*
X70901Y40060D02*
X70904Y40026D01*
X70909Y39996D01*
X70916Y39969D01*
X70925Y39947D01*
X70936Y39929D01*
X70949Y39915D01*
X70964Y39905D01*
X70981Y39899D01*
X71000Y39897D01*
X70752Y39898D01*
X70700Y40098D01*
X70900D01*
X70901Y40060D01*
D02*
G37*
G36*
X71891Y40009D02*
X71913Y39991D01*
X71935Y39974D01*
X71959Y39958D01*
X71984Y39944D01*
X72010Y39931D01*
X72036Y39919D01*
X72093Y39898D01*
X72123Y39890D01*
X71761Y39679D01*
X71768Y39706D01*
X71772Y39732D01*
X71774Y39756D01*
X71774Y39779D01*
X71772Y39800D01*
X71768Y39820D01*
X71762Y39839D01*
X71753Y39856D01*
X71742Y39872D01*
X71729Y39887D01*
X71871Y40029D01*
X71891Y40009D01*
D02*
G37*
G36*
X75958Y43360D02*
X75946Y43341D01*
X75935Y43320D01*
X75926Y43295D01*
X75918Y43267D01*
X75911Y43236D01*
X75906Y43202D01*
X75901Y43125D01*
X75900Y43082D01*
X75700D01*
X75699Y43125D01*
X75694Y43202D01*
X75689Y43236D01*
X75682Y43267D01*
X75674Y43295D01*
X75665Y43320D01*
X75654Y43341D01*
X75642Y43360D01*
X75629Y43375D01*
X75971D01*
X75958Y43360D01*
D02*
G37*
G36*
X75891Y40009D02*
X75913Y39991D01*
X75935Y39974D01*
X75959Y39958D01*
X75984Y39944D01*
X76010Y39931D01*
X76036Y39919D01*
X76093Y39898D01*
X76123Y39890D01*
X75761Y39679D01*
X75768Y39706D01*
X75772Y39732D01*
X75774Y39756D01*
X75774Y39779D01*
X75772Y39800D01*
X75768Y39820D01*
X75762Y39839D01*
X75753Y39856D01*
X75742Y39872D01*
X75729Y39887D01*
X75871Y40029D01*
X75891Y40009D01*
D02*
G37*
G36*
X74958Y43360D02*
X74946Y43341D01*
X74935Y43320D01*
X74926Y43295D01*
X74918Y43267D01*
X74911Y43236D01*
X74906Y43202D01*
X74901Y43125D01*
X74900Y43082D01*
X74700D01*
X74699Y43125D01*
X74694Y43202D01*
X74689Y43236D01*
X74682Y43267D01*
X74674Y43295D01*
X74665Y43320D01*
X74654Y43341D01*
X74642Y43360D01*
X74629Y43375D01*
X74971D01*
X74958Y43360D01*
D02*
G37*
G36*
X74891Y40009D02*
X74913Y39991D01*
X74935Y39974D01*
X74959Y39958D01*
X74984Y39944D01*
X75010Y39931D01*
X75036Y39919D01*
X75093Y39898D01*
X75123Y39890D01*
X74761Y39679D01*
X74768Y39706D01*
X74772Y39732D01*
X74774Y39756D01*
X74774Y39779D01*
X74772Y39800D01*
X74768Y39820D01*
X74762Y39839D01*
X74753Y39856D01*
X74742Y39872D01*
X74729Y39887D01*
X74871Y40029D01*
X74891Y40009D01*
D02*
G37*
G36*
X73958Y43360D02*
X73946Y43341D01*
X73935Y43320D01*
X73926Y43295D01*
X73918Y43267D01*
X73911Y43236D01*
X73906Y43202D01*
X73901Y43125D01*
X73900Y43082D01*
X73700D01*
X73699Y43125D01*
X73694Y43202D01*
X73689Y43236D01*
X73682Y43267D01*
X73674Y43295D01*
X73665Y43320D01*
X73654Y43341D01*
X73642Y43360D01*
X73629Y43375D01*
X73971D01*
X73958Y43360D01*
D02*
G37*
G36*
X73891Y40009D02*
X73913Y39991D01*
X73935Y39974D01*
X73959Y39958D01*
X73984Y39944D01*
X74010Y39931D01*
X74036Y39919D01*
X74093Y39898D01*
X74123Y39890D01*
X73761Y39679D01*
X73768Y39706D01*
X73772Y39732D01*
X73774Y39756D01*
X73774Y39779D01*
X73772Y39800D01*
X73768Y39820D01*
X73762Y39839D01*
X73753Y39856D01*
X73742Y39872D01*
X73729Y39887D01*
X73871Y40029D01*
X73891Y40009D01*
D02*
G37*
G36*
X72958Y43360D02*
X72946Y43341D01*
X72935Y43320D01*
X72926Y43295D01*
X72918Y43267D01*
X72911Y43236D01*
X72906Y43202D01*
X72901Y43125D01*
X72900Y43082D01*
X72700D01*
X72699Y43125D01*
X72694Y43202D01*
X72689Y43236D01*
X72682Y43267D01*
X72674Y43295D01*
X72665Y43320D01*
X72654Y43341D01*
X72642Y43360D01*
X72629Y43375D01*
X72971D01*
X72958Y43360D01*
D02*
G37*
G36*
X72891Y40009D02*
X72913Y39991D01*
X72935Y39974D01*
X72959Y39958D01*
X72984Y39944D01*
X73010Y39931D01*
X73036Y39919D01*
X73093Y39898D01*
X73123Y39890D01*
X72761Y39679D01*
X72768Y39706D01*
X72772Y39732D01*
X72774Y39756D01*
X72774Y39779D01*
X72772Y39800D01*
X72768Y39820D01*
X72762Y39839D01*
X72753Y39856D01*
X72742Y39872D01*
X72729Y39887D01*
X72871Y40029D01*
X72891Y40009D01*
D02*
G37*
D14*
X58830Y56980D02*
X60450Y58600D01*
X58830Y54086D02*
Y56980D01*
X55500Y57860D02*
X55550Y57910D01*
X55190Y57860D02*
X55500D01*
X54410Y57080D02*
X55190Y57860D01*
X54410Y54865D02*
Y57080D01*
X54080Y54535D02*
X54410Y54865D01*
X54080Y52412D02*
Y54535D01*
Y52412D02*
X55522Y50969D01*
X56188D01*
X57606Y49184D02*
Y49552D01*
X56188Y50969D02*
X57606Y49552D01*
Y49184D02*
X58190Y48600D01*
X58830Y54086D02*
X60780Y52136D01*
X61504Y53948D02*
Y56654D01*
X61087Y53532D02*
X61504Y53948D01*
X61804Y53824D02*
Y55954D01*
X61387Y45737D02*
Y53407D01*
X61804Y53824D01*
X61687Y45861D02*
Y53283D01*
X62104Y53700D01*
X62194Y44930D02*
X68644D01*
X61087Y45612D02*
Y53532D01*
X62104Y53700D02*
Y55554D01*
X61687Y45861D02*
X62168Y45380D01*
X61087Y45612D02*
X62230Y44470D01*
X61387Y45737D02*
X62194Y44930D01*
X75260Y45614D02*
Y48760D01*
X76100Y49600D01*
X68644Y44930D02*
X68809Y44765D01*
X70787Y45665D02*
X73441D01*
X73706Y45930D01*
X77438Y44465D02*
X77560Y44587D01*
X73706Y45930D02*
X74080D01*
X74711Y45065D02*
X75260Y45614D01*
X69723Y45065D02*
X74711D01*
X69408Y45380D02*
X69723Y45065D01*
X66330Y45380D02*
X69408D01*
X75865Y44765D02*
X77020Y45920D01*
X67598Y46200D02*
X67818Y45980D01*
X70472D01*
X73831Y45630D02*
X74640D01*
X70620Y45365D02*
X73566D01*
X65790Y44470D02*
X65795Y44465D01*
X67360Y45680D02*
X70305D01*
X73566Y45365D02*
X73831Y45630D01*
X70305Y45680D02*
X70620Y45365D01*
X67170Y45870D02*
X67360Y45680D01*
X65795Y44465D02*
X77438D01*
X74080Y45930D02*
X74800Y46650D01*
X68809Y44765D02*
X75865D01*
X70472Y45980D02*
X70787Y45665D01*
X62320Y46501D02*
X62621Y46200D01*
X62219Y46047D02*
X62396Y45870D01*
X67170D01*
X62621Y46200D02*
X67598D01*
X62230Y44470D02*
X65790D01*
X66616Y43995D02*
X67984D01*
X67989Y43990D02*
X68360D01*
X67984Y43995D02*
X67989Y43990D01*
X68360D02*
X68800Y43550D01*
X77640Y48115D02*
Y49670D01*
X77560Y48035D02*
X77640Y48115D01*
X63820Y46650D02*
X68090Y50920D01*
X63800Y46650D02*
X63820D01*
X68090Y50920D02*
Y57640D01*
X77560Y44587D02*
Y48035D01*
X74800Y46650D02*
Y57350D01*
X76050Y58600D01*
X62460Y50707D02*
Y51860D01*
Y50707D02*
X62650Y50517D01*
Y49405D02*
Y50517D01*
X62320Y49075D02*
X62650Y49405D01*
X62320Y46501D02*
Y49075D01*
X57529Y54539D02*
X59700Y52368D01*
X58240Y54252D02*
Y55430D01*
Y54252D02*
X60170Y52322D01*
Y51650D02*
Y52322D01*
X57529Y54539D02*
Y55369D01*
X60780Y45496D02*
Y52136D01*
X59700Y48950D02*
Y52368D01*
Y48950D02*
X60220Y48430D01*
X60780Y45496D02*
X62281Y43995D01*
X62168Y45380D02*
X66330D01*
X62137Y46047D02*
X62219D01*
X62281Y43995D02*
X65908D01*
X66611Y43990D02*
X66616Y43995D01*
X65908D02*
X65913Y43990D01*
X66611D01*
X62800Y46650D02*
X67450Y51300D01*
Y58600D01*
X72285Y56325D02*
X72290Y56330D01*
X72285Y46115D02*
Y56325D01*
X73265Y46155D02*
Y55735D01*
Y46155D02*
X73280Y46140D01*
X73250Y55750D02*
X73265Y55735D01*
X62104Y55554D02*
X62780Y56230D01*
X61804Y55954D02*
X64450Y58600D01*
X61504Y56654D02*
X63450Y58600D01*
X65260Y54170D02*
X66390Y55300D01*
X62900Y54170D02*
X65260D01*
X61054Y57204D02*
X62450Y58600D01*
X61054Y56554D02*
Y57204D01*
X66450Y57260D02*
Y58600D01*
X65340Y56150D02*
X66450Y57260D01*
X74257Y49372D02*
X74258Y49373D01*
X74257Y49372D02*
X74318Y49310D01*
X74258Y49373D02*
Y54818D01*
X74260Y54820D01*
X72800Y57350D02*
X74050Y58600D01*
X72800Y46650D02*
Y57350D01*
X64340Y57490D02*
X65450Y58600D01*
X64340Y55530D02*
Y57490D01*
X69657Y50507D02*
Y57207D01*
X65800Y46650D02*
X69657Y50507D01*
X64800Y46650D02*
X68700Y50550D01*
X68090Y57640D02*
X69050Y58600D01*
X68700Y57250D02*
X70050Y58600D01*
X68700Y50550D02*
Y57250D01*
X69657Y57207D02*
X71050Y58600D01*
X70800Y57350D02*
X72050Y58600D01*
X70800Y46650D02*
Y57350D01*
X71800Y46650D02*
Y57350D01*
X73050Y58600D01*
X73800Y46650D02*
Y57350D01*
X75050Y58600D01*
X70800Y39850D02*
Y43550D01*
Y39850D02*
X71050Y39600D01*
X71800Y39958D02*
X72050Y39708D01*
X71800Y39958D02*
Y43550D01*
X72050Y39600D02*
Y39708D01*
X72800Y39958D02*
X73050Y39708D01*
Y39600D02*
Y39708D01*
X72800Y39958D02*
Y43550D01*
X73800Y39958D02*
Y43550D01*
Y39958D02*
X74050Y39708D01*
Y39600D02*
Y39708D01*
X75050Y39600D02*
Y39708D01*
X74800Y39958D02*
Y43550D01*
Y39958D02*
X75050Y39708D01*
X75800Y39958D02*
Y43550D01*
Y39958D02*
X76050Y39708D01*
Y39600D02*
Y39708D01*
D43*
X75800Y43550D02*
D03*
X74800D02*
D03*
X73800D02*
D03*
X72800D02*
D03*
X71800D02*
D03*
X70800D02*
D03*
X69800D02*
D03*
X68800D02*
D03*
X67800D02*
D03*
X66800D02*
D03*
X65800D02*
D03*
X64800D02*
D03*
X63800D02*
D03*
X62800D02*
D03*
Y46650D02*
D03*
X63800D02*
D03*
X64800D02*
D03*
X65800D02*
D03*
X66800D02*
D03*
X67800D02*
D03*
X68800D02*
D03*
X69800D02*
D03*
X70800D02*
D03*
X71800D02*
D03*
X72800D02*
D03*
X73800D02*
D03*
X74800D02*
D03*
D44*
X75800D02*
D03*
D45*
X57620Y52600D02*
D03*
D46*
X56620D02*
D03*
X55620D02*
D03*
X54620D02*
D03*
X77100Y50600D02*
D03*
Y49600D02*
D03*
Y48600D02*
D03*
X76100Y49600D02*
D03*
Y48600D02*
D03*
D47*
X71050Y39600D02*
D03*
X62050D02*
D03*
X76050Y58600D02*
D03*
X67450D02*
D03*
D48*
X72050Y39600D02*
D03*
X73050D02*
D03*
X74050D02*
D03*
X75050D02*
D03*
X76050D02*
D03*
X69050D02*
D03*
X68050D02*
D03*
X67050D02*
D03*
X66050D02*
D03*
X65050D02*
D03*
X64050D02*
D03*
X63050D02*
D03*
X69050Y58600D02*
D03*
X70050D02*
D03*
X71050D02*
D03*
X72050D02*
D03*
X73050D02*
D03*
X74050D02*
D03*
X75050D02*
D03*
X65450D02*
D03*
X58450D02*
D03*
X59450D02*
D03*
X60450D02*
D03*
X61450D02*
D03*
X62450D02*
D03*
X63450D02*
D03*
X64450D02*
D03*
X66450D02*
D03*
D49*
X76100Y50600D02*
D03*
D50*
X55790Y41870D02*
D03*
X53290D02*
D03*
D51*
X54790Y39870D02*
D03*
D52*
X77050Y52600D02*
D03*
Y41600D02*
D03*
X56550Y39600D02*
D03*
X57050Y58600D02*
D03*
D53*
X56340Y55162D02*
Y57960D01*
X55312Y58988D02*
X56340Y57960D01*
Y55162D02*
X59280Y52222D01*
X53132Y58988D02*
X55312D01*
X59489Y56639D02*
X61450Y58600D01*
X59999Y53669D02*
Y54362D01*
X60290Y54653D02*
Y54680D01*
X59980Y53650D02*
X59999Y53669D01*
Y54362D02*
X60290Y54653D01*
X59280Y46200D02*
Y52222D01*
X58474Y52236D02*
Y52250D01*
X58470D02*
X58474D01*
Y52236D02*
X58500Y52210D01*
X58330Y51177D02*
X58500Y51347D01*
X58330Y51150D02*
Y51177D01*
X58500Y51347D02*
Y52210D01*
X59280Y46200D02*
X62910Y42570D01*
X64370D01*
X52013Y46117D02*
Y48768D01*
X53285Y50040D01*
X53127Y48560D02*
X53658Y49091D01*
X53991D02*
X54010Y49110D01*
X53658Y49091D02*
X53991D01*
X53100Y48560D02*
X53127D01*
X56873Y48783D02*
Y49610D01*
X56850Y48760D02*
X56873Y48783D01*
Y49610D02*
X56892Y49629D01*
X56850Y48270D02*
Y48760D01*
Y48270D02*
X58290Y46830D01*
X64570Y41510D02*
X64600Y41480D01*
Y41453D02*
Y41480D01*
Y41453D02*
X65050Y41003D01*
Y39600D02*
Y41003D01*
X61620Y42410D02*
X62100D01*
X63050Y39600D02*
Y41460D01*
X62100Y42410D02*
X63050Y41460D01*
X64050Y42250D02*
X64370Y42570D01*
X64050Y39600D02*
Y42250D01*
X66050Y39600D02*
Y41800D01*
X67800Y43550D01*
X68050Y41800D02*
X69800Y43550D01*
X68050Y39600D02*
Y41800D01*
D54*
X77640Y49670D02*
Y49732D01*
X77272Y50100D02*
X77640Y49732D01*
X76625Y50403D02*
X76928Y50100D01*
X76625Y50403D02*
Y50530D01*
X76928Y50100D02*
X77272D01*
X76555Y50600D02*
X76625Y50530D01*
X76100Y50600D02*
X76555D01*
D55*
X55500Y57860D02*
D03*
X58190Y48600D02*
D03*
X62460Y51860D02*
D03*
X60290Y54680D02*
D03*
X55230Y43970D02*
D03*
X57900Y51710D02*
D03*
X58474Y52250D02*
D03*
X58330Y51150D02*
D03*
X60170Y51650D02*
D03*
X59980Y53650D02*
D03*
X74640Y45630D02*
D03*
X62137Y46047D02*
D03*
X66330Y45380D02*
D03*
X64480Y44930D02*
D03*
X65790Y44470D02*
D03*
X72285Y46115D02*
D03*
X73280Y46140D02*
D03*
X62780Y56230D02*
D03*
X62900Y54170D02*
D03*
X53197Y57353D02*
D03*
X73250Y55750D02*
D03*
X72290Y56330D02*
D03*
X61054Y56554D02*
D03*
X65340Y56150D02*
D03*
X59489Y56639D02*
D03*
X74257Y49372D02*
D03*
X74260Y54820D02*
D03*
X66390Y55300D02*
D03*
X60220Y48430D02*
D03*
X57529Y55369D02*
D03*
X58240Y55430D02*
D03*
X53132Y58988D02*
D03*
X52013Y46117D02*
D03*
X53285Y50040D02*
D03*
X54010Y49110D02*
D03*
X53100Y48560D02*
D03*
X56892Y49629D02*
D03*
X58290Y46830D02*
D03*
X64600Y41480D02*
D03*
X61620Y42410D02*
D03*
X64370Y42570D02*
D03*
X77020Y45920D02*
D03*
X64340Y55530D02*
D03*
D56*
X71210Y49380D02*
D03*
X53550Y52890D02*
D03*
M02*
