G04*
G04 #@! TF.GenerationSoftware,Altium Limited,Altium Designer,21.3.2 (30)*
G04*
G04 Layer_Color=8388736*
%FSLAX24Y24*%
%MOIN*%
G70*
G04*
G04 #@! TF.SameCoordinates,BD5A3C24-ECAA-4070-AF75-8328BFFE722F*
G04*
G04*
G04 #@! TF.FilePolarity,Positive*
G04*
G01*
G75*
%ADD18C,0.0100*%
%ADD57C,0.0005*%
%ADD58C,0.0050*%
D18*
X51550Y59600D02*
G03*
X51050Y59100I0J-500D01*
G01*
Y39100D02*
G03*
X51550Y38600I500J0D01*
G01*
X76670D02*
G03*
X77050Y38980I0J380D01*
G01*
Y59100D02*
G03*
X76550Y59600I-500J0D01*
G01*
X51050Y39100D02*
Y39310D01*
X51550Y38600D02*
X52120D01*
X76670D01*
X51050Y39310D02*
Y59100D01*
X51550Y59600D02*
X76550D01*
X77050Y38980D02*
Y39600D01*
X78050Y40600D01*
Y53500D01*
X77050Y54500D02*
X78050Y53500D01*
X77050Y54500D02*
Y59100D01*
D57*
X77680Y52600D02*
G03*
X77680Y52600I-630J0D01*
G01*
X54586Y46860D02*
G03*
X54586Y46860I-140J0D01*
G01*
X55176Y43692D02*
G03*
X55176Y43692I-140J0D01*
G01*
X57180Y39600D02*
G03*
X57180Y39600I-630J0D01*
G01*
X57090Y46410D02*
G03*
X57090Y46410I-75J0D01*
G01*
X57952Y42164D02*
G03*
X57952Y42164I-140J0D01*
G01*
X62251Y39600D02*
G03*
X62251Y39600I-201J0D01*
G01*
X63251D02*
G03*
X63251Y39600I-201J0D01*
G01*
X65251D02*
G03*
X65251Y39600I-201J0D01*
G01*
X66251D02*
G03*
X66251Y39600I-201J0D01*
G01*
X67251D02*
G03*
X67251Y39600I-201J0D01*
G01*
X64251D02*
G03*
X64251Y39600I-201J0D01*
G01*
X58346Y40620D02*
G03*
X58346Y40620I-140J0D01*
G01*
X62251Y40680D02*
G03*
X62251Y40680I-201J0D01*
G01*
X66251D02*
G03*
X66251Y40680I-201J0D01*
G01*
X65251D02*
G03*
X65251Y40680I-201J0D01*
G01*
X64251D02*
G03*
X64251Y40680I-201J0D01*
G01*
X63251D02*
G03*
X63251Y40680I-201J0D01*
G01*
X60676Y40850D02*
G03*
X60676Y40850I-140J0D01*
G01*
X67190Y42305D02*
G03*
X67190Y42305I-140J0D01*
G01*
X63198Y42360D02*
G03*
X63198Y42360I-140J0D01*
G01*
X66190Y42370D02*
G03*
X66190Y42370I-140J0D01*
G01*
X61594Y42890D02*
G03*
X61594Y42890I-140J0D01*
G01*
X58714Y43320D02*
G03*
X58714Y43320I-140J0D01*
G01*
X64190Y43412D02*
G03*
X64190Y43412I-140J0D01*
G01*
X63650Y44040D02*
G03*
X63650Y44040I-140J0D01*
G01*
X65690Y44045D02*
G03*
X65690Y44045I-140J0D01*
G01*
X60692Y44460D02*
G03*
X60692Y44460I-75J0D01*
G01*
X63735Y44790D02*
G03*
X63735Y44790I-75J0D01*
G01*
X64816D02*
G03*
X64816Y44790I-75J0D01*
G01*
X63625Y45450D02*
G03*
X63625Y45450I-75J0D01*
G01*
X58212Y45930D02*
G03*
X58212Y45930I-75J0D01*
G01*
X64599Y47010D02*
G03*
X64599Y47010I-75J0D01*
G01*
X63143Y47230D02*
G03*
X63143Y47230I-75J0D01*
G01*
X64580Y47470D02*
G03*
X64580Y47470I-75J0D01*
G01*
X66936D02*
G03*
X66936Y47470I-50J0D01*
G01*
X62916Y48210D02*
G03*
X62916Y48210I-75J0D01*
G01*
X52218Y54990D02*
G03*
X52218Y54990I-75J0D01*
G01*
X52916Y55260D02*
G03*
X52916Y55260I-75J0D01*
G01*
X52990Y48526D02*
G03*
X52990Y48526I-75J0D01*
G01*
X53155Y51238D02*
G03*
X53155Y51238I-140J0D01*
G01*
X53739Y48850D02*
G03*
X53739Y48850I-140J0D01*
G01*
X55877Y48710D02*
G03*
X55877Y48710I-217J0D01*
G01*
X56877D02*
G03*
X56877Y48710I-217J0D01*
G01*
X57680Y58600D02*
G03*
X57680Y58600I-630J0D01*
G01*
X57193Y57224D02*
G03*
X57193Y57224I-50J0D01*
G01*
X57546Y50616D02*
G03*
X57546Y50616I-75J0D01*
G01*
X57877Y48710D02*
G03*
X57877Y48710I-217J0D01*
G01*
X58877D02*
G03*
X58877Y48710I-217J0D01*
G01*
X60948Y48790D02*
G03*
X60948Y48790I-75J0D01*
G01*
X66917Y49310D02*
G03*
X66917Y49310I-50J0D01*
G01*
X64344Y50019D02*
G03*
X64344Y50019I-75J0D01*
G01*
X63946Y50770D02*
G03*
X63946Y50770I-140J0D01*
G01*
X59761Y51950D02*
G03*
X59761Y51950I-50J0D01*
G01*
X66297Y52210D02*
G03*
X66297Y52210I-50J0D01*
G01*
X63103Y52260D02*
G03*
X63103Y52260I-75J0D01*
G01*
X66623Y52527D02*
G03*
X66623Y52527I-50J0D01*
G01*
X63984Y52878D02*
G03*
X63984Y52878I-140J0D01*
G01*
X62863Y54360D02*
G03*
X62863Y54360I-75J0D01*
G01*
X59820Y54830D02*
G03*
X59820Y54830I-50J0D01*
G01*
X58651Y57520D02*
G03*
X58651Y57520I-201J0D01*
G01*
X59651D02*
G03*
X59651Y57520I-201J0D01*
G01*
X60651D02*
G03*
X60651Y57520I-201J0D01*
G01*
X61651D02*
G03*
X61651Y57520I-201J0D01*
G01*
X62651D02*
G03*
X62651Y57520I-201J0D01*
G01*
X65651D02*
G03*
X65651Y57520I-201J0D01*
G01*
X64651D02*
G03*
X64651Y57520I-201J0D01*
G01*
X63651D02*
G03*
X63651Y57520I-201J0D01*
G01*
X66651D02*
G03*
X66651Y57520I-201J0D01*
G01*
X58651Y58600D02*
G03*
X58651Y58600I-201J0D01*
G01*
X59651D02*
G03*
X59651Y58600I-201J0D01*
G01*
X60651D02*
G03*
X60651Y58600I-201J0D01*
G01*
X61651D02*
G03*
X61651Y58600I-201J0D01*
G01*
X65651D02*
G03*
X65651Y58600I-201J0D01*
G01*
X62651D02*
G03*
X62651Y58600I-201J0D01*
G01*
X64651D02*
G03*
X64651Y58600I-201J0D01*
G01*
X66651D02*
G03*
X66651Y58600I-201J0D01*
G01*
X63651D02*
G03*
X63651Y58600I-201J0D01*
G01*
X67251Y40680D02*
G03*
X67251Y40680I-201J0D01*
G01*
X67714Y47010D02*
G03*
X67714Y47010I-50J0D01*
G01*
X68251Y39600D02*
G03*
X68251Y39600I-201J0D01*
G01*
Y40680D02*
G03*
X68251Y40680I-201J0D01*
G01*
X69251Y39600D02*
G03*
X69251Y39600I-201J0D01*
G01*
Y40680D02*
G03*
X69251Y40680I-201J0D01*
G01*
X71251Y39600D02*
G03*
X71251Y39600I-201J0D01*
G01*
Y40680D02*
G03*
X71251Y40680I-201J0D01*
G01*
X71223Y48213D02*
G03*
X71223Y48213I-140J0D01*
G01*
X72251Y40680D02*
G03*
X72251Y40680I-201J0D01*
G01*
Y39600D02*
G03*
X72251Y39600I-201J0D01*
G01*
X72956Y45850D02*
G03*
X72956Y45850I-75J0D01*
G01*
X73251Y39600D02*
G03*
X73251Y39600I-201J0D01*
G01*
Y40680D02*
G03*
X73251Y40680I-201J0D01*
G01*
X73320Y47510D02*
G03*
X73320Y47510I-75J0D01*
G01*
X74251Y40680D02*
G03*
X74251Y40680I-201J0D01*
G01*
Y39600D02*
G03*
X74251Y39600I-201J0D01*
G01*
X76251D02*
G03*
X76251Y39600I-201J0D01*
G01*
X75251D02*
G03*
X75251Y39600I-201J0D01*
G01*
Y40680D02*
G03*
X75251Y40680I-201J0D01*
G01*
X76251D02*
G03*
X76251Y40680I-201J0D01*
G01*
X77680Y41600D02*
G03*
X77680Y41600I-630J0D01*
G01*
X74487Y44288D02*
G03*
X74487Y44288I-217J0D01*
G01*
X76487D02*
G03*
X76487Y44288I-217J0D01*
G01*
X77487D02*
G03*
X77487Y44288I-217J0D01*
G01*
X75487D02*
G03*
X75487Y44288I-217J0D01*
G01*
X74487Y45371D02*
G03*
X74487Y45371I-217J0D01*
G01*
X75487D02*
G03*
X75487Y45371I-217J0D01*
G01*
X76487D02*
G03*
X76487Y45371I-217J0D01*
G01*
X77487D02*
G03*
X77487Y45371I-217J0D01*
G01*
X74487Y46453D02*
G03*
X74487Y46453I-217J0D01*
G01*
X75487D02*
G03*
X75487Y46453I-217J0D01*
G01*
X77487D02*
G03*
X77487Y46453I-217J0D01*
G01*
X76487D02*
G03*
X76487Y46453I-217J0D01*
G01*
X75622Y47720D02*
G03*
X75622Y47720I-75J0D01*
G01*
X76317Y48600D02*
G03*
X76317Y48600I-217J0D01*
G01*
X67651Y57520D02*
G03*
X67651Y57520I-201J0D01*
G01*
Y58600D02*
G03*
X67651Y58600I-201J0D01*
G01*
X67872Y48640D02*
G03*
X67872Y48640I-50J0D01*
G01*
X68187Y48890D02*
G03*
X68187Y48890I-50J0D01*
G01*
X68196Y49290D02*
G03*
X68196Y49290I-50J0D01*
G01*
X68502Y49610D02*
G03*
X68502Y49610I-50J0D01*
G01*
Y50230D02*
G03*
X68502Y50230I-50J0D01*
G01*
Y50530D02*
G03*
X68502Y50530I-50J0D01*
G01*
Y50860D02*
G03*
X68502Y50860I-50J0D01*
G01*
X69251Y58600D02*
G03*
X69251Y58600I-201J0D01*
G01*
Y57520D02*
G03*
X69251Y57520I-201J0D01*
G01*
X70251Y58600D02*
G03*
X70251Y58600I-201J0D01*
G01*
Y57520D02*
G03*
X70251Y57520I-201J0D01*
G01*
X71251Y58600D02*
G03*
X71251Y58600I-201J0D01*
G01*
Y57520D02*
G03*
X71251Y57520I-201J0D01*
G01*
X71220Y51350D02*
G03*
X71220Y51350I-140J0D01*
G01*
X77317Y48600D02*
G03*
X77317Y48600I-217J0D01*
G01*
Y49600D02*
G03*
X77317Y49600I-217J0D01*
G01*
X76317D02*
G03*
X76317Y49600I-217J0D01*
G01*
X77317Y50600D02*
G03*
X77317Y50600I-217J0D01*
G01*
X76317D02*
G03*
X76317Y50600I-217J0D01*
G01*
X74645Y50708D02*
G03*
X74645Y50708I-140J0D01*
G01*
X72251Y57520D02*
G03*
X72251Y57520I-201J0D01*
G01*
X73251D02*
G03*
X73251Y57520I-201J0D01*
G01*
X74251D02*
G03*
X74251Y57520I-201J0D01*
G01*
X75251D02*
G03*
X75251Y57520I-201J0D01*
G01*
X76251D02*
G03*
X76251Y57520I-201J0D01*
G01*
X72251Y58600D02*
G03*
X72251Y58600I-201J0D01*
G01*
X73251D02*
G03*
X73251Y58600I-201J0D01*
G01*
X74251D02*
G03*
X74251Y58600I-201J0D01*
G01*
X75251D02*
G03*
X75251Y58600I-201J0D01*
G01*
X76251D02*
G03*
X76251Y58600I-201J0D01*
G01*
D58*
X51050Y39100D02*
D03*
Y39310D02*
D03*
D03*
Y59100D02*
D03*
Y39100D02*
D03*
Y59100D02*
D03*
X51550Y38600D02*
D03*
Y59600D02*
D03*
Y38600D02*
D03*
Y59600D02*
D03*
X52120Y38600D02*
D03*
D03*
X76550Y59600D02*
D03*
D03*
X76670Y38600D02*
D03*
D03*
X77050Y54500D02*
D03*
Y59100D02*
D03*
Y54500D02*
D03*
Y39600D02*
D03*
Y38980D02*
D03*
Y39600D02*
D03*
Y59100D02*
D03*
Y38980D02*
D03*
X78050Y53500D02*
D03*
Y40600D02*
D03*
Y53500D02*
D03*
Y40600D02*
D03*
M02*
