G04*
G04 #@! TF.GenerationSoftware,Altium Limited,Altium Designer,21.3.2 (30)*
G04*
G04 Layer_Color=128*
%FSLAX24Y24*%
%MOIN*%
G70*
G04*
G04 #@! TF.SameCoordinates,59271FD7-B20C-4586-966E-2D71E4A343A8*
G04*
G04*
G04 #@! TF.FilePolarity,Positive*
G04*
G01*
G75*
%ADD61C,0.0020*%
D61*
X75637Y43550D02*
X75963D01*
X75800Y43387D02*
Y43713D01*
X74637Y43550D02*
X74963D01*
X74800Y43387D02*
Y43713D01*
X73637Y43550D02*
X73963D01*
X73800Y43387D02*
Y43713D01*
X72637Y43550D02*
X72963D01*
X72800Y43387D02*
Y43713D01*
X71637Y43550D02*
X71963D01*
X71800Y43387D02*
Y43713D01*
X70637Y43550D02*
X70963D01*
X70800Y43387D02*
Y43713D01*
X69637Y43550D02*
X69963D01*
X69800Y43387D02*
Y43713D01*
X68637Y43550D02*
X68963D01*
X68800Y43387D02*
Y43713D01*
X67637Y43550D02*
X67963D01*
X67800Y43387D02*
Y43713D01*
X66637Y43550D02*
X66963D01*
X66800Y43387D02*
Y43713D01*
X65637Y43550D02*
X65963D01*
X65800Y43387D02*
Y43713D01*
X64637Y43550D02*
X64963D01*
X64800Y43387D02*
Y43713D01*
X63637Y43550D02*
X63963D01*
X63800Y43387D02*
Y43713D01*
X62637Y43550D02*
X62963D01*
X62800Y43387D02*
Y43713D01*
X62637Y46650D02*
X62963D01*
X62800Y46487D02*
Y46813D01*
X63637Y46650D02*
X63963D01*
X63800Y46487D02*
Y46813D01*
X64637Y46650D02*
X64963D01*
X64800Y46487D02*
Y46813D01*
X65637Y46650D02*
X65963D01*
X65800Y46487D02*
Y46813D01*
X66637Y46650D02*
X66963D01*
X66800Y46487D02*
Y46813D01*
X67637Y46650D02*
X67963D01*
X67800Y46487D02*
Y46813D01*
X68637Y46650D02*
X68963D01*
X68800Y46487D02*
Y46813D01*
X69637Y46650D02*
X69963D01*
X69800Y46487D02*
Y46813D01*
X70637Y46650D02*
X70963D01*
X70800Y46487D02*
Y46813D01*
X71637Y46650D02*
X71963D01*
X71800Y46487D02*
Y46813D01*
X72637Y46650D02*
X72963D01*
X72800Y46487D02*
Y46813D01*
X73637Y46650D02*
X73963D01*
X73800Y46487D02*
Y46813D01*
X74637Y46650D02*
X74963D01*
X74800Y46487D02*
Y46813D01*
X75637Y46650D02*
X75963D01*
X75800Y46487D02*
Y46813D01*
X57403Y52600D02*
X57837D01*
X57620Y52383D02*
Y52817D01*
X56403Y52600D02*
X56837D01*
X56620Y52383D02*
Y52817D01*
X55403Y52600D02*
X55837D01*
X55620Y52383D02*
Y52817D01*
X54403Y52600D02*
X54837D01*
X54620Y52383D02*
Y52817D01*
X70849Y39600D02*
X71251D01*
X71050Y39399D02*
Y39801D01*
X71849Y39600D02*
X72251D01*
X72050Y39399D02*
Y39801D01*
X72849Y39600D02*
X73251D01*
X73050Y39399D02*
Y39801D01*
X73849Y39600D02*
X74251D01*
X74050Y39399D02*
Y39801D01*
X74849Y39600D02*
X75251D01*
X75050Y39399D02*
Y39801D01*
X75849Y39600D02*
X76251D01*
X76050Y39399D02*
Y39801D01*
X68849Y39600D02*
X69251D01*
X69050Y39399D02*
Y39801D01*
X67849Y39600D02*
X68251D01*
X68050Y39399D02*
Y39801D01*
X66849Y39600D02*
X67251D01*
X67050Y39399D02*
Y39801D01*
X65849Y39600D02*
X66251D01*
X66050Y39399D02*
Y39801D01*
X64849Y39600D02*
X65251D01*
X65050Y39399D02*
Y39801D01*
X63849Y39600D02*
X64251D01*
X64050Y39399D02*
Y39801D01*
X62849Y39600D02*
X63251D01*
X63050Y39399D02*
Y39801D01*
X61849Y39600D02*
X62251D01*
X62050Y39399D02*
Y39801D01*
X68849Y58600D02*
X69251D01*
X69050Y58399D02*
Y58801D01*
X69849Y58600D02*
X70251D01*
X70050Y58399D02*
Y58801D01*
X70849Y58600D02*
X71251D01*
X71050Y58399D02*
Y58801D01*
X71849Y58600D02*
X72251D01*
X72050Y58399D02*
Y58801D01*
X72849Y58600D02*
X73251D01*
X73050Y58399D02*
Y58801D01*
X73849Y58600D02*
X74251D01*
X74050Y58399D02*
Y58801D01*
X74849Y58600D02*
X75251D01*
X75050Y58399D02*
Y58801D01*
X75849Y58600D02*
X76251D01*
X76050Y58399D02*
Y58801D01*
X65249Y58600D02*
X65651D01*
X65450Y58399D02*
Y58801D01*
X58249Y58600D02*
X58651D01*
X58450Y58399D02*
Y58801D01*
X59249Y58600D02*
X59651D01*
X59450Y58399D02*
Y58801D01*
X60249Y58600D02*
X60651D01*
X60450Y58399D02*
Y58801D01*
X61249Y58600D02*
X61651D01*
X61450Y58399D02*
Y58801D01*
X62249Y58600D02*
X62651D01*
X62450Y58399D02*
Y58801D01*
X63249Y58600D02*
X63651D01*
X63450Y58399D02*
Y58801D01*
X64249Y58600D02*
X64651D01*
X64450Y58399D02*
Y58801D01*
X66249Y58600D02*
X66651D01*
X66450Y58399D02*
Y58801D01*
X67249Y58600D02*
X67651D01*
X67450Y58399D02*
Y58801D01*
X76883Y50600D02*
X77317D01*
X77100Y50383D02*
Y50817D01*
X76883Y49600D02*
X77317D01*
X77100Y49383D02*
Y49817D01*
X76883Y48600D02*
X77317D01*
X77100Y48383D02*
Y48817D01*
X75883Y50600D02*
X76317D01*
X76100Y50383D02*
Y50817D01*
X75883Y49600D02*
X76317D01*
X76100Y49383D02*
Y49817D01*
X75883Y48600D02*
X76317D01*
X76100Y48383D02*
Y48817D01*
X55495Y41870D02*
X56085D01*
X55790Y41575D02*
Y42165D01*
X52995Y41870D02*
X53585D01*
X53290Y41575D02*
Y42165D01*
X54495Y39870D02*
X55085D01*
X54790Y39575D02*
Y40165D01*
X76420Y52600D02*
X77680D01*
X77050Y51970D02*
Y53230D01*
X76420Y41600D02*
X77680D01*
X77050Y40970D02*
Y42230D01*
X55920Y39600D02*
X57180D01*
X56550Y38970D02*
Y40230D01*
X56420Y58600D02*
X57680D01*
X57050Y57970D02*
Y59230D01*
X55360Y57860D02*
X55640D01*
X55500Y57720D02*
Y58000D01*
X58050Y48600D02*
X58330D01*
X58190Y48460D02*
Y48740D01*
X62320Y51860D02*
X62600D01*
X62460Y51720D02*
Y52000D01*
X60150Y54680D02*
X60430D01*
X60290Y54540D02*
Y54820D01*
X55090Y43970D02*
X55370D01*
X55230Y43830D02*
Y44110D01*
X57760Y51710D02*
X58040D01*
X57900Y51570D02*
Y51850D01*
X58334Y52250D02*
X58614D01*
X58474Y52110D02*
Y52390D01*
X58190Y51150D02*
X58470D01*
X58330Y51010D02*
Y51290D01*
X60030Y51650D02*
X60310D01*
X60170Y51510D02*
Y51790D01*
X59840Y53650D02*
X60120D01*
X59980Y53510D02*
Y53790D01*
X74500Y45630D02*
X74780D01*
X74640Y45490D02*
Y45770D01*
X61997Y46047D02*
X62277D01*
X62137Y45907D02*
Y46187D01*
X66190Y45380D02*
X66470D01*
X66330Y45240D02*
Y45520D01*
X64340Y44930D02*
X64620D01*
X64480Y44790D02*
Y45070D01*
X65650Y44470D02*
X65930D01*
X65790Y44330D02*
Y44610D01*
X71135Y49380D02*
X71285D01*
X71210Y49305D02*
Y49455D01*
X72145Y46115D02*
X72425D01*
X72285Y45975D02*
Y46255D01*
X73140Y46140D02*
X73420D01*
X73280Y46000D02*
Y46280D01*
X62640Y56230D02*
X62920D01*
X62780Y56090D02*
Y56370D01*
X62760Y54170D02*
X63040D01*
X62900Y54030D02*
Y54310D01*
X53475Y52890D02*
X53625D01*
X53550Y52815D02*
Y52965D01*
X53057Y57353D02*
X53337D01*
X53197Y57213D02*
Y57493D01*
X73110Y55750D02*
X73390D01*
X73250Y55610D02*
Y55890D01*
X72150Y56330D02*
X72430D01*
X72290Y56190D02*
Y56470D01*
X60914Y56554D02*
X61194D01*
X61054Y56414D02*
Y56694D01*
X65200Y56150D02*
X65480D01*
X65340Y56010D02*
Y56290D01*
X59349Y56639D02*
X59629D01*
X59489Y56499D02*
Y56779D01*
X74117Y49372D02*
X74397D01*
X74257Y49232D02*
Y49511D01*
X74120Y54820D02*
X74400D01*
X74260Y54680D02*
Y54960D01*
X66250Y55300D02*
X66530D01*
X66390Y55160D02*
Y55440D01*
X60080Y48430D02*
X60360D01*
X60220Y48290D02*
Y48570D01*
X57389Y55369D02*
X57669D01*
X57529Y55229D02*
Y55509D01*
X58100Y55430D02*
X58380D01*
X58240Y55290D02*
Y55570D01*
X52992Y58988D02*
X53272D01*
X53132Y58848D02*
Y59128D01*
X51873Y46117D02*
X52153D01*
X52013Y45977D02*
Y46257D01*
X53145Y50040D02*
X53425D01*
X53285Y49900D02*
Y50180D01*
X53870Y49110D02*
X54150D01*
X54010Y48970D02*
Y49250D01*
X52960Y48560D02*
X53240D01*
X53100Y48420D02*
Y48700D01*
X56752Y49629D02*
X57032D01*
X56892Y49489D02*
Y49769D01*
X58150Y46830D02*
X58430D01*
X58290Y46690D02*
Y46970D01*
X64460Y41480D02*
X64740D01*
X64600Y41340D02*
Y41620D01*
X61480Y42410D02*
X61760D01*
X61620Y42270D02*
Y42550D01*
X64230Y42570D02*
X64510D01*
X64370Y42430D02*
Y42710D01*
X76880Y45920D02*
X77160D01*
X77020Y45780D02*
Y46060D01*
X64200Y55530D02*
X64480D01*
X64340Y55390D02*
Y55670D01*
M02*
